solid Werkbank fan 01
facet normal 0.9898347363773388 -0.1422223423404516 -7.061266001111387e-17
  outer loop
    vertex 48.27345616914648 184.07211613649653 22.000000000000046
    vertex 48.24004143571671 183.83955729017686 24.00000000000004
    vertex 48.24004143571671 183.83955729017686 22.000000000000046
  endloop
endfacet
facet normal 0.9898347363773388 -0.1422223423404516 -7.061266001111387e-17
  outer loop
    vertex 48.24004143571671 183.83955729017686 24.00000000000004
    vertex 48.27345616914648 184.07211613649653 22.000000000000046
    vertex 48.27345616914648 184.07211613649653 24.00000000000004
  endloop
endfacet
facet normal -0.8004852370515626 -0.5993524716412738 1.1661729452054484e-16
  outer loop
    vertex 49.78384391018658 184.45776996017233 24.00000000000004
    vertex 49.924660062844396 184.26969823831504 22.000000000000046
    vertex 49.924660062844396 184.26969823831504 24.00000000000004
  endloop
endfacet
facet normal -0.8004852370515626 -0.5993524716412738 1.1661729452054484e-16
  outer loop
    vertex 49.924660062844396 184.26969823831504 22.000000000000046
    vertex 49.78384391018658 184.45776996017233 24.00000000000004
    vertex 49.78384391018658 184.45776996017233 22.000000000000046
  endloop
endfacet
facet normal 0.14222234234040118 0.989834736377346 -9.430909950709398e-17
  outer loop
    vertex 48.89679423652595 182.96240912392264 24.000000000000053
    vertex 49.129353082845604 182.9289943904929 22.000000000000046
    vertex 48.89679423652595 182.96240912392264 22.000000000000046
  endloop
endfacet
facet normal 0.14222234234040118 0.989834736377346 -9.430909950709398e-17
  outer loop
    vertex 49.129353082845604 182.9289943904929 22.000000000000046
    vertex 48.89679423652595 182.96240912392264 24.000000000000053
    vertex 49.129353082845604 182.9289943904929 24.000000000000053
  endloop
endfacet
facet normal -0.11881184773650968 0.9929167864617038 -7.281969363174678e-17
  outer loop
    vertex 49.129353082845604 182.9289943904929 24.000000000000053
    vertex 49.36263604803638 182.9569088950291 22.000000000000046
    vertex 49.129353082845604 182.9289943904929 22.000000000000046
  endloop
endfacet
facet normal -0.11881184773650968 0.9929167864617038 -7.281969363174678e-17
  outer loop
    vertex 49.36263604803638 182.9569088950291 22.000000000000046
    vertex 49.129353082845604 182.9289943904929 24.000000000000053
    vertex 49.3626360480364 182.9569088950291 24.000000000000053
  endloop
endfacet
facet normal 0.8004852370515626 0.5993524716412738 -1.1661729452054484e-16
  outer loop
    vertex 48.35529735540189 183.38816508948355 22.000000000000046
    vertex 48.49611350805972 183.20009336762632 24.00000000000004
    vertex 48.49611350805972 183.20009336762632 22.000000000000046
  endloop
endfacet
facet normal 0.8004852370515626 0.5993524716412738 -1.1661729452054484e-16
  outer loop
    vertex 48.49611350805972 183.20009336762632 24.00000000000004
    vertex 48.35529735540189 183.38816508948355 22.000000000000046
    vertex 48.35529735540189 183.38816508948355 24.00000000000004
  endloop
endfacet
facet normal 0.3935643148204358 0.9192970847881118 -1.093714961041957e-16
  outer loop
    vertex 48.68080801013246 183.05487593645563 24.00000000000004
    vertex 48.89679423652595 182.96240912392264 22.000000000000046
    vertex 48.68080801013246 183.05487593645563 22.000000000000046
  endloop
endfacet
facet normal 0.3935643148204358 0.9192970847881118 -1.093714961041957e-16
  outer loop
    vertex 48.89679423652595 182.96240912392264 22.000000000000046
    vertex 48.68080801013246 183.05487593645563 24.00000000000004
    vertex 48.89679423652595 182.96240912392264 24.000000000000053
  endloop
endfacet
facet normal 0.9929167864616983 0.11881184773655418 -9.261558304661222e-17
  outer loop
    vertex 48.24004143571671 183.83955729017686 22.000000000000046
    vertex 48.267955940252925 183.60627432498606 24.00000000000004
    vertex 48.267955940252925 183.60627432498606 22.000000000000046
  endloop
endfacet
facet normal 0.9929167864616983 0.11881184773655418 -9.261558304661222e-17
  outer loop
    vertex 48.267955940252925 183.60627432498606 24.00000000000004
    vertex 48.24004143571671 183.83955729017686 22.000000000000046
    vertex 48.24004143571671 183.83955729017686 24.00000000000004
  endloop
endfacet
facet normal -0.9192970847881168 0.39356431482042425 4.379760088880228e-17
  outer loop
    vertex 50.006501249099806 183.58574719130212 24.000000000000053
    vertex 49.91403443656685 183.36976096490864 22.000000000000046
    vertex 49.91403443656685 183.36976096490864 24.000000000000053
  endloop
endfacet
facet normal -0.9192970847881168 0.39356431482042425 4.379760088880228e-17
  outer loop
    vertex 49.91403443656685 183.36976096490864 22.000000000000046
    vertex 50.006501249099806 183.58574719130212 24.000000000000053
    vertex 50.006501249099806 183.58574719130212 22.000000000000046
  endloop
endfacet
facet normal 0.7861108560808494 -0.6180855296411931 -1.399780764487446e-17
  outer loop
    vertex 48.511140412850125 184.47279686496276 22.000000000000046
    vertex 48.36592298167944 184.28810236289 24.00000000000004
    vertex 48.36592298167944 184.28810236289 22.000000000000046
  endloop
endfacet
facet normal 0.7861108560808494 -0.6180855296411931 -1.399780764487446e-17
  outer loop
    vertex 48.36592298167944 184.28810236289 24.00000000000004
    vertex 48.511140412850125 184.47279686496276 22.000000000000046
    vertex 48.511140412850125 184.47279686496276 24.00000000000004
  endloop
endfacet
facet normal -0.14222234234040046 -0.9898347363773461 9.430909950709397e-17
  outer loop
    vertex 31.183163181720214 184.69545420387604 24.00000000000002
    vertex 30.95060433540057 184.72886893730575 22.00000000000001
    vertex 31.183163181720214 184.695454203876 22.00000000000001
  endloop
endfacet
facet normal -0.14222234234040046 -0.9898347363773461 9.430909950709397e-17
  outer loop
    vertex 30.95060433540057 184.72886893730575 22.00000000000001
    vertex 31.183163181720214 184.69545420387604 24.00000000000002
    vertex 30.95060433540057 184.72886893730578 24.00000000000002
  endloop
endfacet
facet normal -0.9898347363773389 0.1422223423404509 7.061266001111386e-17
  outer loop
    vertex 31.839915982529458 183.8183060376218 24.00000000000001
    vertex 31.8065012490997 183.58574719130212 22.00000000000001
    vertex 31.8065012490997 183.58574719130212 24.00000000000001
  endloop
endfacet
facet normal -0.9898347363773389 0.1422223423404509 7.061266001111386e-17
  outer loop
    vertex 31.8065012490997 183.58574719130212 22.00000000000001
    vertex 31.839915982529458 183.8183060376218 24.00000000000001
    vertex 31.839915982529458 183.8183060376218 22.00000000000001
  endloop
endfacet
facet normal -0.9929167864616982 -0.11881184773655488 9.261558304661223e-17
  outer loop
    vertex 31.812001477993242 184.0515890028126 24.00000000000001
    vertex 31.839915982529458 183.8183060376218 22.00000000000001
    vertex 31.839915982529458 183.8183060376218 24.00000000000001
  endloop
endfacet
facet normal -0.9929167864616982 -0.11881184773655488 9.261558304661223e-17
  outer loop
    vertex 31.839915982529458 183.8183060376218 22.00000000000001
    vertex 31.812001477993242 184.0515890028126 24.00000000000001
    vertex 31.812001477993242 184.0515890028126 22.00000000000001
  endloop
endfacet
facet normal -0.991444862427348 0.13052618421764034 7.172117627033422e-17
  outer loop
    vertex 28.14442373789015 185.3818458841375 24.000000000000014
    vertex 27.939978709123018 183.82893161919583 22.00000000000001
    vertex 27.939978709123018 183.82893161919583 24.000000000000014
  endloop
endfacet
facet normal -0.991444862427348 0.13052618421764034 7.172117627033422e-17
  outer loop
    vertex 27.939978709123018 183.82893161919583 22.00000000000001
    vertex 28.14442373789015 185.3818458841375 24.000000000000014
    vertex 28.14442373789015 185.3818458841375 22.00000000000001
  endloop
endfacet
facet normal -0.1305261916044837 -0.9914448614548517 9.346885565779305e-17
  outer loop
    vertex 33.939978709123004 177.8289316638993 22.000000000000025
    vertex 32.387064445704596 178.03337670423656 24.000000000000007
    vertex 32.387064445704596 178.03337670423656 22.000000000000014
  endloop
endfacet
facet normal -0.1305261916044837 -0.9914448614548517 9.346885565779305e-17
  outer loop
    vertex 32.387064445704596 178.03337670423656 24.000000000000007
    vertex 33.939978709123004 177.8289316638993 22.000000000000025
    vertex 33.939978709123004 177.8289316638993 24.000000000000007
  endloop
endfacet
facet normal -0.3826834306442292 -0.9238795332240907 1.088467877532378e-16
  outer loop
    vertex 32.387064445704596 178.03337670423656 24.000000000000007
    vertex 30.9399787220278 178.63277923374213 22.000000000000018
    vertex 32.387064445704596 178.03337670423656 22.000000000000014
  endloop
endfacet
facet normal -0.3826834306442292 -0.9238795332240907 1.088467877532378e-16
  outer loop
    vertex 30.9399787220278 178.63277923374213 22.000000000000018
    vertex 32.387064445704596 178.03337670423656 24.000000000000007
    vertex 30.9399787220278 178.63277923374213 24.00000000000001
  endloop
endfacet
facet normal -0.7933533467167047 0.6087614206348856 1.537793336778997e-17
  outer loop
    vertex 29.697337974588535 188.0715723036034 24.00000000000001
    vertex 28.743826256614064 186.8289316122802 22.00000000000001
    vertex 28.743826256614064 186.8289316122802 24.00000000000001
  endloop
endfacet
facet normal -0.7933533467167047 0.6087614206348856 1.537793336778997e-17
  outer loop
    vertex 28.743826256614064 186.8289316122802 22.00000000000001
    vertex 29.697337974588535 188.0715723036034 24.00000000000001
    vertex 29.697337974588535 188.0715723036034 22.00000000000001
  endloop
endfacet
facet normal -0.1305261989913235 0.9914448604823557 -7.204295747624484e-17
  outer loop
    vertex 32.3870643593441 189.62448660042187 24.000000000000014
    vertex 33.93997870912303 189.82893166389934 22.00000000000001
    vertex 32.3870643593441 189.62448660042187 22.00000000000001
  endloop
endfacet
facet normal -0.1305261989913235 0.9914448604823557 -7.204295747624484e-17
  outer loop
    vertex 33.93997870912303 189.82893166389934 22.00000000000001
    vertex 32.3870643593441 189.62448660042187 24.000000000000014
    vertex 33.93997870912303 189.82893166389934 24.00000000000002
  endloop
endfacet
facet normal -0.7933533376454537 -0.6087614324567704 1.1680699132566088e-16
  outer loop
    vertex 28.743826301317558 180.82893163808976 24.000000000000004
    vertex 29.697338037808798 179.58629096097502 22.000000000000018
    vertex 29.697338037808798 179.58629096097502 24.000000000000004
  endloop
endfacet
facet normal -0.7933533376454537 -0.6087614324567704 1.1680699132566088e-16
  outer loop
    vertex 29.697338037808798 179.58629096097502 22.000000000000018
    vertex 28.743826301317558 180.82893163808976 24.000000000000004
    vertex 28.743826301317558 180.82893163808976 22.000000000000018
  endloop
endfacet
facet normal -0.6180855296412312 -0.7861108560808193 1.16980405986738e-16
  outer loop
    vertex 49.78384391018658 184.45776996017233 24.00000000000004
    vertex 49.59914940811385 184.60298739134302 22.000000000000046
    vertex 49.78384391018658 184.45776996017233 22.000000000000046
  endloop
endfacet
facet normal -0.6180855296412312 -0.7861108560808193 1.16980405986738e-16
  outer loop
    vertex 49.59914940811385 184.60298739134302 22.000000000000046
    vertex 49.78384391018658 184.45776996017233 24.00000000000004
    vertex 49.59914940811385 184.60298739134302 24.00000000000004
  endloop
endfacet
facet normal -0.9283331984212668 -0.3717492067361288 1.0830690715196787e-16
  outer loop
    vertex 49.924660062844396 184.26969823831504 24.00000000000004
    vertex 50.01200147799336 184.05158900281253 22.000000000000046
    vertex 50.01200147799336 184.05158900281253 24.000000000000053
  endloop
endfacet
facet normal -0.9283331984212668 -0.3717492067361288 1.0830690715196787e-16
  outer loop
    vertex 50.01200147799336 184.05158900281253 22.000000000000046
    vertex 49.924660062844396 184.26969823831504 24.00000000000004
    vertex 49.924660062844396 184.26969823831504 22.000000000000046
  endloop
endfacet
facet normal -0.3717492067361288 0.9283331984212668 -4.6367745975621976e-17
  outer loop
    vertex 49.3626360480364 182.9569088950291 24.000000000000053
    vertex 49.580745283538874 183.04425031017809 22.000000000000046
    vertex 49.36263604803638 182.9569088950291 22.000000000000046
  endloop
endfacet
facet normal -0.3717492067361288 0.9283331984212668 -4.6367745975621976e-17
  outer loop
    vertex 49.580745283538874 183.04425031017809 22.000000000000046
    vertex 49.3626360480364 182.9569088950291 24.000000000000053
    vertex 49.5807452835389 183.04425031017809 24.000000000000053
  endloop
endfacet
facet normal -0.5993524716412623 0.8004852370515712 -1.6755913057584597e-17
  outer loop
    vertex 49.5807452835389 183.04425031017809 24.000000000000053
    vertex 49.76881700539616 183.1850664628359 22.000000000000046
    vertex 49.580745283538874 183.04425031017809 22.000000000000046
  endloop
endfacet
facet normal -0.5993524716412623 0.8004852370515712 -1.6755913057584597e-17
  outer loop
    vertex 49.76881700539616 183.1850664628359 22.000000000000046
    vertex 49.5807452835389 183.04425031017809 24.000000000000053
    vertex 49.76881700539616 183.1850664628359 24.000000000000053
  endloop
endfacet
facet normal -0.7861108560808494 0.6180855296411931 1.399780764487446e-17
  outer loop
    vertex 49.91403443656685 183.36976096490864 24.000000000000053
    vertex 49.76881700539616 183.1850664628359 22.000000000000046
    vertex 49.76881700539616 183.1850664628359 24.000000000000053
  endloop
endfacet
facet normal -0.7861108560808494 0.6180855296411931 1.399780764487446e-17
  outer loop
    vertex 49.76881700539616 183.1850664628359 22.000000000000046
    vertex 49.91403443656685 183.36976096490864 24.000000000000053
    vertex 49.91403443656685 183.36976096490864 22.000000000000046
  endloop
endfacet
facet normal 0.0 1.0 0.0
  outer loop
    vertex 33.93997870912303 189.82893166389934 24.00000000000002
    vertex 46.139978709123156 189.82893166389934 22.00000000000001
    vertex 33.93997870912303 189.82893166389934 22.00000000000001
  endloop
endfacet
facet normal 0.0 1.0 0.0
  outer loop
    vertex 46.139978709123156 189.82893166389934 22.00000000000001
    vertex 33.93997870912303 189.82893166389934 24.00000000000002
    vertex 46.139978709123156 189.82893166389934 24.00000000000002
  endloop
endfacet
facet normal -0.6087614383677147 0.7933533331098264 -1.5377930756950218e-17
  outer loop
    vertex 29.697337974588535 188.0715723036034 24.00000000000001
    vertex 30.9399786445991 189.02508404935307 22.00000000000001
    vertex 29.697337974588535 188.0715723036034 22.00000000000001
  endloop
endfacet
facet normal -0.6087614383677147 0.7933533331098264 -1.5377930756950218e-17
  outer loop
    vertex 30.9399786445991 189.02508404935307 22.00000000000001
    vertex 29.697337974588535 188.0715723036034 24.00000000000001
    vertex 30.9399786445991 189.02508404935307 24.00000000000001
  endloop
endfacet
facet normal -0.6087614265458295 -0.7933533421810781 1.1680699121108635e-16
  outer loop
    vertex 30.9399787220278 178.63277923374213 24.00000000000001
    vertex 29.697338037808798 179.58629096097502 22.000000000000018
    vertex 30.9399787220278 178.63277923374213 22.000000000000018
  endloop
endfacet
facet normal -0.6087614265458295 -0.7933533421810781 1.1680699121108635e-16
  outer loop
    vertex 29.697338037808798 179.58629096097502 22.000000000000018
    vertex 30.9399787220278 178.63277923374213 24.00000000000001
    vertex 29.697338037808798 179.58629096097502 24.000000000000004
  endloop
endfacet
facet normal 0.0 -1.0 0.0
  outer loop
    vertex 46.139978709123135 177.8289316638993 24.000000000000007
    vertex 33.939978709123004 177.8289316638993 22.000000000000025
    vertex 46.139978709123135 177.8289316638993 22.000000000000025
  endloop
endfacet
facet normal 0.0 -1.0 0.0
  outer loop
    vertex 33.939978709123004 177.8289316638993 22.000000000000025
    vertex 46.139978709123135 177.8289316638993 24.000000000000007
    vertex 33.939978709123004 177.8289316638993 24.000000000000007
  endloop
endfacet
facet normal -0.3826834444111069 0.9238795275216631 -4.5085814323721525e-17
  outer loop
    vertex 30.9399786445991 189.02508404935307 24.00000000000001
    vertex 32.3870643593441 189.62448660042187 22.00000000000001
    vertex 30.9399786445991 189.02508404935307 22.00000000000001
  endloop
endfacet
facet normal -0.3826834444111069 0.9238795275216631 -4.5085814323721525e-17
  outer loop
    vertex 32.3870643593441 189.62448660042187 22.00000000000001
    vertex 30.9399786445991 189.02508404935307 24.00000000000001
    vertex 32.3870643593441 189.62448660042187 24.000000000000014
  endloop
endfacet
facet normal -0.9238795303728761 -0.38268343752767003 1.0884678808915339e-16
  outer loop
    vertex 28.144423761030378 182.2760173573007 24.000000000000014
    vertex 28.743826301317558 180.82893163808976 22.000000000000018
    vertex 28.743826301317558 180.82893163808976 24.000000000000004
  endloop
endfacet
facet normal -0.9238795303728761 -0.38268343752767003 1.0884678808915339e-16
  outer loop
    vertex 28.743826301317558 180.82893163808976 22.000000000000018
    vertex 28.144423761030378 182.2760173573007 24.000000000000014
    vertex 28.144423761030378 182.2760173573007 22.000000000000014
  endloop
endfacet
facet normal -0.3935643148204358 -0.9192970847881118 1.093714961041957e-16
  outer loop
    vertex 49.59914940811385 184.60298739134302 24.00000000000004
    vertex 49.383163181720334 184.695454203876 22.000000000000046
    vertex 49.59914940811385 184.60298739134302 22.000000000000046
  endloop
endfacet
facet normal -0.3935643148204358 -0.9192970847881118 1.093714961041957e-16
  outer loop
    vertex 49.383163181720334 184.695454203876 22.000000000000046
    vertex 49.59914940811385 184.60298739134302 24.00000000000004
    vertex 49.383163181720334 184.695454203876 24.00000000000004
  endloop
endfacet
facet normal 0.11881184773651039 -0.9929167864617037 7.281969363174679e-17
  outer loop
    vertex 30.95060433540057 184.72886893730578 24.00000000000002
    vertex 30.717321370209778 184.70095443276955 22.00000000000001
    vertex 30.95060433540057 184.72886893730575 22.00000000000001
  endloop
endfacet
facet normal 0.11881184773651039 -0.9929167864617037 7.281969363174679e-17
  outer loop
    vertex 30.717321370209778 184.70095443276955 22.00000000000001
    vertex 30.95060433540057 184.72886893730578 24.00000000000002
    vertex 30.717321370209778 184.70095443276955 24.00000000000002
  endloop
endfacet
facet normal 0.5993524716412628 -0.8004852370515707 1.6755913057584584e-17
  outer loop
    vertex 30.499212134707275 184.61361301762057 24.00000000000002
    vertex 30.31114041285001 184.47279686496276 22.00000000000001
    vertex 30.499212134707275 184.61361301762057 22.00000000000001
  endloop
endfacet
facet normal 0.5993524716412628 -0.8004852370515707 1.6755913057584584e-17
  outer loop
    vertex 30.31114041285001 184.47279686496276 22.00000000000001
    vertex 30.499212134707275 184.61361301762057 24.00000000000002
    vertex 30.31114041285001 184.4727968649628 24.00000000000002
  endloop
endfacet
facet normal 0.3717492067361295 -0.9283331984212666 4.6367745975622e-17
  outer loop
    vertex 30.717321370209778 184.70095443276955 24.00000000000002
    vertex 30.499212134707275 184.61361301762057 22.00000000000001
    vertex 30.717321370209778 184.70095443276955 22.00000000000001
  endloop
endfacet
facet normal 0.3717492067361295 -0.9283331984212666 4.6367745975622e-17
  outer loop
    vertex 30.499212134707275 184.61361301762057 22.00000000000001
    vertex 30.717321370209778 184.70095443276955 24.00000000000002
    vertex 30.499212134707275 184.61361301762057 24.00000000000002
  endloop
endfacet
facet normal 0.9283331984212666 0.3717492067361295 -1.0830690715196782e-16
  outer loop
    vertex 30.067955940252816 183.6062743249861 22.00000000000001
    vertex 30.155297355401782 183.3881650894836 24.00000000000001
    vertex 30.155297355401782 183.3881650894836 22.00000000000001
  endloop
endfacet
facet normal 0.9283331984212666 0.3717492067361295 -1.0830690715196782e-16
  outer loop
    vertex 30.155297355401782 183.3881650894836 24.00000000000001
    vertex 30.067955940252816 183.6062743249861 22.00000000000001
    vertex 30.067955940252816 183.6062743249861 24.00000000000002
  endloop
endfacet
facet normal 0.6180855296412306 0.7861108560808198 -1.169804059867379e-16
  outer loop
    vertex 30.2961135080596 183.20009336762632 24.00000000000001
    vertex 30.480808010132336 183.05487593645563 22.00000000000001
    vertex 30.2961135080596 183.20009336762632 22.00000000000001
  endloop
endfacet
facet normal 0.6180855296412306 0.7861108560808198 -1.169804059867379e-16
  outer loop
    vertex 30.480808010132336 183.05487593645563 22.00000000000001
    vertex 30.2961135080596 183.20009336762632 24.00000000000001
    vertex 30.480808010132336 183.05487593645563 24.00000000000001
  endloop
endfacet
facet normal -0.14222234234040118 -0.989834736377346 9.430909950709398e-17
  outer loop
    vertex 49.383163181720334 184.695454203876 24.00000000000004
    vertex 49.1506043354007 184.72886893730575 22.000000000000046
    vertex 49.383163181720334 184.695454203876 22.000000000000046
  endloop
endfacet
facet normal -0.14222234234040118 -0.989834736377346 9.430909950709398e-17
  outer loop
    vertex 49.1506043354007 184.72886893730575 22.000000000000046
    vertex 49.383163181720334 184.695454203876 24.00000000000004
    vertex 49.1506043354007 184.72886893730575 24.00000000000004
  endloop
endfacet
facet normal -0.9898347363773388 0.1422223423404516 7.061266001111387e-17
  outer loop
    vertex 50.0399159825296 183.81830603762174 24.000000000000053
    vertex 50.006501249099806 183.58574719130212 22.000000000000046
    vertex 50.006501249099806 183.58574719130212 24.000000000000053
  endloop
endfacet
facet normal -0.9898347363773388 0.1422223423404516 7.061266001111387e-17
  outer loop
    vertex 50.006501249099806 183.58574719130212 22.000000000000046
    vertex 50.0399159825296 183.81830603762174 24.000000000000053
    vertex 50.0399159825296 183.81830603762174 22.000000000000046
  endloop
endfacet
facet normal -0.9929167864616983 -0.11881184773655418 9.261558304661222e-17
  outer loop
    vertex 50.01200147799336 184.05158900281253 24.000000000000053
    vertex 50.0399159825296 183.81830603762174 22.000000000000046
    vertex 50.0399159825296 183.81830603762174 24.000000000000053
  endloop
endfacet
facet normal -0.9929167864616983 -0.11881184773655418 9.261558304661222e-17
  outer loop
    vertex 50.0399159825296 183.81830603762174 22.000000000000046
    vertex 50.01200147799336 184.05158900281253 24.000000000000053
    vertex 50.01200147799336 184.05158900281253 22.000000000000046
  endloop
endfacet
facet normal 0.3717492067361288 -0.9283331984212668 4.6367745975621976e-17
  outer loop
    vertex 48.91732137020991 184.70095443276955 24.00000000000004
    vertex 48.69921213470741 184.61361301762057 22.000000000000046
    vertex 48.91732137020991 184.70095443276955 22.000000000000046
  endloop
endfacet
facet normal 0.3717492067361288 -0.9283331984212668 4.6367745975621976e-17
  outer loop
    vertex 48.69921213470741 184.61361301762057 22.000000000000046
    vertex 48.91732137020991 184.70095443276955 24.00000000000004
    vertex 48.69921213470741 184.61361301762057 24.00000000000004
  endloop
endfacet
facet normal 0.5993524716412623 -0.8004852370515712 1.6755913057584597e-17
  outer loop
    vertex 48.69921213470741 184.61361301762057 24.00000000000004
    vertex 48.511140412850125 184.47279686496276 22.000000000000046
    vertex 48.69921213470741 184.61361301762057 22.000000000000046
  endloop
endfacet
facet normal 0.5993524716412623 -0.8004852370515712 1.6755913057584597e-17
  outer loop
    vertex 48.511140412850125 184.47279686496276 22.000000000000046
    vertex 48.69921213470741 184.61361301762057 24.00000000000004
    vertex 48.511140412850125 184.47279686496276 24.00000000000004
  endloop
endfacet
facet normal 0.9192970847881168 -0.39356431482042425 -4.379760088880228e-17
  outer loop
    vertex 48.36592298167944 184.28810236289 22.000000000000046
    vertex 48.27345616914648 184.07211613649653 24.00000000000004
    vertex 48.27345616914648 184.07211613649653 22.000000000000046
  endloop
endfacet
facet normal 0.9192970847881168 -0.39356431482042425 -4.379760088880228e-17
  outer loop
    vertex 48.27345616914648 184.07211613649653 24.00000000000004
    vertex 48.36592298167944 184.28810236289 22.000000000000046
    vertex 48.36592298167944 184.28810236289 24.00000000000004
  endloop
endfacet
facet normal 0.9283331984212668 0.3717492067361288 -1.0830690715196787e-16
  outer loop
    vertex 48.267955940252925 183.60627432498606 22.000000000000046
    vertex 48.35529735540189 183.38816508948355 24.00000000000004
    vertex 48.35529735540189 183.38816508948355 22.000000000000046
  endloop
endfacet
facet normal 0.9283331984212668 0.3717492067361288 -1.0830690715196787e-16
  outer loop
    vertex 48.35529735540189 183.38816508948355 24.00000000000004
    vertex 48.267955940252925 183.60627432498606 22.000000000000046
    vertex 48.267955940252925 183.60627432498606 24.00000000000004
  endloop
endfacet
facet normal 0.6180855296412312 0.7861108560808193 -1.16980405986738e-16
  outer loop
    vertex 48.49611350805972 183.20009336762632 24.00000000000004
    vertex 48.68080801013246 183.05487593645563 22.000000000000046
    vertex 48.49611350805972 183.20009336762632 22.000000000000046
  endloop
endfacet
facet normal 0.6180855296412312 0.7861108560808193 -1.16980405986738e-16
  outer loop
    vertex 48.68080801013246 183.05487593645563 22.000000000000046
    vertex 48.49611350805972 183.20009336762632 24.00000000000004
    vertex 48.68080801013246 183.05487593645563 24.00000000000004
  endloop
endfacet
facet normal 0.9238795360753026 -0.3826834237607942 -4.5085816756636374e-17
  outer loop
    vertex 51.935533680356 182.27601744366115 22.000000000000046
    vertex 51.33613116163209 180.82893171551845 24.00000000000004
    vertex 51.33613116163211 180.82893171551845 22.000000000000046
  endloop
endfacet
facet normal 0.9238795360753026 -0.3826834237607942 -4.5085816756636374e-17
  outer loop
    vertex 51.33613116163209 180.82893171551845 24.00000000000004
    vertex 51.935533680356 182.27601744366115 22.000000000000046
    vertex 51.935533680356 182.27601744366115 24.000000000000046
  endloop
endfacet
facet normal 0.991444860482356 0.13052619899131931 -9.346885619215707e-17
  outer loop
    vertex 51.93553365721581 185.381845970498 22.000000000000046
    vertex 52.13997870912315 183.8289317086028 24.000000000000046
    vertex 52.13997870912315 183.8289317086028 22.000000000000046
  endloop
endfacet
facet normal 0.991444860482356 0.13052619899131931 -9.346885619215707e-17
  outer loop
    vertex 52.13997870912315 183.8289317086028 24.000000000000046
    vertex 51.93553365721581 185.381845970498 22.000000000000046
    vertex 51.93553365721581 185.381845970498 24.000000000000046
  endloop
endfacet
facet normal 0.11881184773650968 -0.9929167864617038 7.281969363174678e-17
  outer loop
    vertex 49.1506043354007 184.72886893730575 24.00000000000004
    vertex 48.91732137020991 184.70095443276955 22.000000000000046
    vertex 49.1506043354007 184.72886893730575 22.000000000000046
  endloop
endfacet
facet normal 0.11881184773650968 -0.9929167864617038 7.281969363174678e-17
  outer loop
    vertex 48.91732137020991 184.70095443276955 22.000000000000046
    vertex 49.1506043354007 184.72886893730575 24.00000000000004
    vertex 48.91732137020991 184.70095443276955 24.00000000000004
  endloop
endfacet
facet normal -0.9192970847881171 0.3935643148204236 4.37976008888023e-17
  outer loop
    vertex 31.8065012490997 183.58574719130212 24.00000000000001
    vertex 31.71403443656673 183.36976096490864 22.00000000000001
    vertex 31.71403443656673 183.36976096490864 24.00000000000001
  endloop
endfacet
facet normal -0.9192970847881171 0.3935643148204236 4.37976008888023e-17
  outer loop
    vertex 31.71403443656673 183.36976096490864 22.00000000000001
    vertex 31.8065012490997 183.58574719130212 24.00000000000001
    vertex 31.8065012490997 183.58574719130212 22.00000000000001
  endloop
endfacet
facet normal -0.11881184773651039 0.9929167864617037 -7.281969363174679e-17
  outer loop
    vertex 30.929353082845488 182.9289943904929 24.00000000000001
    vertex 31.16263604803627 182.9569088950291 22.00000000000001
    vertex 30.929353082845488 182.9289943904929 22.00000000000001
  endloop
endfacet
facet normal -0.11881184773651039 0.9929167864617037 -7.281969363174679e-17
  outer loop
    vertex 31.16263604803627 182.9569088950291 22.00000000000001
    vertex 30.929353082845488 182.9289943904929 24.00000000000001
    vertex 31.16263604803627 182.9569088950291 24.00000000000001
  endloop
endfacet
facet normal 0.9929167864616982 0.11881184773655488 -9.261558304661223e-17
  outer loop
    vertex 30.040041435716578 183.83955729017688 22.00000000000001
    vertex 30.067955940252816 183.6062743249861 24.00000000000002
    vertex 30.067955940252816 183.6062743249861 22.00000000000001
  endloop
endfacet
facet normal 0.9929167864616982 0.11881184773655488 -9.261558304661223e-17
  outer loop
    vertex 30.067955940252816 183.6062743249861 24.00000000000002
    vertex 30.040041435716578 183.83955729017688 22.00000000000001
    vertex 30.040041435716578 183.83955729017688 24.00000000000002
  endloop
endfacet
facet normal 0.9898347363773389 -0.1422223423404509 -7.061266001111386e-17
  outer loop
    vertex 30.073456169146358 184.07211613649653 22.00000000000001
    vertex 30.040041435716578 183.83955729017688 24.00000000000002
    vertex 30.040041435716578 183.83955729017688 22.00000000000001
  endloop
endfacet
facet normal 0.9898347363773389 -0.1422223423404509 -7.061266001111386e-17
  outer loop
    vertex 30.040041435716578 183.83955729017688 24.00000000000002
    vertex 30.073456169146358 184.07211613649653 22.00000000000001
    vertex 30.073456169146358 184.07211613649653 24.00000000000002
  endloop
endfacet
facet normal -0.9283331984212666 -0.3717492067361295 1.0830690715196782e-16
  outer loop
    vertex 31.724660062844276 184.2696982383151 24.00000000000001
    vertex 31.812001477993242 184.0515890028126 22.00000000000001
    vertex 31.812001477993242 184.0515890028126 24.00000000000001
  endloop
endfacet
facet normal -0.9283331984212666 -0.3717492067361295 1.0830690715196782e-16
  outer loop
    vertex 31.812001477993242 184.0515890028126 22.00000000000001
    vertex 31.724660062844276 184.2696982383151 24.00000000000001
    vertex 31.724660062844276 184.2696982383151 22.00000000000001
  endloop
endfacet
facet normal 0.14222234234040046 0.9898347363773461 -9.430909950709397e-17
  outer loop
    vertex 30.696794236525832 182.96240912392264 24.00000000000001
    vertex 30.929353082845488 182.9289943904929 22.00000000000001
    vertex 30.696794236525832 182.96240912392264 22.00000000000001
  endloop
endfacet
facet normal 0.14222234234040046 0.9898347363773461 -9.430909950709397e-17
  outer loop
    vertex 30.929353082845488 182.9289943904929 22.00000000000001
    vertex 30.696794236525832 182.96240912392264 24.00000000000001
    vertex 30.929353082845488 182.9289943904929 24.00000000000001
  endloop
endfacet
facet normal -0.3717492067361295 0.9283331984212666 -4.6367745975622e-17
  outer loop
    vertex 31.16263604803627 182.9569088950291 24.00000000000001
    vertex 31.38074528353877 183.04425031017809 22.00000000000001
    vertex 31.16263604803627 182.9569088950291 22.00000000000001
  endloop
endfacet
facet normal -0.3717492067361295 0.9283331984212666 -4.6367745975622e-17
  outer loop
    vertex 31.38074528353877 183.04425031017809 22.00000000000001
    vertex 31.16263604803627 182.9569088950291 24.00000000000001
    vertex 31.38074528353877 183.04425031017809 24.00000000000001
  endloop
endfacet
facet normal 0.7861108560808499 -0.6180855296411926 -1.399780764487452e-17
  outer loop
    vertex 30.31114041285001 184.47279686496276 22.00000000000001
    vertex 30.165922981679316 184.28810236289004 24.00000000000002
    vertex 30.165922981679316 184.28810236289 22.00000000000001
  endloop
endfacet
facet normal 0.7861108560808499 -0.6180855296411926 -1.399780764487452e-17
  outer loop
    vertex 30.165922981679316 184.28810236289004 24.00000000000002
    vertex 30.31114041285001 184.47279686496276 22.00000000000001
    vertex 30.31114041285001 184.4727968649628 24.00000000000002
  endloop
endfacet
facet normal 0.39356431482043513 0.9192970847881121 -1.0937149610419568e-16
  outer loop
    vertex 30.480808010132336 183.05487593645563 24.00000000000001
    vertex 30.696794236525832 182.96240912392264 22.00000000000001
    vertex 30.480808010132336 183.05487593645563 22.00000000000001
  endloop
endfacet
facet normal 0.39356431482043513 0.9192970847881121 -1.0937149610419568e-16
  outer loop
    vertex 30.696794236525832 182.96240912392264 22.00000000000001
    vertex 30.480808010132336 183.05487593645563 24.00000000000001
    vertex 30.696794236525832 182.96240912392264 24.00000000000001
  endloop
endfacet
facet normal 0.8004852370515622 0.5993524716412744 -1.1661729452054491e-16
  outer loop
    vertex 30.155297355401782 183.3881650894836 22.00000000000001
    vertex 30.2961135080596 183.20009336762632 24.00000000000001
    vertex 30.2961135080596 183.20009336762632 22.00000000000001
  endloop
endfacet
facet normal 0.8004852370515622 0.5993524716412744 -1.1661729452054491e-16
  outer loop
    vertex 30.2961135080596 183.20009336762632 24.00000000000001
    vertex 30.155297355401782 183.3881650894836 22.00000000000001
    vertex 30.155297355401782 183.3881650894836 24.00000000000001
  endloop
endfacet
facet normal -0.39356431482043513 -0.9192970847881121 1.0937149610419568e-16
  outer loop
    vertex 31.399149408113722 184.60298739134305 24.00000000000001
    vertex 31.183163181720214 184.695454203876 22.00000000000001
    vertex 31.399149408113722 184.60298739134302 22.00000000000001
  endloop
endfacet
facet normal -0.39356431482043513 -0.9192970847881121 1.0937149610419568e-16
  outer loop
    vertex 31.183163181720214 184.695454203876 22.00000000000001
    vertex 31.399149408113722 184.60298739134305 24.00000000000001
    vertex 31.183163181720214 184.69545420387604 24.00000000000002
  endloop
endfacet
facet normal -0.7861108560808499 0.6180855296411926 1.399780764487452e-17
  outer loop
    vertex 31.71403443656673 183.36976096490864 24.00000000000001
    vertex 31.56881700539605 183.1850664628359 22.00000000000001
    vertex 31.56881700539605 183.1850664628359 24.00000000000001
  endloop
endfacet
facet normal -0.7861108560808499 0.6180855296411926 1.399780764487452e-17
  outer loop
    vertex 31.56881700539605 183.1850664628359 22.00000000000001
    vertex 31.71403443656673 183.36976096490864 24.00000000000001
    vertex 31.71403443656673 183.36976096490864 22.00000000000001
  endloop
endfacet
facet normal 0.9192970847881171 -0.3935643148204236 -4.37976008888023e-17
  outer loop
    vertex 30.165922981679316 184.28810236289 22.00000000000001
    vertex 30.073456169146358 184.07211613649653 24.00000000000002
    vertex 30.073456169146358 184.07211613649653 22.00000000000001
  endloop
endfacet
facet normal 0.9192970847881171 -0.3935643148204236 -4.37976008888023e-17
  outer loop
    vertex 30.073456169146358 184.07211613649653 24.00000000000002
    vertex 30.165922981679316 184.28810236289 22.00000000000001
    vertex 30.165922981679316 184.28810236289004 24.00000000000002
  endloop
endfacet
facet normal -0.8004852370515622 -0.5993524716412744 1.1661729452054491e-16
  outer loop
    vertex 31.583843910186456 184.45776996017236 24.00000000000001
    vertex 31.724660062844276 184.2696982383151 22.00000000000001
    vertex 31.724660062844276 184.2696982383151 24.00000000000001
  endloop
endfacet
facet normal -0.8004852370515622 -0.5993524716412744 1.1661729452054491e-16
  outer loop
    vertex 31.724660062844276 184.2696982383151 22.00000000000001
    vertex 31.583843910186456 184.45776996017236 24.00000000000001
    vertex 31.583843910186456 184.45776996017233 22.00000000000001
  endloop
endfacet
facet normal -0.6180855296412306 -0.7861108560808198 1.169804059867379e-16
  outer loop
    vertex 31.583843910186456 184.45776996017236 24.00000000000001
    vertex 31.399149408113722 184.60298739134302 22.00000000000001
    vertex 31.583843910186456 184.45776996017233 22.00000000000001
  endloop
endfacet
facet normal -0.6180855296412306 -0.7861108560808198 1.169804059867379e-16
  outer loop
    vertex 31.399149408113722 184.60298739134302 22.00000000000001
    vertex 31.583843910186456 184.45776996017236 24.00000000000001
    vertex 31.399149408113722 184.60298739134305 24.00000000000001
  endloop
endfacet
facet normal -0.5993524716412628 0.8004852370515707 -1.6755913057584584e-17
  outer loop
    vertex 31.38074528353877 183.04425031017809 24.00000000000001
    vertex 31.56881700539605 183.1850664628359 22.00000000000001
    vertex 31.38074528353877 183.04425031017809 22.00000000000001
  endloop
endfacet
facet normal -0.5993524716412628 0.8004852370515707 -1.6755913057584584e-17
  outer loop
    vertex 31.56881700539605 183.1850664628359 22.00000000000001
    vertex 31.38074528353877 183.04425031017809 24.00000000000001
    vertex 31.56881700539605 183.1850664628359 24.00000000000001
  endloop
endfacet
facet normal -0.9914448604823561 -0.13052619899132006 9.346885619215715e-17
  outer loop
    vertex 27.939978709123018 183.82893161919583 24.000000000000014
    vertex 28.144423761030378 182.2760173573007 22.000000000000014
    vertex 28.144423761030378 182.2760173573007 24.000000000000014
  endloop
endfacet
facet normal -0.9914448604823561 -0.13052619899132006 9.346885619215715e-17
  outer loop
    vertex 28.144423761030378 182.2760173573007 22.000000000000014
    vertex 27.939978709123018 183.82893161919583 24.000000000000014
    vertex 27.939978709123018 183.82893161919583 22.00000000000001
  endloop
endfacet
facet normal -1.3524130487363997e-15 -2.1606308687024183e-16 1.0
  outer loop
    vertex 47.692893058902065 178.03337672737678 24.000000000000046
    vertex 48.267955940252925 183.60627432498606 24.00000000000004
    vertex 48.24004143571671 183.83955729017686 24.00000000000004
  endloop
endfacet
facet normal -1.3524130487363997e-15 -2.1606308687024183e-16 1.0
  outer loop
    vertex 48.267955940252925 183.60627432498606 24.00000000000004
    vertex 47.692893058902065 178.03337672737678 24.000000000000046
    vertex 49.13997877364705 178.63277927844558 24.00000000000004
  endloop
endfacet
facet normal -1.3524130487363997e-15 -2.1606308687024183e-16 1.0
  outer loop
    vertex 48.267955940252925 183.60627432498606 24.00000000000004
    vertex 49.13997877364705 178.63277927844558 24.00000000000004
    vertex 48.35529735540189 183.38816508948355 24.00000000000004
  endloop
endfacet
facet normal -1.3524130487363997e-15 -2.1606308687024183e-16 1.0
  outer loop
    vertex 48.35529735540189 183.38816508948355 24.00000000000004
    vertex 49.13997877364705 178.63277927844558 24.00000000000004
    vertex 48.49611350805972 183.20009336762632 24.00000000000004
  endloop
endfacet
facet normal -1.3524130487363997e-15 -2.1606308687024183e-16 1.0
  outer loop
    vertex 48.49611350805972 183.20009336762632 24.00000000000004
    vertex 49.13997877364705 178.63277927844558 24.00000000000004
    vertex 48.68080801013246 183.05487593645563 24.00000000000004
  endloop
endfacet
facet normal -1.3524130487363997e-15 -2.1606308687024183e-16 1.0
  outer loop
    vertex 48.68080801013246 183.05487593645563 24.00000000000004
    vertex 49.13997877364705 178.63277927844558 24.00000000000004
    vertex 48.89679423652595 182.96240912392264 24.000000000000053
  endloop
endfacet
facet normal -1.3524130487363997e-15 -2.1606308687024183e-16 1.0
  outer loop
    vertex 48.89679423652595 182.96240912392264 24.000000000000053
    vertex 49.13997877364705 178.63277927844558 24.00000000000004
    vertex 49.129353082845604 182.9289943904929 24.000000000000053
  endloop
endfacet
facet normal -1.3524130487363997e-15 -2.1606308687024183e-16 1.0
  outer loop
    vertex 49.129353082845604 182.9289943904929 24.000000000000053
    vertex 49.13997877364705 178.63277927844558 24.00000000000004
    vertex 49.3626360480364 182.9569088950291 24.000000000000053
  endloop
endfacet
facet normal -1.3524130487363997e-15 -2.1606308687024183e-16 1.0
  outer loop
    vertex 49.3626360480364 182.9569088950291 24.000000000000053
    vertex 49.13997877364705 178.63277927844558 24.00000000000004
    vertex 50.38261944365762 179.58629102419525 24.00000000000004
  endloop
endfacet
facet normal -1.3524130487363997e-15 -2.1606308687024183e-16 1.0
  outer loop
    vertex 49.3626360480364 182.9569088950291 24.000000000000053
    vertex 50.38261944365762 179.58629102419525 24.00000000000004
    vertex 49.5807452835389 183.04425031017809 24.000000000000053
  endloop
endfacet
facet normal -1.3524130487363997e-15 -2.1606308687024183e-16 1.0
  outer loop
    vertex 49.5807452835389 183.04425031017809 24.000000000000053
    vertex 50.38261944365762 179.58629102419525 24.00000000000004
    vertex 49.76881700539616 183.1850664628359 24.000000000000053
  endloop
endfacet
facet normal -1.3524130487363997e-15 -2.1606308687024183e-16 1.0
  outer loop
    vertex 49.76881700539616 183.1850664628359 24.000000000000053
    vertex 50.38261944365762 179.58629102419525 24.00000000000004
    vertex 49.91403443656685 183.36976096490864 24.000000000000053
  endloop
endfacet
facet normal -1.3524130487363997e-15 -2.1606308687024183e-16 1.0
  outer loop
    vertex 49.91403443656685 183.36976096490864 24.000000000000053
    vertex 50.38261944365762 179.58629102419525 24.00000000000004
    vertex 50.006501249099806 183.58574719130212 24.000000000000053
  endloop
endfacet
facet normal -1.3524130487363997e-15 -2.1606308687024183e-16 1.0
  outer loop
    vertex 50.006501249099806 183.58574719130212 24.000000000000053
    vertex 50.38261944365762 179.58629102419525 24.00000000000004
    vertex 50.0399159825296 183.81830603762174 24.000000000000053
  endloop
endfacet
facet normal -1.3524130487363997e-15 -2.1606308687024183e-16 1.0
  outer loop
    vertex 50.0399159825296 183.81830603762174 24.000000000000053
    vertex 50.38261944365762 179.58629102419525 24.00000000000004
    vertex 50.382619380437355 188.07157236682366 24.000000000000036
  endloop
endfacet
facet normal -1.3524130487363997e-15 -2.1606308687024183e-16 1.0
  outer loop
    vertex 50.382619380437355 188.07157236682366 24.000000000000036
    vertex 50.38261944365762 179.58629102419525 24.00000000000004
    vertex 51.33613111692863 186.8289316897089 24.000000000000036
  endloop
endfacet
facet normal -1.3524130487363997e-15 -2.1606308687024183e-16 1.0
  outer loop
    vertex 51.33613111692863 186.8289316897089 24.000000000000036
    vertex 50.38261944365762 179.58629102419525 24.00000000000004
    vertex 51.33613116163209 180.82893171551845 24.00000000000004
  endloop
endfacet
facet normal -1.3524130487363997e-15 -2.1606308687024183e-16 1.0
  outer loop
    vertex 51.33613111692863 186.8289316897089 24.000000000000036
    vertex 51.33613116163209 180.82893171551845 24.00000000000004
    vertex 51.93553365721581 185.381845970498 24.000000000000046
  endloop
endfacet
facet normal -1.3524130487363997e-15 -2.1606308687024183e-16 1.0
  outer loop
    vertex 51.93553365721581 185.381845970498 24.000000000000046
    vertex 51.33613116163209 180.82893171551845 24.00000000000004
    vertex 51.935533680356 182.27601744366115 24.000000000000046
  endloop
endfacet
facet normal -1.3524130487363997e-15 -2.1606308687024183e-16 1.0
  outer loop
    vertex 51.93553365721581 185.381845970498 24.000000000000046
    vertex 51.935533680356 182.27601744366115 24.000000000000046
    vertex 52.13997870912315 183.8289317086028 24.000000000000046
  endloop
endfacet
facet normal -1.3524130487363997e-15 -2.1606308687024183e-16 1.0
  outer loop
    vertex 29.697338037808798 179.58629096097502 24.000000000000004
    vertex 30.067955940252816 183.6062743249861 24.00000000000002
    vertex 30.040041435716578 183.83955729017688 24.00000000000002
  endloop
endfacet
facet normal -1.3524130487363997e-15 -2.1606308687024183e-16 1.0
  outer loop
    vertex 30.067955940252816 183.6062743249861 24.00000000000002
    vertex 29.697338037808798 179.58629096097502 24.000000000000004
    vertex 30.9399787220278 178.63277923374213 24.00000000000001
  endloop
endfacet
facet normal -1.3524130487363997e-15 -2.1606308687024183e-16 1.0
  outer loop
    vertex 30.067955940252816 183.6062743249861 24.00000000000002
    vertex 30.9399787220278 178.63277923374213 24.00000000000001
    vertex 30.155297355401782 183.3881650894836 24.00000000000001
  endloop
endfacet
facet normal -1.3524130487363997e-15 -2.1606308687024183e-16 1.0
  outer loop
    vertex 30.155297355401782 183.3881650894836 24.00000000000001
    vertex 30.9399787220278 178.63277923374213 24.00000000000001
    vertex 30.2961135080596 183.20009336762632 24.00000000000001
  endloop
endfacet
facet normal -1.3524130487363997e-15 -2.1606308687024183e-16 1.0
  outer loop
    vertex 30.2961135080596 183.20009336762632 24.00000000000001
    vertex 30.9399787220278 178.63277923374213 24.00000000000001
    vertex 30.480808010132336 183.05487593645563 24.00000000000001
  endloop
endfacet
facet normal -1.3524130487363997e-15 -2.1606308687024183e-16 1.0
  outer loop
    vertex 30.480808010132336 183.05487593645563 24.00000000000001
    vertex 30.9399787220278 178.63277923374213 24.00000000000001
    vertex 30.696794236525832 182.96240912392264 24.00000000000001
  endloop
endfacet
facet normal -1.3524130487363997e-15 -2.1606308687024183e-16 1.0
  outer loop
    vertex 30.696794236525832 182.96240912392264 24.00000000000001
    vertex 30.9399787220278 178.63277923374213 24.00000000000001
    vertex 30.929353082845488 182.9289943904929 24.00000000000001
  endloop
endfacet
facet normal -1.3524130487363997e-15 -2.1606308687024183e-16 1.0
  outer loop
    vertex 30.929353082845488 182.9289943904929 24.00000000000001
    vertex 30.9399787220278 178.63277923374213 24.00000000000001
    vertex 31.16263604803627 182.9569088950291 24.00000000000001
  endloop
endfacet
facet normal -1.3524130487363997e-15 -2.1606308687024183e-16 1.0
  outer loop
    vertex 31.16263604803627 182.9569088950291 24.00000000000001
    vertex 30.9399787220278 178.63277923374213 24.00000000000001
    vertex 32.387064445704596 178.03337670423656 24.000000000000007
  endloop
endfacet
facet normal -1.3524130487363997e-15 -2.1606308687024183e-16 1.0
  outer loop
    vertex 31.16263604803627 182.9569088950291 24.00000000000001
    vertex 32.387064445704596 178.03337670423656 24.000000000000007
    vertex 31.38074528353877 183.04425031017809 24.00000000000001
  endloop
endfacet
facet normal -1.3524130487363997e-15 -2.1606308687024183e-16 1.0
  outer loop
    vertex 31.38074528353877 183.04425031017809 24.00000000000001
    vertex 32.387064445704596 178.03337670423656 24.000000000000007
    vertex 31.56881700539605 183.1850664628359 24.00000000000001
  endloop
endfacet
facet normal -1.3524130487363997e-15 -2.1606308687024183e-16 1.0
  outer loop
    vertex 31.56881700539605 183.1850664628359 24.00000000000001
    vertex 32.387064445704596 178.03337670423656 24.000000000000007
    vertex 31.71403443656673 183.36976096490864 24.00000000000001
  endloop
endfacet
facet normal -1.3524130487363997e-15 -2.1606308687024183e-16 1.0
  outer loop
    vertex 31.71403443656673 183.36976096490864 24.00000000000001
    vertex 32.387064445704596 178.03337670423656 24.000000000000007
    vertex 31.8065012490997 183.58574719130212 24.00000000000001
  endloop
endfacet
facet normal -1.3524130487363997e-15 -2.1606308687024183e-16 1.0
  outer loop
    vertex 31.8065012490997 183.58574719130212 24.00000000000001
    vertex 32.387064445704596 178.03337670423656 24.000000000000007
    vertex 31.839915982529458 183.8183060376218 24.00000000000001
  endloop
endfacet
facet normal -1.3524130487363997e-15 -2.1606308687024183e-16 1.0
  outer loop
    vertex 31.839915982529458 183.8183060376218 24.00000000000001
    vertex 32.387064445704596 178.03337670423656 24.000000000000007
    vertex 32.3870643593441 189.62448660042187 24.000000000000014
  endloop
endfacet
facet normal -1.3524130487363997e-15 -2.1606308687024183e-16 1.0
  outer loop
    vertex 32.3870643593441 189.62448660042187 24.000000000000014
    vertex 32.387064445704596 178.03337670423656 24.000000000000007
    vertex 33.93997870912303 189.82893166389934 24.00000000000002
  endloop
endfacet
facet normal -1.3524130487363997e-15 -2.1606308687024183e-16 1.0
  outer loop
    vertex 33.93997870912303 189.82893166389934 24.00000000000002
    vertex 32.387064445704596 178.03337670423656 24.000000000000007
    vertex 33.939978709123004 177.8289316638993 24.000000000000007
  endloop
endfacet
facet normal -1.3524130487363997e-15 -2.1606308687024183e-16 1.0
  outer loop
    vertex 33.93997870912303 189.82893166389934 24.00000000000002
    vertex 33.939978709123004 177.8289316638993 24.000000000000007
    vertex 46.139978709123135 177.8289316638993 24.000000000000007
  endloop
endfacet
facet normal -1.3524130487363997e-15 -2.1606308687024183e-16 1.0
  outer loop
    vertex 33.93997870912303 189.82893166389934 24.00000000000002
    vertex 46.139978709123135 177.8289316638993 24.000000000000007
    vertex 46.139978709123156 189.82893166389934 24.00000000000002
  endloop
endfacet
facet normal -1.3524130487363997e-15 -2.1606308687024183e-16 1.0
  outer loop
    vertex 46.139978709123156 189.82893166389934 24.00000000000002
    vertex 46.139978709123135 177.8289316638993 24.000000000000007
    vertex 47.692893058902065 178.03337672737678 24.000000000000046
  endloop
endfacet
facet normal -1.3524130487363997e-15 -2.1606308687024183e-16 1.0
  outer loop
    vertex 46.139978709123156 189.82893166389934 24.00000000000002
    vertex 47.692893058902065 178.03337672737678 24.000000000000046
    vertex 47.69289297254156 189.62448662356206 24.000000000000036
  endloop
endfacet
facet normal -1.3524130487363997e-15 -2.1606308687024183e-16 1.0
  outer loop
    vertex 47.69289297254156 189.62448662356206 24.000000000000036
    vertex 47.692893058902065 178.03337672737678 24.000000000000046
    vertex 48.24004143571671 183.83955729017686 24.00000000000004
  endloop
endfacet
facet normal -1.3524130487363997e-15 -2.1606308687024183e-16 1.0
  outer loop
    vertex 47.69289297254156 189.62448662356206 24.000000000000036
    vertex 48.24004143571671 183.83955729017686 24.00000000000004
    vertex 48.27345616914648 184.07211613649653 24.00000000000004
  endloop
endfacet
facet normal -1.3524130487363997e-15 -2.1606308687024183e-16 1.0
  outer loop
    vertex 47.69289297254156 189.62448662356206 24.000000000000036
    vertex 48.27345616914648 184.07211613649653 24.00000000000004
    vertex 49.13997869621838 189.02508409405652 24.000000000000036
  endloop
endfacet
facet normal -1.3524130487363997e-15 -2.1606308687024183e-16 1.0
  outer loop
    vertex 49.13997869621838 189.02508409405652 24.000000000000036
    vertex 48.27345616914648 184.07211613649653 24.00000000000004
    vertex 48.36592298167944 184.28810236289 24.00000000000004
  endloop
endfacet
facet normal -1.3524130487363997e-15 -2.1606308687024183e-16 1.0
  outer loop
    vertex 49.13997869621838 189.02508409405652 24.000000000000036
    vertex 48.36592298167944 184.28810236289 24.00000000000004
    vertex 48.511140412850125 184.47279686496276 24.00000000000004
  endloop
endfacet
facet normal -1.3524130487363997e-15 -2.1606308687024183e-16 1.0
  outer loop
    vertex 49.13997869621838 189.02508409405652 24.000000000000036
    vertex 48.511140412850125 184.47279686496276 24.00000000000004
    vertex 48.69921213470741 184.61361301762057 24.00000000000004
  endloop
endfacet
facet normal -1.3524130487363997e-15 -2.1606308687024183e-16 1.0
  outer loop
    vertex 49.13997869621838 189.02508409405652 24.000000000000036
    vertex 48.69921213470741 184.61361301762057 24.00000000000004
    vertex 48.91732137020991 184.70095443276955 24.00000000000004
  endloop
endfacet
facet normal -1.3524130487363997e-15 -2.1606308687024183e-16 1.0
  outer loop
    vertex 49.13997869621838 189.02508409405652 24.000000000000036
    vertex 48.91732137020991 184.70095443276955 24.00000000000004
    vertex 49.1506043354007 184.72886893730575 24.00000000000004
  endloop
endfacet
facet normal -1.3524130487363997e-15 -2.1606308687024183e-16 1.0
  outer loop
    vertex 49.13997869621838 189.02508409405652 24.000000000000036
    vertex 49.1506043354007 184.72886893730575 24.00000000000004
    vertex 50.382619380437355 188.07157236682366 24.000000000000036
  endloop
endfacet
facet normal -1.3524130487363997e-15 -2.1606308687024183e-16 1.0
  outer loop
    vertex 50.382619380437355 188.07157236682366 24.000000000000036
    vertex 49.1506043354007 184.72886893730575 24.00000000000004
    vertex 49.383163181720334 184.695454203876 24.00000000000004
  endloop
endfacet
facet normal -1.3524130487363997e-15 -2.1606308687024183e-16 1.0
  outer loop
    vertex 50.382619380437355 188.07157236682366 24.000000000000036
    vertex 49.383163181720334 184.695454203876 24.00000000000004
    vertex 49.59914940811385 184.60298739134302 24.00000000000004
  endloop
endfacet
facet normal -1.3524130487363997e-15 -2.1606308687024183e-16 1.0
  outer loop
    vertex 50.382619380437355 188.07157236682366 24.000000000000036
    vertex 49.59914940811385 184.60298739134302 24.00000000000004
    vertex 49.78384391018658 184.45776996017233 24.00000000000004
  endloop
endfacet
facet normal -1.3524130487363997e-15 -2.1606308687024183e-16 1.0
  outer loop
    vertex 50.382619380437355 188.07157236682366 24.000000000000036
    vertex 49.78384391018658 184.45776996017233 24.00000000000004
    vertex 49.924660062844396 184.26969823831504 24.00000000000004
  endloop
endfacet
facet normal -1.3524130487363997e-15 -2.1606308687024183e-16 1.0
  outer loop
    vertex 50.382619380437355 188.07157236682366 24.000000000000036
    vertex 49.924660062844396 184.26969823831504 24.00000000000004
    vertex 50.01200147799336 184.05158900281253 24.000000000000053
  endloop
endfacet
facet normal -1.3524130487363997e-15 -2.1606308687024183e-16 1.0
  outer loop
    vertex 50.382619380437355 188.07157236682366 24.000000000000036
    vertex 50.01200147799336 184.05158900281253 24.000000000000053
    vertex 50.0399159825296 183.81830603762174 24.000000000000053
  endloop
endfacet
facet normal -1.3524130487363997e-15 -2.1606308687024183e-16 1.0
  outer loop
    vertex 28.144423761030378 182.2760173573007 24.000000000000014
    vertex 28.14442373789015 185.3818458841375 24.000000000000014
    vertex 27.939978709123018 183.82893161919583 24.000000000000014
  endloop
endfacet
facet normal -1.3524130487363997e-15 -2.1606308687024183e-16 1.0
  outer loop
    vertex 28.14442373789015 185.3818458841375 24.000000000000014
    vertex 28.144423761030378 182.2760173573007 24.000000000000014
    vertex 28.743826256614064 186.8289316122802 24.00000000000001
  endloop
endfacet
facet normal -1.3524130487363997e-15 -2.1606308687024183e-16 1.0
  outer loop
    vertex 28.743826256614064 186.8289316122802 24.00000000000001
    vertex 28.144423761030378 182.2760173573007 24.000000000000014
    vertex 28.743826301317558 180.82893163808976 24.000000000000004
  endloop
endfacet
facet normal -1.3524130487363997e-15 -2.1606308687024183e-16 1.0
  outer loop
    vertex 28.743826256614064 186.8289316122802 24.00000000000001
    vertex 28.743826301317558 180.82893163808976 24.000000000000004
    vertex 29.697337974588535 188.0715723036034 24.00000000000001
  endloop
endfacet
facet normal -1.3524130487363997e-15 -2.1606308687024183e-16 1.0
  outer loop
    vertex 29.697337974588535 188.0715723036034 24.00000000000001
    vertex 28.743826301317558 180.82893163808976 24.000000000000004
    vertex 29.697338037808798 179.58629096097502 24.000000000000004
  endloop
endfacet
facet normal -1.3524130487363997e-15 -2.1606308687024183e-16 1.0
  outer loop
    vertex 29.697337974588535 188.0715723036034 24.00000000000001
    vertex 29.697338037808798 179.58629096097502 24.000000000000004
    vertex 30.040041435716578 183.83955729017688 24.00000000000002
  endloop
endfacet
facet normal -1.3524130487363997e-15 -2.1606308687024183e-16 1.0
  outer loop
    vertex 29.697337974588535 188.0715723036034 24.00000000000001
    vertex 30.040041435716578 183.83955729017688 24.00000000000002
    vertex 30.073456169146358 184.07211613649653 24.00000000000002
  endloop
endfacet
facet normal -1.3524130487363997e-15 -2.1606308687024183e-16 1.0
  outer loop
    vertex 29.697337974588535 188.0715723036034 24.00000000000001
    vertex 30.073456169146358 184.07211613649653 24.00000000000002
    vertex 30.9399786445991 189.02508404935307 24.00000000000001
  endloop
endfacet
facet normal -1.3524130487363997e-15 -2.1606308687024183e-16 1.0
  outer loop
    vertex 30.9399786445991 189.02508404935307 24.00000000000001
    vertex 30.073456169146358 184.07211613649653 24.00000000000002
    vertex 30.165922981679316 184.28810236289004 24.00000000000002
  endloop
endfacet
facet normal -1.3524130487363997e-15 -2.1606308687024183e-16 1.0
  outer loop
    vertex 30.9399786445991 189.02508404935307 24.00000000000001
    vertex 30.165922981679316 184.28810236289004 24.00000000000002
    vertex 30.31114041285001 184.4727968649628 24.00000000000002
  endloop
endfacet
facet normal -1.3524130487363997e-15 -2.1606308687024183e-16 1.0
  outer loop
    vertex 30.9399786445991 189.02508404935307 24.00000000000001
    vertex 30.31114041285001 184.4727968649628 24.00000000000002
    vertex 30.499212134707275 184.61361301762057 24.00000000000002
  endloop
endfacet
facet normal -1.3524130487363997e-15 -2.1606308687024183e-16 1.0
  outer loop
    vertex 30.9399786445991 189.02508404935307 24.00000000000001
    vertex 30.499212134707275 184.61361301762057 24.00000000000002
    vertex 30.717321370209778 184.70095443276955 24.00000000000002
  endloop
endfacet
facet normal -1.3524130487363997e-15 -2.1606308687024183e-16 1.0
  outer loop
    vertex 30.9399786445991 189.02508404935307 24.00000000000001
    vertex 30.717321370209778 184.70095443276955 24.00000000000002
    vertex 30.95060433540057 184.72886893730578 24.00000000000002
  endloop
endfacet
facet normal -1.3524130487363997e-15 -2.1606308687024183e-16 1.0
  outer loop
    vertex 30.9399786445991 189.02508404935307 24.00000000000001
    vertex 30.95060433540057 184.72886893730578 24.00000000000002
    vertex 32.3870643593441 189.62448660042187 24.000000000000014
  endloop
endfacet
facet normal -1.3524130487363997e-15 -2.1606308687024183e-16 1.0
  outer loop
    vertex 32.3870643593441 189.62448660042187 24.000000000000014
    vertex 30.95060433540057 184.72886893730578 24.00000000000002
    vertex 31.183163181720214 184.69545420387604 24.00000000000002
  endloop
endfacet
facet normal -1.3524130487363997e-15 -2.1606308687024183e-16 1.0
  outer loop
    vertex 32.3870643593441 189.62448660042187 24.000000000000014
    vertex 31.183163181720214 184.69545420387604 24.00000000000002
    vertex 31.399149408113722 184.60298739134305 24.00000000000001
  endloop
endfacet
facet normal -1.3524130487363997e-15 -2.1606308687024183e-16 1.0
  outer loop
    vertex 32.3870643593441 189.62448660042187 24.000000000000014
    vertex 31.399149408113722 184.60298739134305 24.00000000000001
    vertex 31.583843910186456 184.45776996017236 24.00000000000001
  endloop
endfacet
facet normal -1.3524130487363997e-15 -2.1606308687024183e-16 1.0
  outer loop
    vertex 32.3870643593441 189.62448660042187 24.000000000000014
    vertex 31.583843910186456 184.45776996017236 24.00000000000001
    vertex 31.724660062844276 184.2696982383151 24.00000000000001
  endloop
endfacet
facet normal -1.3524130487363997e-15 -2.1606308687024183e-16 1.0
  outer loop
    vertex 32.3870643593441 189.62448660042187 24.000000000000014
    vertex 31.724660062844276 184.2696982383151 24.00000000000001
    vertex 31.812001477993242 184.0515890028126 24.00000000000001
  endloop
endfacet
facet normal -1.3524130487363997e-15 -2.1606308687024183e-16 1.0
  outer loop
    vertex 32.3870643593441 189.62448660042187 24.000000000000014
    vertex 31.812001477993242 184.0515890028126 24.00000000000001
    vertex 31.839915982529458 183.8183060376218 24.00000000000001
  endloop
endfacet
facet normal -0.923879536075303 0.3826834237607936 4.508581675663645e-17
  outer loop
    vertex 28.743826256614064 186.8289316122802 24.00000000000001
    vertex 28.14442373789015 185.3818458841375 22.00000000000001
    vertex 28.14442373789015 185.3818458841375 24.000000000000014
  endloop
endfacet
facet normal -0.923879536075303 0.3826834237607936 4.508581675663645e-17
  outer loop
    vertex 28.14442373789015 185.3818458841375 22.00000000000001
    vertex 28.743826256614064 186.8289316122802 24.00000000000001
    vertex 28.743826256614064 186.8289316122802 22.00000000000001
  endloop
endfacet
facet normal 0.3826834306442299 0.9238795332240904 -1.0884678775323786e-16
  outer loop
    vertex 47.69289297254156 189.62448662356206 24.000000000000036
    vertex 49.13997869621838 189.02508409405652 22.000000000000046
    vertex 47.692892972541586 189.62448662356206 22.000000000000043
  endloop
endfacet
facet normal 0.3826834306442299 0.9238795332240904 -1.0884678775323786e-16
  outer loop
    vertex 49.13997869621838 189.02508409405652 22.000000000000046
    vertex 47.69289297254156 189.62448662356206 24.000000000000036
    vertex 49.13997869621838 189.02508409405652 24.000000000000036
  endloop
endfacet
facet normal 0.793353337645454 0.6087614324567698 -1.168069913256609e-16
  outer loop
    vertex 50.382619380437376 188.07157236682366 22.000000000000046
    vertex 51.33613111692863 186.8289316897089 24.000000000000036
    vertex 51.33613111692863 186.8289316897089 22.000000000000046
  endloop
endfacet
facet normal 0.793353337645454 0.6087614324567698 -1.168069913256609e-16
  outer loop
    vertex 51.33613111692863 186.8289316897089 24.000000000000036
    vertex 50.382619380437376 188.07157236682366 22.000000000000046
    vertex 50.382619380437355 188.07157236682366 24.000000000000036
  endloop
endfacet
facet normal 0.9238795303728763 0.38268343752766937 -1.0884678808915343e-16
  outer loop
    vertex 51.33613111692863 186.8289316897089 22.000000000000046
    vertex 51.93553365721581 185.381845970498 24.000000000000046
    vertex 51.93553365721581 185.381845970498 22.000000000000046
  endloop
endfacet
facet normal 0.9238795303728763 0.38268343752766937 -1.0884678808915343e-16
  outer loop
    vertex 51.93553365721581 185.381845970498 24.000000000000046
    vertex 51.33613111692863 186.8289316897089 22.000000000000046
    vertex 51.33613111692863 186.8289316897089 24.000000000000036
  endloop
endfacet
facet normal 0.38268344441110624 -0.9238795275216634 4.508581432372154e-17
  outer loop
    vertex 49.13997877364705 178.63277927844558 24.00000000000004
    vertex 47.692893058902065 178.03337672737678 22.000000000000046
    vertex 49.13997877364705 178.63277927844558 22.000000000000046
  endloop
endfacet
facet normal 0.38268344441110624 -0.9238795275216634 4.508581432372154e-17
  outer loop
    vertex 47.692893058902065 178.03337672737678 22.000000000000046
    vertex 49.13997877364705 178.63277927844558 24.00000000000004
    vertex 47.692893058902065 178.03337672737678 24.000000000000046
  endloop
endfacet
facet normal 0.7933533467167043 -0.6087614206348861 -1.5377933367789883e-17
  outer loop
    vertex 51.33613116163211 180.82893171551845 22.000000000000046
    vertex 50.38261944365762 179.58629102419525 24.00000000000004
    vertex 50.38261944365762 179.58629102419525 22.000000000000046
  endloop
endfacet
facet normal 0.7933533467167043 -0.6087614206348861 -1.5377933367789883e-17
  outer loop
    vertex 50.38261944365762 179.58629102419525 24.00000000000004
    vertex 51.33613116163211 180.82893171551845 22.000000000000046
    vertex 51.33613116163209 180.82893171551845 24.00000000000004
  endloop
endfacet
facet normal 0.13052619160449833 0.9914448614548496 3.734248978256638e-16
  outer loop
    vertex 46.139978709123156 189.82893166389934 24.00000000000002
    vertex 47.692892972541586 189.62448662356206 22.000000000000043
    vertex 46.139978709123156 189.82893166389934 22.00000000000001
  endloop
endfacet
facet normal 0.13052619160449833 0.9914448614548496 3.734248978256638e-16
  outer loop
    vertex 47.692892972541586 189.62448662356206 22.000000000000043
    vertex 46.139978709123156 189.82893166389934 24.00000000000002
    vertex 47.69289297254156 189.62448662356206 24.000000000000036
  endloop
endfacet
facet normal 0.9914448624273479 -0.13052618421764106 -7.172117627033413e-17
  outer loop
    vertex 52.13997870912315 183.8289317086028 22.000000000000046
    vertex 51.935533680356 182.27601744366115 24.000000000000046
    vertex 51.935533680356 182.27601744366115 22.000000000000046
  endloop
endfacet
facet normal 0.9914448624273479 -0.13052618421764106 -7.172117627033413e-17
  outer loop
    vertex 51.935533680356 182.27601744366115 24.000000000000046
    vertex 52.13997870912315 183.8289317086028 22.000000000000046
    vertex 52.13997870912315 183.8289317086028 24.000000000000046
  endloop
endfacet
facet normal 0.6087614265458301 0.7933533421810778 -1.1680699121108645e-16
  outer loop
    vertex 49.13997869621838 189.02508409405652 24.000000000000036
    vertex 50.382619380437376 188.07157236682366 22.000000000000046
    vertex 49.13997869621838 189.02508409405652 22.000000000000046
  endloop
endfacet
facet normal 0.6087614265458301 0.7933533421810778 -1.1680699121108645e-16
  outer loop
    vertex 50.382619380437376 188.07157236682366 22.000000000000046
    vertex 49.13997869621838 189.02508409405652 24.000000000000036
    vertex 50.382619380437355 188.07157236682366 24.000000000000036
  endloop
endfacet
facet normal 0.13052619899131587 -0.9914448604823566 3.0007190651011704e-18
  outer loop
    vertex 47.692893058902065 178.03337672737678 22.000000000000046
    vertex 46.139978709123135 177.8289316638993 24.000000000000007
    vertex 46.139978709123135 177.8289316638993 22.000000000000025
  endloop
endfacet
facet normal 0.13052619899131587 -0.9914448604823566 3.0007190651011704e-18
  outer loop
    vertex 46.139978709123135 177.8289316638993 24.000000000000007
    vertex 47.692893058902065 178.03337672737678 22.000000000000046
    vertex 47.692893058902065 178.03337672737678 24.000000000000046
  endloop
endfacet
facet normal 1.5106022364405252e-15 -6.180449046578128e-16 -1.0
  outer loop
    vertex 28.14442373789015 185.3818458841375 22.00000000000001
    vertex 28.144423761030378 182.2760173573007 22.000000000000014
    vertex 27.939978709123018 183.82893161919583 22.00000000000001
  endloop
endfacet
facet normal 1.5106022364405252e-15 -6.180449046578128e-16 -1.0
  outer loop
    vertex 28.144423761030378 182.2760173573007 22.000000000000014
    vertex 28.14442373789015 185.3818458841375 22.00000000000001
    vertex 28.743826256614064 186.8289316122802 22.00000000000001
  endloop
endfacet
facet normal 1.5106022364405252e-15 -6.180449046578128e-16 -1.0
  outer loop
    vertex 28.144423761030378 182.2760173573007 22.000000000000014
    vertex 28.743826256614064 186.8289316122802 22.00000000000001
    vertex 28.743826301317558 180.82893163808976 22.000000000000018
  endloop
endfacet
facet normal 1.5106022364405252e-15 -6.180449046578128e-16 -1.0
  outer loop
    vertex 28.743826301317558 180.82893163808976 22.000000000000018
    vertex 28.743826256614064 186.8289316122802 22.00000000000001
    vertex 29.697337974588535 188.0715723036034 22.00000000000001
  endloop
endfacet
facet normal 1.5106022364405252e-15 -6.180449046578128e-16 -1.0
  outer loop
    vertex 28.743826301317558 180.82893163808976 22.000000000000018
    vertex 29.697337974588535 188.0715723036034 22.00000000000001
    vertex 29.697338037808798 179.58629096097502 22.000000000000018
  endloop
endfacet
facet normal 1.5106022364405252e-15 -6.180449046578128e-16 -1.0
  outer loop
    vertex 29.697338037808798 179.58629096097502 22.000000000000018
    vertex 29.697337974588535 188.0715723036034 22.00000000000001
    vertex 30.040041435716578 183.83955729017688 22.00000000000001
  endloop
endfacet
facet normal 1.5106022364405252e-15 -6.180449046578128e-16 -1.0
  outer loop
    vertex 30.040041435716578 183.83955729017688 22.00000000000001
    vertex 29.697337974588535 188.0715723036034 22.00000000000001
    vertex 30.073456169146358 184.07211613649653 22.00000000000001
  endloop
endfacet
facet normal 1.5106022364405252e-15 -6.180449046578128e-16 -1.0
  outer loop
    vertex 30.073456169146358 184.07211613649653 22.00000000000001
    vertex 29.697337974588535 188.0715723036034 22.00000000000001
    vertex 30.9399786445991 189.02508404935307 22.00000000000001
  endloop
endfacet
facet normal 1.5106022364405252e-15 -6.180449046578128e-16 -1.0
  outer loop
    vertex 30.073456169146358 184.07211613649653 22.00000000000001
    vertex 30.9399786445991 189.02508404935307 22.00000000000001
    vertex 30.165922981679316 184.28810236289 22.00000000000001
  endloop
endfacet
facet normal 1.5106022364405252e-15 -6.180449046578128e-16 -1.0
  outer loop
    vertex 30.165922981679316 184.28810236289 22.00000000000001
    vertex 30.9399786445991 189.02508404935307 22.00000000000001
    vertex 30.31114041285001 184.47279686496276 22.00000000000001
  endloop
endfacet
facet normal 1.5106022364405252e-15 -6.180449046578128e-16 -1.0
  outer loop
    vertex 30.31114041285001 184.47279686496276 22.00000000000001
    vertex 30.9399786445991 189.02508404935307 22.00000000000001
    vertex 30.499212134707275 184.61361301762057 22.00000000000001
  endloop
endfacet
facet normal 1.5106022364405252e-15 -6.180449046578128e-16 -1.0
  outer loop
    vertex 30.499212134707275 184.61361301762057 22.00000000000001
    vertex 30.9399786445991 189.02508404935307 22.00000000000001
    vertex 30.717321370209778 184.70095443276955 22.00000000000001
  endloop
endfacet
facet normal 1.5106022364405252e-15 -6.180449046578128e-16 -1.0
  outer loop
    vertex 30.717321370209778 184.70095443276955 22.00000000000001
    vertex 30.9399786445991 189.02508404935307 22.00000000000001
    vertex 30.95060433540057 184.72886893730575 22.00000000000001
  endloop
endfacet
facet normal 1.5106022364405252e-15 -6.180449046578128e-16 -1.0
  outer loop
    vertex 30.95060433540057 184.72886893730575 22.00000000000001
    vertex 30.9399786445991 189.02508404935307 22.00000000000001
    vertex 32.3870643593441 189.62448660042187 22.00000000000001
  endloop
endfacet
facet normal 1.5106022364405252e-15 -6.180449046578128e-16 -1.0
  outer loop
    vertex 30.95060433540057 184.72886893730575 22.00000000000001
    vertex 32.3870643593441 189.62448660042187 22.00000000000001
    vertex 31.183163181720214 184.695454203876 22.00000000000001
  endloop
endfacet
facet normal 1.5106022364405252e-15 -6.180449046578128e-16 -1.0
  outer loop
    vertex 31.183163181720214 184.695454203876 22.00000000000001
    vertex 32.3870643593441 189.62448660042187 22.00000000000001
    vertex 31.399149408113722 184.60298739134302 22.00000000000001
  endloop
endfacet
facet normal 1.5106022364405252e-15 -6.180449046578128e-16 -1.0
  outer loop
    vertex 31.399149408113722 184.60298739134302 22.00000000000001
    vertex 32.3870643593441 189.62448660042187 22.00000000000001
    vertex 31.583843910186456 184.45776996017233 22.00000000000001
  endloop
endfacet
facet normal 1.5106022364405252e-15 -6.180449046578128e-16 -1.0
  outer loop
    vertex 31.583843910186456 184.45776996017233 22.00000000000001
    vertex 32.3870643593441 189.62448660042187 22.00000000000001
    vertex 31.724660062844276 184.2696982383151 22.00000000000001
  endloop
endfacet
facet normal 1.5106022364405252e-15 -6.180449046578128e-16 -1.0
  outer loop
    vertex 31.724660062844276 184.2696982383151 22.00000000000001
    vertex 32.3870643593441 189.62448660042187 22.00000000000001
    vertex 31.812001477993242 184.0515890028126 22.00000000000001
  endloop
endfacet
facet normal 1.5106022364405252e-15 -6.180449046578128e-16 -1.0
  outer loop
    vertex 31.812001477993242 184.0515890028126 22.00000000000001
    vertex 32.3870643593441 189.62448660042187 22.00000000000001
    vertex 31.839915982529458 183.8183060376218 22.00000000000001
  endloop
endfacet
facet normal 1.5106022364405252e-15 -6.180449046578128e-16 -1.0
  outer loop
    vertex 29.697338037808798 179.58629096097502 22.000000000000018
    vertex 30.067955940252816 183.6062743249861 22.00000000000001
    vertex 30.9399787220278 178.63277923374213 22.000000000000018
  endloop
endfacet
facet normal 1.5106022364405252e-15 -6.180449046578128e-16 -1.0
  outer loop
    vertex 30.067955940252816 183.6062743249861 22.00000000000001
    vertex 29.697338037808798 179.58629096097502 22.000000000000018
    vertex 30.040041435716578 183.83955729017688 22.00000000000001
  endloop
endfacet
facet normal 1.5106022364405252e-15 -6.180449046578128e-16 -1.0
  outer loop
    vertex 30.9399787220278 178.63277923374213 22.000000000000018
    vertex 30.067955940252816 183.6062743249861 22.00000000000001
    vertex 30.155297355401782 183.3881650894836 22.00000000000001
  endloop
endfacet
facet normal 1.5106022364405252e-15 -6.180449046578128e-16 -1.0
  outer loop
    vertex 30.9399787220278 178.63277923374213 22.000000000000018
    vertex 30.155297355401782 183.3881650894836 22.00000000000001
    vertex 30.2961135080596 183.20009336762632 22.00000000000001
  endloop
endfacet
facet normal 1.5106022364405252e-15 -6.180449046578128e-16 -1.0
  outer loop
    vertex 30.9399787220278 178.63277923374213 22.000000000000018
    vertex 30.2961135080596 183.20009336762632 22.00000000000001
    vertex 30.480808010132336 183.05487593645563 22.00000000000001
  endloop
endfacet
facet normal 1.5106022364405252e-15 -6.180449046578128e-16 -1.0
  outer loop
    vertex 30.9399787220278 178.63277923374213 22.000000000000018
    vertex 30.480808010132336 183.05487593645563 22.00000000000001
    vertex 30.696794236525832 182.96240912392264 22.00000000000001
  endloop
endfacet
facet normal 1.5106022364405252e-15 -6.180449046578128e-16 -1.0
  outer loop
    vertex 30.9399787220278 178.63277923374213 22.000000000000018
    vertex 30.696794236525832 182.96240912392264 22.00000000000001
    vertex 30.929353082845488 182.9289943904929 22.00000000000001
  endloop
endfacet
facet normal 1.5106022364405252e-15 -6.180449046578128e-16 -1.0
  outer loop
    vertex 30.9399787220278 178.63277923374213 22.000000000000018
    vertex 30.929353082845488 182.9289943904929 22.00000000000001
    vertex 31.16263604803627 182.9569088950291 22.00000000000001
  endloop
endfacet
facet normal 1.5106022364405252e-15 -6.180449046578128e-16 -1.0
  outer loop
    vertex 30.9399787220278 178.63277923374213 22.000000000000018
    vertex 31.16263604803627 182.9569088950291 22.00000000000001
    vertex 32.387064445704596 178.03337670423656 22.000000000000014
  endloop
endfacet
facet normal 1.5106022364405252e-15 -6.180449046578128e-16 -1.0
  outer loop
    vertex 32.387064445704596 178.03337670423656 22.000000000000014
    vertex 31.16263604803627 182.9569088950291 22.00000000000001
    vertex 31.38074528353877 183.04425031017809 22.00000000000001
  endloop
endfacet
facet normal 1.5106022364405252e-15 -6.180449046578128e-16 -1.0
  outer loop
    vertex 32.387064445704596 178.03337670423656 22.000000000000014
    vertex 31.38074528353877 183.04425031017809 22.00000000000001
    vertex 31.56881700539605 183.1850664628359 22.00000000000001
  endloop
endfacet
facet normal 1.5106022364405252e-15 -6.180449046578128e-16 -1.0
  outer loop
    vertex 32.387064445704596 178.03337670423656 22.000000000000014
    vertex 31.56881700539605 183.1850664628359 22.00000000000001
    vertex 31.71403443656673 183.36976096490864 22.00000000000001
  endloop
endfacet
facet normal 1.5106022364405252e-15 -6.180449046578128e-16 -1.0
  outer loop
    vertex 32.387064445704596 178.03337670423656 22.000000000000014
    vertex 31.71403443656673 183.36976096490864 22.00000000000001
    vertex 31.8065012490997 183.58574719130212 22.00000000000001
  endloop
endfacet
facet normal 1.5106022364405252e-15 -6.180449046578128e-16 -1.0
  outer loop
    vertex 32.387064445704596 178.03337670423656 22.000000000000014
    vertex 31.8065012490997 183.58574719130212 22.00000000000001
    vertex 31.839915982529458 183.8183060376218 22.00000000000001
  endloop
endfacet
facet normal 1.5106022364405252e-15 -6.180449046578128e-16 -1.0
  outer loop
    vertex 32.387064445704596 178.03337670423656 22.000000000000014
    vertex 31.839915982529458 183.8183060376218 22.00000000000001
    vertex 32.3870643593441 189.62448660042187 22.00000000000001
  endloop
endfacet
facet normal 1.5106022364405252e-15 -6.180449046578128e-16 -1.0
  outer loop
    vertex 32.387064445704596 178.03337670423656 22.000000000000014
    vertex 32.3870643593441 189.62448660042187 22.00000000000001
    vertex 33.93997870912303 189.82893166389934 22.00000000000001
  endloop
endfacet
facet normal 1.5106022364405252e-15 -6.180449046578128e-16 -1.0
  outer loop
    vertex 32.387064445704596 178.03337670423656 22.000000000000014
    vertex 33.93997870912303 189.82893166389934 22.00000000000001
    vertex 33.939978709123004 177.8289316638993 22.000000000000025
  endloop
endfacet
facet normal 1.5106022364405252e-15 -6.180449046578128e-16 -1.0
  outer loop
    vertex 33.939978709123004 177.8289316638993 22.000000000000025
    vertex 33.93997870912303 189.82893166389934 22.00000000000001
    vertex 46.139978709123135 177.8289316638993 22.000000000000025
  endloop
endfacet
facet normal 1.5106022364405252e-15 -6.180449046578128e-16 -1.0
  outer loop
    vertex 46.139978709123135 177.8289316638993 22.000000000000025
    vertex 33.93997870912303 189.82893166389934 22.00000000000001
    vertex 46.139978709123156 189.82893166389934 22.00000000000001
  endloop
endfacet
facet normal 1.5106022364405252e-15 -6.180449046578128e-16 -1.0
  outer loop
    vertex 46.139978709123135 177.8289316638993 22.000000000000025
    vertex 46.139978709123156 189.82893166389934 22.00000000000001
    vertex 47.692893058902065 178.03337672737678 22.000000000000046
  endloop
endfacet
facet normal 1.5106022364405252e-15 -6.180449046578128e-16 -1.0
  outer loop
    vertex 47.692893058902065 178.03337672737678 22.000000000000046
    vertex 46.139978709123156 189.82893166389934 22.00000000000001
    vertex 47.692892972541586 189.62448662356206 22.000000000000043
  endloop
endfacet
facet normal 1.5106022364405252e-15 -6.180449046578128e-16 -1.0
  outer loop
    vertex 47.692893058902065 178.03337672737678 22.000000000000046
    vertex 47.692892972541586 189.62448662356206 22.000000000000043
    vertex 48.24004143571671 183.83955729017686 22.000000000000046
  endloop
endfacet
facet normal 1.5106022364405252e-15 -6.180449046578128e-16 -1.0
  outer loop
    vertex 48.24004143571671 183.83955729017686 22.000000000000046
    vertex 47.692892972541586 189.62448662356206 22.000000000000043
    vertex 48.27345616914648 184.07211613649653 22.000000000000046
  endloop
endfacet
facet normal 1.5106022364405252e-15 -6.180449046578128e-16 -1.0
  outer loop
    vertex 48.27345616914648 184.07211613649653 22.000000000000046
    vertex 47.692892972541586 189.62448662356206 22.000000000000043
    vertex 49.13997869621838 189.02508409405652 22.000000000000046
  endloop
endfacet
facet normal 1.5106022364405252e-15 -6.180449046578128e-16 -1.0
  outer loop
    vertex 48.27345616914648 184.07211613649653 22.000000000000046
    vertex 49.13997869621838 189.02508409405652 22.000000000000046
    vertex 48.36592298167944 184.28810236289 22.000000000000046
  endloop
endfacet
facet normal 1.5106022364405252e-15 -6.180449046578128e-16 -1.0
  outer loop
    vertex 48.36592298167944 184.28810236289 22.000000000000046
    vertex 49.13997869621838 189.02508409405652 22.000000000000046
    vertex 48.511140412850125 184.47279686496276 22.000000000000046
  endloop
endfacet
facet normal 1.5106022364405252e-15 -6.180449046578128e-16 -1.0
  outer loop
    vertex 48.511140412850125 184.47279686496276 22.000000000000046
    vertex 49.13997869621838 189.02508409405652 22.000000000000046
    vertex 48.69921213470741 184.61361301762057 22.000000000000046
  endloop
endfacet
facet normal 1.5106022364405252e-15 -6.180449046578128e-16 -1.0
  outer loop
    vertex 48.69921213470741 184.61361301762057 22.000000000000046
    vertex 49.13997869621838 189.02508409405652 22.000000000000046
    vertex 48.91732137020991 184.70095443276955 22.000000000000046
  endloop
endfacet
facet normal 1.5106022364405252e-15 -6.180449046578128e-16 -1.0
  outer loop
    vertex 48.91732137020991 184.70095443276955 22.000000000000046
    vertex 49.13997869621838 189.02508409405652 22.000000000000046
    vertex 49.1506043354007 184.72886893730575 22.000000000000046
  endloop
endfacet
facet normal 1.5106022364405252e-15 -6.180449046578128e-16 -1.0
  outer loop
    vertex 49.1506043354007 184.72886893730575 22.000000000000046
    vertex 49.13997869621838 189.02508409405652 22.000000000000046
    vertex 50.382619380437376 188.07157236682366 22.000000000000046
  endloop
endfacet
facet normal 1.5106022364405252e-15 -6.180449046578128e-16 -1.0
  outer loop
    vertex 49.1506043354007 184.72886893730575 22.000000000000046
    vertex 50.382619380437376 188.07157236682366 22.000000000000046
    vertex 49.383163181720334 184.695454203876 22.000000000000046
  endloop
endfacet
facet normal 1.5106022364405252e-15 -6.180449046578128e-16 -1.0
  outer loop
    vertex 49.383163181720334 184.695454203876 22.000000000000046
    vertex 50.382619380437376 188.07157236682366 22.000000000000046
    vertex 49.59914940811385 184.60298739134302 22.000000000000046
  endloop
endfacet
facet normal 1.5106022364405252e-15 -6.180449046578128e-16 -1.0
  outer loop
    vertex 49.59914940811385 184.60298739134302 22.000000000000046
    vertex 50.382619380437376 188.07157236682366 22.000000000000046
    vertex 49.78384391018658 184.45776996017233 22.000000000000046
  endloop
endfacet
facet normal 1.5106022364405252e-15 -6.180449046578128e-16 -1.0
  outer loop
    vertex 49.78384391018658 184.45776996017233 22.000000000000046
    vertex 50.382619380437376 188.07157236682366 22.000000000000046
    vertex 49.924660062844396 184.26969823831504 22.000000000000046
  endloop
endfacet
facet normal 1.5106022364405252e-15 -6.180449046578128e-16 -1.0
  outer loop
    vertex 49.924660062844396 184.26969823831504 22.000000000000046
    vertex 50.382619380437376 188.07157236682366 22.000000000000046
    vertex 50.01200147799336 184.05158900281253 22.000000000000046
  endloop
endfacet
facet normal 1.5106022364405252e-15 -6.180449046578128e-16 -1.0
  outer loop
    vertex 50.01200147799336 184.05158900281253 22.000000000000046
    vertex 50.382619380437376 188.07157236682366 22.000000000000046
    vertex 50.0399159825296 183.81830603762174 22.000000000000046
  endloop
endfacet
facet normal 1.5106022364405252e-15 -6.180449046578128e-16 -1.0
  outer loop
    vertex 47.692893058902065 178.03337672737678 22.000000000000046
    vertex 48.267955940252925 183.60627432498606 22.000000000000046
    vertex 49.13997877364705 178.63277927844558 22.000000000000046
  endloop
endfacet
facet normal 1.5106022364405252e-15 -6.180449046578128e-16 -1.0
  outer loop
    vertex 48.267955940252925 183.60627432498606 22.000000000000046
    vertex 47.692893058902065 178.03337672737678 22.000000000000046
    vertex 48.24004143571671 183.83955729017686 22.000000000000046
  endloop
endfacet
facet normal 1.5106022364405252e-15 -6.180449046578128e-16 -1.0
  outer loop
    vertex 49.13997877364705 178.63277927844558 22.000000000000046
    vertex 48.267955940252925 183.60627432498606 22.000000000000046
    vertex 48.35529735540189 183.38816508948355 22.000000000000046
  endloop
endfacet
facet normal 1.5106022364405252e-15 -6.180449046578128e-16 -1.0
  outer loop
    vertex 49.13997877364705 178.63277927844558 22.000000000000046
    vertex 48.35529735540189 183.38816508948355 22.000000000000046
    vertex 48.49611350805972 183.20009336762632 22.000000000000046
  endloop
endfacet
facet normal 1.5106022364405252e-15 -6.180449046578128e-16 -1.0
  outer loop
    vertex 49.13997877364705 178.63277927844558 22.000000000000046
    vertex 48.49611350805972 183.20009336762632 22.000000000000046
    vertex 48.68080801013246 183.05487593645563 22.000000000000046
  endloop
endfacet
facet normal 1.5106022364405252e-15 -6.180449046578128e-16 -1.0
  outer loop
    vertex 49.13997877364705 178.63277927844558 22.000000000000046
    vertex 48.68080801013246 183.05487593645563 22.000000000000046
    vertex 48.89679423652595 182.96240912392264 22.000000000000046
  endloop
endfacet
facet normal 1.5106022364405252e-15 -6.180449046578128e-16 -1.0
  outer loop
    vertex 49.13997877364705 178.63277927844558 22.000000000000046
    vertex 48.89679423652595 182.96240912392264 22.000000000000046
    vertex 49.129353082845604 182.9289943904929 22.000000000000046
  endloop
endfacet
facet normal 1.5106022364405252e-15 -6.180449046578128e-16 -1.0
  outer loop
    vertex 49.13997877364705 178.63277927844558 22.000000000000046
    vertex 49.129353082845604 182.9289943904929 22.000000000000046
    vertex 49.36263604803638 182.9569088950291 22.000000000000046
  endloop
endfacet
facet normal 1.5106022364405252e-15 -6.180449046578128e-16 -1.0
  outer loop
    vertex 49.13997877364705 178.63277927844558 22.000000000000046
    vertex 49.36263604803638 182.9569088950291 22.000000000000046
    vertex 50.38261944365762 179.58629102419525 22.000000000000046
  endloop
endfacet
facet normal 1.5106022364405252e-15 -6.180449046578128e-16 -1.0
  outer loop
    vertex 50.38261944365762 179.58629102419525 22.000000000000046
    vertex 49.36263604803638 182.9569088950291 22.000000000000046
    vertex 49.580745283538874 183.04425031017809 22.000000000000046
  endloop
endfacet
facet normal 1.5106022364405252e-15 -6.180449046578128e-16 -1.0
  outer loop
    vertex 50.38261944365762 179.58629102419525 22.000000000000046
    vertex 49.580745283538874 183.04425031017809 22.000000000000046
    vertex 49.76881700539616 183.1850664628359 22.000000000000046
  endloop
endfacet
facet normal 1.5106022364405252e-15 -6.180449046578128e-16 -1.0
  outer loop
    vertex 50.38261944365762 179.58629102419525 22.000000000000046
    vertex 49.76881700539616 183.1850664628359 22.000000000000046
    vertex 49.91403443656685 183.36976096490864 22.000000000000046
  endloop
endfacet
facet normal 1.5106022364405252e-15 -6.180449046578128e-16 -1.0
  outer loop
    vertex 50.38261944365762 179.58629102419525 22.000000000000046
    vertex 49.91403443656685 183.36976096490864 22.000000000000046
    vertex 50.006501249099806 183.58574719130212 22.000000000000046
  endloop
endfacet
facet normal 1.5106022364405252e-15 -6.180449046578128e-16 -1.0
  outer loop
    vertex 50.38261944365762 179.58629102419525 22.000000000000046
    vertex 50.006501249099806 183.58574719130212 22.000000000000046
    vertex 50.0399159825296 183.81830603762174 22.000000000000046
  endloop
endfacet
facet normal 1.5106022364405252e-15 -6.180449046578128e-16 -1.0
  outer loop
    vertex 50.38261944365762 179.58629102419525 22.000000000000046
    vertex 50.0399159825296 183.81830603762174 22.000000000000046
    vertex 50.382619380437376 188.07157236682366 22.000000000000046
  endloop
endfacet
facet normal 1.5106022364405252e-15 -6.180449046578128e-16 -1.0
  outer loop
    vertex 50.38261944365762 179.58629102419525 22.000000000000046
    vertex 50.382619380437376 188.07157236682366 22.000000000000046
    vertex 51.33613111692863 186.8289316897089 22.000000000000046
  endloop
endfacet
facet normal 1.5106022364405252e-15 -6.180449046578128e-16 -1.0
  outer loop
    vertex 50.38261944365762 179.58629102419525 22.000000000000046
    vertex 51.33613111692863 186.8289316897089 22.000000000000046
    vertex 51.33613116163211 180.82893171551845 22.000000000000046
  endloop
endfacet
facet normal 1.5106022364405252e-15 -6.180449046578128e-16 -1.0
  outer loop
    vertex 51.33613116163211 180.82893171551845 22.000000000000046
    vertex 51.33613111692863 186.8289316897089 22.000000000000046
    vertex 51.93553365721581 185.381845970498 22.000000000000046
  endloop
endfacet
facet normal 1.5106022364405252e-15 -6.180449046578128e-16 -1.0
  outer loop
    vertex 51.33613116163211 180.82893171551845 22.000000000000046
    vertex 51.93553365721581 185.381845970498 22.000000000000046
    vertex 51.935533680356 182.27601744366115 22.000000000000046
  endloop
endfacet
facet normal 1.5106022364405252e-15 -6.180449046578128e-16 -1.0
  outer loop
    vertex 51.935533680356 182.27601744366115 22.000000000000046
    vertex 51.93553365721581 185.381845970498 22.000000000000046
    vertex 52.13997870912315 183.8289317086028 22.000000000000046
  endloop
endfacet
facet normal 0.6087614383677141 -0.7933533331098267 1.5377930756950242e-17
  outer loop
    vertex 50.38261944365762 179.58629102419525 24.00000000000004
    vertex 49.13997877364705 178.63277927844558 22.000000000000046
    vertex 50.38261944365762 179.58629102419525 22.000000000000046
  endloop
endfacet
facet normal 0.6087614383677141 -0.7933533331098267 1.5377930756950242e-17
  outer loop
    vertex 49.13997877364705 178.63277927844558 22.000000000000046
    vertex 50.38261944365762 179.58629102419525 24.00000000000004
    vertex 49.13997877364705 178.63277927844558 24.00000000000004
  endloop
endfacet
endsolid Werkbank fan 01
