solid Werkbank fan 03
facet normal 0.0 1.0 0.0
  outer loop
    vertex -1.3079485036002125 -301.52177066057374 7.999999999999999
    vertex -0.6079485036002126 -301.52177066057374 7.0
    vertex -1.3079485036002125 -301.52177066057374 7.0
  endloop
endfacet
facet normal 0.0 1.0 0.0
  outer loop
    vertex -0.6079485036002126 -301.52177066057374 7.0
    vertex -1.3079485036002125 -301.52177066057374 7.999999999999999
    vertex -0.6079485036002126 -301.52177066057374 7.999999999999999
  endloop
endfacet
facet normal 0.0 -1.0 0.0
  outer loop
    vertex -0.6079485036002126 -297.52177066057374 7.999999999999999
    vertex -1.3079485036002125 -297.52177066057374 7.0
    vertex -0.6079485036002126 -297.52177066057374 7.0
  endloop
endfacet
facet normal 0.0 -1.0 0.0
  outer loop
    vertex -1.3079485036002125 -297.52177066057374 7.0
    vertex -0.6079485036002126 -297.52177066057374 7.999999999999999
    vertex -1.3079485036002125 -297.52177066057374 7.999999999999999
  endloop
endfacet
facet normal 0.0 0.0 -1.0
  outer loop
    vertex -0.6079485036002126 -297.52177066057374 7.999999999999999
    vertex -1.3079485036002125 -301.52177066057374 7.999999999999999
    vertex -1.3079485036002125 -297.52177066057374 7.999999999999999
  endloop
endfacet
facet normal 0.0 0.0 -1.0
  outer loop
    vertex -1.3079485036002125 -301.52177066057374 7.999999999999999
    vertex -0.6079485036002126 -297.52177066057374 7.999999999999999
    vertex -0.6079485036002126 -301.52177066057374 7.999999999999999
  endloop
endfacet
facet normal 0.0 0.0 1.0
  outer loop
    vertex -0.6079485036002126 -301.52177066057374 7.0
    vertex -1.3079485036002125 -297.52177066057374 7.0
    vertex -1.3079485036002125 -301.52177066057374 7.0
  endloop
endfacet
facet normal 0.0 0.0 1.0
  outer loop
    vertex -1.3079485036002125 -297.52177066057374 7.0
    vertex -0.6079485036002126 -301.52177066057374 7.0
    vertex -0.6079485036002126 -297.52177066057374 7.0
  endloop
endfacet
facet normal 1.0 0.0 0.0
  outer loop
    vertex -1.3079485036002125 -297.52177066057374 7.0
    vertex -1.3079485036002125 -301.52177066057374 7.999999999999999
    vertex -1.3079485036002125 -301.52177066057374 7.0
  endloop
endfacet
facet normal 1.0 0.0 0.0
  outer loop
    vertex -1.3079485036002125 -301.52177066057374 7.999999999999999
    vertex -1.3079485036002125 -297.52177066057374 7.0
    vertex -1.3079485036002125 -297.52177066057374 7.999999999999999
  endloop
endfacet
facet normal 0.0 1.0 0.0
  outer loop
    vertex -2.1079485036002126 -292.52177066057374 -1.5
    vertex -0.6079485036002126 -292.52177066057374 1.9999999999999991
    vertex 10.392051496399787 -292.52177066057374 -1.5
  endloop
endfacet
facet normal 0.0 1.0 0.0
  outer loop
    vertex -0.6079485036002126 -292.52177066057374 1.9999999999999991
    vertex -2.1079485036002126 -292.52177066057374 -1.5
    vertex -2.1079485036002126 -292.52177066057374 8.999999999999998
  endloop
endfacet
facet normal 0.0 1.0 0.0
  outer loop
    vertex -0.6079485036002126 -292.52177066057374 1.9999999999999991
    vertex -2.1079485036002126 -292.52177066057374 8.999999999999998
    vertex -0.6079485036002126 -292.52177066057374 8.999999999999998
  endloop
endfacet
facet normal 0.0 1.0 0.0
  outer loop
    vertex 10.392051496399787 -292.52177066057374 1.9999999999999991
    vertex 10.392051496399787 -292.52177066057374 -1.5
    vertex -0.6079485036002126 -292.52177066057374 1.9999999999999991
  endloop
endfacet
facet normal 0.0 0.0 1.0
  outer loop
    vertex -0.6079485036002126 -325.52177066057374 8.999999999999998
    vertex -2.1079485036002126 -292.52177066057374 8.999999999999998
    vertex -2.1079485036002126 -325.52177066057374 8.999999999999998
  endloop
endfacet
facet normal 0.0 0.0 1.0
  outer loop
    vertex -2.1079485036002126 -292.52177066057374 8.999999999999998
    vertex -0.6079485036002126 -325.52177066057374 8.999999999999998
    vertex -0.6079485036002126 -292.52177066057374 8.999999999999998
  endloop
endfacet
facet normal 0.0 1.0 0.0
  outer loop
    vertex -0.6079485036002126 -322.52177066057374 1.4999999999999993
    vertex 10.392051496399787 -322.52177066057374 0.0
    vertex -0.6079485036002126 -322.52177066057374 0.0
  endloop
endfacet
facet normal 0.0 1.0 0.0
  outer loop
    vertex 10.392051496399787 -322.52177066057374 0.0
    vertex -0.6079485036002126 -322.52177066057374 1.4999999999999993
    vertex 10.392051496399787 -322.52177066057374 1.4999999999999993
  endloop
endfacet
facet normal 0.0 0.0 1.0
  outer loop
    vertex 10.392051496399787 -322.52177066057374 0.0
    vertex -0.6079485036002126 -295.52177066057374 0.0
    vertex -0.6079485036002126 -322.52177066057374 0.0
  endloop
endfacet
facet normal 0.0 0.0 1.0
  outer loop
    vertex -0.6079485036002126 -295.52177066057374 0.0
    vertex 10.392051496399787 -322.52177066057374 0.0
    vertex 10.392051496399787 -295.52177066057374 0.0
  endloop
endfacet
facet normal -0.0 -1.0 -0.0
  outer loop
    vertex 10.392051496399787 -295.52177066057374 1.9999999999999991
    vertex -0.6079485036002126 -295.52177066057374 0.0
    vertex 10.392051496399787 -295.52177066057374 0.0
  endloop
endfacet
facet normal -0.0 -1.0 -0.0
  outer loop
    vertex -0.6079485036002126 -295.52177066057374 0.0
    vertex 10.392051496399787 -295.52177066057374 1.9999999999999991
    vertex -0.6079485036002126 -295.52177066057374 1.9999999999999991
  endloop
endfacet
facet normal -1.0 0.0 0.0
  outer loop
    vertex 10.392051496399787 -325.52177066057374 8.999999999999998
    vertex 10.392051496399787 -320.52177066057374 7.999999999999999
    vertex 10.392051496399787 -325.52177066057374 1.4999999999999993
  endloop
endfacet
facet normal -1.0 0.0 0.0
  outer loop
    vertex 10.392051496399787 -320.52177066057374 7.999999999999999
    vertex 10.392051496399787 -325.52177066057374 8.999999999999998
    vertex 10.392051496399787 -292.52177066057374 8.999999999999998
  endloop
endfacet
facet normal -1.0 0.0 0.0
  outer loop
    vertex 10.392051496399787 -325.52177066057374 1.4999999999999993
    vertex 10.392051496399787 -320.52177066057374 7.999999999999999
    vertex 10.392051496399787 -322.52177066057374 1.4999999999999993
  endloop
endfacet
facet normal -1.0 0.0 0.0
  outer loop
    vertex 10.392051496399787 -322.52177066057374 1.4999999999999993
    vertex 10.392051496399787 -320.52177066057374 7.999999999999999
    vertex 10.392051496399787 -322.52177066057374 0.0
  endloop
endfacet
facet normal -1.0 0.0 0.0
  outer loop
    vertex 10.392051496399787 -320.52177066057374 7.999999999999999
    vertex 10.392051496399787 -292.52177066057374 8.999999999999998
    vertex 10.392051496399787 -316.52177066057374 7.999999999999999
  endloop
endfacet
facet normal -1.0 0.0 0.0
  outer loop
    vertex 10.392051496399787 -316.52177066057374 7.999999999999999
    vertex 10.392051496399787 -292.52177066057374 8.999999999999998
    vertex 10.392051496399787 -316.52177066057374 7.0
  endloop
endfacet
facet normal -1.0 0.0 0.0
  outer loop
    vertex 10.392051496399787 -316.52177066057374 7.0
    vertex 10.392051496399787 -292.52177066057374 8.999999999999998
    vertex 10.392051496399787 -301.52177066057374 7.999999999999999
  endloop
endfacet
facet normal -1.0 0.0 0.0
  outer loop
    vertex 10.392051496399787 -301.52177066057374 7.999999999999999
    vertex 10.392051496399787 -292.52177066057374 8.999999999999998
    vertex 10.392051496399787 -297.52177066057374 7.999999999999999
  endloop
endfacet
facet normal -1.0 0.0 0.0
  outer loop
    vertex 10.392051496399787 -297.52177066057374 7.999999999999999
    vertex 10.392051496399787 -292.52177066057374 8.999999999999998
    vertex 10.392051496399787 -297.52177066057374 7.0
  endloop
endfacet
facet normal -1.0 0.0 0.0
  outer loop
    vertex 10.392051496399787 -297.52177066057374 7.0
    vertex 10.392051496399787 -292.52177066057374 8.999999999999998
    vertex 10.392051496399787 -295.52177066057374 1.9999999999999991
  endloop
endfacet
facet normal -1.0 0.0 0.0
  outer loop
    vertex 10.392051496399787 -295.52177066057374 1.9999999999999991
    vertex 10.392051496399787 -292.52177066057374 8.999999999999998
    vertex 10.392051496399787 -292.52177066057374 1.9999999999999991
  endloop
endfacet
facet normal -1.0 0.0 0.0
  outer loop
    vertex 10.392051496399787 -322.52177066057374 0.0
    vertex 10.392051496399787 -320.52177066057374 7.0
    vertex 10.392051496399787 -295.52177066057374 0.0
  endloop
endfacet
facet normal -1.0 0.0 0.0
  outer loop
    vertex 10.392051496399787 -320.52177066057374 7.0
    vertex 10.392051496399787 -322.52177066057374 0.0
    vertex 10.392051496399787 -320.52177066057374 7.999999999999999
  endloop
endfacet
facet normal -1.0 0.0 0.0
  outer loop
    vertex 10.392051496399787 -295.52177066057374 0.0
    vertex 10.392051496399787 -320.52177066057374 7.0
    vertex 10.392051496399787 -316.52177066057374 7.0
  endloop
endfacet
facet normal -1.0 0.0 0.0
  outer loop
    vertex 10.392051496399787 -295.52177066057374 0.0
    vertex 10.392051496399787 -316.52177066057374 7.0
    vertex 10.392051496399787 -301.52177066057374 7.0
  endloop
endfacet
facet normal -1.0 0.0 0.0
  outer loop
    vertex 10.392051496399787 -301.52177066057374 7.0
    vertex 10.392051496399787 -316.52177066057374 7.0
    vertex 10.392051496399787 -301.52177066057374 7.999999999999999
  endloop
endfacet
facet normal -1.0 0.0 0.0
  outer loop
    vertex 10.392051496399787 -295.52177066057374 0.0
    vertex 10.392051496399787 -301.52177066057374 7.0
    vertex 10.392051496399787 -297.52177066057374 7.0
  endloop
endfacet
facet normal -1.0 0.0 0.0
  outer loop
    vertex 10.392051496399787 -295.52177066057374 0.0
    vertex 10.392051496399787 -297.52177066057374 7.0
    vertex 10.392051496399787 -295.52177066057374 1.9999999999999991
  endloop
endfacet
facet normal 0.0 0.0 1.0
  outer loop
    vertex 10.392051496399787 -325.52177066057374 1.4999999999999993
    vertex -0.6079485036002126 -322.52177066057374 1.4999999999999993
    vertex -0.6079485036002126 -325.52177066057374 1.4999999999999993
  endloop
endfacet
facet normal 0.0 0.0 1.0
  outer loop
    vertex -0.6079485036002126 -322.52177066057374 1.4999999999999993
    vertex 10.392051496399787 -325.52177066057374 1.4999999999999993
    vertex 10.392051496399787 -322.52177066057374 1.4999999999999993
  endloop
endfacet
facet normal 1.0 0.0 0.0
  outer loop
    vertex -0.6079485036002126 -295.52177066057374 0.0
    vertex -0.6079485036002126 -322.52177066057374 1.4999999999999993
    vertex -0.6079485036002126 -322.52177066057374 0.0
  endloop
endfacet
facet normal 1.0 0.0 0.0
  outer loop
    vertex -0.6079485036002126 -322.52177066057374 1.4999999999999993
    vertex -0.6079485036002126 -295.52177066057374 0.0
    vertex -0.6079485036002126 -320.52177066057374 7.0
  endloop
endfacet
facet normal 1.0 0.0 0.0
  outer loop
    vertex -0.6079485036002126 -320.52177066057374 7.0
    vertex -0.6079485036002126 -295.52177066057374 0.0
    vertex -0.6079485036002126 -316.52177066057374 7.0
  endloop
endfacet
facet normal 1.0 0.0 0.0
  outer loop
    vertex -0.6079485036002126 -316.52177066057374 7.0
    vertex -0.6079485036002126 -295.52177066057374 0.0
    vertex -0.6079485036002126 -316.52177066057374 7.999999999999999
  endloop
endfacet
facet normal 1.0 0.0 0.0
  outer loop
    vertex -0.6079485036002126 -316.52177066057374 7.999999999999999
    vertex -0.6079485036002126 -295.52177066057374 0.0
    vertex -0.6079485036002126 -301.52177066057374 7.0
  endloop
endfacet
facet normal 1.0 0.0 0.0
  outer loop
    vertex -0.6079485036002126 -301.52177066057374 7.0
    vertex -0.6079485036002126 -295.52177066057374 0.0
    vertex -0.6079485036002126 -297.52177066057374 7.0
  endloop
endfacet
facet normal 1.0 0.0 0.0
  outer loop
    vertex -0.6079485036002126 -297.52177066057374 7.0
    vertex -0.6079485036002126 -295.52177066057374 0.0
    vertex -0.6079485036002126 -297.52177066057374 7.999999999999999
  endloop
endfacet
facet normal 1.0 0.0 0.0
  outer loop
    vertex -0.6079485036002126 -322.52177066057374 1.4999999999999993
    vertex -0.6079485036002126 -325.52177066057374 8.999999999999998
    vertex -0.6079485036002126 -325.52177066057374 1.4999999999999993
  endloop
endfacet
facet normal 1.0 0.0 0.0
  outer loop
    vertex -0.6079485036002126 -325.52177066057374 8.999999999999998
    vertex -0.6079485036002126 -322.52177066057374 1.4999999999999993
    vertex -0.6079485036002126 -320.52177066057374 7.999999999999999
  endloop
endfacet
facet normal 1.0 0.0 0.0
  outer loop
    vertex -0.6079485036002126 -325.52177066057374 8.999999999999998
    vertex -0.6079485036002126 -320.52177066057374 7.999999999999999
    vertex -0.6079485036002126 -292.52177066057374 8.999999999999998
  endloop
endfacet
facet normal 1.0 0.0 0.0
  outer loop
    vertex -0.6079485036002126 -320.52177066057374 7.999999999999999
    vertex -0.6079485036002126 -322.52177066057374 1.4999999999999993
    vertex -0.6079485036002126 -320.52177066057374 7.0
  endloop
endfacet
facet normal 1.0 0.0 0.0
  outer loop
    vertex -0.6079485036002126 -292.52177066057374 8.999999999999998
    vertex -0.6079485036002126 -320.52177066057374 7.999999999999999
    vertex -0.6079485036002126 -316.52177066057374 7.999999999999999
  endloop
endfacet
facet normal 1.0 0.0 0.0
  outer loop
    vertex -0.6079485036002126 -292.52177066057374 8.999999999999998
    vertex -0.6079485036002126 -316.52177066057374 7.999999999999999
    vertex -0.6079485036002126 -301.52177066057374 7.999999999999999
  endloop
endfacet
facet normal 1.0 0.0 0.0
  outer loop
    vertex -0.6079485036002126 -301.52177066057374 7.999999999999999
    vertex -0.6079485036002126 -316.52177066057374 7.999999999999999
    vertex -0.6079485036002126 -301.52177066057374 7.0
  endloop
endfacet
facet normal 1.0 0.0 0.0
  outer loop
    vertex -0.6079485036002126 -292.52177066057374 8.999999999999998
    vertex -0.6079485036002126 -301.52177066057374 7.999999999999999
    vertex -0.6079485036002126 -297.52177066057374 7.999999999999999
  endloop
endfacet
facet normal 1.0 0.0 0.0
  outer loop
    vertex -0.6079485036002126 -292.52177066057374 8.999999999999998
    vertex -0.6079485036002126 -297.52177066057374 7.999999999999999
    vertex -0.6079485036002126 -295.52177066057374 1.9999999999999991
  endloop
endfacet
facet normal 1.0 0.0 0.0
  outer loop
    vertex -0.6079485036002126 -295.52177066057374 1.9999999999999991
    vertex -0.6079485036002126 -297.52177066057374 7.999999999999999
    vertex -0.6079485036002126 -295.52177066057374 0.0
  endloop
endfacet
facet normal 1.0 0.0 0.0
  outer loop
    vertex -0.6079485036002126 -292.52177066057374 8.999999999999998
    vertex -0.6079485036002126 -295.52177066057374 1.9999999999999991
    vertex -0.6079485036002126 -292.52177066057374 1.9999999999999991
  endloop
endfacet
facet normal 0.0 -1.0 0.0
  outer loop
    vertex -2.1079485036002126 -325.52177066057374 -1.5
    vertex -0.6079485036002126 -325.52177066057374 1.4999999999999993
    vertex -2.1079485036002126 -325.52177066057374 8.999999999999998
  endloop
endfacet
facet normal 0.0 -1.0 0.0
  outer loop
    vertex -0.6079485036002126 -325.52177066057374 1.4999999999999993
    vertex -2.1079485036002126 -325.52177066057374 -1.5
    vertex 10.392051496399787 -325.52177066057374 1.4999999999999993
  endloop
endfacet
facet normal 0.0 -1.0 0.0
  outer loop
    vertex -2.1079485036002126 -325.52177066057374 8.999999999999998
    vertex -0.6079485036002126 -325.52177066057374 1.4999999999999993
    vertex -0.6079485036002126 -325.52177066057374 8.999999999999998
  endloop
endfacet
facet normal 0.0 -1.0 0.0
  outer loop
    vertex 11.892051496399787 -325.52177066057374 -1.5
    vertex 10.392051496399787 -325.52177066057374 1.4999999999999993
    vertex -2.1079485036002126 -325.52177066057374 -1.5
  endloop
endfacet
facet normal 0.0 -1.0 0.0
  outer loop
    vertex 10.392051496399787 -325.52177066057374 1.4999999999999993
    vertex 11.892051496399787 -325.52177066057374 -1.5
    vertex 11.892051496399787 -325.52177066057374 8.999999999999998
  endloop
endfacet
facet normal 0.0 -1.0 0.0
  outer loop
    vertex 10.392051496399787 -325.52177066057374 1.4999999999999993
    vertex 11.892051496399787 -325.52177066057374 8.999999999999998
    vertex 10.392051496399787 -325.52177066057374 8.999999999999998
  endloop
endfacet
facet normal 0.0 0.0 -1.0
  outer loop
    vertex -0.6079485036002126 -316.52177066057374 7.999999999999999
    vertex -1.3079485036002125 -320.52177066057374 7.999999999999999
    vertex -1.3079485036002125 -316.52177066057374 7.999999999999999
  endloop
endfacet
facet normal 0.0 0.0 -1.0
  outer loop
    vertex -1.3079485036002125 -320.52177066057374 7.999999999999999
    vertex -0.6079485036002126 -316.52177066057374 7.999999999999999
    vertex -0.6079485036002126 -320.52177066057374 7.999999999999999
  endloop
endfacet
facet normal 0.0 -1.0 0.0
  outer loop
    vertex -0.6079485036002126 -316.52177066057374 7.999999999999999
    vertex -1.3079485036002125 -316.52177066057374 7.0
    vertex -0.6079485036002126 -316.52177066057374 7.0
  endloop
endfacet
facet normal 0.0 -1.0 0.0
  outer loop
    vertex -1.3079485036002125 -316.52177066057374 7.0
    vertex -0.6079485036002126 -316.52177066057374 7.999999999999999
    vertex -1.3079485036002125 -316.52177066057374 7.999999999999999
  endloop
endfacet
facet normal 0.0 0.0 1.0
  outer loop
    vertex -0.6079485036002126 -320.52177066057374 7.0
    vertex -1.3079485036002125 -316.52177066057374 7.0
    vertex -1.3079485036002125 -320.52177066057374 7.0
  endloop
endfacet
facet normal 0.0 0.0 1.0
  outer loop
    vertex -1.3079485036002125 -316.52177066057374 7.0
    vertex -0.6079485036002126 -320.52177066057374 7.0
    vertex -0.6079485036002126 -316.52177066057374 7.0
  endloop
endfacet
facet normal 1.0 0.0 0.0
  outer loop
    vertex -1.3079485036002125 -316.52177066057374 7.0
    vertex -1.3079485036002125 -320.52177066057374 7.999999999999999
    vertex -1.3079485036002125 -320.52177066057374 7.0
  endloop
endfacet
facet normal 1.0 0.0 0.0
  outer loop
    vertex -1.3079485036002125 -320.52177066057374 7.999999999999999
    vertex -1.3079485036002125 -316.52177066057374 7.0
    vertex -1.3079485036002125 -316.52177066057374 7.999999999999999
  endloop
endfacet
facet normal 0.0 1.0 0.0
  outer loop
    vertex -1.3079485036002125 -320.52177066057374 7.999999999999999
    vertex -0.6079485036002126 -320.52177066057374 7.0
    vertex -1.3079485036002125 -320.52177066057374 7.0
  endloop
endfacet
facet normal 0.0 1.0 0.0
  outer loop
    vertex -0.6079485036002126 -320.52177066057374 7.0
    vertex -1.3079485036002125 -320.52177066057374 7.999999999999999
    vertex -0.6079485036002126 -320.52177066057374 7.999999999999999
  endloop
endfacet
facet normal -1.0 0.0 0.0
  outer loop
    vertex 11.092051496399785 -316.52177066057374 7.999999999999999
    vertex 11.092051496399785 -320.52177066057374 7.0
    vertex 11.092051496399785 -320.52177066057374 7.999999999999999
  endloop
endfacet
facet normal -1.0 0.0 0.0
  outer loop
    vertex 11.092051496399785 -320.52177066057374 7.0
    vertex 11.092051496399785 -316.52177066057374 7.999999999999999
    vertex 11.092051496399785 -316.52177066057374 7.0
  endloop
endfacet
facet normal 0.0 0.0 1.0
  outer loop
    vertex 10.392051496399787 -295.52177066057374 1.9999999999999991
    vertex -0.6079485036002126 -292.52177066057374 1.9999999999999991
    vertex -0.6079485036002126 -295.52177066057374 1.9999999999999991
  endloop
endfacet
facet normal 0.0 0.0 1.0
  outer loop
    vertex -0.6079485036002126 -292.52177066057374 1.9999999999999991
    vertex 10.392051496399787 -295.52177066057374 1.9999999999999991
    vertex 10.392051496399787 -292.52177066057374 1.9999999999999991
  endloop
endfacet
facet normal 0.0 1.0 0.0
  outer loop
    vertex 10.392051496399787 -292.52177066057374 1.9999999999999991
    vertex 11.892051496399787 -292.52177066057374 -1.5
    vertex 10.392051496399787 -292.52177066057374 -1.5
  endloop
endfacet
facet normal 0.0 1.0 0.0
  outer loop
    vertex 11.892051496399787 -292.52177066057374 -1.5
    vertex 10.392051496399787 -292.52177066057374 1.9999999999999991
    vertex 11.892051496399787 -292.52177066057374 8.999999999999998
  endloop
endfacet
facet normal 0.0 1.0 0.0
  outer loop
    vertex 11.892051496399787 -292.52177066057374 8.999999999999998
    vertex 10.392051496399787 -292.52177066057374 1.9999999999999991
    vertex 10.392051496399787 -292.52177066057374 8.999999999999998
  endloop
endfacet
facet normal 0.0 0.0 1.0
  outer loop
    vertex 11.892051496399787 -325.52177066057374 8.999999999999998
    vertex 10.392051496399787 -292.52177066057374 8.999999999999998
    vertex 10.392051496399787 -325.52177066057374 8.999999999999998
  endloop
endfacet
facet normal 0.0 0.0 1.0
  outer loop
    vertex 10.392051496399787 -292.52177066057374 8.999999999999998
    vertex 11.892051496399787 -325.52177066057374 8.999999999999998
    vertex 11.892051496399787 -292.52177066057374 8.999999999999998
  endloop
endfacet
facet normal 1.0 0.0 0.0
  outer loop
    vertex 11.892051496399787 -292.52177066057374 -1.5
    vertex 11.892051496399787 -325.52177066057374 8.999999999999998
    vertex 11.892051496399787 -325.52177066057374 -1.5
  endloop
endfacet
facet normal 1.0 0.0 0.0
  outer loop
    vertex 11.892051496399787 -325.52177066057374 8.999999999999998
    vertex 11.892051496399787 -292.52177066057374 -1.5
    vertex 11.892051496399787 -292.52177066057374 8.999999999999998
  endloop
endfacet
facet normal 0.0 0.0 -1.0
  outer loop
    vertex 10.392051496399787 -292.52177066057374 -1.5
    vertex -2.1079485036002126 -325.52177066057374 -1.5
    vertex -2.1079485036002126 -292.52177066057374 -1.5
  endloop
endfacet
facet normal 0.0 0.0 -1.0
  outer loop
    vertex -2.1079485036002126 -325.52177066057374 -1.5
    vertex 10.392051496399787 -292.52177066057374 -1.5
    vertex 11.892051496399787 -325.52177066057374 -1.5
  endloop
endfacet
facet normal 0.0 0.0 -1.0
  outer loop
    vertex 11.892051496399787 -325.52177066057374 -1.5
    vertex 10.392051496399787 -292.52177066057374 -1.5
    vertex 11.892051496399787 -292.52177066057374 -1.5
  endloop
endfacet
facet normal -1.0 0.0 0.0
  outer loop
    vertex -2.1079485036002126 -292.52177066057374 8.999999999999998
    vertex -2.1079485036002126 -325.52177066057374 -1.5
    vertex -2.1079485036002126 -325.52177066057374 8.999999999999998
  endloop
endfacet
facet normal -1.0 0.0 0.0
  outer loop
    vertex -2.1079485036002126 -325.52177066057374 -1.5
    vertex -2.1079485036002126 -292.52177066057374 8.999999999999998
    vertex -2.1079485036002126 -292.52177066057374 -1.5
  endloop
endfacet
facet normal 0.0 1.0 0.0
  outer loop
    vertex 10.392051496399787 -301.52177066057374 7.999999999999999
    vertex 11.092051496399785 -301.52177066057374 7.0
    vertex 10.392051496399787 -301.52177066057374 7.0
  endloop
endfacet
facet normal 0.0 1.0 0.0
  outer loop
    vertex 11.092051496399785 -301.52177066057374 7.0
    vertex 10.392051496399787 -301.52177066057374 7.999999999999999
    vertex 11.092051496399785 -301.52177066057374 7.999999999999999
  endloop
endfacet
facet normal 0.0 0.0 1.0
  outer loop
    vertex 11.092051496399785 -320.52177066057374 7.0
    vertex 10.392051496399787 -316.52177066057374 7.0
    vertex 10.392051496399787 -320.52177066057374 7.0
  endloop
endfacet
facet normal 0.0 0.0 1.0
  outer loop
    vertex 10.392051496399787 -316.52177066057374 7.0
    vertex 11.092051496399785 -320.52177066057374 7.0
    vertex 11.092051496399785 -316.52177066057374 7.0
  endloop
endfacet
facet normal 0.0 1.0 0.0
  outer loop
    vertex 10.392051496399787 -320.52177066057374 7.999999999999999
    vertex 11.092051496399785 -320.52177066057374 7.0
    vertex 10.392051496399787 -320.52177066057374 7.0
  endloop
endfacet
facet normal 0.0 1.0 0.0
  outer loop
    vertex 11.092051496399785 -320.52177066057374 7.0
    vertex 10.392051496399787 -320.52177066057374 7.999999999999999
    vertex 11.092051496399785 -320.52177066057374 7.999999999999999
  endloop
endfacet
facet normal -1.0 0.0 0.0
  outer loop
    vertex 11.092051496399785 -297.52177066057374 7.999999999999999
    vertex 11.092051496399785 -301.52177066057374 7.0
    vertex 11.092051496399785 -301.52177066057374 7.999999999999999
  endloop
endfacet
facet normal -1.0 0.0 0.0
  outer loop
    vertex 11.092051496399785 -301.52177066057374 7.0
    vertex 11.092051496399785 -297.52177066057374 7.999999999999999
    vertex 11.092051496399785 -297.52177066057374 7.0
  endloop
endfacet
facet normal 0.0 -1.0 0.0
  outer loop
    vertex 11.092051496399785 -316.52177066057374 7.999999999999999
    vertex 10.392051496399787 -316.52177066057374 7.0
    vertex 11.092051496399785 -316.52177066057374 7.0
  endloop
endfacet
facet normal 0.0 -1.0 0.0
  outer loop
    vertex 10.392051496399787 -316.52177066057374 7.0
    vertex 11.092051496399785 -316.52177066057374 7.999999999999999
    vertex 10.392051496399787 -316.52177066057374 7.999999999999999
  endloop
endfacet
facet normal 0.0 0.0 -1.0
  outer loop
    vertex 11.092051496399785 -297.52177066057374 7.999999999999999
    vertex 10.392051496399787 -301.52177066057374 7.999999999999999
    vertex 10.392051496399787 -297.52177066057374 7.999999999999999
  endloop
endfacet
facet normal 0.0 0.0 -1.0
  outer loop
    vertex 10.392051496399787 -301.52177066057374 7.999999999999999
    vertex 11.092051496399785 -297.52177066057374 7.999999999999999
    vertex 11.092051496399785 -301.52177066057374 7.999999999999999
  endloop
endfacet
facet normal 0.0 -1.0 0.0
  outer loop
    vertex 11.092051496399785 -297.52177066057374 7.999999999999999
    vertex 10.392051496399787 -297.52177066057374 7.0
    vertex 11.092051496399785 -297.52177066057374 7.0
  endloop
endfacet
facet normal 0.0 -1.0 0.0
  outer loop
    vertex 10.392051496399787 -297.52177066057374 7.0
    vertex 11.092051496399785 -297.52177066057374 7.999999999999999
    vertex 10.392051496399787 -297.52177066057374 7.999999999999999
  endloop
endfacet
facet normal 0.0 0.0 1.0
  outer loop
    vertex 11.092051496399785 -301.52177066057374 7.0
    vertex 10.392051496399787 -297.52177066057374 7.0
    vertex 10.392051496399787 -301.52177066057374 7.0
  endloop
endfacet
facet normal 0.0 0.0 1.0
  outer loop
    vertex 10.392051496399787 -297.52177066057374 7.0
    vertex 11.092051496399785 -301.52177066057374 7.0
    vertex 11.092051496399785 -297.52177066057374 7.0
  endloop
endfacet
facet normal 0.0 0.0 -1.0
  outer loop
    vertex 11.092051496399785 -316.52177066057374 7.999999999999999
    vertex 10.392051496399787 -320.52177066057374 7.999999999999999
    vertex 10.392051496399787 -316.52177066057374 7.999999999999999
  endloop
endfacet
facet normal 0.0 0.0 -1.0
  outer loop
    vertex 10.392051496399787 -320.52177066057374 7.999999999999999
    vertex 11.092051496399785 -316.52177066057374 7.999999999999999
    vertex 11.092051496399785 -320.52177066057374 7.999999999999999
  endloop
endfacet
endsolid Werkbank fan 03
