solid Werkbank fan 03
facet normal 0.0 0.0 -1.0
  outer loop
    vertex -0.6079485036002126 -242.52177066057376 6.499999999999999
    vertex -2.1079485036002126 -275.52177066057374 6.499999999999999
    vertex -2.1079485036002126 -242.52177066057376 6.499999999999999
  endloop
endfacet
facet normal 0.0 0.0 -1.0
  outer loop
    vertex -2.1079485036002126 -275.52177066057374 6.499999999999999
    vertex -0.6079485036002126 -242.52177066057376 6.499999999999999
    vertex -0.607948503600215 -266.62177066057376 6.499999999999999
  endloop
endfacet
facet normal 0.0 0.0 -1.0
  outer loop
    vertex -0.607948503600215 -266.62177066057376 6.499999999999999
    vertex -0.6079485036002126 -242.52177066057376 6.499999999999999
    vertex -0.6079485036002126 -245.52177066057374 6.499999999999999
  endloop
endfacet
facet normal 0.0 0.0 -1.0
  outer loop
    vertex -0.607948503600215 -266.62177066057376 6.499999999999999
    vertex -0.6079485036002126 -245.52177066057374 6.499999999999999
    vertex -0.6079485036001676 -251.42177066057377 6.499999999999999
  endloop
endfacet
facet normal 0.0 0.0 -1.0
  outer loop
    vertex -0.607948503600215 -266.62177066057376 6.499999999999999
    vertex -0.6079485036001676 -251.42177066057377 6.499999999999999
    vertex 0.8920514963997851 -266.62177066057376 6.499999999999999
  endloop
endfacet
facet normal 0.0 0.0 -1.0
  outer loop
    vertex -0.6079485036001676 -251.42177066057377 6.499999999999999
    vertex -0.6079485036002126 -245.52177066057374 6.499999999999999
    vertex -0.6079485036001699 -247.62177066057376 6.499999999999999
  endloop
endfacet
facet normal 0.0 0.0 -1.0
  outer loop
    vertex 0.8920514963997851 -266.62177066057376 6.499999999999999
    vertex -0.6079485036001676 -251.42177066057377 6.499999999999999
    vertex 0.8920514963998326 -251.42177066057377 6.499999999999999
  endloop
endfacet
facet normal 0.0 0.0 -1.0
  outer loop
    vertex 0.8920514963997851 -266.62177066057376 6.499999999999999
    vertex 0.8920514963998326 -251.42177066057377 6.499999999999999
    vertex 0.8920514963997875 -270.4217706605737 6.499999999999999
  endloop
endfacet
facet normal 0.0 0.0 -1.0
  outer loop
    vertex 10.392051496399787 -245.52177066057374 6.499999999999999
    vertex -0.6079485036001699 -247.62177066057376 6.499999999999999
    vertex -0.6079485036002126 -245.52177066057374 6.499999999999999
  endloop
endfacet
facet normal 0.0 0.0 -1.0
  outer loop
    vertex -0.6079485036001699 -247.62177066057376 6.499999999999999
    vertex 10.392051496399787 -245.52177066057374 6.499999999999999
    vertex 0.8920514963998302 -247.62177066057376 6.499999999999999
  endloop
endfacet
facet normal 0.0 0.0 -1.0
  outer loop
    vertex 0.8920514963998302 -247.62177066057376 6.499999999999999
    vertex 10.392051496399787 -245.52177066057374 6.499999999999999
    vertex 0.8920514963998326 -251.42177066057377 6.499999999999999
  endloop
endfacet
facet normal 0.0 0.0 -1.0
  outer loop
    vertex 0.8920514963998326 -251.42177066057377 6.499999999999999
    vertex 10.392051496399787 -245.52177066057374 6.499999999999999
    vertex 8.892051496399786 -247.62177066057376 6.499999999999999
  endloop
endfacet
facet normal 0.0 0.0 -1.0
  outer loop
    vertex 8.892051496399786 -247.62177066057376 6.499999999999999
    vertex 10.392051496399787 -245.52177066057374 6.499999999999999
    vertex 10.392051496399786 -247.62177066057376 6.499999999999999
  endloop
endfacet
facet normal 0.0 0.0 -1.0
  outer loop
    vertex 10.392051496399786 -247.62177066057376 6.499999999999999
    vertex 10.392051496399787 -245.52177066057374 6.499999999999999
    vertex 10.392051496399786 -251.42177066057377 6.499999999999999
  endloop
endfacet
facet normal 0.0 0.0 -1.0
  outer loop
    vertex 10.392051496399786 -251.42177066057377 6.499999999999999
    vertex 10.392051496399787 -245.52177066057374 6.499999999999999
    vertex 10.392051496399786 -266.62177066057376 6.499999999999999
  endloop
endfacet
facet normal 0.0 0.0 -1.0
  outer loop
    vertex 10.392051496399786 -266.62177066057376 6.499999999999999
    vertex 10.392051496399787 -245.52177066057374 6.499999999999999
    vertex 10.392051496399786 -270.42177066057377 6.499999999999999
  endloop
endfacet
facet normal 0.0 0.0 -1.0
  outer loop
    vertex 11.892051496399787 -242.52177066057376 6.499999999999999
    vertex 10.392051496399787 -245.52177066057374 6.499999999999999
    vertex 10.392051496399787 -242.52177066057376 6.499999999999999
  endloop
endfacet
facet normal 0.0 0.0 -1.0
  outer loop
    vertex 10.392051496399787 -245.52177066057374 6.499999999999999
    vertex 11.892051496399787 -242.52177066057376 6.499999999999999
    vertex 10.392051496399787 -272.52177066057374 6.499999999999999
  endloop
endfacet
facet normal 0.0 0.0 -1.0
  outer loop
    vertex 10.392051496399787 -272.52177066057374 6.499999999999999
    vertex 11.892051496399787 -242.52177066057376 6.499999999999999
    vertex 10.392051496399787 -275.52177066057374 6.499999999999999
  endloop
endfacet
facet normal 0.0 0.0 -1.0
  outer loop
    vertex 10.392051496399787 -275.52177066057374 6.499999999999999
    vertex 11.892051496399787 -242.52177066057376 6.499999999999999
    vertex 11.892051496399787 -275.52177066057374 6.499999999999999
  endloop
endfacet
facet normal 0.0 0.0 -1.0
  outer loop
    vertex -0.607948503600215 -266.62177066057376 6.499999999999999
    vertex -0.6079485036002127 -275.52177066057374 6.499999999999999
    vertex -2.1079485036002126 -275.52177066057374 6.499999999999999
  endloop
endfacet
facet normal 0.0 0.0 -1.0
  outer loop
    vertex -0.6079485036002127 -275.52177066057374 6.499999999999999
    vertex -0.607948503600215 -266.62177066057376 6.499999999999999
    vertex -0.6079485036002127 -270.4217706605737 6.499999999999999
  endloop
endfacet
facet normal 0.0 0.0 -1.0
  outer loop
    vertex -0.6079485036002127 -275.52177066057374 6.499999999999999
    vertex -0.6079485036002127 -270.4217706605737 6.499999999999999
    vertex -0.6079485036002126 -272.52177066057374 6.499999999999999
  endloop
endfacet
facet normal 0.0 0.0 -1.0
  outer loop
    vertex -0.6079485036002126 -272.52177066057374 6.499999999999999
    vertex -0.6079485036002127 -270.4217706605737 6.499999999999999
    vertex 0.8920514963997875 -270.4217706605737 6.499999999999999
  endloop
endfacet
facet normal 0.0 0.0 -1.0
  outer loop
    vertex -0.6079485036002126 -272.52177066057374 6.499999999999999
    vertex 0.8920514963997875 -270.4217706605737 6.499999999999999
    vertex 10.392051496399787 -272.52177066057374 6.499999999999999
  endloop
endfacet
facet normal 0.0 0.0 -1.0
  outer loop
    vertex 10.392051496399787 -272.52177066057374 6.499999999999999
    vertex 0.8920514963997875 -270.4217706605737 6.499999999999999
    vertex 8.892051496399786 -270.42177066057377 6.499999999999999
  endloop
endfacet
facet normal 0.0 0.0 -1.0
  outer loop
    vertex 8.892051496399786 -270.42177066057377 6.499999999999999
    vertex 0.8920514963997875 -270.4217706605737 6.499999999999999
    vertex 0.8920514963998326 -251.42177066057377 6.499999999999999
  endloop
endfacet
facet normal 0.0 0.0 -1.0
  outer loop
    vertex 8.892051496399786 -270.42177066057377 6.499999999999999
    vertex 0.8920514963998326 -251.42177066057377 6.499999999999999
    vertex 8.892051496399786 -247.62177066057376 6.499999999999999
  endloop
endfacet
facet normal 0.0 0.0 -1.0
  outer loop
    vertex 8.892051496399786 -270.42177066057377 6.499999999999999
    vertex 8.892051496399786 -247.62177066057376 6.499999999999999
    vertex 8.892051496399786 -251.42177066057377 6.499999999999999
  endloop
endfacet
facet normal 0.0 0.0 -1.0
  outer loop
    vertex 8.892051496399786 -270.42177066057377 6.499999999999999
    vertex 8.892051496399786 -251.42177066057377 6.499999999999999
    vertex 8.892051496399786 -266.62177066057376 6.499999999999999
  endloop
endfacet
facet normal 0.0 0.0 -1.0
  outer loop
    vertex 10.392051496399787 -272.52177066057374 6.499999999999999
    vertex 8.892051496399786 -270.42177066057377 6.499999999999999
    vertex 10.392051496399786 -270.42177066057377 6.499999999999999
  endloop
endfacet
facet normal 0.0 0.0 -1.0
  outer loop
    vertex 10.392051496399787 -272.52177066057374 6.499999999999999
    vertex 10.392051496399786 -270.42177066057377 6.499999999999999
    vertex 10.392051496399787 -245.52177066057374 6.499999999999999
  endloop
endfacet
facet normal 0.0 0.0 -1.0
  outer loop
    vertex 10.392051496399786 -251.42177066057377 6.499999999999999
    vertex 8.892051496399786 -266.62177066057376 6.499999999999999
    vertex 8.892051496399786 -251.42177066057377 6.499999999999999
  endloop
endfacet
facet normal 0.0 0.0 -1.0
  outer loop
    vertex 8.892051496399786 -266.62177066057376 6.499999999999999
    vertex 10.392051496399786 -251.42177066057377 6.499999999999999
    vertex 10.392051496399786 -266.62177066057376 6.499999999999999
  endloop
endfacet
facet normal 1.0 0.0 0.0
  outer loop
    vertex 11.892051496399787 -242.52177066057376 6.499999999999999
    vertex 11.892051496399787 -275.52177066057374 7.999999999999999
    vertex 11.892051496399787 -275.52177066057374 6.499999999999999
  endloop
endfacet
facet normal 1.0 0.0 0.0
  outer loop
    vertex 11.892051496399787 -275.52177066057374 7.999999999999999
    vertex 11.892051496399787 -242.52177066057376 6.499999999999999
    vertex 11.892051496399787 -242.52177066057376 7.999999999999999
  endloop
endfacet
facet normal 0.0 0.0 -1.0
  outer loop
    vertex 10.392051496399787 -242.52177066057376 1.9999999999999996
    vertex -0.6079485036002126 -245.52177066057374 1.9999999999999996
    vertex -0.6079485036002126 -242.52177066057376 1.9999999999999996
  endloop
endfacet
facet normal 0.0 0.0 -1.0
  outer loop
    vertex -0.6079485036002126 -245.52177066057374 1.9999999999999996
    vertex 10.392051496399787 -242.52177066057376 1.9999999999999996
    vertex 10.392051496399787 -245.52177066057374 1.9999999999999996
  endloop
endfacet
facet normal -1.0 0.0 0.0
  outer loop
    vertex -2.1079485036002126 -242.52177066057376 7.999999999999999
    vertex -2.1079485036002126 -275.52177066057374 6.499999999999999
    vertex -2.1079485036002126 -275.52177066057374 7.999999999999999
  endloop
endfacet
facet normal -1.0 0.0 0.0
  outer loop
    vertex -2.1079485036002126 -275.52177066057374 6.499999999999999
    vertex -2.1079485036002126 -242.52177066057376 7.999999999999999
    vertex -2.1079485036002126 -242.52177066057376 6.499999999999999
  endloop
endfacet
facet normal 0.0 1.0 0.0
  outer loop
    vertex -2.1079485036002126 -242.52177066057376 7.999999999999999
    vertex -0.6079485036002126 -242.52177066057376 6.499999999999999
    vertex -2.1079485036002126 -242.52177066057376 6.499999999999999
  endloop
endfacet
facet normal 0.0 1.0 0.0
  outer loop
    vertex -0.6079485036002126 -242.52177066057376 6.499999999999999
    vertex -2.1079485036002126 -242.52177066057376 7.999999999999999
    vertex -0.6079485036002126 -242.52177066057376 7.999999999999999
  endloop
endfacet
facet normal 0.0 -1.0 0.0
  outer loop
    vertex 11.892051496399787 -275.52177066057374 7.999999999999999
    vertex 10.392051496399787 -275.52177066057374 6.499999999999999
    vertex 11.892051496399787 -275.52177066057374 6.499999999999999
  endloop
endfacet
facet normal 0.0 -1.0 0.0
  outer loop
    vertex 10.392051496399787 -275.52177066057374 6.499999999999999
    vertex 11.892051496399787 -275.52177066057374 7.999999999999999
    vertex -0.6079485036002127 -275.52177066057374 6.499999999999999
  endloop
endfacet
facet normal 0.0 -1.0 0.0
  outer loop
    vertex -0.6079485036002127 -275.52177066057374 6.499999999999999
    vertex 11.892051496399787 -275.52177066057374 7.999999999999999
    vertex -2.1079485036002126 -275.52177066057374 6.499999999999999
  endloop
endfacet
facet normal 0.0 -1.0 0.0
  outer loop
    vertex -2.1079485036002126 -275.52177066057374 6.499999999999999
    vertex 11.892051496399787 -275.52177066057374 7.999999999999999
    vertex -2.1079485036002126 -275.52177066057374 7.999999999999999
  endloop
endfacet
facet normal 0.0 -1.0 0.0
  outer loop
    vertex 10.392051496399787 -275.52177066057374 6.499999999999999
    vertex -0.6079485036002127 -275.52177066057374 1.9999999999999996
    vertex 10.392051496399787 -275.52177066057374 1.9999999999999996
  endloop
endfacet
facet normal 0.0 -1.0 0.0
  outer loop
    vertex -0.6079485036002127 -275.52177066057374 1.9999999999999996
    vertex 10.392051496399787 -275.52177066057374 6.499999999999999
    vertex -0.6079485036002127 -275.52177066057374 6.499999999999999
  endloop
endfacet
facet normal 0.0 1.0 0.0
  outer loop
    vertex -0.6079485036002126 -272.52177066057374 6.499999999999999
    vertex 10.392051496399787 -272.52177066057374 1.9999999999999996
    vertex -0.6079485036002126 -272.52177066057374 1.9999999999999996
  endloop
endfacet
facet normal 0.0 1.0 0.0
  outer loop
    vertex 10.392051496399787 -272.52177066057374 1.9999999999999996
    vertex -0.6079485036002126 -272.52177066057374 6.499999999999999
    vertex 10.392051496399787 -272.52177066057374 6.499999999999999
  endloop
endfacet
facet normal 1.0 0.0 0.0
  outer loop
    vertex 10.392051496399787 -242.52177066057376 1.9999999999999996
    vertex 10.392051496399787 -245.52177066057374 6.499999999999999
    vertex 10.392051496399787 -245.52177066057374 1.9999999999999996
  endloop
endfacet
facet normal 1.0 0.0 0.0
  outer loop
    vertex 10.392051496399787 -245.52177066057374 6.499999999999999
    vertex 10.392051496399787 -242.52177066057376 1.9999999999999996
    vertex 10.392051496399787 -242.52177066057376 6.499999999999999
  endloop
endfacet
facet normal -0.0 -1.0 -0.0
  outer loop
    vertex 10.392051496399787 -245.52177066057374 6.499999999999999
    vertex -0.6079485036002126 -245.52177066057374 1.9999999999999996
    vertex 10.392051496399787 -245.52177066057374 1.9999999999999996
  endloop
endfacet
facet normal -0.0 -1.0 -0.0
  outer loop
    vertex -0.6079485036002126 -245.52177066057374 1.9999999999999996
    vertex 10.392051496399787 -245.52177066057374 6.499999999999999
    vertex -0.6079485036002126 -245.52177066057374 6.499999999999999
  endloop
endfacet
facet normal -1.0 0.0 0.0
  outer loop
    vertex -0.6079485036002126 -242.52177066057376 6.499999999999999
    vertex -0.6079485036002126 -245.52177066057374 1.9999999999999996
    vertex -0.6079485036002126 -245.52177066057374 6.499999999999999
  endloop
endfacet
facet normal -1.0 0.0 0.0
  outer loop
    vertex -0.6079485036002126 -245.52177066057374 1.9999999999999996
    vertex -0.6079485036002126 -242.52177066057376 6.499999999999999
    vertex -0.6079485036002126 -242.52177066057376 1.9999999999999996
  endloop
endfacet
facet normal -1.0 2.937465085987399e-17 0.0
  outer loop
    vertex -0.6079485036002126 -272.52177066057374 6.499999999999999
    vertex -0.6079485036002127 -275.52177066057374 1.9999999999999996
    vertex -0.6079485036002127 -275.52177066057374 6.499999999999999
  endloop
endfacet
facet normal -1.0 2.937465085987399e-17 0.0
  outer loop
    vertex -0.6079485036002127 -275.52177066057374 1.9999999999999996
    vertex -0.6079485036002126 -272.52177066057374 6.499999999999999
    vertex -0.6079485036002126 -272.52177066057374 1.9999999999999996
  endloop
endfacet
facet normal 0.0 0.0 1.0
  outer loop
    vertex 11.892051496399787 -275.52177066057374 7.999999999999999
    vertex -2.1079485036002126 -242.52177066057376 7.999999999999999
    vertex -2.1079485036002126 -275.52177066057374 7.999999999999999
  endloop
endfacet
facet normal 0.0 0.0 1.0
  outer loop
    vertex -2.1079485036002126 -242.52177066057376 7.999999999999999
    vertex 11.892051496399787 -275.52177066057374 7.999999999999999
    vertex -0.6079485036002126 -245.52177066057374 7.999999999999999
  endloop
endfacet
facet normal 0.0 0.0 1.0
  outer loop
    vertex -0.6079485036002126 -245.52177066057374 7.999999999999999
    vertex 11.892051496399787 -275.52177066057374 7.999999999999999
    vertex 10.392051496399787 -245.52177066057374 7.999999999999999
  endloop
endfacet
facet normal 0.0 0.0 1.0
  outer loop
    vertex 10.392051496399787 -245.52177066057374 7.999999999999999
    vertex 11.892051496399787 -275.52177066057374 7.999999999999999
    vertex 10.392051496399787 -242.52177066057376 7.999999999999999
  endloop
endfacet
facet normal 0.0 0.0 1.0
  outer loop
    vertex 10.392051496399787 -242.52177066057376 7.999999999999999
    vertex 11.892051496399787 -275.52177066057374 7.999999999999999
    vertex 11.892051496399787 -242.52177066057376 7.999999999999999
  endloop
endfacet
facet normal 0.0 0.0 1.0
  outer loop
    vertex -0.6079485036002126 -242.52177066057376 7.999999999999999
    vertex -2.1079485036002126 -242.52177066057376 7.999999999999999
    vertex -0.6079485036002126 -245.52177066057374 7.999999999999999
  endloop
endfacet
facet normal 1.0 6.049014748177263e-16 0.0
  outer loop
    vertex 0.8920514963997875 -270.4217706605737 6.499999999999999
    vertex 0.8920514963997851 -266.62177066057376 4.499999999999999
    vertex 0.8920514963997851 -266.62177066057376 6.499999999999999
  endloop
endfacet
facet normal 1.0 6.049014748177263e-16 0.0
  outer loop
    vertex 0.8920514963997851 -266.62177066057376 4.499999999999999
    vertex 0.8920514963997875 -270.4217706605737 6.499999999999999
    vertex 0.8920514963997875 -270.4217706605737 4.499999999999999
  endloop
endfacet
facet normal 0.0 0.0 -1.0
  outer loop
    vertex 0.8920514963997851 -266.62177066057376 4.499999999999999
    vertex -0.9079485036002131 -270.4217706605737 4.499999999999999
    vertex -0.9079485036002155 -266.62177066057376 4.499999999999999
  endloop
endfacet
facet normal 0.0 0.0 -1.0
  outer loop
    vertex -0.9079485036002131 -270.4217706605737 4.499999999999999
    vertex 0.8920514963997851 -266.62177066057376 4.499999999999999
    vertex 0.8920514963997875 -270.4217706605737 4.499999999999999
  endloop
endfacet
facet normal 0.0 -1.0 0.0
  outer loop
    vertex -0.9079485036002131 -270.4217706605737 4.499999999999999
    vertex -0.6079485036002127 -270.4217706605737 5.5
    vertex -0.9079485036002131 -270.4217706605737 5.5
  endloop
endfacet
facet normal 0.0 -1.0 0.0
  outer loop
    vertex -0.6079485036002127 -270.4217706605737 5.5
    vertex 0.8920514963997875 -270.4217706605737 6.499999999999999
    vertex -0.6079485036002127 -270.4217706605737 6.499999999999999
  endloop
endfacet
facet normal 0.0 -1.0 0.0
  outer loop
    vertex 0.8920514963997875 -270.4217706605737 6.499999999999999
    vertex -0.6079485036002127 -270.4217706605737 5.5
    vertex 0.8920514963997875 -270.4217706605737 4.499999999999999
  endloop
endfacet
facet normal 0.0 -1.0 0.0
  outer loop
    vertex 0.8920514963997875 -270.4217706605737 4.499999999999999
    vertex -0.6079485036002127 -270.4217706605737 5.5
    vertex -0.9079485036002131 -270.4217706605737 4.499999999999999
  endloop
endfacet
facet normal 0.0 1.0 0.0
  outer loop
    vertex 0.8920514963997851 -266.62177066057376 4.499999999999999
    vertex -0.607948503600215 -266.62177066057376 6.499999999999999
    vertex 0.8920514963997851 -266.62177066057376 6.499999999999999
  endloop
endfacet
facet normal 0.0 1.0 0.0
  outer loop
    vertex -0.607948503600215 -266.62177066057376 6.499999999999999
    vertex 0.8920514963997851 -266.62177066057376 4.499999999999999
    vertex -0.607948503600215 -266.62177066057376 5.5
  endloop
endfacet
facet normal 0.0 1.0 0.0
  outer loop
    vertex -0.607948503600215 -266.62177066057376 5.5
    vertex 0.8920514963997851 -266.62177066057376 4.499999999999999
    vertex -0.9079485036002155 -266.62177066057376 5.5
  endloop
endfacet
facet normal 0.0 1.0 0.0
  outer loop
    vertex -0.9079485036002155 -266.62177066057376 5.5
    vertex 0.8920514963997851 -266.62177066057376 4.499999999999999
    vertex -0.9079485036002155 -266.62177066057376 4.499999999999999
  endloop
endfacet
facet normal -1.0 -6.049014748177263e-16 0.0
  outer loop
    vertex -0.6079485036002127 -270.4217706605737 5.5
    vertex -0.607948503600215 -266.62177066057376 6.499999999999999
    vertex -0.607948503600215 -266.62177066057376 5.5
  endloop
endfacet
facet normal -1.0 -6.049014748177263e-16 0.0
  outer loop
    vertex -0.607948503600215 -266.62177066057376 6.499999999999999
    vertex -0.6079485036002127 -270.4217706605737 5.5
    vertex -0.6079485036002127 -270.4217706605737 6.499999999999999
  endloop
endfacet
facet normal 0.0 0.0 1.0
  outer loop
    vertex -0.9079485036002131 -270.4217706605737 5.5
    vertex -0.607948503600215 -266.62177066057376 5.5
    vertex -0.9079485036002155 -266.62177066057376 5.5
  endloop
endfacet
facet normal 0.0 0.0 1.0
  outer loop
    vertex -0.607948503600215 -266.62177066057376 5.5
    vertex -0.9079485036002131 -270.4217706605737 5.5
    vertex -0.6079485036002127 -270.4217706605737 5.5
  endloop
endfacet
facet normal -1.0 -6.058521739849094e-16 -1.2044660749336314e-43
  outer loop
    vertex -1.207948503600213 -270.1217706605737 4.8
    vertex -1.207948503600215 -266.92177066057377 5.199999999999999
    vertex -1.207948503600215 -266.92177066057377 4.8
  endloop
endfacet
facet normal -1.0 -6.058521739849094e-16 -1.2044660749336314e-43
  outer loop
    vertex -1.207948503600215 -266.92177066057377 5.199999999999999
    vertex -1.207948503600213 -270.1217706605737 4.8
    vertex -1.207948503600213 -270.1217706605737 5.199999999999999
  endloop
endfacet
facet normal -0.38268343236466323 -0.9238795325114634 5.268016892245032e-32
  outer loop
    vertex -1.0579485036002132 -270.3815782817091 5.459807621135331
    vertex -0.9855942171309692 -270.4115484084604 4.510222252113279
    vertex -0.9855942171309692 -270.4115484084604 5.48977774788672
  endloop
endfacet
facet normal -0.38268343236466323 -0.9238795325114634 5.268016892245032e-32
  outer loop
    vertex -0.9855942171309692 -270.4115484084604 4.510222252113279
    vertex -1.0579485036002132 -270.3815782817091 5.459807621135331
    vertex -1.0579485036002132 -270.3815782817091 4.540192378864668
  endloop
endfacet
facet normal -0.7933533402911651 -0.608761429008812 3.294892261074007e-29
  outer loop
    vertex -1.1200805379561773 -270.3339026949297 4.587867965644035
    vertex -1.1677561247355446 -270.27177066057374 5.35
    vertex -1.1677561247355446 -270.27177066057374 4.6499999999999995
  endloop
endfacet
facet normal -0.7933533402911651 -0.608761429008812 3.294892261074007e-29
  outer loop
    vertex -1.1677561247355446 -270.27177066057374 5.35
    vertex -1.1200805379561773 -270.3339026949297 4.587867965644035
    vertex -1.1200805379561773 -270.3339026949297 5.412132034355964
  endloop
endfacet
facet normal -0.9914448613738112 -0.13052619222004697 -1.9116480557571684e-19
  outer loop
    vertex -1.1977262514869336 -270.1994163741045 4.722354286469244
    vertex -1.207948503600213 -270.1217706605737 5.199999999999999
    vertex -1.207948503600213 -270.1217706605737 4.8
  endloop
endfacet
facet normal -0.9914448613738112 -0.13052619222004697 -1.9116480557571684e-19
  outer loop
    vertex -1.207948503600213 -270.1217706605737 5.199999999999999
    vertex -1.1977262514869336 -270.1994163741045 4.722354286469244
    vertex -1.1977262514869336 -270.1994163741045 5.277645713530756
  endloop
endfacet
facet normal -0.9238795325112998 -0.38268343236505875 -3.5093074527824544e-18
  outer loop
    vertex -1.1677561247355446 -270.27177066057374 4.6499999999999995
    vertex -1.1977262514869336 -270.1994163741045 5.277645713530756
    vertex -1.1977262514869336 -270.1994163741045 4.722354286469244
  endloop
endfacet
facet normal -0.9238795325112998 -0.38268343236505875 -3.5093074527824544e-18
  outer loop
    vertex -1.1977262514869336 -270.1994163741045 5.277645713530756
    vertex -1.1677561247355446 -270.27177066057374 4.6499999999999995
    vertex -1.1677561247355446 -270.27177066057374 5.35
  endloop
endfacet
facet normal -0.6087614290090667 -0.7933533402909696 9.919407666419592e-32
  outer loop
    vertex -1.1200805379561773 -270.3339026949297 5.412132034355964
    vertex -1.0579485036002132 -270.3815782817091 4.540192378864668
    vertex -1.0579485036002132 -270.3815782817091 5.459807621135331
  endloop
endfacet
facet normal -0.6087614290090667 -0.7933533402909696 9.919407666419592e-32
  outer loop
    vertex -1.0579485036002132 -270.3815782817091 4.540192378864668
    vertex -1.1200805379561773 -270.3339026949297 5.412132034355964
    vertex -1.1200805379561773 -270.3339026949297 4.587867965644035
  endloop
endfacet
facet normal -0.13052619222032794 -0.9914448613737741 -1.6553273659051168e-32
  outer loop
    vertex -0.9855942171309692 -270.4115484084604 5.48977774788672
    vertex -0.9079485036002131 -270.4217706605737 4.499999999999999
    vertex -0.9079485036002131 -270.4217706605737 5.5
  endloop
endfacet
facet normal -0.13052619222032794 -0.9914448613737741 -1.6553273659051168e-32
  outer loop
    vertex -0.9079485036002131 -270.4217706605737 4.499999999999999
    vertex -0.9855942171309692 -270.4115484084604 5.48977774788672
    vertex -0.9855942171309692 -270.4115484084604 4.510222252113279
  endloop
endfacet
facet normal -0.6087614290087211 -3.7970441080912914e-16 -0.7933533402912348
  outer loop
    vertex -1.0579485036002154 -266.6619630394384 4.540192378864668
    vertex -1.1200805379561773 -270.3339026949297 4.587867965644035
    vertex -1.1200805379561796 -266.7096386262178 4.587867965644035
  endloop
endfacet
facet normal -0.6087614290087211 -3.7970441080912914e-16 -0.7933533402912348
  outer loop
    vertex -1.1200805379561773 -270.3339026949297 4.587867965644035
    vertex -1.0579485036002154 -266.6619630394384 4.540192378864668
    vertex -1.0579485036002132 -270.3815782817091 4.540192378864668
  endloop
endfacet
facet normal -0.7933533402912352 -5.094793193805216e-16 -0.6087614290087208
  outer loop
    vertex -1.1200805379561773 -270.3339026949297 4.587867965644035
    vertex -1.167756124735547 -266.77177066057374 4.6499999999999995
    vertex -1.1200805379561796 -266.7096386262178 4.587867965644035
  endloop
endfacet
facet normal -0.7933533402912352 -5.094793193805216e-16 -0.6087614290087208
  outer loop
    vertex -1.167756124735547 -266.77177066057374 4.6499999999999995
    vertex -1.1200805379561773 -270.3339026949297 4.587867965644035
    vertex -1.1677561247355446 -270.27177066057374 4.6499999999999995
  endloop
endfacet
facet normal -0.13052619222032794 0.9914448613737741 -2.912082698541424e-19
  outer loop
    vertex -0.9079485036002155 -266.62177066057376 4.499999999999999
    vertex -0.9855942171309717 -266.63199291268705 5.48977774788672
    vertex -0.9079485036002155 -266.62177066057376 5.5
  endloop
endfacet
facet normal -0.13052619222032794 0.9914448613737741 -2.912082698541424e-19
  outer loop
    vertex -0.9855942171309717 -266.63199291268705 5.48977774788672
    vertex -0.9079485036002155 -266.62177066057376 4.499999999999999
    vertex -0.9855942171309717 -266.63199291268705 4.510222252113279
  endloop
endfacet
facet normal -0.3826834323646641 0.9238795325114632 -0.0
  outer loop
    vertex -0.9855942171309717 -266.63199291268705 4.510222252113279
    vertex -1.0579485036002154 -266.6619630394384 5.459807621135331
    vertex -0.9855942171309717 -266.63199291268705 5.48977774788672
  endloop
endfacet
facet normal -0.3826834323646641 0.9238795325114632 -0.0
  outer loop
    vertex -1.0579485036002154 -266.6619630394384 5.459807621135331
    vertex -0.9855942171309717 -266.63199291268705 4.510222252113279
    vertex -1.0579485036002154 -266.6619630394384 4.540192378864668
  endloop
endfacet
facet normal -0.6087614290087211 -3.7970441080912983e-16 0.7933533402912348
  outer loop
    vertex -1.0579485036002132 -270.3815782817091 5.459807621135331
    vertex -1.1200805379561796 -266.7096386262178 5.412132034355964
    vertex -1.1200805379561773 -270.3339026949297 5.412132034355964
  endloop
endfacet
facet normal -0.6087614290087211 -3.7970441080912983e-16 0.7933533402912348
  outer loop
    vertex -1.1200805379561796 -266.7096386262178 5.412132034355964
    vertex -1.0579485036002132 -270.3815782817091 5.459807621135331
    vertex -1.0579485036002154 -266.6619630394384 5.459807621135331
  endloop
endfacet
facet normal -0.7933533402912352 -5.094793193805216e-16 0.6087614290087208
  outer loop
    vertex -1.167756124735547 -266.77177066057374 5.35
    vertex -1.1200805379561773 -270.3339026949297 5.412132034355964
    vertex -1.1200805379561796 -266.7096386262178 5.412132034355964
  endloop
endfacet
facet normal -0.7933533402912352 -5.094793193805216e-16 0.6087614290087208
  outer loop
    vertex -1.1200805379561773 -270.3339026949297 5.412132034355964
    vertex -1.167756124735547 -266.77177066057374 5.35
    vertex -1.1677561247355446 -270.27177066057374 5.35
  endloop
endfacet
facet normal -0.6087614290090667 0.7933533402909696 9.919407666419592e-32
  outer loop
    vertex -1.0579485036002154 -266.6619630394384 4.540192378864668
    vertex -1.1200805379561796 -266.7096386262178 5.412132034355964
    vertex -1.0579485036002154 -266.6619630394384 5.459807621135331
  endloop
endfacet
facet normal -0.6087614290090667 0.7933533402909696 9.919407666419592e-32
  outer loop
    vertex -1.1200805379561796 -266.7096386262178 5.412132034355964
    vertex -1.0579485036002154 -266.6619630394384 4.540192378864668
    vertex -1.1200805379561796 -266.7096386262178 4.587867965644035
  endloop
endfacet
facet normal -0.9914448613738103 -6.13320998167658e-16 -0.1305261922200528
  outer loop
    vertex -1.1977262514869336 -270.1994163741045 4.722354286469244
    vertex -1.207948503600215 -266.92177066057377 4.8
    vertex -1.1977262514869356 -266.844124947043 4.722354286469244
  endloop
endfacet
facet normal -0.9914448613738103 -6.13320998167658e-16 -0.1305261922200528
  outer loop
    vertex -1.207948503600215 -266.92177066057377 4.8
    vertex -1.1977262514869336 -270.1994163741045 4.722354286469244
    vertex -1.207948503600213 -270.1217706605737 4.8
  endloop
endfacet
facet normal -0.3826834323650863 -2.4244824807203247e-16 -0.9238795325112882
  outer loop
    vertex -0.9855942171309717 -266.63199291268705 4.510222252113279
    vertex -1.0579485036002132 -270.3815782817091 4.540192378864668
    vertex -1.0579485036002154 -266.6619630394384 4.540192378864668
  endloop
endfacet
facet normal -0.3826834323650863 -2.4244824807203247e-16 -0.9238795325112882
  outer loop
    vertex -1.0579485036002132 -270.3815782817091 4.540192378864668
    vertex -0.9855942171309717 -266.63199291268705 4.510222252113279
    vertex -0.9855942171309692 -270.4115484084604 4.510222252113279
  endloop
endfacet
facet normal -0.9238795325112868 -5.941317148416839e-16 0.3826834323650896
  outer loop
    vertex -1.1977262514869356 -266.844124947043 5.277645713530756
    vertex -1.1677561247355446 -270.27177066057374 5.35
    vertex -1.167756124735547 -266.77177066057374 5.35
  endloop
endfacet
facet normal -0.9238795325112868 -5.941317148416839e-16 0.3826834323650896
  outer loop
    vertex -1.1677561247355446 -270.27177066057374 5.35
    vertex -1.1977262514869356 -266.844124947043 5.277645713530756
    vertex -1.1977262514869336 -270.1994163741045 5.277645713530756
  endloop
endfacet
facet normal -0.7933533402911651 0.608761429008812 -3.294892261074007e-29
  outer loop
    vertex -1.167756124735547 -266.77177066057374 4.6499999999999995
    vertex -1.1200805379561796 -266.7096386262178 5.412132034355964
    vertex -1.1200805379561796 -266.7096386262178 4.587867965644035
  endloop
endfacet
facet normal -0.7933533402911651 0.608761429008812 -3.294892261074007e-29
  outer loop
    vertex -1.1200805379561796 -266.7096386262178 5.412132034355964
    vertex -1.167756124735547 -266.77177066057374 4.6499999999999995
    vertex -1.167756124735547 -266.77177066057374 5.35
  endloop
endfacet
facet normal -0.13052619222005368 -8.494394968293927e-17 -0.9914448613738103
  outer loop
    vertex -0.9079485036002155 -266.62177066057376 4.499999999999999
    vertex -0.9855942171309692 -270.4115484084604 4.510222252113279
    vertex -0.9855942171309717 -266.63199291268705 4.510222252113279
  endloop
endfacet
facet normal -0.13052619222005368 -8.494394968293927e-17 -0.9914448613738103
  outer loop
    vertex -0.9855942171309692 -270.4115484084604 4.510222252113279
    vertex -0.9079485036002155 -266.62177066057376 4.499999999999999
    vertex -0.9079485036002131 -270.4217706605737 4.499999999999999
  endloop
endfacet
facet normal -0.9914448613738105 -6.135279808974456e-16 0.13052619222005166
  outer loop
    vertex -1.207948503600215 -266.92177066057377 5.199999999999999
    vertex -1.1977262514869336 -270.1994163741045 5.277645713530756
    vertex -1.1977262514869356 -266.844124947043 5.277645713530756
  endloop
endfacet
facet normal -0.9914448613738105 -6.135279808974456e-16 0.13052619222005166
  outer loop
    vertex -1.1977262514869336 -270.1994163741045 5.277645713530756
    vertex -1.207948503600215 -266.92177066057377 5.199999999999999
    vertex -1.207948503600213 -270.1217706605737 5.199999999999999
  endloop
endfacet
facet normal -0.9238795325113006 0.38268343236505686 -9.79715197982295e-19
  outer loop
    vertex -1.1977262514869356 -266.844124947043 4.722354286469244
    vertex -1.167756124735547 -266.77177066057374 5.35
    vertex -1.167756124735547 -266.77177066057374 4.6499999999999995
  endloop
endfacet
facet normal -0.9238795325113006 0.38268343236505686 -9.79715197982295e-19
  outer loop
    vertex -1.167756124735547 -266.77177066057374 5.35
    vertex -1.1977262514869356 -266.844124947043 4.722354286469244
    vertex -1.1977262514869356 -266.844124947043 5.277645713530756
  endloop
endfacet
facet normal -0.9914448613738114 0.13052619222004475 -1.9116480557571515e-19
  outer loop
    vertex -1.207948503600215 -266.92177066057377 4.8
    vertex -1.1977262514869356 -266.844124947043 5.277645713530756
    vertex -1.1977262514869356 -266.844124947043 4.722354286469244
  endloop
endfacet
facet normal -0.9914448613738114 0.13052619222004475 -1.9116480557571515e-19
  outer loop
    vertex -1.1977262514869356 -266.844124947043 5.277645713530756
    vertex -1.207948503600215 -266.92177066057377 4.8
    vertex -1.207948503600215 -266.92177066057377 5.199999999999999
  endloop
endfacet
facet normal -0.3826834323650862 -2.4273551050415854e-16 0.9238795325112882
  outer loop
    vertex -0.9855942171309692 -270.4115484084604 5.48977774788672
    vertex -1.0579485036002154 -266.6619630394384 5.459807621135331
    vertex -1.0579485036002132 -270.3815782817091 5.459807621135331
  endloop
endfacet
facet normal -0.3826834323650862 -2.4273551050415854e-16 0.9238795325112882
  outer loop
    vertex -1.0579485036002154 -266.6619630394384 5.459807621135331
    vertex -0.9855942171309692 -270.4115484084604 5.48977774788672
    vertex -0.9855942171309717 -266.63199291268705 5.48977774788672
  endloop
endfacet
facet normal -0.13052619222005363 -8.502341081453737e-17 0.9914448613738103
  outer loop
    vertex -0.9855942171309692 -270.4115484084604 5.48977774788672
    vertex -0.9079485036002155 -266.62177066057376 5.5
    vertex -0.9855942171309717 -266.63199291268705 5.48977774788672
  endloop
endfacet
facet normal -0.13052619222005363 -8.502341081453737e-17 0.9914448613738103
  outer loop
    vertex -0.9079485036002155 -266.62177066057376 5.5
    vertex -0.9855942171309692 -270.4115484084604 5.48977774788672
    vertex -0.9079485036002131 -270.4217706605737 5.5
  endloop
endfacet
facet normal -0.9238795325112882 -5.941317148416833e-16 -0.3826834323650863
  outer loop
    vertex -1.1677561247355446 -270.27177066057374 4.6499999999999995
    vertex -1.1977262514869356 -266.844124947043 4.722354286469244
    vertex -1.167756124735547 -266.77177066057374 4.6499999999999995
  endloop
endfacet
facet normal -0.9238795325112882 -5.941317148416833e-16 -0.3826834323650863
  outer loop
    vertex -1.1977262514869356 -266.844124947043 4.722354286469244
    vertex -1.1677561247355446 -270.27177066057374 4.6499999999999995
    vertex -1.1977262514869336 -270.1994163741045 4.722354286469244
  endloop
endfacet
facet normal -1.0 0.0 0.0
  outer loop
    vertex 8.892051496399786 -247.62177066057376 6.499999999999999
    vertex 8.892051496399786 -251.42177066057377 4.499999999999999
    vertex 8.892051496399786 -251.42177066057377 6.499999999999999
  endloop
endfacet
facet normal -1.0 0.0 0.0
  outer loop
    vertex 8.892051496399786 -251.42177066057377 4.499999999999999
    vertex 8.892051496399786 -247.62177066057376 6.499999999999999
    vertex 8.892051496399786 -247.62177066057376 4.499999999999999
  endloop
endfacet
facet normal 0.0 0.0 -1.0
  outer loop
    vertex 8.892051496399786 -251.42177066057377 4.499999999999999
    vertex 10.692051496399786 -247.62177066057376 4.499999999999999
    vertex 10.692051496399786 -251.42177066057377 4.499999999999999
  endloop
endfacet
facet normal 0.0 0.0 -1.0
  outer loop
    vertex 10.692051496399786 -247.62177066057376 4.499999999999999
    vertex 8.892051496399786 -251.42177066057377 4.499999999999999
    vertex 8.892051496399786 -247.62177066057376 4.499999999999999
  endloop
endfacet
facet normal 0.0 1.0 0.0
  outer loop
    vertex 10.692051496399786 -247.62177066057376 4.499999999999999
    vertex 10.392051496399786 -247.62177066057376 5.5
    vertex 10.692051496399786 -247.62177066057376 5.5
  endloop
endfacet
facet normal 0.0 1.0 0.0
  outer loop
    vertex 10.392051496399786 -247.62177066057376 5.5
    vertex 8.892051496399786 -247.62177066057376 6.499999999999999
    vertex 10.392051496399786 -247.62177066057376 6.499999999999999
  endloop
endfacet
facet normal 0.0 1.0 0.0
  outer loop
    vertex 8.892051496399786 -247.62177066057376 6.499999999999999
    vertex 10.392051496399786 -247.62177066057376 5.5
    vertex 8.892051496399786 -247.62177066057376 4.499999999999999
  endloop
endfacet
facet normal 0.0 1.0 0.0
  outer loop
    vertex 8.892051496399786 -247.62177066057376 4.499999999999999
    vertex 10.392051496399786 -247.62177066057376 5.5
    vertex 10.692051496399786 -247.62177066057376 4.499999999999999
  endloop
endfacet
facet normal 0.0 -1.0 0.0
  outer loop
    vertex 8.892051496399786 -251.42177066057377 4.499999999999999
    vertex 10.392051496399786 -251.42177066057377 6.499999999999999
    vertex 8.892051496399786 -251.42177066057377 6.499999999999999
  endloop
endfacet
facet normal 0.0 -1.0 0.0
  outer loop
    vertex 10.392051496399786 -251.42177066057377 6.499999999999999
    vertex 8.892051496399786 -251.42177066057377 4.499999999999999
    vertex 10.392051496399786 -251.42177066057377 5.5
  endloop
endfacet
facet normal 0.0 -1.0 0.0
  outer loop
    vertex 10.392051496399786 -251.42177066057377 5.5
    vertex 8.892051496399786 -251.42177066057377 4.499999999999999
    vertex 10.692051496399786 -251.42177066057377 5.5
  endloop
endfacet
facet normal 0.0 -1.0 0.0
  outer loop
    vertex 10.692051496399786 -251.42177066057377 5.5
    vertex 8.892051496399786 -251.42177066057377 4.499999999999999
    vertex 10.692051496399786 -251.42177066057377 4.499999999999999
  endloop
endfacet
facet normal 1.0 0.0 0.0
  outer loop
    vertex 10.392051496399786 -247.62177066057376 5.5
    vertex 10.392051496399786 -251.42177066057377 6.499999999999999
    vertex 10.392051496399786 -251.42177066057377 5.5
  endloop
endfacet
facet normal 1.0 0.0 0.0
  outer loop
    vertex 10.392051496399786 -251.42177066057377 6.499999999999999
    vertex 10.392051496399786 -247.62177066057376 5.5
    vertex 10.392051496399786 -247.62177066057376 6.499999999999999
  endloop
endfacet
facet normal 0.0 0.0 1.0
  outer loop
    vertex 10.392051496399786 -247.62177066057376 5.5
    vertex 10.692051496399786 -251.42177066057377 5.5
    vertex 10.692051496399786 -247.62177066057376 5.5
  endloop
endfacet
facet normal 0.0 0.0 1.0
  outer loop
    vertex 10.692051496399786 -251.42177066057377 5.5
    vertex 10.392051496399786 -247.62177066057376 5.5
    vertex 10.392051496399786 -251.42177066057377 5.5
  endloop
endfacet
facet normal 1.0 0.0 0.0
  outer loop
    vertex 10.992051496399785 -247.9217706605738 4.8
    vertex 10.992051496399785 -251.12177066057373 5.199999999999999
    vertex 10.992051496399785 -251.12177066057373 4.8
  endloop
endfacet
facet normal 1.0 0.0 0.0
  outer loop
    vertex 10.992051496399785 -251.12177066057373 5.199999999999999
    vertex 10.992051496399785 -247.9217706605738 4.8
    vertex 10.992051496399785 -247.9217706605738 5.199999999999999
  endloop
endfacet
facet normal 0.9238795325112981 0.3826834323650625 -2.0955828383934154e-18
  outer loop
    vertex 10.951859117535118 -247.7717706605738 4.65
    vertex 10.981829244286507 -247.84412494704304 5.277645713530756
    vertex 10.981829244286507 -247.84412494704304 4.722354286469244
  endloop
endfacet
facet normal 0.9238795325112981 0.3826834323650625 -2.0955828383934154e-18
  outer loop
    vertex 10.981829244286507 -247.84412494704304 5.277645713530756
    vertex 10.951859117535118 -247.7717706605738 4.65
    vertex 10.951859117535118 -247.7717706605738 5.35
  endloop
endfacet
facet normal 0.6087614290090635 -0.793353340290972 7.935526133135633e-31
  outer loop
    vertex 10.842051496399787 -251.38157828170912 4.540192378864668
    vertex 10.90418353075575 -251.3339026949297 5.412132034355964
    vertex 10.842051496399787 -251.38157828170912 5.459807621135331
  endloop
endfacet
facet normal 0.6087614290090635 -0.793353340290972 7.935526133135633e-31
  outer loop
    vertex 10.90418353075575 -251.3339026949297 5.412132034355964
    vertex 10.842051496399787 -251.38157828170912 4.540192378864668
    vertex 10.90418353075575 -251.3339026949297 4.587867965644035
  endloop
endfacet
facet normal 0.1305261922203282 -0.9914448613737741 1.3242618927240967e-31
  outer loop
    vertex 10.692051496399786 -251.42177066057377 4.499999999999999
    vertex 10.769697209930543 -251.41154840846045 5.48977774788672
    vertex 10.692051496399786 -251.42177066057377 5.5
  endloop
endfacet
facet normal 0.1305261922203282 -0.9914448613737741 1.3242618927240967e-31
  outer loop
    vertex 10.769697209930543 -251.41154840846045 5.48977774788672
    vertex 10.692051496399786 -251.42177066057377 4.499999999999999
    vertex 10.769697209930543 -251.41154840846045 4.510222252113279
  endloop
endfacet
facet normal 0.13052619222005393 2.773920570235566e-30 0.99144486137381
  outer loop
    vertex 10.692051496399786 -247.62177066057376 5.5
    vertex 10.769697209930543 -251.41154840846045 5.48977774788672
    vertex 10.769697209930543 -247.63199291268708 5.48977774788672
  endloop
endfacet
facet normal 0.13052619222005393 2.773920570235566e-30 0.99144486137381
  outer loop
    vertex 10.769697209930543 -251.41154840846045 5.48977774788672
    vertex 10.692051496399786 -247.62177066057376 5.5
    vertex 10.692051496399786 -251.42177066057377 5.5
  endloop
endfacet
facet normal 0.13052619222005393 -1.617608919207724e-30 -0.99144486137381
  outer loop
    vertex 10.692051496399786 -251.42177066057377 4.499999999999999
    vertex 10.769697209930543 -247.63199291268708 4.510222252113279
    vertex 10.769697209930543 -251.41154840846045 4.510222252113279
  endloop
endfacet
facet normal 0.13052619222005393 -1.617608919207724e-30 -0.99144486137381
  outer loop
    vertex 10.769697209930543 -247.63199291268708 4.510222252113279
    vertex 10.692051496399786 -251.42177066057377 4.499999999999999
    vertex 10.692051496399786 -247.62177066057376 4.499999999999999
  endloop
endfacet
facet normal 0.7933533402912417 -4.193558570751064e-19 -0.6087614290087123
  outer loop
    vertex 10.90418353075575 -247.70963862621784 4.587867965644035
    vertex 10.951859117535118 -251.27177066057376 4.65
    vertex 10.90418353075575 -251.3339026949297 4.587867965644035
  endloop
endfacet
facet normal 0.7933533402912417 -4.193558570751064e-19 -0.6087614290087123
  outer loop
    vertex 10.951859117535118 -251.27177066057376 4.65
    vertex 10.90418353075575 -247.70963862621784 4.587867965644035
    vertex 10.951859117535118 -247.7717706605738 4.65
  endloop
endfacet
facet normal 0.38268343236466407 -0.9238795325114632 9.267593325354314e-19
  outer loop
    vertex 10.769697209930543 -251.41154840846045 4.510222252113279
    vertex 10.842051496399787 -251.38157828170912 5.459807621135331
    vertex 10.769697209930543 -251.41154840846045 5.48977774788672
  endloop
endfacet
facet normal 0.38268343236466407 -0.9238795325114632 9.267593325354314e-19
  outer loop
    vertex 10.842051496399787 -251.38157828170912 5.459807621135331
    vertex 10.769697209930543 -251.41154840846045 4.510222252113279
    vertex 10.842051496399787 -251.38157828170912 4.540192378864668
  endloop
endfacet
facet normal 0.9238795325112981 -0.3826834323650625 -3.049474381876513e-29
  outer loop
    vertex 10.981829244286507 -251.1994163741045 4.722354286469244
    vertex 10.951859117535118 -251.27177066057376 5.35
    vertex 10.951859117535118 -251.27177066057376 4.65
  endloop
endfacet
facet normal 0.9238795325112981 -0.3826834323650625 -3.049474381876513e-29
  outer loop
    vertex 10.951859117535118 -251.27177066057376 5.35
    vertex 10.981829244286507 -251.1994163741045 4.722354286469244
    vertex 10.981829244286507 -251.1994163741045 5.277645713530756
  endloop
endfacet
facet normal 0.7933533402911683 0.6087614290088078 -1.482952065771308e-18
  outer loop
    vertex 10.90418353075575 -247.70963862621784 4.587867965644035
    vertex 10.951859117535118 -247.7717706605738 5.35
    vertex 10.951859117535118 -247.7717706605738 4.65
  endloop
endfacet
facet normal 0.7933533402911683 0.6087614290088078 -1.482952065771308e-18
  outer loop
    vertex 10.951859117535118 -247.7717706605738 5.35
    vertex 10.90418353075575 -247.70963862621784 4.587867965644035
    vertex 10.90418353075575 -247.70963862621784 5.412132034355964
  endloop
endfacet
facet normal 0.9914448613738114 0.0 0.13052619222004508
  outer loop
    vertex 10.992051496399785 -251.12177066057373 5.199999999999999
    vertex 10.981829244286507 -247.84412494704304 5.277645713530756
    vertex 10.981829244286507 -251.1994163741045 5.277645713530756
  endloop
endfacet
facet normal 0.9914448613738114 0.0 0.13052619222004508
  outer loop
    vertex 10.981829244286507 -247.84412494704304 5.277645713530756
    vertex 10.992051496399785 -251.12177066057373 5.199999999999999
    vertex 10.992051496399785 -247.9217706605738 5.199999999999999
  endloop
endfacet
facet normal 0.7933533402911683 -0.6087614290088078 1.482952065771308e-18
  outer loop
    vertex 10.951859117535118 -251.27177066057376 4.65
    vertex 10.90418353075575 -251.3339026949297 5.412132034355964
    vertex 10.90418353075575 -251.3339026949297 4.587867965644035
  endloop
endfacet
facet normal 0.7933533402911683 -0.6087614290088078 1.482952065771308e-18
  outer loop
    vertex 10.90418353075575 -251.3339026949297 5.412132034355964
    vertex 10.951859117535118 -251.27177066057376 4.65
    vertex 10.951859117535118 -251.27177066057376 5.35
  endloop
endfacet
facet normal 0.38268343236508673 -2.3797599068999126e-19 -0.9238795325112881
  outer loop
    vertex 10.769697209930543 -251.41154840846045 4.510222252113279
    vertex 10.842051496399787 -247.66196303943843 4.540192378864668
    vertex 10.842051496399787 -251.38157828170912 4.540192378864668
  endloop
endfacet
facet normal 0.38268343236508673 -2.3797599068999126e-19 -0.9238795325112881
  outer loop
    vertex 10.842051496399787 -247.66196303943843 4.540192378864668
    vertex 10.769697209930543 -251.41154840846045 4.510222252113279
    vertex 10.769697209930543 -247.63199291268708 4.510222252113279
  endloop
endfacet
facet normal 0.9238795325112849 -3.436273654376413e-19 -0.3826834323650944
  outer loop
    vertex 10.951859117535118 -247.7717706605738 4.65
    vertex 10.981829244286507 -251.1994163741045 4.722354286469244
    vertex 10.951859117535118 -251.27177066057376 4.65
  endloop
endfacet
facet normal 0.9238795325112849 -3.436273654376413e-19 -0.3826834323650944
  outer loop
    vertex 10.981829244286507 -251.1994163741045 4.722354286469244
    vertex 10.951859117535118 -247.7717706605738 4.65
    vertex 10.981829244286507 -247.84412494704304 4.722354286469244
  endloop
endfacet
facet normal 0.7933533402912417 -4.1935585707205512e-19 0.6087614290087122
  outer loop
    vertex 10.951859117535118 -251.27177066057376 5.35
    vertex 10.90418353075575 -247.70963862621784 5.412132034355964
    vertex 10.90418353075575 -251.3339026949297 5.412132034355964
  endloop
endfacet
facet normal 0.7933533402912417 -4.1935585707205512e-19 0.6087614290087122
  outer loop
    vertex 10.90418353075575 -247.70963862621784 5.412132034355964
    vertex 10.951859117535118 -251.27177066057376 5.35
    vertex 10.951859117535118 -247.7717706605738 5.35
  endloop
endfacet
facet normal 0.9914448613738114 7.725167031530151e-31 -0.1305261922200451
  outer loop
    vertex 10.981829244286507 -247.84412494704304 4.722354286469244
    vertex 10.992051496399785 -251.12177066057373 4.8
    vertex 10.981829244286507 -251.1994163741045 4.722354286469244
  endloop
endfacet
facet normal 0.9914448613738114 7.725167031530151e-31 -0.1305261922200451
  outer loop
    vertex 10.992051496399785 -251.12177066057373 4.8
    vertex 10.981829244286507 -247.84412494704304 4.722354286469244
    vertex 10.992051496399785 -247.9217706605738 4.8
  endloop
endfacet
facet normal 0.6087614290087179 1.000513752160069e-30 -0.7933533402912374
  outer loop
    vertex 10.842051496399787 -251.38157828170912 4.540192378864668
    vertex 10.90418353075575 -247.70963862621784 4.587867965644035
    vertex 10.90418353075575 -251.3339026949297 4.587867965644035
  endloop
endfacet
facet normal 0.6087614290087179 1.000513752160069e-30 -0.7933533402912374
  outer loop
    vertex 10.90418353075575 -247.70963862621784 4.587867965644035
    vertex 10.842051496399787 -251.38157828170912 4.540192378864668
    vertex 10.842051496399787 -247.66196303943843 4.540192378864668
  endloop
endfacet
facet normal 0.9238795325112849 -3.4362736543764128e-19 0.3826834323650944
  outer loop
    vertex 10.981829244286507 -251.1994163741045 5.277645713530756
    vertex 10.951859117535118 -247.7717706605738 5.35
    vertex 10.951859117535118 -251.27177066057376 5.35
  endloop
endfacet
facet normal 0.9238795325112849 -3.4362736543764128e-19 0.3826834323650944
  outer loop
    vertex 10.951859117535118 -247.7717706605738 5.35
    vertex 10.981829244286507 -251.1994163741045 5.277645713530756
    vertex 10.981829244286507 -247.84412494704304 5.277645713530756
  endloop
endfacet
facet normal 0.6087614290087179 1.000513752160069e-30 0.7933533402912374
  outer loop
    vertex 10.842051496399787 -247.66196303943843 5.459807621135331
    vertex 10.90418353075575 -251.3339026949297 5.412132034355964
    vertex 10.90418353075575 -247.70963862621784 5.412132034355964
  endloop
endfacet
facet normal 0.6087614290087179 1.000513752160069e-30 0.7933533402912374
  outer loop
    vertex 10.90418353075575 -251.3339026949297 5.412132034355964
    vertex 10.842051496399787 -247.66196303943843 5.459807621135331
    vertex 10.842051496399787 -251.38157828170912 5.459807621135331
  endloop
endfacet
facet normal 0.3826834323650867 -5.252384228160822e-19 0.9238795325112881
  outer loop
    vertex 10.769697209930543 -247.63199291268708 5.48977774788672
    vertex 10.842051496399787 -251.38157828170912 5.459807621135331
    vertex 10.842051496399787 -247.66196303943843 5.459807621135331
  endloop
endfacet
facet normal 0.3826834323650867 -5.252384228160822e-19 0.9238795325112881
  outer loop
    vertex 10.842051496399787 -251.38157828170912 5.459807621135331
    vertex 10.769697209930543 -247.63199291268708 5.48977774788672
    vertex 10.769697209930543 -251.41154840846045 5.48977774788672
  endloop
endfacet
facet normal 0.9914448613738123 -0.1305261922200381 -6.15661247599185e-20
  outer loop
    vertex 10.992051496399785 -251.12177066057373 4.8
    vertex 10.981829244286507 -251.1994163741045 5.277645713530756
    vertex 10.981829244286507 -251.1994163741045 4.722354286469244
  endloop
endfacet
facet normal 0.9914448613738123 -0.1305261922200381 -6.15661247599185e-20
  outer loop
    vertex 10.981829244286507 -251.1994163741045 5.277645713530756
    vertex 10.992051496399785 -251.12177066057373 4.8
    vertex 10.992051496399785 -251.12177066057373 5.199999999999999
  endloop
endfacet
facet normal 0.9914448613738123 0.1305261922200381 1.1568235078486338e-18
  outer loop
    vertex 10.981829244286507 -247.84412494704304 4.722354286469244
    vertex 10.992051496399785 -247.9217706605738 5.199999999999999
    vertex 10.992051496399785 -247.9217706605738 4.8
  endloop
endfacet
facet normal 0.9914448613738123 0.1305261922200381 1.1568235078486338e-18
  outer loop
    vertex 10.992051496399785 -247.9217706605738 5.199999999999999
    vertex 10.981829244286507 -247.84412494704304 4.722354286469244
    vertex 10.981829244286507 -247.84412494704304 5.277645713530756
  endloop
endfacet
facet normal 0.6087614290090635 0.793353340290972 -7.935526133135633e-31
  outer loop
    vertex 10.90418353075575 -247.70963862621784 5.412132034355964
    vertex 10.842051496399787 -247.66196303943843 4.540192378864668
    vertex 10.842051496399787 -247.66196303943843 5.459807621135331
  endloop
endfacet
facet normal 0.6087614290090635 0.793353340290972 -7.935526133135633e-31
  outer loop
    vertex 10.842051496399787 -247.66196303943843 4.540192378864668
    vertex 10.90418353075575 -247.70963862621784 5.412132034355964
    vertex 10.90418353075575 -247.70963862621784 4.587867965644035
  endloop
endfacet
facet normal 0.38268343236466407 0.9238795325114632 9.267593325354314e-19
  outer loop
    vertex 10.842051496399787 -247.66196303943843 5.459807621135331
    vertex 10.769697209930543 -247.63199291268708 4.510222252113279
    vertex 10.769697209930543 -247.63199291268708 5.48977774788672
  endloop
endfacet
facet normal 0.38268343236466407 0.9238795325114632 9.267593325354314e-19
  outer loop
    vertex 10.769697209930543 -247.63199291268708 4.510222252113279
    vertex 10.842051496399787 -247.66196303943843 5.459807621135331
    vertex 10.842051496399787 -247.66196303943843 4.540192378864668
  endloop
endfacet
facet normal 0.1305261922203282 0.9914448613737741 -1.3242618927240967e-31
  outer loop
    vertex 10.769697209930543 -247.63199291268708 5.48977774788672
    vertex 10.692051496399786 -247.62177066057376 4.499999999999999
    vertex 10.692051496399786 -247.62177066057376 5.5
  endloop
endfacet
facet normal 0.1305261922203282 0.9914448613737741 -1.3242618927240967e-31
  outer loop
    vertex 10.692051496399786 -247.62177066057376 4.499999999999999
    vertex 10.769697209930543 -247.63199291268708 5.48977774788672
    vertex 10.769697209930543 -247.63199291268708 4.510222252113279
  endloop
endfacet
facet normal -1.0 0.0 0.0
  outer loop
    vertex 8.892051496399786 -266.62177066057376 6.499999999999999
    vertex 8.892051496399786 -270.42177066057377 4.499999999999999
    vertex 8.892051496399786 -270.42177066057377 6.499999999999999
  endloop
endfacet
facet normal -1.0 0.0 0.0
  outer loop
    vertex 8.892051496399786 -270.42177066057377 4.499999999999999
    vertex 8.892051496399786 -266.62177066057376 6.499999999999999
    vertex 8.892051496399786 -266.62177066057376 4.499999999999999
  endloop
endfacet
facet normal 0.0 0.0 -1.0
  outer loop
    vertex 8.892051496399786 -270.42177066057377 4.499999999999999
    vertex 10.692051496399786 -266.62177066057376 4.499999999999999
    vertex 10.692051496399786 -270.42177066057377 4.499999999999999
  endloop
endfacet
facet normal 0.0 0.0 -1.0
  outer loop
    vertex 10.692051496399786 -266.62177066057376 4.499999999999999
    vertex 8.892051496399786 -270.42177066057377 4.499999999999999
    vertex 8.892051496399786 -266.62177066057376 4.499999999999999
  endloop
endfacet
facet normal 0.0 1.0 0.0
  outer loop
    vertex 10.692051496399786 -266.62177066057376 4.499999999999999
    vertex 10.392051496399786 -266.62177066057376 5.5
    vertex 10.692051496399786 -266.62177066057376 5.5
  endloop
endfacet
facet normal 0.0 1.0 0.0
  outer loop
    vertex 10.392051496399786 -266.62177066057376 5.5
    vertex 8.892051496399786 -266.62177066057376 6.499999999999999
    vertex 10.392051496399786 -266.62177066057376 6.499999999999999
  endloop
endfacet
facet normal 0.0 1.0 0.0
  outer loop
    vertex 8.892051496399786 -266.62177066057376 6.499999999999999
    vertex 10.392051496399786 -266.62177066057376 5.5
    vertex 8.892051496399786 -266.62177066057376 4.499999999999999
  endloop
endfacet
facet normal 0.0 1.0 0.0
  outer loop
    vertex 8.892051496399786 -266.62177066057376 4.499999999999999
    vertex 10.392051496399786 -266.62177066057376 5.5
    vertex 10.692051496399786 -266.62177066057376 4.499999999999999
  endloop
endfacet
facet normal 0.0 -1.0 0.0
  outer loop
    vertex 8.892051496399786 -270.42177066057377 4.499999999999999
    vertex 10.392051496399786 -270.42177066057377 6.499999999999999
    vertex 8.892051496399786 -270.42177066057377 6.499999999999999
  endloop
endfacet
facet normal 0.0 -1.0 0.0
  outer loop
    vertex 10.392051496399786 -270.42177066057377 6.499999999999999
    vertex 8.892051496399786 -270.42177066057377 4.499999999999999
    vertex 10.392051496399786 -270.42177066057377 5.5
  endloop
endfacet
facet normal 0.0 -1.0 0.0
  outer loop
    vertex 10.392051496399786 -270.42177066057377 5.5
    vertex 8.892051496399786 -270.42177066057377 4.499999999999999
    vertex 10.692051496399786 -270.42177066057377 5.5
  endloop
endfacet
facet normal 0.0 -1.0 0.0
  outer loop
    vertex 10.692051496399786 -270.42177066057377 5.5
    vertex 8.892051496399786 -270.42177066057377 4.499999999999999
    vertex 10.692051496399786 -270.42177066057377 4.499999999999999
  endloop
endfacet
facet normal 1.0 0.0 0.0
  outer loop
    vertex 10.392051496399786 -266.62177066057376 5.5
    vertex 10.392051496399786 -270.42177066057377 6.499999999999999
    vertex 10.392051496399786 -270.42177066057377 5.5
  endloop
endfacet
facet normal 1.0 0.0 0.0
  outer loop
    vertex 10.392051496399786 -270.42177066057377 6.499999999999999
    vertex 10.392051496399786 -266.62177066057376 5.5
    vertex 10.392051496399786 -266.62177066057376 6.499999999999999
  endloop
endfacet
facet normal 0.0 0.0 1.0
  outer loop
    vertex 10.392051496399786 -266.62177066057376 5.5
    vertex 10.692051496399786 -270.42177066057377 5.5
    vertex 10.692051496399786 -266.62177066057376 5.5
  endloop
endfacet
facet normal 0.0 0.0 1.0
  outer loop
    vertex 10.692051496399786 -270.42177066057377 5.5
    vertex 10.392051496399786 -266.62177066057376 5.5
    vertex 10.392051496399786 -270.42177066057377 5.5
  endloop
endfacet
facet normal 1.0 0.0 0.0
  outer loop
    vertex 10.992051496399785 -266.9217706605738 4.8
    vertex 10.992051496399785 -270.12177066057376 5.199999999999999
    vertex 10.992051496399785 -270.12177066057376 4.8
  endloop
endfacet
facet normal 1.0 0.0 0.0
  outer loop
    vertex 10.992051496399785 -270.12177066057376 5.199999999999999
    vertex 10.992051496399785 -266.9217706605738 4.8
    vertex 10.992051496399785 -266.9217706605738 5.199999999999999
  endloop
endfacet
facet normal 0.9238795325112981 -0.3826834323650625 -4.62517509325426e-18
  outer loop
    vertex 10.981829244286507 -270.1994163741045 4.722354286469244
    vertex 10.951859117535118 -270.27177066057374 5.35
    vertex 10.951859117535118 -270.27177066057374 4.6499999999999995
  endloop
endfacet
facet normal 0.9238795325112981 -0.3826834323650625 -4.62517509325426e-18
  outer loop
    vertex 10.951859117535118 -270.27177066057374 5.35
    vertex 10.981829244286507 -270.1994163741045 4.722354286469244
    vertex 10.981829244286507 -270.1994163741045 5.277645713530756
  endloop
endfacet
facet normal 0.3826834323646641 0.9238795325114632 9.267593325354316e-19
  outer loop
    vertex 10.842051496399787 -266.66196303943843 5.459807621135331
    vertex 10.769697209930543 -266.63199291268705 4.510222252113279
    vertex 10.769697209930543 -266.63199291268705 5.48977774788672
  endloop
endfacet
facet normal 0.3826834323646641 0.9238795325114632 9.267593325354316e-19
  outer loop
    vertex 10.769697209930543 -266.63199291268705 4.510222252113279
    vertex 10.842051496399787 -266.66196303943843 5.459807621135331
    vertex 10.842051496399787 -266.66196303943843 4.540192378864668
  endloop
endfacet
facet normal 0.1305261922203282 -0.9914448613737741 2.91208269854292e-19
  outer loop
    vertex 10.692051496399786 -270.42177066057377 4.499999999999999
    vertex 10.769697209930543 -270.4115484084605 5.48977774788672
    vertex 10.692051496399786 -270.42177066057377 5.5
  endloop
endfacet
facet normal 0.1305261922203282 -0.9914448613737741 2.91208269854292e-19
  outer loop
    vertex 10.769697209930543 -270.4115484084605 5.48977774788672
    vertex 10.692051496399786 -270.42177066057377 4.499999999999999
    vertex 10.769697209930543 -270.4115484084605 4.510222252113279
  endloop
endfacet
facet normal 0.6087614290087179 -1.000513752160069e-30 -0.7933533402912374
  outer loop
    vertex 10.842051496399787 -270.3815782817091 4.540192378864668
    vertex 10.90418353075575 -266.70963862621784 4.587867965644035
    vertex 10.90418353075575 -270.3339026949297 4.587867965644035
  endloop
endfacet
facet normal 0.6087614290087179 -1.000513752160069e-30 -0.7933533402912374
  outer loop
    vertex 10.90418353075575 -266.70963862621784 4.587867965644035
    vertex 10.842051496399787 -270.3815782817091 4.540192378864668
    vertex 10.842051496399787 -266.66196303943843 4.540192378864668
  endloop
endfacet
facet normal 0.9914448613738123 0.1305261922200381 5.476286915443576e-19
  outer loop
    vertex 10.981829244286507 -266.84412494704304 4.722354286469244
    vertex 10.992051496399785 -266.9217706605738 5.199999999999999
    vertex 10.992051496399785 -266.9217706605738 4.8
  endloop
endfacet
facet normal 0.9914448613738123 0.1305261922200381 5.476286915443576e-19
  outer loop
    vertex 10.992051496399785 -266.9217706605738 5.199999999999999
    vertex 10.981829244286507 -266.84412494704304 4.722354286469244
    vertex 10.981829244286507 -266.84412494704304 5.277645713530756
  endloop
endfacet
facet normal 0.6087614290087179 -1.000513752160069e-30 0.7933533402912374
  outer loop
    vertex 10.842051496399787 -266.66196303943843 5.459807621135331
    vertex 10.90418353075575 -270.3339026949297 5.412132034355964
    vertex 10.90418353075575 -266.70963862621784 5.412132034355964
  endloop
endfacet
facet normal 0.6087614290087179 -1.000513752160069e-30 0.7933533402912374
  outer loop
    vertex 10.90418353075575 -270.3339026949297 5.412132034355964
    vertex 10.842051496399787 -266.66196303943843 5.459807621135331
    vertex 10.842051496399787 -270.3815782817091 5.459807621135331
  endloop
endfacet
facet normal 0.38268343236508673 -5.252384228126192e-19 -0.9238795325112881
  outer loop
    vertex 10.769697209930543 -270.4115484084605 4.510222252113279
    vertex 10.842051496399787 -266.66196303943843 4.540192378864668
    vertex 10.842051496399787 -270.3815782817091 4.540192378864668
  endloop
endfacet
facet normal 0.38268343236508673 -5.252384228126192e-19 -0.9238795325112881
  outer loop
    vertex 10.842051496399787 -266.66196303943843 4.540192378864668
    vertex 10.769697209930543 -270.4115484084605 4.510222252113279
    vertex 10.769697209930543 -266.63199291268705 4.510222252113279
  endloop
endfacet
facet normal 0.13052619222005393 1.617608919207724e-30 -0.99144486137381
  outer loop
    vertex 10.692051496399786 -270.42177066057377 4.499999999999999
    vertex 10.769697209930543 -266.63199291268705 4.510222252113279
    vertex 10.769697209930543 -270.4115484084605 4.510222252113279
  endloop
endfacet
facet normal 0.13052619222005393 1.617608919207724e-30 -0.99144486137381
  outer loop
    vertex 10.769697209930543 -266.63199291268705 4.510222252113279
    vertex 10.692051496399786 -270.42177066057377 4.499999999999999
    vertex 10.692051496399786 -266.62177066057376 4.499999999999999
  endloop
endfacet
facet normal 0.9238795325112862 -3.436273654366061e-19 0.38268343236509117
  outer loop
    vertex 10.981829244286507 -270.1994163741045 5.277645713530756
    vertex 10.951859117535118 -266.7717706605738 5.35
    vertex 10.951859117535118 -270.27177066057374 5.35
  endloop
endfacet
facet normal 0.9238795325112862 -3.436273654366061e-19 0.38268343236509117
  outer loop
    vertex 10.951859117535118 -266.7717706605738 5.35
    vertex 10.981829244286507 -270.1994163741045 5.277645713530756
    vertex 10.981829244286507 -266.84412494704304 5.277645713530756
  endloop
endfacet
facet normal 0.7933533402912383 -4.1935585706563085e-19 0.6087614290087165
  outer loop
    vertex 10.951859117535118 -270.27177066057374 5.35
    vertex 10.90418353075575 -266.70963862621784 5.412132034355964
    vertex 10.90418353075575 -270.3339026949297 5.412132034355964
  endloop
endfacet
facet normal 0.7933533402912383 -4.1935585706563085e-19 0.6087614290087165
  outer loop
    vertex 10.90418353075575 -266.70963862621784 5.412132034355964
    vertex 10.951859117535118 -270.27177066057374 5.35
    vertex 10.951859117535118 -266.7717706605738 5.35
  endloop
endfacet
facet normal 0.6087614290090635 -0.793353340290972 -7.935526133135633e-31
  outer loop
    vertex 10.842051496399787 -270.3815782817091 4.540192378864668
    vertex 10.90418353075575 -270.3339026949297 5.412132034355964
    vertex 10.842051496399787 -270.3815782817091 5.459807621135331
  endloop
endfacet
facet normal 0.6087614290090635 -0.793353340290972 -7.935526133135633e-31
  outer loop
    vertex 10.90418353075575 -270.3339026949297 5.412132034355964
    vertex 10.842051496399787 -270.3815782817091 4.540192378864668
    vertex 10.90418353075575 -270.3339026949297 4.587867965644035
  endloop
endfacet
facet normal 0.9914448613738114 0.0 -0.13052619222004508
  outer loop
    vertex 10.981829244286507 -266.84412494704304 4.722354286469244
    vertex 10.992051496399785 -270.12177066057376 4.8
    vertex 10.981829244286507 -270.1994163741045 4.722354286469244
  endloop
endfacet
facet normal 0.9914448613738114 0.0 -0.13052619222004508
  outer loop
    vertex 10.992051496399785 -270.12177066057376 4.8
    vertex 10.981829244286507 -266.84412494704304 4.722354286469244
    vertex 10.992051496399785 -266.9217706605738 4.8
  endloop
endfacet
facet normal 0.7933533402912383 -4.1935585706563085e-19 -0.6087614290087165
  outer loop
    vertex 10.90418353075575 -266.70963862621784 4.587867965644035
    vertex 10.951859117535118 -270.27177066057374 4.6499999999999995
    vertex 10.90418353075575 -270.3339026949297 4.587867965644035
  endloop
endfacet
facet normal 0.7933533402912383 -4.1935585706563085e-19 -0.6087614290087165
  outer loop
    vertex 10.951859117535118 -270.27177066057374 4.6499999999999995
    vertex 10.90418353075575 -266.70963862621784 4.587867965644035
    vertex 10.951859117535118 -266.7717706605738 4.6499999999999995
  endloop
endfacet
facet normal 0.3826834323646641 -0.9238795325114632 -9.267593325354316e-19
  outer loop
    vertex 10.769697209930543 -270.4115484084605 4.510222252113279
    vertex 10.842051496399787 -270.3815782817091 5.459807621135331
    vertex 10.769697209930543 -270.4115484084605 5.48977774788672
  endloop
endfacet
facet normal 0.3826834323646641 -0.9238795325114632 -9.267593325354316e-19
  outer loop
    vertex 10.842051496399787 -270.3815782817091 5.459807621135331
    vertex 10.769697209930543 -270.4115484084605 4.510222252113279
    vertex 10.842051496399787 -270.3815782817091 4.540192378864668
  endloop
endfacet
facet normal 0.13052619222005393 -2.773920570235566e-30 0.99144486137381
  outer loop
    vertex 10.692051496399786 -266.62177066057376 5.5
    vertex 10.769697209930543 -270.4115484084605 5.48977774788672
    vertex 10.769697209930543 -266.63199291268705 5.48977774788672
  endloop
endfacet
facet normal 0.13052619222005393 -2.773920570235566e-30 0.99144486137381
  outer loop
    vertex 10.769697209930543 -270.4115484084605 5.48977774788672
    vertex 10.692051496399786 -266.62177066057376 5.5
    vertex 10.692051496399786 -270.42177066057377 5.5
  endloop
endfacet
facet normal 0.9914448613738114 0.0 0.13052619222004508
  outer loop
    vertex 10.992051496399785 -270.12177066057376 5.199999999999999
    vertex 10.981829244286507 -266.84412494704304 5.277645713530756
    vertex 10.981829244286507 -270.1994163741045 5.277645713530756
  endloop
endfacet
facet normal 0.9914448613738114 0.0 0.13052619222004508
  outer loop
    vertex 10.981829244286507 -266.84412494704304 5.277645713530756
    vertex 10.992051496399785 -270.12177066057376 5.199999999999999
    vertex 10.992051496399785 -266.9217706605738 5.199999999999999
  endloop
endfacet
facet normal 0.7933533402911684 -0.6087614290088079 -1.4829520657713058e-18
  outer loop
    vertex 10.951859117535118 -270.27177066057374 4.6499999999999995
    vertex 10.90418353075575 -270.3339026949297 5.412132034355964
    vertex 10.90418353075575 -270.3339026949297 4.587867965644035
  endloop
endfacet
facet normal 0.7933533402911684 -0.6087614290088079 -1.4829520657713058e-18
  outer loop
    vertex 10.90418353075575 -270.3339026949297 5.412132034355964
    vertex 10.951859117535118 -270.27177066057374 4.6499999999999995
    vertex 10.951859117535118 -270.27177066057374 5.35
  endloop
endfacet
facet normal 0.1305261922203282 0.9914448613737741 2.91208269854292e-19
  outer loop
    vertex 10.769697209930543 -266.63199291268705 5.48977774788672
    vertex 10.692051496399786 -266.62177066057376 4.499999999999999
    vertex 10.692051496399786 -266.62177066057376 5.5
  endloop
endfacet
facet normal 0.1305261922203282 0.9914448613737741 2.91208269854292e-19
  outer loop
    vertex 10.692051496399786 -266.62177066057376 4.499999999999999
    vertex 10.769697209930543 -266.63199291268705 5.48977774788672
    vertex 10.769697209930543 -266.63199291268705 4.510222252113279
  endloop
endfacet
facet normal 0.9238795325112862 -3.436273654366061e-19 -0.38268343236509117
  outer loop
    vertex 10.951859117535118 -266.7717706605738 4.6499999999999995
    vertex 10.981829244286507 -270.1994163741045 4.722354286469244
    vertex 10.951859117535118 -270.27177066057374 4.6499999999999995
  endloop
endfacet
facet normal 0.9238795325112862 -3.436273654366061e-19 -0.38268343236509117
  outer loop
    vertex 10.981829244286507 -270.1994163741045 4.722354286469244
    vertex 10.951859117535118 -266.7717706605738 4.6499999999999995
    vertex 10.981829244286507 -266.84412494704304 4.722354286469244
  endloop
endfacet
facet normal 0.9914448613738123 -0.1305261922200381 5.476286915443576e-19
  outer loop
    vertex 10.992051496399785 -270.12177066057376 4.8
    vertex 10.981829244286507 -270.1994163741045 5.277645713530756
    vertex 10.981829244286507 -270.1994163741045 4.722354286469244
  endloop
endfacet
facet normal 0.9914448613738123 -0.1305261922200381 5.476286915443576e-19
  outer loop
    vertex 10.981829244286507 -270.1994163741045 5.277645713530756
    vertex 10.992051496399785 -270.12177066057376 4.8
    vertex 10.992051496399785 -270.12177066057376 5.199999999999999
  endloop
endfacet
facet normal 0.3826834323650867 -2.379759906865282e-19 0.9238795325112881
  outer loop
    vertex 10.769697209930543 -266.63199291268705 5.48977774788672
    vertex 10.842051496399787 -270.3815782817091 5.459807621135331
    vertex 10.842051496399787 -266.66196303943843 5.459807621135331
  endloop
endfacet
facet normal 0.3826834323650867 -2.379759906865282e-19 0.9238795325112881
  outer loop
    vertex 10.842051496399787 -270.3815782817091 5.459807621135331
    vertex 10.769697209930543 -266.63199291268705 5.48977774788672
    vertex 10.769697209930543 -270.4115484084605 5.48977774788672
  endloop
endfacet
facet normal 0.6087614290090635 0.793353340290972 7.935526133135633e-31
  outer loop
    vertex 10.90418353075575 -266.70963862621784 5.412132034355964
    vertex 10.842051496399787 -266.66196303943843 4.540192378864668
    vertex 10.842051496399787 -266.66196303943843 5.459807621135331
  endloop
endfacet
facet normal 0.6087614290090635 0.793353340290972 7.935526133135633e-31
  outer loop
    vertex 10.842051496399787 -266.66196303943843 4.540192378864668
    vertex 10.90418353075575 -266.70963862621784 5.412132034355964
    vertex 10.90418353075575 -266.70963862621784 4.587867965644035
  endloop
endfacet
facet normal 0.9238795325112981 0.3826834323650625 -4.62517509325426e-18
  outer loop
    vertex 10.951859117535118 -266.7717706605738 4.6499999999999995
    vertex 10.981829244286507 -266.84412494704304 5.277645713530756
    vertex 10.981829244286507 -266.84412494704304 4.722354286469244
  endloop
endfacet
facet normal 0.9238795325112981 0.3826834323650625 -4.62517509325426e-18
  outer loop
    vertex 10.981829244286507 -266.84412494704304 5.277645713530756
    vertex 10.951859117535118 -266.7717706605738 4.6499999999999995
    vertex 10.951859117535118 -266.7717706605738 5.35
  endloop
endfacet
facet normal 0.7933533402911684 0.6087614290088079 1.4829520657713058e-18
  outer loop
    vertex 10.90418353075575 -266.70963862621784 4.587867965644035
    vertex 10.951859117535118 -266.7717706605738 5.35
    vertex 10.951859117535118 -266.7717706605738 4.6499999999999995
  endloop
endfacet
facet normal 0.7933533402911684 0.6087614290088079 1.4829520657713058e-18
  outer loop
    vertex 10.951859117535118 -266.7717706605738 5.35
    vertex 10.90418353075575 -266.70963862621784 4.587867965644035
    vertex 10.90418353075575 -266.70963862621784 5.412132034355964
  endloop
endfacet
facet normal 1.0 6.049014748177263e-16 0.0
  outer loop
    vertex 0.8920514963998326 -251.42177066057377 6.499999999999999
    vertex 0.8920514963998302 -247.62177066057376 4.499999999999999
    vertex 0.8920514963998302 -247.62177066057376 6.499999999999999
  endloop
endfacet
facet normal 1.0 6.049014748177263e-16 0.0
  outer loop
    vertex 0.8920514963998302 -247.62177066057376 4.499999999999999
    vertex 0.8920514963998326 -251.42177066057377 6.499999999999999
    vertex 0.8920514963998326 -251.42177066057377 4.499999999999999
  endloop
endfacet
facet normal 0.0 0.0 -1.0
  outer loop
    vertex 0.8920514963998302 -247.62177066057376 4.499999999999999
    vertex -0.9079485036001679 -251.42177066057377 4.499999999999999
    vertex -0.9079485036001702 -247.62177066057376 4.499999999999999
  endloop
endfacet
facet normal 0.0 0.0 -1.0
  outer loop
    vertex -0.9079485036001679 -251.42177066057377 4.499999999999999
    vertex 0.8920514963998302 -247.62177066057376 4.499999999999999
    vertex 0.8920514963998326 -251.42177066057377 4.499999999999999
  endloop
endfacet
facet normal 0.0 -1.0 0.0
  outer loop
    vertex -0.9079485036001679 -251.42177066057377 4.499999999999999
    vertex -0.6079485036001676 -251.42177066057377 5.5
    vertex -0.9079485036001679 -251.42177066057377 5.5
  endloop
endfacet
facet normal 0.0 -1.0 0.0
  outer loop
    vertex -0.6079485036001676 -251.42177066057377 5.5
    vertex 0.8920514963998326 -251.42177066057377 6.499999999999999
    vertex -0.6079485036001676 -251.42177066057377 6.499999999999999
  endloop
endfacet
facet normal 0.0 -1.0 0.0
  outer loop
    vertex 0.8920514963998326 -251.42177066057377 6.499999999999999
    vertex -0.6079485036001676 -251.42177066057377 5.5
    vertex 0.8920514963998326 -251.42177066057377 4.499999999999999
  endloop
endfacet
facet normal 0.0 -1.0 0.0
  outer loop
    vertex 0.8920514963998326 -251.42177066057377 4.499999999999999
    vertex -0.6079485036001676 -251.42177066057377 5.5
    vertex -0.9079485036001679 -251.42177066057377 4.499999999999999
  endloop
endfacet
facet normal 0.0 1.0 0.0
  outer loop
    vertex 0.8920514963998302 -247.62177066057376 4.499999999999999
    vertex -0.6079485036001699 -247.62177066057376 6.499999999999999
    vertex 0.8920514963998302 -247.62177066057376 6.499999999999999
  endloop
endfacet
facet normal 0.0 1.0 0.0
  outer loop
    vertex -0.6079485036001699 -247.62177066057376 6.499999999999999
    vertex 0.8920514963998302 -247.62177066057376 4.499999999999999
    vertex -0.6079485036001699 -247.62177066057376 5.5
  endloop
endfacet
facet normal 0.0 1.0 0.0
  outer loop
    vertex -0.6079485036001699 -247.62177066057376 5.5
    vertex 0.8920514963998302 -247.62177066057376 4.499999999999999
    vertex -0.9079485036001702 -247.62177066057376 5.5
  endloop
endfacet
facet normal 0.0 1.0 0.0
  outer loop
    vertex -0.9079485036001702 -247.62177066057376 5.5
    vertex 0.8920514963998302 -247.62177066057376 4.499999999999999
    vertex -0.9079485036001702 -247.62177066057376 4.499999999999999
  endloop
endfacet
facet normal -1.0 -6.049014748177263e-16 0.0
  outer loop
    vertex -0.6079485036001676 -251.42177066057377 5.5
    vertex -0.6079485036001699 -247.62177066057376 6.499999999999999
    vertex -0.6079485036001699 -247.62177066057376 5.5
  endloop
endfacet
facet normal -1.0 -6.049014748177263e-16 0.0
  outer loop
    vertex -0.6079485036001699 -247.62177066057376 6.499999999999999
    vertex -0.6079485036001676 -251.42177066057377 5.5
    vertex -0.6079485036001676 -251.42177066057377 6.499999999999999
  endloop
endfacet
facet normal 0.0 0.0 1.0
  outer loop
    vertex -0.6079485036001676 -251.42177066057377 5.5
    vertex -0.9079485036001702 -247.62177066057376 5.5
    vertex -0.9079485036001679 -251.42177066057377 5.5
  endloop
endfacet
facet normal 0.0 0.0 1.0
  outer loop
    vertex -0.9079485036001702 -247.62177066057376 5.5
    vertex -0.6079485036001676 -251.42177066057377 5.5
    vertex -0.6079485036001699 -247.62177066057376 5.5
  endloop
endfacet
facet normal -1.0 -6.058521739849094e-16 -1.2044660749336314e-43
  outer loop
    vertex -1.207948503600168 -251.12177066057373 4.8
    vertex -1.20794850360017 -247.9217706605738 5.199999999999999
    vertex -1.20794850360017 -247.9217706605738 4.8
  endloop
endfacet
facet normal -1.0 -6.058521739849094e-16 -1.2044660749336314e-43
  outer loop
    vertex -1.20794850360017 -247.9217706605738 5.199999999999999
    vertex -1.207948503600168 -251.12177066057373 4.8
    vertex -1.207948503600168 -251.12177066057373 5.199999999999999
  endloop
endfacet
facet normal -0.6087614290090667 0.7933533402909696 -9.919407666419592e-32
  outer loop
    vertex -1.0579485036001701 -247.66196303943843 4.540192378864668
    vertex -1.1200805379561343 -247.70963862621784 5.412132034355964
    vertex -1.0579485036001701 -247.66196303943843 5.459807621135331
  endloop
endfacet
facet normal -0.6087614290090667 0.7933533402909696 -9.919407666419592e-32
  outer loop
    vertex -1.1200805379561343 -247.70963862621784 5.412132034355964
    vertex -1.0579485036001701 -247.66196303943843 4.540192378864668
    vertex -1.1200805379561343 -247.70963862621784 4.587867965644035
  endloop
endfacet
facet normal -0.3826834323650862 -2.251252871930685e-16 0.9238795325112882
  outer loop
    vertex -0.9855942171309241 -251.41154840846045 5.48977774788672
    vertex -1.0579485036001701 -247.66196303943843 5.459807621135331
    vertex -1.057948503600168 -251.38157828170912 5.459807621135331
  endloop
endfacet
facet normal -0.3826834323650862 -2.251252871930685e-16 0.9238795325112882
  outer loop
    vertex -1.0579485036001701 -247.66196303943843 5.459807621135331
    vertex -0.9855942171309241 -251.41154840846045 5.48977774788672
    vertex -0.9855942171309264 -247.63199291268708 5.48977774788672
  endloop
endfacet
facet normal -0.9914448613738114 0.13052619222004475 -1.9116480557571515e-19
  outer loop
    vertex -1.20794850360017 -247.9217706605738 4.8
    vertex -1.1977262514868905 -247.84412494704304 5.277645713530756
    vertex -1.1977262514868905 -247.84412494704304 4.722354286469244
  endloop
endfacet
facet normal -0.9914448613738114 0.13052619222004475 -1.9116480557571515e-19
  outer loop
    vertex -1.1977262514868905 -247.84412494704304 5.277645713530756
    vertex -1.20794850360017 -247.9217706605738 4.8
    vertex -1.20794850360017 -247.9217706605738 5.199999999999999
  endloop
endfacet
facet normal -0.7933533402912352 -4.715154523788316e-16 0.6087614290087208
  outer loop
    vertex -1.1677561247355015 -247.7717706605738 5.35
    vertex -1.1200805379561323 -251.3339026949297 5.412132034355964
    vertex -1.1200805379561343 -247.70963862621784 5.412132034355964
  endloop
endfacet
facet normal -0.7933533402912352 -4.715154523788316e-16 0.6087614290087208
  outer loop
    vertex -1.1200805379561323 -251.3339026949297 5.412132034355964
    vertex -1.1677561247355015 -247.7717706605738 5.35
    vertex -1.1677561247354993 -251.27177066057376 5.35
  endloop
endfacet
facet normal -0.6087614290087211 -3.5049637920842436e-16 0.7933533402912348
  outer loop
    vertex -1.057948503600168 -251.38157828170912 5.459807621135331
    vertex -1.1200805379561343 -247.70963862621784 5.412132034355964
    vertex -1.1200805379561323 -251.3339026949297 5.412132034355964
  endloop
endfacet
facet normal -0.6087614290087211 -3.5049637920842436e-16 0.7933533402912348
  outer loop
    vertex -1.1200805379561343 -247.70963862621784 5.412132034355964
    vertex -1.057948503600168 -251.38157828170912 5.459807621135331
    vertex -1.0579485036001701 -247.66196303943843 5.459807621135331
  endloop
endfacet
facet normal -0.13052619222005363 -7.890490368115896e-17 0.9914448613738103
  outer loop
    vertex -0.9079485036001679 -251.42177066057377 5.5
    vertex -0.9855942171309264 -247.63199291268708 5.48977774788672
    vertex -0.9855942171309241 -251.41154840846045 5.48977774788672
  endloop
endfacet
facet normal -0.13052619222005363 -7.890490368115896e-17 0.9914448613738103
  outer loop
    vertex -0.9855942171309264 -247.63199291268708 5.48977774788672
    vertex -0.9079485036001679 -251.42177066057377 5.5
    vertex -0.9079485036001702 -247.62177066057376 5.5
  endloop
endfacet
facet normal -0.9914448613738112 -0.13052619222004697 -1.9116480557571684e-19
  outer loop
    vertex -1.1977262514868885 -251.1994163741045 4.722354286469244
    vertex -1.207948503600168 -251.12177066057373 5.199999999999999
    vertex -1.207948503600168 -251.12177066057373 4.8
  endloop
endfacet
facet normal -0.9914448613738112 -0.13052619222004697 -1.9116480557571684e-19
  outer loop
    vertex -1.207948503600168 -251.12177066057373 5.199999999999999
    vertex -1.1977262514868885 -251.1994163741045 4.722354286469244
    vertex -1.1977262514868885 -251.1994163741045 5.277645713530756
  endloop
endfacet
facet normal -0.13052619222032794 -0.9914448613737741 -1.6553273659051168e-32
  outer loop
    vertex -0.9855942171309241 -251.41154840846045 5.48977774788672
    vertex -0.9079485036001679 -251.42177066057377 4.499999999999999
    vertex -0.9079485036001679 -251.42177066057377 5.5
  endloop
endfacet
facet normal -0.13052619222032794 -0.9914448613737741 -1.6553273659051168e-32
  outer loop
    vertex -0.9079485036001679 -251.42177066057377 4.499999999999999
    vertex -0.9855942171309241 -251.41154840846045 5.48977774788672
    vertex -0.9855942171309241 -251.41154840846045 4.510222252113279
  endloop
endfacet
facet normal -0.9238795325112998 -0.38268343236505875 -3.5093074527824544e-18
  outer loop
    vertex -1.1677561247354993 -251.27177066057376 4.6499999999999995
    vertex -1.1977262514868885 -251.1994163741045 5.277645713530756
    vertex -1.1977262514868885 -251.1994163741045 4.722354286469244
  endloop
endfacet
facet normal -0.9238795325112998 -0.38268343236505875 -3.5093074527824544e-18
  outer loop
    vertex -1.1977262514868885 -251.1994163741045 5.277645713530756
    vertex -1.1677561247354993 -251.27177066057376 4.6499999999999995
    vertex -1.1677561247354993 -251.27177066057376 5.35
  endloop
endfacet
facet normal -0.38268343236466323 -0.9238795325114634 5.268016892245032e-32
  outer loop
    vertex -1.057948503600168 -251.38157828170912 5.459807621135331
    vertex -0.9855942171309241 -251.41154840846045 4.510222252113279
    vertex -0.9855942171309241 -251.41154840846045 5.48977774788672
  endloop
endfacet
facet normal -0.38268343236466323 -0.9238795325114634 5.268016892245032e-32
  outer loop
    vertex -0.9855942171309241 -251.41154840846045 4.510222252113279
    vertex -1.057948503600168 -251.38157828170912 5.459807621135331
    vertex -1.057948503600168 -251.38157828170912 4.540192378864668
  endloop
endfacet
facet normal -0.9238795325112865 -5.69734171895609e-16 0.38268343236509056
  outer loop
    vertex -1.1977262514868905 -247.84412494704304 5.277645713530756
    vertex -1.1677561247354993 -251.27177066057376 5.35
    vertex -1.1677561247355015 -247.7717706605738 5.35
  endloop
endfacet
facet normal -0.9238795325112865 -5.69734171895609e-16 0.38268343236509056
  outer loop
    vertex -1.1677561247354993 -251.27177066057376 5.35
    vertex -1.1977262514868905 -247.84412494704304 5.277645713530756
    vertex -1.1977262514868885 -251.1994163741045 5.277645713530756
  endloop
endfacet
facet normal -0.9914448613738105 -6.133156331230038e-16 0.13052619222005166
  outer loop
    vertex -1.20794850360017 -247.9217706605738 5.199999999999999
    vertex -1.1977262514868885 -251.1994163741045 5.277645713530756
    vertex -1.1977262514868905 -247.84412494704304 5.277645713530756
  endloop
endfacet
facet normal -0.9914448613738105 -6.133156331230038e-16 0.13052619222005166
  outer loop
    vertex -1.1977262514868885 -251.1994163741045 5.277645713530756
    vertex -1.20794850360017 -247.9217706605738 5.199999999999999
    vertex -1.207948503600168 -251.12177066057373 5.199999999999999
  endloop
endfacet
facet normal -0.7933533402911651 0.608761429008812 -3.3286106872432797e-29
  outer loop
    vertex -1.1677561247355015 -247.7717706605738 4.6499999999999995
    vertex -1.1200805379561343 -247.70963862621784 5.412132034355964
    vertex -1.1200805379561343 -247.70963862621784 4.587867965644035
  endloop
endfacet
facet normal -0.7933533402911651 0.608761429008812 -3.3286106872432797e-29
  outer loop
    vertex -1.1200805379561343 -247.70963862621784 5.412132034355964
    vertex -1.1677561247355015 -247.7717706605738 4.6499999999999995
    vertex -1.1677561247355015 -247.7717706605738 5.35
  endloop
endfacet
facet normal -0.9238795325112998 0.38268343236505875 -3.50930745278073e-18
  outer loop
    vertex -1.1977262514868905 -247.84412494704304 4.722354286469244
    vertex -1.1677561247355015 -247.7717706605738 5.35
    vertex -1.1677561247355015 -247.7717706605738 4.6499999999999995
  endloop
endfacet
facet normal -0.9238795325112998 0.38268343236505875 -3.50930745278073e-18
  outer loop
    vertex -1.1677561247355015 -247.7717706605738 5.35
    vertex -1.1977262514868905 -247.84412494704304 4.722354286469244
    vertex -1.1977262514868905 -247.84412494704304 5.277645713530756
  endloop
endfacet
facet normal -0.6087614290090667 -0.7933533402909696 9.919407666419592e-32
  outer loop
    vertex -1.1200805379561323 -251.3339026949297 5.412132034355964
    vertex -1.057948503600168 -251.38157828170912 4.540192378864668
    vertex -1.057948503600168 -251.38157828170912 5.459807621135331
  endloop
endfacet
facet normal -0.6087614290090667 -0.7933533402909696 9.919407666419592e-32
  outer loop
    vertex -1.057948503600168 -251.38157828170912 4.540192378864668
    vertex -1.1200805379561323 -251.3339026949297 5.412132034355964
    vertex -1.1200805379561323 -251.3339026949297 4.587867965644035
  endloop
endfacet
facet normal -0.7933533402911651 -0.608761429008812 3.294892261074007e-29
  outer loop
    vertex -1.1200805379561323 -251.3339026949297 4.587867965644035
    vertex -1.1677561247354993 -251.27177066057376 5.35
    vertex -1.1677561247354993 -251.27177066057376 4.6499999999999995
  endloop
endfacet
facet normal -0.7933533402911651 -0.608761429008812 3.294892261074007e-29
  outer loop
    vertex -1.1677561247354993 -251.27177066057376 5.35
    vertex -1.1200805379561323 -251.3339026949297 4.587867965644035
    vertex -1.1200805379561323 -251.3339026949297 5.412132034355964
  endloop
endfacet
facet normal -0.3826834323646641 0.9238795325114632 -0.0
  outer loop
    vertex -0.9855942171309264 -247.63199291268708 4.510222252113279
    vertex -1.0579485036001701 -247.66196303943843 5.459807621135331
    vertex -0.9855942171309264 -247.63199291268708 5.48977774788672
  endloop
endfacet
facet normal -0.3826834323646641 0.9238795325114632 -0.0
  outer loop
    vertex -1.0579485036001701 -247.66196303943843 5.459807621135331
    vertex -0.9855942171309264 -247.63199291268708 4.510222252113279
    vertex -1.0579485036001701 -247.66196303943843 4.540192378864668
  endloop
endfacet
facet normal -0.3826834323650863 -2.254125496251946e-16 -0.9238795325112882
  outer loop
    vertex -1.0579485036001701 -247.66196303943843 4.540192378864668
    vertex -0.9855942171309241 -251.41154840846045 4.510222252113279
    vertex -1.057948503600168 -251.38157828170912 4.540192378864668
  endloop
endfacet
facet normal -0.3826834323650863 -2.254125496251946e-16 -0.9238795325112882
  outer loop
    vertex -0.9855942171309241 -251.41154840846045 4.510222252113279
    vertex -1.0579485036001701 -247.66196303943843 4.540192378864668
    vertex -0.9855942171309264 -247.63199291268708 4.510222252113279
  endloop
endfacet
facet normal -0.7933533402912352 -4.7096893718565e-16 -0.6087614290087208
  outer loop
    vertex -1.1200805379561323 -251.3339026949297 4.587867965644035
    vertex -1.1677561247355015 -247.7717706605738 4.6499999999999995
    vertex -1.1200805379561343 -247.70963862621784 4.587867965644035
  endloop
endfacet
facet normal -0.7933533402912352 -4.7096893718565e-16 -0.6087614290087208
  outer loop
    vertex -1.1677561247355015 -247.7717706605738 4.6499999999999995
    vertex -1.1200805379561323 -251.3339026949297 4.587867965644035
    vertex -1.1677561247354993 -251.27177066057376 4.6499999999999995
  endloop
endfacet
facet normal -0.9238795325112878 -5.693905445301736e-16 -0.3826834323650873
  outer loop
    vertex -1.1677561247354993 -251.27177066057376 4.6499999999999995
    vertex -1.1977262514868905 -247.84412494704304 4.722354286469244
    vertex -1.1677561247355015 -247.7717706605738 4.6499999999999995
  endloop
endfacet
facet normal -0.9238795325112878 -5.693905445301736e-16 -0.3826834323650873
  outer loop
    vertex -1.1977262514868905 -247.84412494704304 4.722354286469244
    vertex -1.1677561247354993 -251.27177066057376 4.6499999999999995
    vertex -1.1977262514868885 -251.1994163741045 4.722354286469244
  endloop
endfacet
facet normal -0.13052619222032794 0.9914448613737741 -1.6553273659051168e-32
  outer loop
    vertex -0.9079485036001702 -247.62177066057376 4.499999999999999
    vertex -0.9855942171309264 -247.63199291268708 5.48977774788672
    vertex -0.9079485036001702 -247.62177066057376 5.5
  endloop
endfacet
facet normal -0.13052619222032794 0.9914448613737741 -1.6553273659051168e-32
  outer loop
    vertex -0.9855942171309264 -247.63199291268708 5.48977774788672
    vertex -0.9079485036001702 -247.62177066057376 4.499999999999999
    vertex -0.9855942171309264 -247.63199291268708 4.510222252113279
  endloop
endfacet
facet normal -0.6087614290087211 -3.5049637920842436e-16 -0.7933533402912348
  outer loop
    vertex -1.1200805379561343 -247.70963862621784 4.587867965644035
    vertex -1.057948503600168 -251.38157828170912 4.540192378864668
    vertex -1.1200805379561323 -251.3339026949297 4.587867965644035
  endloop
endfacet
facet normal -0.6087614290087211 -3.5049637920842436e-16 -0.7933533402912348
  outer loop
    vertex -1.057948503600168 -251.38157828170912 4.540192378864668
    vertex -1.1200805379561343 -247.70963862621784 4.587867965644035
    vertex -1.0579485036001701 -247.66196303943843 4.540192378864668
  endloop
endfacet
facet normal -0.9914448613738103 -6.133209981676603e-16 -0.1305261922200528
  outer loop
    vertex -1.1977262514868885 -251.1994163741045 4.722354286469244
    vertex -1.20794850360017 -247.9217706605738 4.8
    vertex -1.1977262514868905 -247.84412494704304 4.722354286469244
  endloop
endfacet
facet normal -0.9914448613738103 -6.133209981676603e-16 -0.1305261922200528
  outer loop
    vertex -1.20794850360017 -247.9217706605738 4.8
    vertex -1.1977262514868885 -251.1994163741045 4.722354286469244
    vertex -1.207948503600168 -251.12177066057373 4.8
  endloop
endfacet
facet normal -0.13052619222005363 -7.890490368115456e-17 -0.9914448613738103
  outer loop
    vertex -0.9079485036001702 -247.62177066057376 4.499999999999999
    vertex -0.9855942171309241 -251.41154840846045 4.510222252113279
    vertex -0.9855942171309264 -247.63199291268708 4.510222252113279
  endloop
endfacet
facet normal -0.13052619222005363 -7.890490368115456e-17 -0.9914448613738103
  outer loop
    vertex -0.9855942171309241 -251.41154840846045 4.510222252113279
    vertex -0.9079485036001702 -247.62177066057376 4.499999999999999
    vertex -0.9079485036001679 -251.42177066057377 4.499999999999999
  endloop
endfacet
facet normal 0.0 0.0 -1.0
  outer loop
    vertex -0.6079485036002126 -272.52177066057374 1.9999999999999996
    vertex 10.392051496399787 -275.52177066057374 1.9999999999999996
    vertex -0.6079485036002127 -275.52177066057374 1.9999999999999996
  endloop
endfacet
facet normal 0.0 0.0 -1.0
  outer loop
    vertex 10.392051496399787 -275.52177066057374 1.9999999999999996
    vertex -0.6079485036002126 -272.52177066057374 1.9999999999999996
    vertex 10.392051496399787 -272.52177066057374 1.9999999999999996
  endloop
endfacet
facet normal 0.0 1.0 0.0
  outer loop
    vertex 10.392051496399787 -242.52177066057376 7.999999999999999
    vertex 11.892051496399787 -242.52177066057376 6.499999999999999
    vertex 10.392051496399787 -242.52177066057376 6.499999999999999
  endloop
endfacet
facet normal 0.0 1.0 0.0
  outer loop
    vertex 11.892051496399787 -242.52177066057376 6.499999999999999
    vertex 10.392051496399787 -242.52177066057376 7.999999999999999
    vertex 11.892051496399787 -242.52177066057376 7.999999999999999
  endloop
endfacet
facet normal 0.0 1.0 0.0
  outer loop
    vertex -0.6079485036002126 -242.52177066057376 6.499999999999999
    vertex 10.392051496399787 -242.52177066057376 1.9999999999999996
    vertex -0.6079485036002126 -242.52177066057376 1.9999999999999996
  endloop
endfacet
facet normal 0.0 1.0 0.0
  outer loop
    vertex 10.392051496399787 -242.52177066057376 1.9999999999999996
    vertex -0.6079485036002126 -242.52177066057376 6.499999999999999
    vertex 10.392051496399787 -242.52177066057376 6.499999999999999
  endloop
endfacet
facet normal 0.0 1.0 0.0
  outer loop
    vertex 10.392051496399787 -242.52177066057376 6.499999999999999
    vertex -0.6079485036002126 -242.52177066057376 6.499999999999999
    vertex -0.6079485036002126 -242.52177066057376 7.999999999999999
  endloop
endfacet
facet normal 0.0 1.0 0.0
  outer loop
    vertex 10.392051496399787 -242.52177066057376 6.499999999999999
    vertex -0.6079485036002126 -242.52177066057376 7.999999999999999
    vertex 10.392051496399787 -242.52177066057376 7.999999999999999
  endloop
endfacet
facet normal 0.0 0.0 1.0
  outer loop
    vertex 10.392051496399787 -245.52177066057374 7.999999999999999
    vertex -0.6079485036002126 -242.52177066057376 7.999999999999999
    vertex -0.6079485036002126 -245.52177066057374 7.999999999999999
  endloop
endfacet
facet normal 0.0 0.0 1.0
  outer loop
    vertex -0.6079485036002126 -242.52177066057376 7.999999999999999
    vertex 10.392051496399787 -245.52177066057374 7.999999999999999
    vertex 10.392051496399787 -242.52177066057376 7.999999999999999
  endloop
endfacet
facet normal 1.0 0.0 0.0
  outer loop
    vertex 10.392051496399787 -272.52177066057374 1.9999999999999996
    vertex 10.392051496399787 -275.52177066057374 6.499999999999999
    vertex 10.392051496399787 -275.52177066057374 1.9999999999999996
  endloop
endfacet
facet normal 1.0 0.0 0.0
  outer loop
    vertex 10.392051496399787 -275.52177066057374 6.499999999999999
    vertex 10.392051496399787 -272.52177066057374 1.9999999999999996
    vertex 10.392051496399787 -272.52177066057374 6.499999999999999
  endloop
endfacet
endsolid Werkbank fan 03
