solid Werkbank fan 01
facet normal -6.940177001842394e-33 1.0 0.0
  outer loop
    vertex -27.710021290877034 -118.33836858125987 1.999999999999995
    vertex -29.21002129087701 -118.33836858125987 27.499999999999996
    vertex -27.71002129087701 -118.33836858125987 27.499999999999996
  endloop
endfacet
facet normal -6.940177001842394e-33 1.0 0.0
  outer loop
    vertex -29.21002129087701 -118.33836858125987 27.499999999999996
    vertex -27.710021290877034 -118.33836858125987 1.999999999999995
    vertex -29.21002129087703 -118.33836858125987 1.9999999999999956
  endloop
endfacet
facet normal 1.0 9.724022353613422e-17 0.0
  outer loop
    vertex -27.71002129087701 -118.33836858125987 27.499999999999996
    vertex -27.710021290877027 -176.33836858125994 1.9999999999999911
    vertex -27.710021290877034 -118.33836858125987 1.999999999999995
  endloop
endfacet
facet normal 1.0 9.724022353613422e-17 0.0
  outer loop
    vertex -27.710021290877027 -176.33836858125994 1.9999999999999911
    vertex -27.71002129087701 -118.33836858125987 27.499999999999996
    vertex -27.710021290877027 -176.33836858125994 27.49999999999999
  endloop
endfacet
facet normal -1.0 -9.724022353613422e-17 0.0
  outer loop
    vertex -29.210021290877023 -176.33836858125994 1.9999999999999931
    vertex -29.21002129087701 -118.33836858125987 27.499999999999996
    vertex -29.21002129087703 -118.33836858125987 1.9999999999999956
  endloop
endfacet
facet normal -1.0 -9.724022353613422e-17 0.0
  outer loop
    vertex -29.21002129087701 -118.33836858125987 27.499999999999996
    vertex -29.210021290877023 -176.33836858125994 1.9999999999999931
    vertex -29.210021290877023 -176.33836858125994 27.49999999999999
  endloop
endfacet
facet normal 1.232595164407831e-32 -9.724022353613427e-17 1.0
  outer loop
    vertex -27.71002129087701 -118.33836858125987 27.499999999999996
    vertex -29.210021290877023 -176.33836858125994 27.49999999999999
    vertex -27.710021290877027 -176.33836858125994 27.49999999999999
  endloop
endfacet
facet normal 1.232595164407831e-32 -9.724022353613427e-17 1.0
  outer loop
    vertex -29.210021290877023 -176.33836858125994 27.49999999999999
    vertex -27.71002129087701 -118.33836858125987 27.499999999999996
    vertex -29.21002129087701 -118.33836858125987 27.499999999999996
  endloop
endfacet
facet normal -4.699944137579837e-16 6.685265368109228e-17 -1.0
  outer loop
    vertex -29.21002129087703 -118.33836858125987 1.9999999999999956
    vertex -27.710021290877027 -176.33836858125994 1.9999999999999911
    vertex -29.210021290877023 -176.33836858125994 1.9999999999999931
  endloop
endfacet
facet normal -4.699944137579837e-16 6.685265368109228e-17 -1.0
  outer loop
    vertex -27.710021290877027 -176.33836858125994 1.9999999999999911
    vertex -29.21002129087703 -118.33836858125987 1.9999999999999956
    vertex -27.710021290877034 -118.33836858125987 1.999999999999995
  endloop
endfacet
facet normal 1.6653345369377348e-16 -1.0 -8.330772474292161e-17
  outer loop
    vertex -29.210021290877023 -176.33836858125994 27.49999999999999
    vertex -27.710021290877027 -176.33836858125994 1.9999999999999911
    vertex -27.710021290877027 -176.33836858125994 27.49999999999999
  endloop
endfacet
facet normal 1.6653345369377348e-16 -1.0 -8.330772474292161e-17
  outer loop
    vertex -27.710021290877027 -176.33836858125994 1.9999999999999911
    vertex -29.210021290877023 -176.33836858125994 27.49999999999999
    vertex -29.210021290877023 -176.33836858125994 1.9999999999999931
  endloop
endfacet
endsolid Werkbank fan 01
