solid Werkbank fan 01
facet normal -6.940177001842394e-33 1.0 0.0
  outer loop
    vertex -27.710021290877034 -118.33836858125987 1.999999999999995
    vertex -29.210021290876995 -118.33836858125987 27.499999999999996
    vertex -27.710021290877 -118.33836858125987 27.499999999999996
  endloop
endfacet
facet normal -6.940177001842394e-33 1.0 0.0
  outer loop
    vertex -29.210021290876995 -118.33836858125987 27.499999999999996
    vertex -27.710021290877034 -118.33836858125987 1.999999999999995
    vertex -29.21002129087703 -118.33836858125987 1.9999999999999956
  endloop
endfacet
facet normal 1.0 -1.1957713569596165e-16 -4.547102492815516e-16
  outer loop
    vertex -27.710021290877 -118.33836858125987 27.499999999999996
    vertex -27.710021290877027 -163.83836858125994 1.9999999999999918
    vertex -27.710021290877034 -118.33836858125987 1.999999999999995
  endloop
endfacet
facet normal 1.0 -1.1957713569596165e-16 -4.547102492815516e-16
  outer loop
    vertex -27.710021290877027 -163.83836858125994 1.9999999999999918
    vertex -27.710021290877 -118.33836858125987 27.499999999999996
    vertex -27.710021290877027 -163.83836858125994 8.999999999999991
  endloop
endfacet
facet normal 1.0 -1.1957713569596165e-16 -4.547102492815516e-16
  outer loop
    vertex -27.710021290877027 -163.83836858125994 8.999999999999991
    vertex -27.710021290877 -118.33836858125987 27.499999999999996
    vertex -27.710021290877027 -168.83836858125994 8.999999999999991
  endloop
endfacet
facet normal 1.0 -1.1957713569596165e-16 -4.547102492815516e-16
  outer loop
    vertex -27.710021290877027 -168.83836858125994 8.999999999999991
    vertex -27.710021290877027 -176.33836858125994 1.9999999999999911
    vertex -27.710021290877027 -168.83836858125994 1.9999999999999913
  endloop
endfacet
facet normal 1.0 -1.1957713569596165e-16 -4.547102492815516e-16
  outer loop
    vertex -27.710021290877027 -176.33836858125994 1.9999999999999911
    vertex -27.710021290877027 -168.83836858125994 8.999999999999991
    vertex -27.710021290877027 -176.33836858125994 27.49999999999999
  endloop
endfacet
facet normal 1.0 -1.1957713569596165e-16 -4.547102492815516e-16
  outer loop
    vertex -27.710021290877027 -176.33836858125994 27.49999999999999
    vertex -27.710021290877027 -168.83836858125994 8.999999999999991
    vertex -27.710021290877 -118.33836858125987 27.499999999999996
  endloop
endfacet
facet normal -1.0 1.1694844275449458e-16 4.540721162861897e-16
  outer loop
    vertex -29.210021290877023 -176.33836858125994 1.9999999999999938
    vertex -29.210021290877023 -168.83836858125994 8.999999999999991
    vertex -29.210021290877023 -168.83836858125994 1.9999999999999913
  endloop
endfacet
facet normal -1.0 1.1694844275449458e-16 4.540721162861897e-16
  outer loop
    vertex -29.210021290877023 -168.83836858125994 8.999999999999991
    vertex -29.210021290877023 -176.33836858125994 1.9999999999999938
    vertex -29.210021290877023 -176.33836858125994 27.49999999999999
  endloop
endfacet
facet normal -1.0 1.1694844275449458e-16 4.540721162861897e-16
  outer loop
    vertex -29.210021290877023 -168.83836858125994 8.999999999999991
    vertex -29.210021290877023 -176.33836858125994 27.49999999999999
    vertex -29.210021290877023 -163.83836858125994 8.999999999999991
  endloop
endfacet
facet normal -1.0 1.1694844275449458e-16 4.540721162861897e-16
  outer loop
    vertex -29.210021290877023 -163.83836858125994 8.999999999999991
    vertex -29.21002129087703 -118.33836858125987 1.9999999999999956
    vertex -29.210021290877023 -163.83836858125994 1.999999999999992
  endloop
endfacet
facet normal -1.0 1.1694844275449458e-16 4.540721162861897e-16
  outer loop
    vertex -29.21002129087703 -118.33836858125987 1.9999999999999956
    vertex -29.210021290877023 -163.83836858125994 8.999999999999991
    vertex -29.210021290876995 -118.33836858125987 27.499999999999996
  endloop
endfacet
facet normal -1.0 1.1694844275449458e-16 4.540721162861897e-16
  outer loop
    vertex -29.210021290876995 -118.33836858125987 27.499999999999996
    vertex -29.210021290877023 -163.83836858125994 8.999999999999991
    vertex -29.210021290877023 -176.33836858125994 27.49999999999999
  endloop
endfacet
facet normal 1.232595164407831e-32 -9.724022353613427e-17 1.0
  outer loop
    vertex -27.710021290877 -118.33836858125987 27.499999999999996
    vertex -29.210021290877023 -176.33836858125994 27.49999999999999
    vertex -27.710021290877027 -176.33836858125994 27.49999999999999
  endloop
endfacet
facet normal 1.232595164407831e-32 -9.724022353613427e-17 1.0
  outer loop
    vertex -29.210021290877023 -176.33836858125994 27.49999999999999
    vertex -27.710021290877 -118.33836858125987 27.499999999999996
    vertex -29.210021290876995 -118.33836858125987 27.499999999999996
  endloop
endfacet
facet normal -8.224902240764716e-16 -1.1749860343949559e-16 -1.0
  outer loop
    vertex -29.210021290877023 -168.83836858125994 1.9999999999999913
    vertex -27.710021290877027 -176.33836858125994 1.9999999999999911
    vertex -29.210021290877023 -176.33836858125994 1.9999999999999938
  endloop
endfacet
facet normal -8.224902240764716e-16 -1.1749860343949559e-16 -1.0
  outer loop
    vertex -27.710021290877027 -176.33836858125994 1.9999999999999911
    vertex -29.210021290877023 -168.83836858125994 1.9999999999999913
    vertex -27.710021290877027 -168.83836858125994 1.9999999999999913
  endloop
endfacet
facet normal 1.6653345369377348e-16 -1.0 -8.330772474292161e-17
  outer loop
    vertex -29.210021290877023 -176.33836858125994 27.49999999999999
    vertex -27.710021290877027 -176.33836858125994 1.9999999999999911
    vertex -27.710021290877027 -176.33836858125994 27.49999999999999
  endloop
endfacet
facet normal 1.6653345369377348e-16 -1.0 -8.330772474292161e-17
  outer loop
    vertex -27.710021290877027 -176.33836858125994 1.9999999999999911
    vertex -29.210021290877023 -176.33836858125994 27.49999999999999
    vertex -29.210021290877023 -176.33836858125994 1.9999999999999938
  endloop
endfacet
facet normal 6.940177001842394e-33 -1.0 0.0
  outer loop
    vertex -29.210021290877023 -163.83836858125994 8.999999999999991
    vertex -27.710021290877027 -163.83836858125994 1.9999999999999918
    vertex -27.710021290877027 -163.83836858125994 8.999999999999991
  endloop
endfacet
facet normal 6.940177001842394e-33 -1.0 0.0
  outer loop
    vertex -27.710021290877027 -163.83836858125994 1.9999999999999918
    vertex -29.210021290877023 -163.83836858125994 8.999999999999991
    vertex -29.210021290877023 -163.83836858125994 1.999999999999992
  endloop
endfacet
facet normal 0.0 0.0 -1.0
  outer loop
    vertex -29.210021290877023 -163.83836858125994 8.999999999999991
    vertex -27.710021290877027 -168.83836858125994 8.999999999999991
    vertex -29.210021290877023 -168.83836858125994 8.999999999999991
  endloop
endfacet
facet normal 0.0 0.0 -1.0
  outer loop
    vertex -27.710021290877027 -168.83836858125994 8.999999999999991
    vertex -29.210021290877023 -163.83836858125994 8.999999999999991
    vertex -27.710021290877027 -163.83836858125994 8.999999999999991
  endloop
endfacet
facet normal -6.940177001842394e-33 1.0 0.0
  outer loop
    vertex -29.210021290877023 -168.83836858125994 1.9999999999999913
    vertex -27.710021290877027 -168.83836858125994 8.999999999999991
    vertex -27.710021290877027 -168.83836858125994 1.9999999999999913
  endloop
endfacet
facet normal -6.940177001842394e-33 1.0 0.0
  outer loop
    vertex -27.710021290877027 -168.83836858125994 8.999999999999991
    vertex -29.210021290877023 -168.83836858125994 1.9999999999999913
    vertex -29.210021290877023 -168.83836858125994 8.999999999999991
  endloop
endfacet
facet normal -2.349972068789918e-16 7.747160666340362e-17 -1.0
  outer loop
    vertex -29.21002129087703 -118.33836858125987 1.9999999999999956
    vertex -27.710021290877027 -163.83836858125994 1.9999999999999918
    vertex -29.210021290877023 -163.83836858125994 1.999999999999992
  endloop
endfacet
facet normal -2.349972068789918e-16 7.747160666340362e-17 -1.0
  outer loop
    vertex -27.710021290877027 -163.83836858125994 1.9999999999999918
    vertex -29.21002129087703 -118.33836858125987 1.9999999999999956
    vertex -27.710021290877034 -118.33836858125987 1.999999999999995
  endloop
endfacet
endsolid Werkbank fan 01
