solid Werkbank fan 01
facet normal 1.5463820700136153e-17 -1.0 -8.330772474292163e-17
  outer loop
    vertex 56.789978709123176 -96.13836858126004 16.5
    vertex 58.28997870912318 -96.13836858126004 8.499999999999996
    vertex 58.28997870912318 -96.13836858126004 16.5
  endloop
endfacet
facet normal 1.5463820700136153e-17 -1.0 -8.330772474292163e-17
  outer loop
    vertex 58.28997870912318 -96.13836858126004 8.499999999999996
    vertex 56.789978709123176 -96.13836858126004 16.5
    vertex 56.789978709123176 -96.13836858126004 8.499999999999996
  endloop
endfacet
facet normal 1.7405363919503287e-17 8.330772474292161e-17 -1.0
  outer loop
    vertex 56.789978709123176 -96.13836858126004 16.5
    vertex 58.28997870912308 -111.13836858125993 16.499999999999993
    vertex 56.78997870912307 -111.13836858125993 16.5
  endloop
endfacet
facet normal 1.7405363919503287e-17 8.330772474292161e-17 -1.0
  outer loop
    vertex 58.28997870912308 -111.13836858125993 16.499999999999993
    vertex 56.789978709123176 -96.13836858126004 16.5
    vertex 58.28997870912318 -96.13836858126004 16.5
  endloop
endfacet
facet normal -6.940177001842394e-33 1.0 0.0
  outer loop
    vertex 56.78997870912307 -68.73836858126 1.9999999999999947
    vertex 58.28997870912307 -68.73836858126002 27.499999999999996
    vertex 58.28997870912307 -68.73836858126002 1.999999999999995
  endloop
endfacet
facet normal -6.940177001842394e-33 1.0 0.0
  outer loop
    vertex 58.28997870912307 -68.73836858126002 27.499999999999996
    vertex 56.78997870912307 -68.73836858126 1.9999999999999947
    vertex 56.78997870912307 -68.73836858126002 27.499999999999996
  endloop
endfacet
facet normal 1.0 -6.940177001842394e-33 0.0
  outer loop
    vertex 58.28997870912318 -96.13836858126004 8.499999999999996
    vertex 58.28997870912307 -77.56963133449075 11.0337129475244
    vertex 58.28997870912318 -96.13836858126004 16.5
  endloop
endfacet
facet normal 1.0 -6.940177001842394e-33 0.0
  outer loop
    vertex 58.28997870912307 -77.56963133449075 11.0337129475244
    vertex 58.28997870912318 -96.13836858126004 8.499999999999996
    vertex 58.28997870912307 -76.55665423600479 10.7815140589438
  endloop
endfacet
facet normal 1.0 -6.940177001842394e-33 0.0
  outer loop
    vertex 58.28997870912318 -96.13836858126004 16.5
    vertex 58.28997870912307 -77.56963133449075 11.0337129475244
    vertex 58.28997870912307 -78.48281819983937 11.539496132706661
  endloop
endfacet
facet normal 1.0 -6.940177001842394e-33 0.0
  outer loop
    vertex 58.28997870912318 -96.13836858126004 16.5
    vertex 58.28997870912307 -78.48281819983937 11.539496132706661
    vertex 58.28997870912307 -79.23398265628977 12.264395326266646
  endloop
endfacet
facet normal 1.0 -6.940177001842394e-33 0.0
  outer loop
    vertex 58.28997870912318 -96.13836858126004 16.5
    vertex 58.28997870912307 -79.23398265628977 12.264395326266646
    vertex 58.28997870912307 -79.47756675490015 12.669476266257611
  endloop
endfacet
facet normal 1.0 -6.940177001842394e-33 0.0
  outer loop
    vertex 58.28997870912318 -96.13836858126004 16.5
    vertex 58.28997870912307 -79.47756675490015 12.669476266257611
    vertex 58.28997870912307 -79.47756675490015 16.848873834318667
  endloop
endfacet
facet normal 1.0 -6.940177001842394e-33 0.0
  outer loop
    vertex 58.28997870912307 -68.73836858126002 1.999999999999995
    vertex 58.28997870912307 -75.51291961961947 10.800086404443261
    vertex 58.28997870912307 -126.73836858125999 1.9999999999999907
  endloop
endfacet
facet normal 1.0 -6.940177001842394e-33 0.0
  outer loop
    vertex 58.28997870912307 -75.51291961961947 10.800086404443261
    vertex 58.28997870912307 -68.73836858126002 1.999999999999995
    vertex 58.28997870912307 -74.50955627458848 11.088164309369247
  endloop
endfacet
facet normal 1.0 -6.940177001842394e-33 0.0
  outer loop
    vertex 58.28997870912307 -74.50955627458848 11.088164309369247
    vertex 58.28997870912307 -68.73836858126002 1.999999999999995
    vertex 58.28997870912307 -73.61494175473932 11.626115740572297
  endloop
endfacet
facet normal 1.0 -6.940177001842394e-33 0.0
  outer loop
    vertex 58.28997870912307 -73.61494175473932 11.626115740572297
    vertex 58.28997870912307 -68.73836858126002 1.999999999999995
    vertex 58.28997870912307 -72.89004256117933 12.377280197022698
  endloop
endfacet
facet normal 1.0 -6.940177001842394e-33 0.0
  outer loop
    vertex 58.28997870912307 -72.89004256117933 12.377280197022698
    vertex 58.28997870912307 -68.73836858126002 1.999999999999995
    vertex 58.28997870912307 -72.73836858126 12.651126165681312
  endloop
endfacet
facet normal 1.0 -6.940177001842394e-33 0.0
  outer loop
    vertex 58.28997870912307 -72.73836858126 12.651126165681312
    vertex 58.28997870912307 -68.73836858126002 1.999999999999995
    vertex 58.28997870912307 -68.73836858126002 27.499999999999996
  endloop
endfacet
facet normal 1.0 -6.940177001842394e-33 0.0
  outer loop
    vertex 58.28997870912307 -126.73836858125999 1.9999999999999907
    vertex 58.28997870912307 -75.51291961961947 10.800086404443261
    vertex 58.28997870912318 -96.13836858126004 8.499999999999996
  endloop
endfacet
facet normal 1.0 -6.940177001842394e-33 0.0
  outer loop
    vertex 58.28997870912318 -96.13836858126004 8.499999999999996
    vertex 58.28997870912307 -75.51291961961947 10.800086404443261
    vertex 58.28997870912307 -76.55665423600479 10.7815140589438
  endloop
endfacet
facet normal 1.0 -6.940177001842394e-33 0.0
  outer loop
    vertex 58.28997870912307 -72.73836858126 12.651126165681312
    vertex 58.28997870912307 -68.73836858126002 27.499999999999996
    vertex 58.28997870912307 -72.73836858126 16.848873834318667
  endloop
endfacet
facet normal 1.0 -6.940177001842394e-33 0.0
  outer loop
    vertex 58.28997870912307 -72.73836858126 16.848873834318667
    vertex 58.28997870912307 -68.73836858126002 27.499999999999996
    vertex 58.28997870912307 -72.85532241266735 17.04336833635023
  endloop
endfacet
facet normal 1.0 -6.940177001842394e-33 0.0
  outer loop
    vertex 58.28997870912307 -72.85532241266735 17.04336833635023
    vertex 58.28997870912307 -68.73836858126002 27.499999999999996
    vertex 58.28997870912307 -72.97666216904496 17.24515664212275
  endloop
endfacet
facet normal 1.0 -6.940177001842394e-33 0.0
  outer loop
    vertex 58.28997870912307 -72.97666216904496 17.24515664212275
    vertex 58.28997870912307 -68.73836858126002 27.499999999999996
    vertex 58.28997870912307 -73.72782662549537 17.970055835682736
  endloop
endfacet
facet normal 1.0 -6.940177001842394e-33 0.0
  outer loop
    vertex 58.28997870912307 -73.72782662549537 17.970055835682736
    vertex 58.28997870912307 -68.73836858126002 27.499999999999996
    vertex 58.28997870912307 -74.64101349084399 18.475839020865
  endloop
endfacet
facet normal 1.0 -6.940177001842394e-33 0.0
  outer loop
    vertex 58.28997870912307 -74.64101349084399 18.475839020865
    vertex 58.28997870912307 -68.73836858126002 27.499999999999996
    vertex 58.28997870912307 -75.65399058932995 18.728037909445604
  endloop
endfacet
facet normal 1.0 -6.940177001842394e-33 0.0
  outer loop
    vertex 58.28997870912307 -126.73836858125999 1.9999999999999907
    vertex 58.28997870912308 -111.13836858125993 8.499999999999996
    vertex 58.28997870912307 -126.73836858125999 27.49999999999999
  endloop
endfacet
facet normal 1.0 -6.940177001842394e-33 0.0
  outer loop
    vertex 58.28997870912308 -111.13836858125993 8.499999999999996
    vertex 58.28997870912307 -126.73836858125999 1.9999999999999907
    vertex 58.28997870912318 -96.13836858126004 8.499999999999996
  endloop
endfacet
facet normal 1.0 -6.940177001842394e-33 0.0
  outer loop
    vertex 58.28997870912307 -126.73836858125999 27.49999999999999
    vertex 58.28997870912308 -111.13836858125993 8.499999999999996
    vertex 58.28997870912308 -111.13836858125993 16.499999999999993
  endloop
endfacet
facet normal 1.0 -6.940177001842394e-33 0.0
  outer loop
    vertex 58.28997870912307 -126.73836858125999 27.49999999999999
    vertex 58.28997870912308 -111.13836858125993 16.499999999999993
    vertex 58.28997870912318 -96.13836858126004 16.5
  endloop
endfacet
facet normal 1.0 -6.940177001842394e-33 0.0
  outer loop
    vertex 58.28997870912307 -126.73836858125999 27.49999999999999
    vertex 58.28997870912318 -96.13836858126004 16.5
    vertex 58.28997870912307 -79.47756675490015 16.848873834318667
  endloop
endfacet
facet normal 1.0 -6.940177001842394e-33 0.0
  outer loop
    vertex 58.28997870912307 -126.73836858125999 27.49999999999999
    vertex 58.28997870912307 -79.47756675490015 16.848873834318667
    vertex 58.28997870912307 -79.35532241266736 17.069584864184037
  endloop
endfacet
facet normal 1.0 -6.940177001842394e-33 0.0
  outer loop
    vertex 58.28997870912307 -126.73836858125999 27.49999999999999
    vertex 58.28997870912307 -79.35532241266736 17.069584864184037
    vertex 58.28997870912307 -79.32060226415541 17.1322717713667
  endloop
endfacet
facet normal 1.0 -6.940177001842394e-33 0.0
  outer loop
    vertex 58.28997870912307 -126.73836858125999 27.49999999999999
    vertex 58.28997870912307 -79.32060226415541 17.1322717713667
    vertex 58.28997870912307 -78.59570307059543 17.883436227817104
  endloop
endfacet
facet normal 1.0 -6.940177001842394e-33 0.0
  outer loop
    vertex 58.28997870912307 -126.73836858125999 27.49999999999999
    vertex 58.28997870912307 -78.59570307059543 17.883436227817104
    vertex 58.28997870912307 -77.70108855074626 18.42138765902015
  endloop
endfacet
facet normal 1.0 -6.940177001842394e-33 0.0
  outer loop
    vertex 58.28997870912307 -126.73836858125999 27.49999999999999
    vertex 58.28997870912307 -77.70108855074626 18.42138765902015
    vertex 58.28997870912307 -76.69772520571526 18.70946556394614
  endloop
endfacet
facet normal 1.0 -6.940177001842394e-33 0.0
  outer loop
    vertex 58.28997870912307 -126.73836858125999 27.49999999999999
    vertex 58.28997870912307 -76.69772520571526 18.70946556394614
    vertex 58.28997870912307 -75.65399058932995 18.728037909445604
  endloop
endfacet
facet normal 1.0 -6.940177001842394e-33 0.0
  outer loop
    vertex 58.28997870912307 -126.73836858125999 27.49999999999999
    vertex 58.28997870912307 -75.65399058932995 18.728037909445604
    vertex 58.28997870912307 -68.73836858126002 27.499999999999996
  endloop
endfacet
facet normal -1.0 6.940177001842394e-33 0.0
  outer loop
    vertex 56.78997870912307 -126.73836858125999 27.49999999999999
    vertex 56.78997870912307 -111.13836858125993 8.499999999999996
    vertex 56.78997870912307 -126.73836858125999 1.9999999999999911
  endloop
endfacet
facet normal -1.0 6.940177001842394e-33 0.0
  outer loop
    vertex 56.78997870912307 -111.13836858125993 8.499999999999996
    vertex 56.78997870912307 -126.73836858125999 27.49999999999999
    vertex 56.78997870912307 -111.13836858125993 16.5
  endloop
endfacet
facet normal -1.0 6.940177001842394e-33 0.0
  outer loop
    vertex 56.78997870912307 -111.13836858125993 16.5
    vertex 56.78997870912307 -126.73836858125999 27.49999999999999
    vertex 56.789978709123176 -96.13836858126004 16.5
  endloop
endfacet
facet normal -1.0 6.940177001842394e-33 0.0
  outer loop
    vertex 56.789978709123176 -96.13836858126004 16.5
    vertex 56.78997870912307 -126.73836858125999 27.49999999999999
    vertex 56.78997870912307 -79.47756675490015 16.848873834318667
  endloop
endfacet
facet normal -1.0 6.940177001842394e-33 0.0
  outer loop
    vertex 56.78997870912307 -79.47756675490015 16.848873834318667
    vertex 56.78997870912307 -126.73836858125999 27.49999999999999
    vertex 56.78997870912307 -79.35532241266736 17.069584864184037
  endloop
endfacet
facet normal -1.0 6.940177001842394e-33 0.0
  outer loop
    vertex 56.78997870912307 -79.35532241266736 17.069584864184037
    vertex 56.78997870912307 -126.73836858125999 27.49999999999999
    vertex 56.78997870912307 -79.32060226415541 17.1322717713667
  endloop
endfacet
facet normal -1.0 6.940177001842394e-33 0.0
  outer loop
    vertex 56.78997870912307 -79.32060226415541 17.1322717713667
    vertex 56.78997870912307 -126.73836858125999 27.49999999999999
    vertex 56.78997870912307 -78.59570307059543 17.883436227817104
  endloop
endfacet
facet normal -1.0 6.940177001842394e-33 0.0
  outer loop
    vertex 56.78997870912307 -78.59570307059543 17.883436227817104
    vertex 56.78997870912307 -126.73836858125999 27.49999999999999
    vertex 56.78997870912307 -77.70108855074626 18.42138765902015
  endloop
endfacet
facet normal -1.0 6.940177001842394e-33 0.0
  outer loop
    vertex 56.78997870912307 -77.70108855074626 18.42138765902015
    vertex 56.78997870912307 -126.73836858125999 27.49999999999999
    vertex 56.78997870912307 -76.69772520571526 18.70946556394614
  endloop
endfacet
facet normal -1.0 6.940177001842394e-33 0.0
  outer loop
    vertex 56.78997870912307 -76.69772520571526 18.70946556394614
    vertex 56.78997870912307 -126.73836858125999 27.49999999999999
    vertex 56.78997870912307 -75.65399058932995 18.728037909445604
  endloop
endfacet
facet normal -1.0 6.940177001842394e-33 0.0
  outer loop
    vertex 56.78997870912307 -68.73836858126 1.9999999999999947
    vertex 56.78997870912307 -72.73836858126 12.651126165681312
    vertex 56.78997870912307 -68.73836858126002 27.499999999999996
  endloop
endfacet
facet normal -1.0 6.940177001842394e-33 0.0
  outer loop
    vertex 56.78997870912307 -72.73836858126 12.651126165681312
    vertex 56.78997870912307 -68.73836858126 1.9999999999999947
    vertex 56.78997870912307 -72.89004256117933 12.377280197022698
  endloop
endfacet
facet normal -1.0 6.940177001842394e-33 0.0
  outer loop
    vertex 56.78997870912307 -72.89004256117933 12.377280197022698
    vertex 56.78997870912307 -68.73836858126 1.9999999999999947
    vertex 56.78997870912307 -73.61494175473932 11.626115740572297
  endloop
endfacet
facet normal -1.0 6.940177001842394e-33 0.0
  outer loop
    vertex 56.78997870912307 -73.61494175473932 11.626115740572297
    vertex 56.78997870912307 -68.73836858126 1.9999999999999947
    vertex 56.78997870912307 -74.50955627458848 11.088164309369247
  endloop
endfacet
facet normal -1.0 6.940177001842394e-33 0.0
  outer loop
    vertex 56.78997870912307 -74.50955627458848 11.088164309369247
    vertex 56.78997870912307 -68.73836858126 1.9999999999999947
    vertex 56.78997870912307 -75.51291961961947 10.800086404443261
  endloop
endfacet
facet normal -1.0 6.940177001842394e-33 0.0
  outer loop
    vertex 56.78997870912307 -75.51291961961947 10.800086404443261
    vertex 56.78997870912307 -68.73836858126 1.9999999999999947
    vertex 56.78997870912307 -126.73836858125999 1.9999999999999911
  endloop
endfacet
facet normal -1.0 6.940177001842394e-33 0.0
  outer loop
    vertex 56.78997870912307 -75.51291961961947 10.800086404443261
    vertex 56.78997870912307 -126.73836858125999 1.9999999999999911
    vertex 56.789978709123176 -96.13836858126004 8.499999999999996
  endloop
endfacet
facet normal -1.0 6.940177001842394e-33 0.0
  outer loop
    vertex 56.789978709123176 -96.13836858126004 8.499999999999996
    vertex 56.78997870912307 -126.73836858125999 1.9999999999999911
    vertex 56.78997870912307 -111.13836858125993 8.499999999999996
  endloop
endfacet
facet normal -1.0 6.940177001842394e-33 0.0
  outer loop
    vertex 56.78997870912307 -75.51291961961947 10.800086404443261
    vertex 56.789978709123176 -96.13836858126004 8.499999999999996
    vertex 56.78997870912307 -76.55665423600479 10.7815140589438
  endloop
endfacet
facet normal -1.0 6.940177001842394e-33 0.0
  outer loop
    vertex 56.78997870912307 -68.73836858126002 27.499999999999996
    vertex 56.78997870912307 -72.73836858126 12.651126165681312
    vertex 56.78997870912307 -72.73836858126 16.848873834318667
  endloop
endfacet
facet normal -1.0 6.940177001842394e-33 0.0
  outer loop
    vertex 56.78997870912307 -68.73836858126002 27.499999999999996
    vertex 56.78997870912307 -72.73836858126 16.848873834318667
    vertex 56.78997870912307 -72.85532241266735 17.04336833635023
  endloop
endfacet
facet normal -1.0 6.940177001842394e-33 0.0
  outer loop
    vertex 56.78997870912307 -68.73836858126002 27.499999999999996
    vertex 56.78997870912307 -72.85532241266735 17.04336833635023
    vertex 56.78997870912307 -72.97666216904496 17.24515664212275
  endloop
endfacet
facet normal -1.0 6.940177001842394e-33 0.0
  outer loop
    vertex 56.78997870912307 -68.73836858126002 27.499999999999996
    vertex 56.78997870912307 -72.97666216904496 17.24515664212275
    vertex 56.78997870912307 -73.72782662549537 17.970055835682736
  endloop
endfacet
facet normal -1.0 6.940177001842394e-33 0.0
  outer loop
    vertex 56.78997870912307 -68.73836858126002 27.499999999999996
    vertex 56.78997870912307 -73.72782662549537 17.970055835682736
    vertex 56.78997870912307 -74.64101349084399 18.475839020865
  endloop
endfacet
facet normal -1.0 6.940177001842394e-33 0.0
  outer loop
    vertex 56.78997870912307 -68.73836858126002 27.499999999999996
    vertex 56.78997870912307 -74.64101349084399 18.475839020865
    vertex 56.78997870912307 -75.65399058932995 18.728037909445604
  endloop
endfacet
facet normal -1.0 6.940177001842394e-33 0.0
  outer loop
    vertex 56.78997870912307 -68.73836858126002 27.499999999999996
    vertex 56.78997870912307 -75.65399058932995 18.728037909445604
    vertex 56.78997870912307 -126.73836858125999 27.49999999999999
  endloop
endfacet
facet normal -1.0 6.940177001842394e-33 0.0
  outer loop
    vertex 56.789978709123176 -96.13836858126004 8.499999999999996
    vertex 56.78997870912307 -77.56963133449075 11.0337129475244
    vertex 56.78997870912307 -76.55665423600479 10.7815140589438
  endloop
endfacet
facet normal -1.0 6.940177001842394e-33 0.0
  outer loop
    vertex 56.78997870912307 -77.56963133449075 11.0337129475244
    vertex 56.789978709123176 -96.13836858126004 8.499999999999996
    vertex 56.789978709123176 -96.13836858126004 16.5
  endloop
endfacet
facet normal -1.0 6.940177001842394e-33 0.0
  outer loop
    vertex 56.78997870912307 -77.56963133449075 11.0337129475244
    vertex 56.789978709123176 -96.13836858126004 16.5
    vertex 56.78997870912307 -78.48281819983937 11.539496132706661
  endloop
endfacet
facet normal -1.0 6.940177001842394e-33 0.0
  outer loop
    vertex 56.78997870912307 -78.48281819983937 11.539496132706661
    vertex 56.789978709123176 -96.13836858126004 16.5
    vertex 56.78997870912307 -79.23398265628977 12.264395326266646
  endloop
endfacet
facet normal -1.0 6.940177001842394e-33 0.0
  outer loop
    vertex 56.78997870912307 -79.23398265628977 12.264395326266646
    vertex 56.789978709123176 -96.13836858126004 16.5
    vertex 56.78997870912307 -79.47756675490015 12.669476266257611
  endloop
endfacet
facet normal -1.0 6.940177001842394e-33 0.0
  outer loop
    vertex 56.78997870912307 -79.47756675490015 12.669476266257611
    vertex 56.789978709123176 -96.13836858126004 16.5
    vertex 56.78997870912307 -79.47756675490015 16.848873834318667
  endloop
endfacet
facet normal -1.5463820700136153e-17 1.0 8.33077247429216e-17
  outer loop
    vertex 56.78997870912307 -111.13836858125993 8.499999999999996
    vertex 58.28997870912308 -111.13836858125993 16.499999999999993
    vertex 58.28997870912308 -111.13836858125993 8.499999999999996
  endloop
endfacet
facet normal -1.5463820700136153e-17 1.0 8.33077247429216e-17
  outer loop
    vertex 58.28997870912308 -111.13836858125993 16.499999999999993
    vertex 56.78997870912307 -111.13836858125993 8.499999999999996
    vertex 56.78997870912307 -111.13836858125993 16.5
  endloop
endfacet
facet normal 0.0 0.0 1.0
  outer loop
    vertex 58.28997870912307 -68.73836858126002 27.499999999999996
    vertex 56.78997870912307 -126.73836858125999 27.49999999999999
    vertex 58.28997870912307 -126.73836858125999 27.49999999999999
  endloop
endfacet
facet normal 0.0 0.0 1.0
  outer loop
    vertex 56.78997870912307 -126.73836858125999 27.49999999999999
    vertex 58.28997870912307 -68.73836858126002 27.499999999999996
    vertex 56.78997870912307 -68.73836858126002 27.499999999999996
  endloop
endfacet
facet normal -1.1749860343949596e-16 6.989141066659654e-17 -1.0
  outer loop
    vertex 56.78997870912307 -68.73836858126 1.9999999999999947
    vertex 58.28997870912307 -126.73836858125999 1.9999999999999907
    vertex 56.78997870912307 -126.73836858125999 1.9999999999999911
  endloop
endfacet
facet normal -1.1749860343949596e-16 6.989141066659654e-17 -1.0
  outer loop
    vertex 58.28997870912307 -126.73836858125999 1.9999999999999907
    vertex 56.78997870912307 -68.73836858126 1.9999999999999947
    vertex 58.28997870912307 -68.73836858126002 1.999999999999995
  endloop
endfacet
facet normal 1.6653345369377348e-16 -1.0 -8.330772474292161e-17
  outer loop
    vertex 56.78997870912307 -126.73836858125999 27.49999999999999
    vertex 58.28997870912307 -126.73836858125999 1.9999999999999907
    vertex 58.28997870912307 -126.73836858125999 27.49999999999999
  endloop
endfacet
facet normal 1.6653345369377348e-16 -1.0 -8.330772474292161e-17
  outer loop
    vertex 58.28997870912307 -126.73836858125999 1.9999999999999907
    vertex 56.78997870912307 -126.73836858125999 27.49999999999999
    vertex 56.78997870912307 -126.73836858125999 1.9999999999999911
  endloop
endfacet
facet normal -1.7405363919503287e-17 -8.33077247429216e-17 1.0
  outer loop
    vertex 58.28997870912318 -96.13836858126004 8.499999999999996
    vertex 56.78997870912307 -111.13836858125993 8.499999999999996
    vertex 58.28997870912308 -111.13836858125993 8.499999999999996
  endloop
endfacet
facet normal -1.7405363919503287e-17 -8.33077247429216e-17 1.0
  outer loop
    vertex 56.78997870912307 -111.13836858125993 8.499999999999996
    vertex 58.28997870912318 -96.13836858126004 8.499999999999996
    vertex 56.789978709123176 -96.13836858126004 8.499999999999996
  endloop
endfacet
facet normal -6.940177001842394e-33 1.0 0.0
  outer loop
    vertex 56.78997870912307 -79.47756675490015 12.669476266257611
    vertex 58.28997870912307 -79.47756675490015 16.848873834318667
    vertex 58.28997870912307 -79.47756675490015 12.669476266257611
  endloop
endfacet
facet normal -6.940177001842394e-33 1.0 0.0
  outer loop
    vertex 58.28997870912307 -79.47756675490015 16.848873834318667
    vertex 56.78997870912307 -79.47756675490015 12.669476266257611
    vertex 56.78997870912307 -79.47756675490015 16.848873834318667
  endloop
endfacet
facet normal -2.465190328815662e-32 0.8747839860206121 -0.48451313480842767
  outer loop
    vertex 56.78997870912307 -79.47756675490015 16.848873834318667
    vertex 58.28997870912307 -79.35532241266736 17.069584864184037
    vertex 58.28997870912307 -79.47756675490015 16.848873834318667
  endloop
endfacet
facet normal -2.465190328815662e-32 0.8747839860206121 -0.48451313480842767
  outer loop
    vertex 58.28997870912307 -79.35532241266736 17.069584864184037
    vertex 56.78997870912307 -79.47756675490015 16.848873834318667
    vertex 56.78997870912307 -79.35532241266736 17.069584864184037
  endloop
endfacet
facet normal -1.232595164407831e-32 0.8747839860206215 -0.48451313480841096
  outer loop
    vertex 56.78997870912307 -79.35532241266736 17.069584864184037
    vertex 58.28997870912307 -79.32060226415541 17.1322717713667
    vertex 58.28997870912307 -79.35532241266736 17.069584864184037
  endloop
endfacet
facet normal -1.232595164407831e-32 0.8747839860206215 -0.48451313480841096
  outer loop
    vertex 58.28997870912307 -79.32060226415541 17.1322717713667
    vertex 56.78997870912307 -79.35532241266736 17.069584864184037
    vertex 56.78997870912307 -79.32060226415541 17.1322717713667
  endloop
endfacet
facet normal 0.0 0.7195752176306627 -0.6944145060205644
  outer loop
    vertex 56.78997870912307 -79.32060226415541 17.1322717713667
    vertex 58.28997870912307 -78.59570307059543 17.883436227817104
    vertex 58.28997870912307 -79.32060226415541 17.1322717713667
  endloop
endfacet
facet normal 0.0 0.7195752176306627 -0.6944145060205644
  outer loop
    vertex 58.28997870912307 -78.59570307059543 17.883436227817104
    vertex 56.78997870912307 -79.32060226415541 17.1322717713667
    vertex 56.78997870912307 -78.59570307059543 17.883436227817104
  endloop
endfacet
facet normal -3.697785493223492e-32 0.5153285873134424 -0.8569926762216418
  outer loop
    vertex 56.78997870912307 -77.70108855074626 18.42138765902015
    vertex 58.28997870912307 -78.59570307059543 17.883436227817104
    vertex 56.78997870912307 -78.59570307059543 17.883436227817104
  endloop
endfacet
facet normal -3.697785493223492e-32 0.5153285873134424 -0.8569926762216418
  outer loop
    vertex 58.28997870912307 -78.59570307059543 17.883436227817104
    vertex 56.78997870912307 -77.70108855074626 18.42138765902015
    vertex 58.28997870912307 -77.70108855074626 18.42138765902015
  endloop
endfacet
facet normal -2.465190328815662e-32 0.2759631653915818 -0.9611682117855639
  outer loop
    vertex 56.78997870912307 -76.69772520571526 18.70946556394614
    vertex 58.28997870912307 -77.70108855074626 18.42138765902015
    vertex 56.78997870912307 -77.70108855074626 18.42138765902015
  endloop
endfacet
facet normal -2.465190328815662e-32 0.2759631653915818 -0.9611682117855639
  outer loop
    vertex 58.28997870912307 -77.70108855074626 18.42138765902015
    vertex 56.78997870912307 -76.69772520571526 18.70946556394614
    vertex 58.28997870912307 -76.69772520571526 18.70946556394614
  endloop
endfacet
facet normal 1.232595164407831e-32 0.01779130979897556 -0.9998417221218752
  outer loop
    vertex 56.78997870912307 -75.65399058932995 18.728037909445604
    vertex 58.28997870912307 -76.69772520571526 18.70946556394614
    vertex 56.78997870912307 -76.69772520571526 18.70946556394614
  endloop
endfacet
facet normal 1.232595164407831e-32 0.01779130979897556 -0.9998417221218752
  outer loop
    vertex 58.28997870912307 -76.69772520571526 18.70946556394614
    vertex 56.78997870912307 -75.65399058932995 18.728037909445604
    vertex 58.28997870912307 -75.65399058932995 18.728037909445604
  endloop
endfacet
facet normal 0.0 -0.2415929941549089 -0.9703776714121499
  outer loop
    vertex 56.78997870912307 -74.64101349084399 18.475839020865
    vertex 58.28997870912307 -75.65399058932995 18.728037909445604
    vertex 56.78997870912307 -75.65399058932995 18.728037909445604
  endloop
endfacet
facet normal 0.0 -0.2415929941549089 -0.9703776714121499
  outer loop
    vertex 58.28997870912307 -75.65399058932995 18.728037909445604
    vertex 56.78997870912307 -74.64101349084399 18.475839020865
    vertex 58.28997870912307 -74.64101349084399 18.475839020865
  endloop
endfacet
facet normal 0.0 -0.48451313480843017 -0.8747839860206108
  outer loop
    vertex 56.78997870912307 -73.72782662549537 17.970055835682736
    vertex 58.28997870912307 -74.64101349084399 18.475839020865
    vertex 56.78997870912307 -74.64101349084399 18.475839020865
  endloop
endfacet
facet normal 0.0 -0.48451313480843017 -0.8747839860206108
  outer loop
    vertex 58.28997870912307 -74.64101349084399 18.475839020865
    vertex 56.78997870912307 -73.72782662549537 17.970055835682736
    vertex 58.28997870912307 -73.72782662549537 17.970055835682736
  endloop
endfacet
facet normal 4.930380657631324e-32 -0.6944145060205659 -0.7195752176306613
  outer loop
    vertex 56.78997870912307 -72.97666216904496 17.24515664212275
    vertex 58.28997870912307 -73.72782662549537 17.970055835682736
    vertex 56.78997870912307 -73.72782662549537 17.970055835682736
  endloop
endfacet
facet normal 4.930380657631324e-32 -0.6944145060205659 -0.7195752176306613
  outer loop
    vertex 58.28997870912307 -73.72782662549537 17.970055835682736
    vertex 56.78997870912307 -72.97666216904496 17.24515664212275
    vertex 58.28997870912307 -72.97666216904496 17.24515664212275
  endloop
endfacet
facet normal 1.232595164407831e-32 -0.8569926762216389 -0.5153285873134476
  outer loop
    vertex 56.78997870912307 -72.97666216904496 17.24515664212275
    vertex 58.28997870912307 -72.85532241266735 17.04336833635023
    vertex 58.28997870912307 -72.97666216904496 17.24515664212275
  endloop
endfacet
facet normal 1.232595164407831e-32 -0.8569926762216389 -0.5153285873134476
  outer loop
    vertex 58.28997870912307 -72.85532241266735 17.04336833635023
    vertex 56.78997870912307 -72.97666216904496 17.24515664212275
    vertex 56.78997870912307 -72.85532241266735 17.04336833635023
  endloop
endfacet
facet normal 0.0 -0.8569926762216411 -0.5153285873134437
  outer loop
    vertex 56.78997870912307 -72.85532241266735 17.04336833635023
    vertex 58.28997870912307 -72.73836858126 16.848873834318667
    vertex 58.28997870912307 -72.85532241266735 17.04336833635023
  endloop
endfacet
facet normal 0.0 -0.8569926762216411 -0.5153285873134437
  outer loop
    vertex 58.28997870912307 -72.73836858126 16.848873834318667
    vertex 56.78997870912307 -72.85532241266735 17.04336833635023
    vertex 56.78997870912307 -72.73836858126 16.848873834318667
  endloop
endfacet
facet normal 6.940177001842394e-33 -1.0 0.0
  outer loop
    vertex 56.78997870912307 -72.73836858126 16.848873834318667
    vertex 58.28997870912307 -72.73836858126 12.651126165681312
    vertex 58.28997870912307 -72.73836858126 16.848873834318667
  endloop
endfacet
facet normal 6.940177001842394e-33 -1.0 0.0
  outer loop
    vertex 58.28997870912307 -72.73836858126 12.651126165681312
    vertex 56.78997870912307 -72.73836858126 16.848873834318667
    vertex 56.78997870912307 -72.73836858126 12.651126165681312
  endloop
endfacet
facet normal 1.2325951644078307e-32 -0.8747839860206106 0.4845131348084301
  outer loop
    vertex 56.78997870912307 -72.73836858126 12.651126165681312
    vertex 58.28997870912307 -72.89004256117933 12.377280197022698
    vertex 58.28997870912307 -72.73836858126 12.651126165681312
  endloop
endfacet
facet normal 1.2325951644078307e-32 -0.8747839860206106 0.4845131348084301
  outer loop
    vertex 58.28997870912307 -72.89004256117933 12.377280197022698
    vertex 56.78997870912307 -72.73836858126 12.651126165681312
    vertex 56.78997870912307 -72.89004256117933 12.377280197022698
  endloop
endfacet
facet normal 6.162975822039155e-32 -0.7195752176306554 0.694414506020572
  outer loop
    vertex 56.78997870912307 -72.89004256117933 12.377280197022698
    vertex 58.28997870912307 -73.61494175473932 11.626115740572297
    vertex 58.28997870912307 -72.89004256117933 12.377280197022698
  endloop
endfacet
facet normal 6.162975822039155e-32 -0.7195752176306554 0.694414506020572
  outer loop
    vertex 58.28997870912307 -73.61494175473932 11.626115740572297
    vertex 56.78997870912307 -72.89004256117933 12.377280197022698
    vertex 56.78997870912307 -73.61494175473932 11.626115740572297
  endloop
endfacet
facet normal 3.697785493223492e-32 -0.5153285873134492 0.8569926762216377
  outer loop
    vertex 58.28997870912307 -73.61494175473932 11.626115740572297
    vertex 56.78997870912307 -74.50955627458848 11.088164309369247
    vertex 58.28997870912307 -74.50955627458848 11.088164309369247
  endloop
endfacet
facet normal 3.697785493223492e-32 -0.5153285873134492 0.8569926762216377
  outer loop
    vertex 56.78997870912307 -74.50955627458848 11.088164309369247
    vertex 58.28997870912307 -73.61494175473932 11.626115740572297
    vertex 56.78997870912307 -73.61494175473932 11.626115740572297
  endloop
endfacet
facet normal 2.465190328815662e-32 -0.2759631653915818 0.9611682117855639
  outer loop
    vertex 58.28997870912307 -74.50955627458848 11.088164309369247
    vertex 56.78997870912307 -75.51291961961947 10.800086404443261
    vertex 58.28997870912307 -75.51291961961947 10.800086404443261
  endloop
endfacet
facet normal 2.465190328815662e-32 -0.2759631653915818 0.9611682117855639
  outer loop
    vertex 56.78997870912307 -75.51291961961947 10.800086404443261
    vertex 58.28997870912307 -74.50955627458848 11.088164309369247
    vertex 56.78997870912307 -74.50955627458848 11.088164309369247
  endloop
endfacet
facet normal -1.232595164407831e-32 -0.01779130979897286 0.9998417221218752
  outer loop
    vertex 58.28997870912307 -75.51291961961947 10.800086404443261
    vertex 56.78997870912307 -76.55665423600479 10.7815140589438
    vertex 58.28997870912307 -76.55665423600479 10.7815140589438
  endloop
endfacet
facet normal -1.232595164407831e-32 -0.01779130979897286 0.9998417221218752
  outer loop
    vertex 56.78997870912307 -76.55665423600479 10.7815140589438
    vertex 58.28997870912307 -75.51291961961947 10.800086404443261
    vertex 56.78997870912307 -75.51291961961947 10.800086404443261
  endloop
endfacet
facet normal 0.0 0.24159299415490765 0.9703776714121503
  outer loop
    vertex 58.28997870912307 -76.55665423600479 10.7815140589438
    vertex 56.78997870912307 -77.56963133449075 11.0337129475244
    vertex 58.28997870912307 -77.56963133449075 11.0337129475244
  endloop
endfacet
facet normal 0.0 0.24159299415490765 0.9703776714121503
  outer loop
    vertex 56.78997870912307 -77.56963133449075 11.0337129475244
    vertex 58.28997870912307 -76.55665423600479 10.7815140589438
    vertex 56.78997870912307 -76.55665423600479 10.7815140589438
  endloop
endfacet
facet normal 0.0 0.48451313480842695 0.8747839860206124
  outer loop
    vertex 58.28997870912307 -77.56963133449075 11.0337129475244
    vertex 56.78997870912307 -78.48281819983937 11.539496132706661
    vertex 58.28997870912307 -78.48281819983937 11.539496132706661
  endloop
endfacet
facet normal 0.0 0.48451313480842695 0.8747839860206124
  outer loop
    vertex 56.78997870912307 -78.48281819983937 11.539496132706661
    vertex 58.28997870912307 -77.56963133449075 11.0337129475244
    vertex 56.78997870912307 -77.56963133449075 11.0337129475244
  endloop
endfacet
facet normal -4.930380657631324e-32 0.6944145060205712 0.7195752176306561
  outer loop
    vertex 58.28997870912307 -78.48281819983937 11.539496132706661
    vertex 56.78997870912307 -79.23398265628977 12.264395326266646
    vertex 58.28997870912307 -79.23398265628977 12.264395326266646
  endloop
endfacet
facet normal -4.930380657631324e-32 0.6944145060205712 0.7195752176306561
  outer loop
    vertex 56.78997870912307 -79.23398265628977 12.264395326266646
    vertex 58.28997870912307 -78.48281819983937 11.539496132706661
    vertex 56.78997870912307 -78.48281819983937 11.539496132706661
  endloop
endfacet
facet normal -4.314083075427407e-32 0.8569926762216358 0.5153285873134522
  outer loop
    vertex 56.78997870912307 -79.23398265628977 12.264395326266646
    vertex 58.28997870912307 -79.47756675490015 12.669476266257611
    vertex 58.28997870912307 -79.23398265628977 12.264395326266646
  endloop
endfacet
facet normal -4.314083075427407e-32 0.8569926762216358 0.5153285873134522
  outer loop
    vertex 58.28997870912307 -79.47756675490015 12.669476266257611
    vertex 56.78997870912307 -79.23398265628977 12.264395326266646
    vertex 56.78997870912307 -79.47756675490015 12.669476266257611
  endloop
endfacet
endsolid Werkbank fan 01
