solid Werkbank fan 03
facet normal -0.09930731008392374 -2.670613724446679e-06 0.9950568115222183
  outer loop
    vertex 718.9720779391364 292.881982371464 34.61235120410147
    vertex 765.8381123619558 297.70439029354714 39.28962674963889
    vertex 718.9720768524757 297.70439029354714 34.612362092432534
  endloop
endfacet
facet normal -0.09930731008392374 -2.670613724446679e-06 0.9950568115222183
  outer loop
    vertex 765.8381123619558 297.70439029354714 39.28962674963889
    vertex 718.9720779391364 292.881982371464 34.61235120410147
    vertex 734.8410144093779 292.881982371464 36.196078958873684
  endloop
endfacet
facet normal -0.09930731008392374 -2.670613724446679e-06 0.9950568115222183
  outer loop
    vertex 765.8381123619558 297.70439029354714 39.28962674963889
    vertex 734.8410144093779 292.881982371464 36.196078958873684
    vertex 765.8383329593885 292.881982371464 39.289626771811704
  endloop
endfacet
facet normal 0.0 1.0 0.0
  outer loop
    vertex 718.9721145709763 315.681982371464 20.36543516472016
    vertex 730.9514499013055 315.681982371464 23.98759202386347
    vertex 753.8383512751908 315.681982371464 23.987378865005635
  endloop
endfacet
facet normal 0.0 1.0 0.0
  outer loop
    vertex 730.9514499013055 315.681982371464 23.98759202386347
    vertex 718.9721145709763 315.681982371464 20.36543516472016
    vertex 730.6933895335127 315.681982371464 24.0270026061542
  endloop
endfacet
facet normal 0.0 1.0 0.0
  outer loop
    vertex 730.6933895335127 315.681982371464 24.0270026061542
    vertex 718.9721145709763 315.681982371464 20.36543516472016
    vertex 730.4543225687953 315.681982371464 24.131861243388848
  endloop
endfacet
facet normal 0.0 1.0 0.0
  outer loop
    vertex 730.4543225687953 315.681982371464 24.131861243388848
    vertex 718.9721145709763 315.681982371464 20.36543516472016
    vertex 718.9720779391364 315.681982371464 29.613611893583368
  endloop
endfacet
facet normal 0.0 1.0 0.0
  outer loop
    vertex 730.4543225687953 315.681982371464 24.131861243388848
    vertex 718.9720779391364 315.681982371464 29.613611893583368
    vertex 730.2505410257221 315.681982371464 24.295021992726966
  endloop
endfacet
facet normal 0.0 1.0 0.0
  outer loop
    vertex 730.2505410257221 315.681982371464 24.295021992726966
    vertex 718.9720779391364 315.681982371464 29.613611893583368
    vertex 730.0959322796887 315.681982371464 24.50536571873705
  endloop
endfacet
facet normal 0.0 1.0 0.0
  outer loop
    vertex 730.0959322796887 315.681982371464 24.50536571873705
    vertex 718.9720779391364 315.681982371464 29.613611893583368
    vertex 730.0010326612339 315.681982371464 24.74855784410095
  endloop
endfacet
facet normal 0.0 1.0 0.0
  outer loop
    vertex 730.0010326612339 315.681982371464 24.74855784410095
    vertex 718.9720779391364 315.681982371464 29.613611893583368
    vertex 729.9723094225267 315.681982371464 25.008025227369114
  endloop
endfacet
facet normal 0.0 1.0 0.0
  outer loop
    vertex 729.9723094225267 315.681982371464 25.008025227369114
    vertex 718.9720779391364 315.681982371464 29.613611893583368
    vertex 730.0117200048174 315.681982371464 25.266085595161936
  endloop
endfacet
facet normal 0.0 1.0 0.0
  outer loop
    vertex 730.0117200048174 315.681982371464 25.266085595161936
    vertex 718.9720779391364 315.681982371464 29.613611893583368
    vertex 730.1165786420521 315.681982371464 25.505152559879257
  endloop
endfacet
facet normal 0.0 1.0 0.0
  outer loop
    vertex 730.1165786420521 315.681982371464 25.505152559879257
    vertex 718.9720779391364 315.681982371464 29.613611893583368
    vertex 730.2797393913902 315.681982371464 25.708934102952433
  endloop
endfacet
facet normal 0.0 1.0 0.0
  outer loop
    vertex 730.2797393913902 315.681982371464 25.708934102952433
    vertex 718.9720779391364 315.681982371464 29.613611893583368
    vertex 730.4900831174003 315.681982371464 25.863542848985944
  endloop
endfacet
facet normal 0.0 1.0 0.0
  outer loop
    vertex 730.4900831174003 315.681982371464 25.863542848985944
    vertex 718.9720779391364 315.681982371464 29.613611893583368
    vertex 730.7332752427642 315.681982371464 25.958442467440648
  endloop
endfacet
facet normal 0.0 1.0 0.0
  outer loop
    vertex 730.7332752427642 315.681982371464 25.958442467440648
    vertex 718.9720779391364 315.681982371464 29.613611893583368
    vertex 730.9927426260323 315.681982371464 25.987165706147888
  endloop
endfacet
facet normal 0.0 1.0 0.0
  outer loop
    vertex 730.9927426260323 315.681982371464 25.987165706147888
    vertex 718.9720779391364 315.681982371464 29.613611893583368
    vertex 753.8383512751908 315.681982371464 25.98737886500572
  endloop
endfacet
facet normal 0.0 1.0 0.0
  outer loop
    vertex 765.8383695912283 315.681982371464 20.36114583642799
    vertex 754.3383512751908 315.681982371464 24.1213534612212
    vertex 765.8383329593885 315.681982371464 29.613611893583368
  endloop
endfacet
facet normal 0.0 1.0 0.0
  outer loop
    vertex 754.3383512751908 315.681982371464 24.1213534612212
    vertex 765.8383695912283 315.681982371464 20.36114583642799
    vertex 754.0971703202933 315.681982371464 24.02145303871657
  endloop
endfacet
facet normal 0.0 1.0 0.0
  outer loop
    vertex 754.0971703202933 315.681982371464 24.02145303871657
    vertex 765.8383695912283 315.681982371464 20.36114583642799
    vertex 753.8383512751908 315.681982371464 23.987378865005635
  endloop
endfacet
facet normal 0.0 1.0 0.0
  outer loop
    vertex 753.8383512751908 315.681982371464 23.987378865005635
    vertex 765.8383695912283 315.681982371464 20.36114583642799
    vertex 718.9721145709763 315.681982371464 20.36543516472016
  endloop
endfacet
facet normal 0.0 1.0 0.0
  outer loop
    vertex 765.8383329593885 315.681982371464 29.613611893583368
    vertex 754.3383512751908 315.681982371464 24.1213534612212
    vertex 754.5454580563775 315.681982371464 24.2802720838191
  endloop
endfacet
facet normal 0.0 1.0 0.0
  outer loop
    vertex 765.8383329593885 315.681982371464 29.613611893583368
    vertex 754.5454580563775 315.681982371464 24.2802720838191
    vertex 754.7043766789753 315.681982371464 24.487378865005656
  endloop
endfacet
facet normal 0.0 1.0 0.0
  outer loop
    vertex 765.8383329593885 315.681982371464 29.613611893583368
    vertex 754.7043766789753 315.681982371464 24.487378865005656
    vertex 754.80427710148 315.681982371464 24.728559819903147
  endloop
endfacet
facet normal 0.0 1.0 0.0
  outer loop
    vertex 765.8383329593885 315.681982371464 29.613611893583368
    vertex 754.80427710148 315.681982371464 24.728559819903147
    vertex 754.8383512751909 315.681982371464 24.987378865005677
  endloop
endfacet
facet normal 0.0 1.0 0.0
  outer loop
    vertex 765.8383329593885 315.681982371464 29.613611893583368
    vertex 754.8383512751909 315.681982371464 24.987378865005677
    vertex 754.80427710148 315.681982371464 25.246197910108208
  endloop
endfacet
facet normal 0.0 1.0 0.0
  outer loop
    vertex 765.8383329593885 315.681982371464 29.613611893583368
    vertex 754.80427710148 315.681982371464 25.246197910108208
    vertex 754.7043766789753 315.681982371464 25.4873788650057
  endloop
endfacet
facet normal 0.0 1.0 0.0
  outer loop
    vertex 765.8383329593885 315.681982371464 29.613611893583368
    vertex 754.7043766789753 315.681982371464 25.4873788650057
    vertex 754.5454580563775 315.681982371464 25.69448564619226
  endloop
endfacet
facet normal 0.0 1.0 0.0
  outer loop
    vertex 765.8383329593885 315.681982371464 29.613611893583368
    vertex 754.5454580563775 315.681982371464 25.69448564619226
    vertex 754.3383512751909 315.681982371464 25.853404268790154
  endloop
endfacet
facet normal 0.0 1.0 0.0
  outer loop
    vertex 765.8383329593885 315.681982371464 29.613611893583368
    vertex 754.3383512751909 315.681982371464 25.853404268790154
    vertex 754.0971703202933 315.681982371464 25.953304691294786
  endloop
endfacet
facet normal 0.0 1.0 0.0
  outer loop
    vertex 765.8383329593885 315.681982371464 29.613611893583368
    vertex 754.0971703202933 315.681982371464 25.953304691294786
    vertex 753.8383512751908 315.681982371464 25.98737886500572
  endloop
endfacet
facet normal 0.0 1.0 0.0
  outer loop
    vertex 765.8383329593885 315.681982371464 29.613611893583368
    vertex 753.8383512751908 315.681982371464 25.98737886500572
    vertex 718.9720779391364 315.681982371464 29.613611893583368
  endloop
endfacet
facet normal 0.0 1.0 0.0
  outer loop
    vertex 730.9514499013055 315.681982371464 23.98759202386347
    vertex 753.5795322300883 315.681982371464 24.02145303871657
    vertex 753.8383512751908 315.681982371464 23.987378865005635
  endloop
endfacet
facet normal 0.0 1.0 0.0
  outer loop
    vertex 753.5795322300883 315.681982371464 24.02145303871657
    vertex 730.9514499013055 315.681982371464 23.98759202386347
    vertex 731.2109172845736 315.681982371464 24.016315262570707
  endloop
endfacet
facet normal 0.0 1.0 0.0
  outer loop
    vertex 753.5795322300883 315.681982371464 24.02145303871657
    vertex 731.2109172845736 315.681982371464 24.016315262570707
    vertex 731.4541094099375 315.681982371464 24.11121488102541
  endloop
endfacet
facet normal 0.0 1.0 0.0
  outer loop
    vertex 753.5795322300883 315.681982371464 24.02145303871657
    vertex 731.4541094099375 315.681982371464 24.11121488102541
    vertex 753.3383512751908 315.681982371464 24.1213534612212
  endloop
endfacet
facet normal 0.0 1.0 0.0
  outer loop
    vertex 753.3383512751908 315.681982371464 24.1213534612212
    vertex 731.4541094099375 315.681982371464 24.11121488102541
    vertex 731.6644531359476 315.681982371464 24.265823627058925
  endloop
endfacet
facet normal 0.0 1.0 0.0
  outer loop
    vertex 753.3383512751908 315.681982371464 24.1213534612212
    vertex 731.6644531359476 315.681982371464 24.265823627058925
    vertex 753.1312444940042 315.681982371464 24.2802720838191
  endloop
endfacet
facet normal 0.0 1.0 0.0
  outer loop
    vertex 753.1312444940042 315.681982371464 24.2802720838191
    vertex 731.6644531359476 315.681982371464 24.265823627058925
    vertex 731.8276138852857 315.681982371464 24.4696051701321
  endloop
endfacet
facet normal 0.0 1.0 0.0
  outer loop
    vertex 753.1312444940042 315.681982371464 24.2802720838191
    vertex 731.8276138852857 315.681982371464 24.4696051701321
    vertex 752.9723258714064 315.681982371464 24.487378865005656
  endloop
endfacet
facet normal 0.0 1.0 0.0
  outer loop
    vertex 752.9723258714064 315.681982371464 24.487378865005656
    vertex 731.8276138852857 315.681982371464 24.4696051701321
    vertex 731.9324725225204 315.681982371464 24.708672134849422
  endloop
endfacet
facet normal 0.0 1.0 0.0
  outer loop
    vertex 752.9723258714064 315.681982371464 24.487378865005656
    vertex 731.9324725225204 315.681982371464 24.708672134849422
    vertex 752.8724254489017 315.681982371464 24.728559819903147
  endloop
endfacet
facet normal 0.0 1.0 0.0
  outer loop
    vertex 752.8724254489017 315.681982371464 24.728559819903147
    vertex 731.9324725225204 315.681982371464 24.708672134849422
    vertex 731.9718831048111 315.681982371464 24.96673250264224
  endloop
endfacet
facet normal 0.0 1.0 0.0
  outer loop
    vertex 752.8724254489017 315.681982371464 24.728559819903147
    vertex 731.9718831048111 315.681982371464 24.96673250264224
    vertex 752.8383512751908 315.681982371464 24.987378865005677
  endloop
endfacet
facet normal 0.0 1.0 0.0
  outer loop
    vertex 752.8383512751908 315.681982371464 24.987378865005677
    vertex 731.9718831048111 315.681982371464 24.96673250264224
    vertex 731.9431598661039 315.681982371464 25.226199885910404
  endloop
endfacet
facet normal 0.0 1.0 0.0
  outer loop
    vertex 752.8383512751908 315.681982371464 24.987378865005677
    vertex 731.9431598661039 315.681982371464 25.226199885910404
    vertex 752.8724254489017 315.681982371464 25.24619791010821
  endloop
endfacet
facet normal 0.0 1.0 0.0
  outer loop
    vertex 752.8724254489017 315.681982371464 25.24619791010821
    vertex 731.9431598661039 315.681982371464 25.226199885910404
    vertex 731.8482602476491 315.681982371464 25.469392011274305
  endloop
endfacet
facet normal 0.0 1.0 0.0
  outer loop
    vertex 752.8724254489017 315.681982371464 25.24619791010821
    vertex 731.8482602476491 315.681982371464 25.469392011274305
    vertex 752.9723258714064 315.681982371464 25.487378865005702
  endloop
endfacet
facet normal 0.0 1.0 0.0
  outer loop
    vertex 752.9723258714064 315.681982371464 25.487378865005702
    vertex 731.8482602476491 315.681982371464 25.469392011274305
    vertex 731.6936515016157 315.681982371464 25.67973573728439
  endloop
endfacet
facet normal 0.0 1.0 0.0
  outer loop
    vertex 752.9723258714064 315.681982371464 25.487378865005702
    vertex 731.6936515016157 315.681982371464 25.67973573728439
    vertex 753.1312444940042 315.681982371464 25.69448564619226
  endloop
endfacet
facet normal 0.0 1.0 0.0
  outer loop
    vertex 753.1312444940042 315.681982371464 25.69448564619226
    vertex 731.6936515016157 315.681982371464 25.67973573728439
    vertex 731.4898699585425 315.681982371464 25.842896486622507
  endloop
endfacet
facet normal 0.0 1.0 0.0
  outer loop
    vertex 753.1312444940042 315.681982371464 25.69448564619226
    vertex 731.4898699585425 315.681982371464 25.842896486622507
    vertex 753.3383512751909 315.681982371464 25.853404268790154
  endloop
endfacet
facet normal 0.0 1.0 0.0
  outer loop
    vertex 753.3383512751909 315.681982371464 25.853404268790154
    vertex 731.4898699585425 315.681982371464 25.842896486622507
    vertex 731.2508029938251 315.681982371464 25.94775512385716
  endloop
endfacet
facet normal 0.0 1.0 0.0
  outer loop
    vertex 753.3383512751909 315.681982371464 25.853404268790154
    vertex 731.2508029938251 315.681982371464 25.94775512385716
    vertex 753.5795322300883 315.681982371464 25.953304691294786
  endloop
endfacet
facet normal 0.0 1.0 0.0
  outer loop
    vertex 753.5795322300883 315.681982371464 25.953304691294786
    vertex 731.2508029938251 315.681982371464 25.94775512385716
    vertex 730.9927426260323 315.681982371464 25.987165706147888
  endloop
endfacet
facet normal 0.0 1.0 0.0
  outer loop
    vertex 753.5795322300883 315.681982371464 25.953304691294786
    vertex 730.9927426260323 315.681982371464 25.987165706147888
    vertex 753.8383512751908 315.681982371464 25.98737886500572
  endloop
endfacet
facet normal 0.0 0.0 1.0
  outer loop
    vertex 765.8383329593885 299.681982371464 29.613611893583368
    vertex 718.9720779391364 315.681982371464 29.613611893583368
    vertex 718.9720779391364 299.681982371464 29.613611893583368
  endloop
endfacet
facet normal 0.0 0.0 1.0
  outer loop
    vertex 718.9720779391364 315.681982371464 29.613611893583368
    vertex 765.8383329593885 299.681982371464 29.613611893583368
    vertex 765.8383329593885 315.681982371464 29.613611893583368
  endloop
endfacet
facet normal -9.975182025191588e-05 -0.0 -0.9999999950247873
  outer loop
    vertex 765.8383695912283 315.681982371464 20.36114583642799
    vertex 718.9721145709763 299.681982371464 20.36543516472016
    vertex 718.9721145709763 315.681982371464 20.36543516472016
  endloop
endfacet
facet normal -9.975182025191588e-05 -0.0 -0.9999999950247873
  outer loop
    vertex 718.9721145709763 299.681982371464 20.36543516472016
    vertex 765.8383695912283 315.681982371464 20.36114583642799
    vertex 765.8383695912283 299.681982371464 20.36114583642799
  endloop
endfacet
facet normal -0.9999999999994 7.812723426074386e-07 -7.67869057440766e-07
  outer loop
    vertex 718.9720768524757 297.70439029354714 34.612362092432534
    vertex 718.9720779391364 292.881982371464 15.384830880669721
    vertex 718.9720779391364 292.881982371464 34.61235120410147
  endloop
endfacet
facet normal -0.9999999999994 7.812723426074386e-07 -7.67869057440766e-07
  outer loop
    vertex 718.9720779391364 292.881982371464 15.384830880669721
    vertex 718.9720768524757 297.70439029354714 34.612362092432534
    vertex 718.9720779391364 297.681982371464 15.384830880669707
  endloop
endfacet
facet normal -0.9999999999994 7.812723426074386e-07 -7.67869057440766e-07
  outer loop
    vertex 718.9720779391364 297.681982371464 15.384830880669707
    vertex 718.9720768524757 297.70439029354714 34.612362092432534
    vertex 718.9721145709763 299.681982371464 20.36543516472016
  endloop
endfacet
facet normal -0.9999999999994 7.812723426074386e-07 -7.67869057440766e-07
  outer loop
    vertex 718.9721145709763 299.681982371464 20.36543516472016
    vertex 718.9720768524757 297.70439029354714 34.612362092432534
    vertex 718.9720779391364 299.681982371464 29.613611893583368
  endloop
endfacet
facet normal -0.9999999999994 7.812723426074386e-07 -7.67869057440766e-07
  outer loop
    vertex 718.9721145709763 299.681982371464 20.36543516472016
    vertex 718.9720779391364 299.681982371464 29.613611893583368
    vertex 718.9720779391364 315.681982371464 29.613611893583368
  endloop
endfacet
facet normal -0.9999999999994 7.812723426074386e-07 -7.67869057440766e-07
  outer loop
    vertex 718.9721145709763 299.681982371464 20.36543516472016
    vertex 718.9720779391364 315.681982371464 29.613611893583368
    vertex 718.9721145709763 315.681982371464 20.36543516472016
  endloop
endfacet
facet normal 0.0 -1.0 0.0
  outer loop
    vertex 753.5795322300883 292.881982371464 24.02145303871657
    vertex 730.9514499013055 292.881982371464 23.98759202386347
    vertex 753.8383512751908 292.881982371464 23.987378865005635
  endloop
endfacet
facet normal 0.0 -1.0 0.0
  outer loop
    vertex 730.9514499013055 292.881982371464 23.98759202386347
    vertex 753.5795322300883 292.881982371464 24.02145303871657
    vertex 731.2109172845736 292.881982371464 24.016315262570707
  endloop
endfacet
facet normal 0.0 -1.0 0.0
  outer loop
    vertex 731.2109172845736 292.881982371464 24.016315262570707
    vertex 753.5795322300883 292.881982371464 24.02145303871657
    vertex 731.4541094099375 292.881982371464 24.11121488102541
  endloop
endfacet
facet normal 0.0 -1.0 0.0
  outer loop
    vertex 731.4541094099375 292.881982371464 24.11121488102541
    vertex 753.5795322300883 292.881982371464 24.02145303871657
    vertex 753.3383512751908 292.881982371464 24.1213534612212
  endloop
endfacet
facet normal 0.0 -1.0 0.0
  outer loop
    vertex 731.4541094099375 292.881982371464 24.11121488102541
    vertex 753.3383512751908 292.881982371464 24.1213534612212
    vertex 731.6644531359476 292.881982371464 24.265823627058925
  endloop
endfacet
facet normal 0.0 -1.0 0.0
  outer loop
    vertex 731.6644531359476 292.881982371464 24.265823627058925
    vertex 753.3383512751908 292.881982371464 24.1213534612212
    vertex 753.1312444940042 292.881982371464 24.2802720838191
  endloop
endfacet
facet normal 0.0 -1.0 0.0
  outer loop
    vertex 731.6644531359476 292.881982371464 24.265823627058925
    vertex 753.1312444940042 292.881982371464 24.2802720838191
    vertex 731.8276138852857 292.881982371464 24.4696051701321
  endloop
endfacet
facet normal 0.0 -1.0 0.0
  outer loop
    vertex 731.8276138852857 292.881982371464 24.4696051701321
    vertex 753.1312444940042 292.881982371464 24.2802720838191
    vertex 752.9723258714064 292.881982371464 24.487378865005656
  endloop
endfacet
facet normal 0.0 -1.0 0.0
  outer loop
    vertex 731.8276138852857 292.881982371464 24.4696051701321
    vertex 752.9723258714064 292.881982371464 24.487378865005656
    vertex 731.9324725225204 292.881982371464 24.708672134849422
  endloop
endfacet
facet normal 0.0 -1.0 0.0
  outer loop
    vertex 731.9324725225204 292.881982371464 24.708672134849422
    vertex 752.9723258714064 292.881982371464 24.487378865005656
    vertex 752.8724254489017 292.881982371464 24.728559819903147
  endloop
endfacet
facet normal 0.0 -1.0 0.0
  outer loop
    vertex 731.9324725225204 292.881982371464 24.708672134849422
    vertex 752.8724254489017 292.881982371464 24.728559819903147
    vertex 731.9718831048111 292.881982371464 24.96673250264224
  endloop
endfacet
facet normal 0.0 -1.0 0.0
  outer loop
    vertex 731.9718831048111 292.881982371464 24.96673250264224
    vertex 752.8724254489017 292.881982371464 24.728559819903147
    vertex 752.8383512751908 292.881982371464 24.987378865005677
  endloop
endfacet
facet normal 0.0 -1.0 0.0
  outer loop
    vertex 731.9718831048111 292.881982371464 24.96673250264224
    vertex 752.8383512751908 292.881982371464 24.987378865005677
    vertex 731.9431598661039 292.881982371464 25.226199885910404
  endloop
endfacet
facet normal 0.0 -1.0 0.0
  outer loop
    vertex 731.9431598661039 292.881982371464 25.226199885910404
    vertex 752.8383512751908 292.881982371464 24.987378865005677
    vertex 752.8724254489017 292.881982371464 25.24619791010821
  endloop
endfacet
facet normal 0.0 -1.0 0.0
  outer loop
    vertex 731.9431598661039 292.881982371464 25.226199885910404
    vertex 752.8724254489017 292.881982371464 25.24619791010821
    vertex 731.8482602476491 292.881982371464 25.469392011274305
  endloop
endfacet
facet normal 0.0 -1.0 0.0
  outer loop
    vertex 731.8482602476491 292.881982371464 25.469392011274305
    vertex 752.8724254489017 292.881982371464 25.24619791010821
    vertex 752.9723258714064 292.881982371464 25.487378865005702
  endloop
endfacet
facet normal 0.0 -1.0 0.0
  outer loop
    vertex 731.8482602476491 292.881982371464 25.469392011274305
    vertex 752.9723258714064 292.881982371464 25.487378865005702
    vertex 731.6936515016157 292.881982371464 25.67973573728439
  endloop
endfacet
facet normal 0.0 -1.0 0.0
  outer loop
    vertex 731.6936515016157 292.881982371464 25.67973573728439
    vertex 752.9723258714064 292.881982371464 25.487378865005702
    vertex 753.1312444940042 292.881982371464 25.69448564619226
  endloop
endfacet
facet normal 0.0 -1.0 0.0
  outer loop
    vertex 731.6936515016157 292.881982371464 25.67973573728439
    vertex 753.1312444940042 292.881982371464 25.69448564619226
    vertex 731.4898699585425 292.881982371464 25.842896486622507
  endloop
endfacet
facet normal 0.0 -1.0 0.0
  outer loop
    vertex 731.4898699585425 292.881982371464 25.842896486622507
    vertex 753.1312444940042 292.881982371464 25.69448564619226
    vertex 753.3383512751909 292.881982371464 25.853404268790154
  endloop
endfacet
facet normal 0.0 -1.0 0.0
  outer loop
    vertex 731.4898699585425 292.881982371464 25.842896486622507
    vertex 753.3383512751909 292.881982371464 25.853404268790154
    vertex 731.2508029938251 292.881982371464 25.94775512385716
  endloop
endfacet
facet normal 0.0 -1.0 0.0
  outer loop
    vertex 731.2508029938251 292.881982371464 25.94775512385716
    vertex 753.3383512751909 292.881982371464 25.853404268790154
    vertex 753.5795322300883 292.881982371464 25.953304691294786
  endloop
endfacet
facet normal 0.0 -1.0 0.0
  outer loop
    vertex 731.2508029938251 292.881982371464 25.94775512385716
    vertex 753.5795322300883 292.881982371464 25.953304691294786
    vertex 730.9927426260323 292.881982371464 25.987165706147888
  endloop
endfacet
facet normal 0.0 -1.0 0.0
  outer loop
    vertex 730.9927426260323 292.881982371464 25.987165706147888
    vertex 753.5795322300883 292.881982371464 25.953304691294786
    vertex 753.8383512751908 292.881982371464 25.98737886500572
  endloop
endfacet
facet normal 0.0 -1.0 0.0
  outer loop
    vertex 765.8383329593885 292.881982371464 10.698205378644507
    vertex 754.0971703202933 292.881982371464 24.02145303871657
    vertex 728.76422767288 292.881982371464 14.405615907295362
  endloop
endfacet
facet normal 0.0 -1.0 0.0
  outer loop
    vertex 754.0971703202933 292.881982371464 24.02145303871657
    vertex 765.8383329593885 292.881982371464 10.698205378644507
    vertex 754.3383512751908 292.881982371464 24.1213534612212
  endloop
endfacet
facet normal 0.0 -1.0 0.0
  outer loop
    vertex 754.3383512751908 292.881982371464 24.1213534612212
    vertex 765.8383329593885 292.881982371464 10.698205378644507
    vertex 754.5454580563775 292.881982371464 24.2802720838191
  endloop
endfacet
facet normal 0.0 -1.0 0.0
  outer loop
    vertex 754.5454580563775 292.881982371464 24.2802720838191
    vertex 765.8383329593885 292.881982371464 10.698205378644507
    vertex 754.7043766789753 292.881982371464 24.487378865005656
  endloop
endfacet
facet normal 0.0 -1.0 0.0
  outer loop
    vertex 754.7043766789753 292.881982371464 24.487378865005656
    vertex 765.8383329593885 292.881982371464 10.698205378644507
    vertex 765.8383329593885 292.881982371464 39.289626771811704
  endloop
endfacet
facet normal 0.0 -1.0 0.0
  outer loop
    vertex 728.76422767288 292.881982371464 14.405615907295362
    vertex 754.0971703202933 292.881982371464 24.02145303871657
    vertex 722.8383329593885 292.881982371464 14.998205378644506
  endloop
endfacet
facet normal 0.0 -1.0 0.0
  outer loop
    vertex 722.8383329593885 292.881982371464 14.998205378644506
    vertex 754.0971703202933 292.881982371464 24.02145303871657
    vertex 718.9720779391364 292.881982371464 15.384830880669721
  endloop
endfacet
facet normal 0.0 -1.0 0.0
  outer loop
    vertex 718.9720779391364 292.881982371464 15.384830880669721
    vertex 754.0971703202933 292.881982371464 24.02145303871657
    vertex 753.8383512751908 292.881982371464 23.987378865005635
  endloop
endfacet
facet normal 0.0 -1.0 0.0
  outer loop
    vertex 754.7043766789753 292.881982371464 24.487378865005656
    vertex 765.8383329593885 292.881982371464 39.289626771811704
    vertex 754.80427710148 292.881982371464 24.728559819903147
  endloop
endfacet
facet normal 0.0 -1.0 0.0
  outer loop
    vertex 754.80427710148 292.881982371464 24.728559819903147
    vertex 765.8383329593885 292.881982371464 39.289626771811704
    vertex 754.8383512751909 292.881982371464 24.987378865005677
  endloop
endfacet
facet normal 0.0 -1.0 0.0
  outer loop
    vertex 754.8383512751909 292.881982371464 24.987378865005677
    vertex 765.8383329593885 292.881982371464 39.289626771811704
    vertex 754.80427710148 292.881982371464 25.246197910108208
  endloop
endfacet
facet normal 0.0 -1.0 0.0
  outer loop
    vertex 754.80427710148 292.881982371464 25.246197910108208
    vertex 765.8383329593885 292.881982371464 39.289626771811704
    vertex 754.7043766789753 292.881982371464 25.4873788650057
  endloop
endfacet
facet normal 0.0 -1.0 0.0
  outer loop
    vertex 754.7043766789753 292.881982371464 25.4873788650057
    vertex 765.8383329593885 292.881982371464 39.289626771811704
    vertex 754.5454580563775 292.881982371464 25.69448564619226
  endloop
endfacet
facet normal 0.0 -1.0 0.0
  outer loop
    vertex 754.5454580563775 292.881982371464 25.69448564619226
    vertex 765.8383329593885 292.881982371464 39.289626771811704
    vertex 754.3383512751909 292.881982371464 25.853404268790154
  endloop
endfacet
facet normal 0.0 -1.0 0.0
  outer loop
    vertex 754.3383512751909 292.881982371464 25.853404268790154
    vertex 765.8383329593885 292.881982371464 39.289626771811704
    vertex 754.0971703202933 292.881982371464 25.953304691294786
  endloop
endfacet
facet normal 0.0 -1.0 0.0
  outer loop
    vertex 754.0971703202933 292.881982371464 25.953304691294786
    vertex 765.8383329593885 292.881982371464 39.289626771811704
    vertex 753.8383512751908 292.881982371464 25.98737886500572
  endloop
endfacet
facet normal 0.0 -1.0 0.0
  outer loop
    vertex 753.8383512751908 292.881982371464 25.98737886500572
    vertex 765.8383329593885 292.881982371464 39.289626771811704
    vertex 734.8410144093779 292.881982371464 36.196078958873684
  endloop
endfacet
facet normal 0.0 -1.0 0.0
  outer loop
    vertex 753.8383512751908 292.881982371464 25.98737886500572
    vertex 734.8410144093779 292.881982371464 36.196078958873684
    vertex 718.9720779391364 292.881982371464 34.61235120410147
  endloop
endfacet
facet normal 0.0 -1.0 0.0
  outer loop
    vertex 718.9720779391364 292.881982371464 15.384830880669721
    vertex 730.2505410257221 292.881982371464 24.295021992726966
    vertex 718.9720779391364 292.881982371464 34.61235120410147
  endloop
endfacet
facet normal 0.0 -1.0 0.0
  outer loop
    vertex 730.2505410257221 292.881982371464 24.295021992726966
    vertex 718.9720779391364 292.881982371464 15.384830880669721
    vertex 730.4543225687953 292.881982371464 24.131861243388848
  endloop
endfacet
facet normal 0.0 -1.0 0.0
  outer loop
    vertex 730.4543225687953 292.881982371464 24.131861243388848
    vertex 718.9720779391364 292.881982371464 15.384830880669721
    vertex 730.6933895335127 292.881982371464 24.0270026061542
  endloop
endfacet
facet normal 0.0 -1.0 0.0
  outer loop
    vertex 730.6933895335127 292.881982371464 24.0270026061542
    vertex 718.9720779391364 292.881982371464 15.384830880669721
    vertex 730.9514499013055 292.881982371464 23.98759202386347
  endloop
endfacet
facet normal 0.0 -1.0 0.0
  outer loop
    vertex 730.9514499013055 292.881982371464 23.98759202386347
    vertex 718.9720779391364 292.881982371464 15.384830880669721
    vertex 753.8383512751908 292.881982371464 23.987378865005635
  endloop
endfacet
facet normal 0.0 -1.0 0.0
  outer loop
    vertex 718.9720779391364 292.881982371464 34.61235120410147
    vertex 730.2505410257221 292.881982371464 24.295021992726966
    vertex 730.0959322796887 292.881982371464 24.50536571873705
  endloop
endfacet
facet normal 0.0 -1.0 0.0
  outer loop
    vertex 718.9720779391364 292.881982371464 34.61235120410147
    vertex 730.0959322796887 292.881982371464 24.50536571873705
    vertex 730.0010326612339 292.881982371464 24.74855784410095
  endloop
endfacet
facet normal 0.0 -1.0 0.0
  outer loop
    vertex 718.9720779391364 292.881982371464 34.61235120410147
    vertex 730.0010326612339 292.881982371464 24.74855784410095
    vertex 729.9723094225267 292.881982371464 25.008025227369114
  endloop
endfacet
facet normal 0.0 -1.0 0.0
  outer loop
    vertex 718.9720779391364 292.881982371464 34.61235120410147
    vertex 729.9723094225267 292.881982371464 25.008025227369114
    vertex 730.0117200048174 292.881982371464 25.266085595161936
  endloop
endfacet
facet normal 0.0 -1.0 0.0
  outer loop
    vertex 718.9720779391364 292.881982371464 34.61235120410147
    vertex 730.0117200048174 292.881982371464 25.266085595161936
    vertex 730.1165786420521 292.881982371464 25.505152559879257
  endloop
endfacet
facet normal 0.0 -1.0 0.0
  outer loop
    vertex 718.9720779391364 292.881982371464 34.61235120410147
    vertex 730.1165786420521 292.881982371464 25.505152559879257
    vertex 730.2797393913902 292.881982371464 25.708934102952433
  endloop
endfacet
facet normal 0.0 -1.0 0.0
  outer loop
    vertex 718.9720779391364 292.881982371464 34.61235120410147
    vertex 730.2797393913902 292.881982371464 25.708934102952433
    vertex 730.4900831174003 292.881982371464 25.863542848985944
  endloop
endfacet
facet normal 0.0 -1.0 0.0
  outer loop
    vertex 718.9720779391364 292.881982371464 34.61235120410147
    vertex 730.4900831174003 292.881982371464 25.863542848985944
    vertex 730.7332752427642 292.881982371464 25.958442467440648
  endloop
endfacet
facet normal 0.0 -1.0 0.0
  outer loop
    vertex 718.9720779391364 292.881982371464 34.61235120410147
    vertex 730.7332752427642 292.881982371464 25.958442467440648
    vertex 730.9927426260323 292.881982371464 25.987165706147888
  endloop
endfacet
facet normal 0.0 -1.0 0.0
  outer loop
    vertex 718.9720779391364 292.881982371464 34.61235120410147
    vertex 730.9927426260323 292.881982371464 25.987165706147888
    vertex 753.8383512751908 292.881982371464 25.98737886500572
  endloop
endfacet
facet normal 0.9999999999957143 -1.2119099973891963e-06 2.6650606829553647e-06
  outer loop
    vertex 765.838326964777 297.7013440000678 10.698205378687522
    vertex 765.8383329593885 292.881982371464 39.289626771811704
    vertex 765.8383329593885 292.881982371464 10.698205378644507
  endloop
endfacet
facet normal 0.9999999999957143 -1.2119099973891963e-06 2.6650606829553647e-06
  outer loop
    vertex 765.8383329593885 292.881982371464 39.289626771811704
    vertex 765.838326964777 297.7013440000678 10.698205378687522
    vertex 765.8381123619558 297.70439029354714 39.28962674963889
  endloop
endfacet
facet normal 0.9999999999957143 -1.2119099973891963e-06 2.6650606829553647e-06
  outer loop
    vertex 765.8381123619558 297.70439029354714 39.28962674963889
    vertex 765.838326964777 297.7013440000678 10.698205378687522
    vertex 765.8383448185378 299.6819823712502 15.67443919272623
  endloop
endfacet
facet normal 0.9999999999957143 -1.2119099973891963e-06 2.6650606829553647e-06
  outer loop
    vertex 765.8381123619558 297.70439029354714 39.28962674963889
    vertex 765.8383448185378 299.6819823712502 15.67443919272623
    vertex 765.838361806906 299.6819823641866 34.32616699970948
  endloop
endfacet
facet normal 0.9999999999957143 -1.2119099973891963e-06 2.6650606829553647e-06
  outer loop
    vertex 765.838361806906 299.6819823641866 34.32616699970948
    vertex 765.8383448185378 299.6819823712502 15.67443919272623
    vertex 765.8383329593885 299.681982371464 29.613611893583368
  endloop
endfacet
facet normal 0.9999999999957143 -1.2119099973891963e-06 2.6650606829553647e-06
  outer loop
    vertex 765.8383329593885 299.681982371464 29.613611893583368
    vertex 765.8383448185378 299.6819823712502 15.67443919272623
    vertex 765.8383695912283 299.681982371464 20.36114583642799
  endloop
endfacet
facet normal 0.9999999999957143 -1.2119099973891963e-06 2.6650606829553647e-06
  outer loop
    vertex 765.8383329593885 299.681982371464 29.613611893583368
    vertex 765.8383695912283 299.681982371464 20.36114583642799
    vertex 765.8383695912283 315.681982371464 20.36114583642799
  endloop
endfacet
facet normal 0.9999999999957143 -1.2119099973891963e-06 2.6650606829553647e-06
  outer loop
    vertex 765.8383329593885 299.681982371464 29.613611893583368
    vertex 765.8383695912283 315.681982371464 20.36114583642799
    vertex 765.8383329593885 315.681982371464 29.613611893583368
  endloop
endfacet
facet normal -2.0678694891367207e-26 1.0 1.5442596168243303e-09
  outer loop
    vertex 765.838361806906 299.6819823641866 34.32616699970948
    vertex 765.8383329593885 299.681982371464 29.613611893583368
    vertex 718.9720779391364 299.681982371464 29.613611893583368
  endloop
endfacet
facet normal -0.03693967071711696 0.9287966527345712 0.3687441370332112
  outer loop
    vertex 718.9720768524757 297.70439029354714 34.612362092432534
    vertex 765.838361806906 299.6819823641866 34.32616699970948
    vertex 718.9720779391364 299.681982371464 29.613611893583368
  endloop
endfacet
facet normal -0.03693967071711696 0.9287966527345712 0.3687441370332112
  outer loop
    vertex 765.838361806906 299.6819823641866 34.32616699970948
    vertex 718.9720768524757 297.70439029354714 34.612362092432534
    vertex 765.8381123619558 297.70439029354714 39.28962674963889
  endloop
endfacet
facet normal -4.175532831548635e-15 1.0 -4.5622897852293924e-11
  outer loop
    vertex 718.9721145709763 299.681982371464 20.36543516472016
    vertex 765.8383695912283 299.681982371464 20.36114583642799
    vertex 765.8383448185378 299.6819823712502 15.67443919272623
  endloop
endfacet
facet normal -0.09950372217059911 -2.5627046414178317e-09 -0.9950371898950293
  outer loop
    vertex 722.8383329569406 297.6835796188489 14.99820535416465
    vertex 718.9720779391364 292.881982371464 15.384830880669721
    vertex 718.9720779391364 297.681982371464 15.384830880669707
  endloop
endfacet
facet normal -0.09950372217059911 -2.5627046414178317e-09 -0.9950371898950293
  outer loop
    vertex 718.9720779391364 292.881982371464 15.384830880669721
    vertex 722.8383329569406 297.6835796188489 14.99820535416465
    vertex 722.8383329593885 292.881982371464 14.998205378644506
  endloop
endfacet
facet normal -0.09950372506265862 -5.8064710689898175e-08 -0.9950371896058214
  outer loop
    vertex 765.838326964777 297.7013440000678 10.698205378687522
    vertex 722.8383329593885 292.881982371464 14.998205378644506
    vertex 722.8383329569406 297.6835796188489 14.99820535416465
  endloop
endfacet
facet normal -0.09950372506265862 -5.8064710689898175e-08 -0.9950371896058214
  outer loop
    vertex 722.8383329593885 292.881982371464 14.998205378644506
    vertex 765.838326964777 297.7013440000678 10.698205378687522
    vertex 728.76422767288 292.881982371464 14.405615907295362
  endloop
endfacet
facet normal -0.09950372506265862 -5.8064710689898175e-08 -0.9950371896058214
  outer loop
    vertex 728.76422767288 292.881982371464 14.405615907295362
    vertex 765.838326964777 297.7013440000678 10.698205378687522
    vertex 765.8383329593885 292.881982371464 10.698205378644507
  endloop
endfacet
facet normal -0.037341114107260785 0.9278258037686757 -0.3711400262141492
  outer loop
    vertex 722.8383329569406 297.6835796188489 14.99820535416465
    vertex 765.8383448185378 299.6819823712502 15.67443919272623
    vertex 765.838326964777 297.7013440000678 10.698205378687522
  endloop
endfacet
facet normal -0.037341114107260785 0.9278258037686757 -0.3711400262141492
  outer loop
    vertex 765.8383448185378 299.6819823712502 15.67443919272623
    vertex 722.8383329569406 297.6835796188489 14.99820535416465
    vertex 718.9720779391364 297.681982371464 15.384830880669707
  endloop
endfacet
facet normal -0.037341114107260785 0.9278258037686757 -0.3711400262141492
  outer loop
    vertex 765.8383448185378 299.6819823712502 15.67443919272623
    vertex 718.9720779391364 297.681982371464 15.384830880669707
    vertex 718.9721145709763 299.681982371464 20.36543516472016
  endloop
endfacet
facet normal 0.9238795325112656 0.0 -0.3826834323651406
  outer loop
    vertex 752.8724254489017 315.681982371464 25.24619791010821
    vertex 752.9723258714064 292.881982371464 25.487378865005702
    vertex 752.8724254489017 292.881982371464 25.24619791010821
  endloop
endfacet
facet normal 0.9238795325112656 0.0 -0.3826834323651406
  outer loop
    vertex 752.9723258714064 292.881982371464 25.487378865005702
    vertex 752.8724254489017 315.681982371464 25.24619791010821
    vertex 752.9723258714064 315.681982371464 25.487378865005702
  endloop
endfacet
facet normal 0.7933533402912597 0.0 -0.6087614290086887
  outer loop
    vertex 752.9723258714064 315.681982371464 25.487378865005702
    vertex 753.1312444940042 292.881982371464 25.69448564619226
    vertex 752.9723258714064 292.881982371464 25.487378865005702
  endloop
endfacet
facet normal 0.7933533402912597 0.0 -0.6087614290086887
  outer loop
    vertex 753.1312444940042 292.881982371464 25.69448564619226
    vertex 752.9723258714064 315.681982371464 25.487378865005702
    vertex 753.1312444940042 315.681982371464 25.69448564619226
  endloop
endfacet
facet normal 0.6087614290086011 0.0 -0.7933533402913269
  outer loop
    vertex 753.3383512751909 315.681982371464 25.853404268790154
    vertex 753.1312444940042 292.881982371464 25.69448564619226
    vertex 753.1312444940042 315.681982371464 25.69448564619226
  endloop
endfacet
facet normal 0.6087614290086011 0.0 -0.7933533402913269
  outer loop
    vertex 753.1312444940042 292.881982371464 25.69448564619226
    vertex 753.3383512751909 315.681982371464 25.853404268790154
    vertex 753.3383512751909 292.881982371464 25.853404268790154
  endloop
endfacet
facet normal 0.38268343236515023 0.0 -0.9238795325112619
  outer loop
    vertex 753.5795322300883 315.681982371464 25.953304691294786
    vertex 753.3383512751909 292.881982371464 25.853404268790154
    vertex 753.3383512751909 315.681982371464 25.853404268790154
  endloop
endfacet
facet normal 0.38268343236515023 0.0 -0.9238795325112619
  outer loop
    vertex 753.3383512751909 292.881982371464 25.853404268790154
    vertex 753.5795322300883 315.681982371464 25.953304691294786
    vertex 753.5795322300883 292.881982371464 25.953304691294786
  endloop
endfacet
facet normal 0.13052619222004516 0.0 -0.9914448613738113
  outer loop
    vertex 753.8383512751908 315.681982371464 25.98737886500572
    vertex 753.5795322300883 292.881982371464 25.953304691294786
    vertex 753.5795322300883 315.681982371464 25.953304691294786
  endloop
endfacet
facet normal 0.13052619222004516 0.0 -0.9914448613738113
  outer loop
    vertex 753.5795322300883 292.881982371464 25.953304691294786
    vertex 753.8383512751908 315.681982371464 25.98737886500572
    vertex 753.8383512751908 292.881982371464 25.98737886500572
  endloop
endfacet
facet normal -0.13052619222004516 -0.0 -0.9914448613738113
  outer loop
    vertex 754.0971703202933 315.681982371464 25.953304691294786
    vertex 753.8383512751908 292.881982371464 25.98737886500572
    vertex 753.8383512751908 315.681982371464 25.98737886500572
  endloop
endfacet
facet normal -0.13052619222004516 -0.0 -0.9914448613738113
  outer loop
    vertex 753.8383512751908 292.881982371464 25.98737886500572
    vertex 754.0971703202933 315.681982371464 25.953304691294786
    vertex 754.0971703202933 292.881982371464 25.953304691294786
  endloop
endfacet
facet normal -0.38268343236502794 -0.0 -0.9238795325113124
  outer loop
    vertex 754.3383512751909 315.681982371464 25.853404268790154
    vertex 754.0971703202933 292.881982371464 25.953304691294786
    vertex 754.0971703202933 315.681982371464 25.953304691294786
  endloop
endfacet
facet normal -0.38268343236502794 -0.0 -0.9238795325113124
  outer loop
    vertex 754.0971703202933 292.881982371464 25.953304691294786
    vertex 754.3383512751909 315.681982371464 25.853404268790154
    vertex 754.3383512751909 292.881982371464 25.853404268790154
  endloop
endfacet
facet normal -0.6087614290087681 -0.0 -0.7933533402911989
  outer loop
    vertex 754.5454580563775 315.681982371464 25.69448564619226
    vertex 754.3383512751909 292.881982371464 25.853404268790154
    vertex 754.3383512751909 315.681982371464 25.853404268790154
  endloop
endfacet
facet normal -0.6087614290087681 -0.0 -0.7933533402911989
  outer loop
    vertex 754.3383512751909 292.881982371464 25.853404268790154
    vertex 754.5454580563775 315.681982371464 25.69448564619226
    vertex 754.5454580563775 292.881982371464 25.69448564619226
  endloop
endfacet
facet normal -0.7933533402912678 -0.0 -0.6087614290086782
  outer loop
    vertex 754.5454580563775 315.681982371464 25.69448564619226
    vertex 754.7043766789753 292.881982371464 25.4873788650057
    vertex 754.5454580563775 292.881982371464 25.69448564619226
  endloop
endfacet
facet normal -0.7933533402912678 -0.0 -0.6087614290086782
  outer loop
    vertex 754.7043766789753 292.881982371464 25.4873788650057
    vertex 754.5454580563775 315.681982371464 25.69448564619226
    vertex 754.7043766789753 315.681982371464 25.4873788650057
  endloop
endfacet
facet normal -0.9238795325112642 -0.0 -0.3826834323651444
  outer loop
    vertex 754.7043766789753 315.681982371464 25.4873788650057
    vertex 754.80427710148 292.881982371464 25.246197910108208
    vertex 754.7043766789753 292.881982371464 25.4873788650057
  endloop
endfacet
facet normal -0.9238795325112642 -0.0 -0.3826834323651444
  outer loop
    vertex 754.80427710148 292.881982371464 25.246197910108208
    vertex 754.7043766789753 315.681982371464 25.4873788650057
    vertex 754.80427710148 315.681982371464 25.246197910108208
  endloop
endfacet
facet normal -0.9914448613738195 -0.0 -0.13052619221998285
  outer loop
    vertex 754.80427710148 315.681982371464 25.246197910108208
    vertex 754.8383512751909 292.881982371464 24.987378865005677
    vertex 754.80427710148 292.881982371464 25.246197910108208
  endloop
endfacet
facet normal -0.9914448613738195 -0.0 -0.13052619221998285
  outer loop
    vertex 754.8383512751909 292.881982371464 24.987378865005677
    vertex 754.80427710148 315.681982371464 25.246197910108208
    vertex 754.8383512751909 315.681982371464 24.987378865005677
  endloop
endfacet
facet normal -0.9914448613738195 0.0 0.13052619221998285
  outer loop
    vertex 754.8383512751909 315.681982371464 24.987378865005677
    vertex 754.80427710148 292.881982371464 24.728559819903147
    vertex 754.8383512751909 292.881982371464 24.987378865005677
  endloop
endfacet
facet normal -0.9914448613738195 0.0 0.13052619221998285
  outer loop
    vertex 754.80427710148 292.881982371464 24.728559819903147
    vertex 754.8383512751909 315.681982371464 24.987378865005677
    vertex 754.80427710148 315.681982371464 24.728559819903147
  endloop
endfacet
facet normal -0.9238795325112656 0.0 0.3826834323651406
  outer loop
    vertex 754.80427710148 315.681982371464 24.728559819903147
    vertex 754.7043766789753 292.881982371464 24.487378865005656
    vertex 754.80427710148 292.881982371464 24.728559819903147
  endloop
endfacet
facet normal -0.9238795325112656 0.0 0.3826834323651406
  outer loop
    vertex 754.7043766789753 292.881982371464 24.487378865005656
    vertex 754.80427710148 315.681982371464 24.728559819903147
    vertex 754.7043766789753 315.681982371464 24.487378865005656
  endloop
endfacet
facet normal -0.7933533402912597 0.0 0.6087614290086887
  outer loop
    vertex 754.7043766789753 315.681982371464 24.487378865005656
    vertex 754.5454580563775 292.881982371464 24.2802720838191
    vertex 754.7043766789753 292.881982371464 24.487378865005656
  endloop
endfacet
facet normal -0.7933533402912597 0.0 0.6087614290086887
  outer loop
    vertex 754.5454580563775 292.881982371464 24.2802720838191
    vertex 754.7043766789753 315.681982371464 24.487378865005656
    vertex 754.5454580563775 315.681982371464 24.2802720838191
  endloop
endfacet
facet normal -0.6087614290086079 0.0 0.7933533402913217
  outer loop
    vertex 754.5454580563775 292.881982371464 24.2802720838191
    vertex 754.3383512751908 315.681982371464 24.1213534612212
    vertex 754.3383512751908 292.881982371464 24.1213534612212
  endloop
endfacet
facet normal -0.6087614290086079 0.0 0.7933533402913217
  outer loop
    vertex 754.3383512751908 315.681982371464 24.1213534612212
    vertex 754.5454580563775 292.881982371464 24.2802720838191
    vertex 754.5454580563775 315.681982371464 24.2802720838191
  endloop
endfacet
facet normal -0.38268343236515023 0.0 0.9238795325112619
  outer loop
    vertex 754.3383512751908 292.881982371464 24.1213534612212
    vertex 754.0971703202933 315.681982371464 24.02145303871657
    vertex 754.0971703202933 292.881982371464 24.02145303871657
  endloop
endfacet
facet normal -0.38268343236515023 0.0 0.9238795325112619
  outer loop
    vertex 754.0971703202933 315.681982371464 24.02145303871657
    vertex 754.3383512751908 292.881982371464 24.1213534612212
    vertex 754.3383512751908 315.681982371464 24.1213534612212
  endloop
endfacet
facet normal -0.13052619222005576 0.0 0.9914448613738098
  outer loop
    vertex 754.0971703202933 292.881982371464 24.02145303871657
    vertex 753.8383512751908 315.681982371464 23.987378865005635
    vertex 753.8383512751908 292.881982371464 23.987378865005635
  endloop
endfacet
facet normal -0.13052619222005576 0.0 0.9914448613738098
  outer loop
    vertex 753.8383512751908 315.681982371464 23.987378865005635
    vertex 754.0971703202933 292.881982371464 24.02145303871657
    vertex 754.0971703202933 315.681982371464 24.02145303871657
  endloop
endfacet
facet normal 0.13052619222005576 0.0 0.9914448613738098
  outer loop
    vertex 753.8383512751908 292.881982371464 23.987378865005635
    vertex 753.5795322300883 315.681982371464 24.02145303871657
    vertex 753.5795322300883 292.881982371464 24.02145303871657
  endloop
endfacet
facet normal 0.13052619222005576 0.0 0.9914448613738098
  outer loop
    vertex 753.5795322300883 315.681982371464 24.02145303871657
    vertex 753.8383512751908 292.881982371464 23.987378865005635
    vertex 753.8383512751908 315.681982371464 23.987378865005635
  endloop
endfacet
facet normal 0.38268343236502794 0.0 0.9238795325113124
  outer loop
    vertex 753.5795322300883 292.881982371464 24.02145303871657
    vertex 753.3383512751908 315.681982371464 24.1213534612212
    vertex 753.3383512751908 292.881982371464 24.1213534612212
  endloop
endfacet
facet normal 0.38268343236502794 0.0 0.9238795325113124
  outer loop
    vertex 753.3383512751908 315.681982371464 24.1213534612212
    vertex 753.5795322300883 292.881982371464 24.02145303871657
    vertex 753.5795322300883 315.681982371464 24.02145303871657
  endloop
endfacet
facet normal 0.6087614290087748 0.0 0.7933533402911936
  outer loop
    vertex 753.3383512751908 292.881982371464 24.1213534612212
    vertex 753.1312444940042 315.681982371464 24.2802720838191
    vertex 753.1312444940042 292.881982371464 24.2802720838191
  endloop
endfacet
facet normal 0.6087614290087748 0.0 0.7933533402911936
  outer loop
    vertex 753.1312444940042 315.681982371464 24.2802720838191
    vertex 753.3383512751908 292.881982371464 24.1213534612212
    vertex 753.3383512751908 315.681982371464 24.1213534612212
  endloop
endfacet
facet normal 0.7933533402912597 0.0 0.6087614290086887
  outer loop
    vertex 753.1312444940042 315.681982371464 24.2802720838191
    vertex 752.9723258714064 292.881982371464 24.487378865005656
    vertex 753.1312444940042 292.881982371464 24.2802720838191
  endloop
endfacet
facet normal 0.7933533402912597 0.0 0.6087614290086887
  outer loop
    vertex 752.9723258714064 292.881982371464 24.487378865005656
    vertex 753.1312444940042 315.681982371464 24.2802720838191
    vertex 752.9723258714064 315.681982371464 24.487378865005656
  endloop
endfacet
facet normal 0.9238795325112656 0.0 0.3826834323651406
  outer loop
    vertex 752.9723258714064 315.681982371464 24.487378865005656
    vertex 752.8724254489017 292.881982371464 24.728559819903147
    vertex 752.9723258714064 292.881982371464 24.487378865005656
  endloop
endfacet
facet normal 0.9238795325112656 0.0 0.3826834323651406
  outer loop
    vertex 752.8724254489017 292.881982371464 24.728559819903147
    vertex 752.9723258714064 315.681982371464 24.487378865005656
    vertex 752.8724254489017 315.681982371464 24.728559819903147
  endloop
endfacet
facet normal 0.9914448613738195 0.0 0.13052619221998285
  outer loop
    vertex 752.8724254489017 315.681982371464 24.728559819903147
    vertex 752.8383512751908 292.881982371464 24.987378865005677
    vertex 752.8724254489017 292.881982371464 24.728559819903147
  endloop
endfacet
facet normal 0.9914448613738195 0.0 0.13052619221998285
  outer loop
    vertex 752.8383512751908 292.881982371464 24.987378865005677
    vertex 752.8724254489017 315.681982371464 24.728559819903147
    vertex 752.8383512751908 315.681982371464 24.987378865005677
  endloop
endfacet
facet normal 0.9914448613738197 0.0 -0.13052619221998144
  outer loop
    vertex 752.8383512751908 315.681982371464 24.987378865005677
    vertex 752.8724254489017 292.881982371464 25.24619791010821
    vertex 752.8383512751908 292.881982371464 24.987378865005677
  endloop
endfacet
facet normal 0.9914448613738197 0.0 -0.13052619221998144
  outer loop
    vertex 752.8724254489017 292.881982371464 25.24619791010821
    vertex 752.8383512751908 315.681982371464 24.987378865005677
    vertex 752.8724254489017 315.681982371464 25.24619791010821
  endloop
endfacet
facet normal 0.4016766116100652 0.0 0.9157815785903629
  outer loop
    vertex 730.6933895335127 292.881982371464 24.0270026061542
    vertex 730.4543225687953 315.681982371464 24.131861243388848
    vertex 730.4543225687953 292.881982371464 24.131861243388848
  endloop
endfacet
facet normal 0.4016766116100652 0.0 0.9157815785903629
  outer loop
    vertex 730.4543225687953 315.681982371464 24.131861243388848
    vertex 730.6933895335127 292.881982371464 24.0270026061542
    vertex 730.6933895335127 315.681982371464 24.0270026061542
  endloop
endfacet
facet normal 0.6250115266637284 0.0 0.7806155209432333
  outer loop
    vertex 730.4543225687953 292.881982371464 24.131861243388848
    vertex 730.2505410257221 315.681982371464 24.295021992726966
    vertex 730.2505410257221 292.881982371464 24.295021992726966
  endloop
endfacet
facet normal 0.6250115266637284 0.0 0.7806155209432333
  outer loop
    vertex 730.2505410257221 315.681982371464 24.295021992726966
    vertex 730.4543225687953 292.881982371464 24.131861243388848
    vertex 730.4543225687953 315.681982371464 24.131861243388848
  endloop
endfacet
facet normal 0.8057529390557383 0.0 0.5922518055717855
  outer loop
    vertex 730.2505410257221 315.681982371464 24.295021992726966
    vertex 730.0959322796887 292.881982371464 24.50536571873705
    vertex 730.2505410257221 292.881982371464 24.295021992726966
  endloop
endfacet
facet normal 0.8057529390557383 0.0 0.5922518055717855
  outer loop
    vertex 730.0959322796887 292.881982371464 24.50536571873705
    vertex 730.2505410257221 315.681982371464 24.295021992726966
    vertex 730.0959322796887 315.681982371464 24.50536571873705
  endloop
endfacet
facet normal 0.9315836202204808 0.0 0.3635271083934502
  outer loop
    vertex 730.0959322796887 315.681982371464 24.50536571873705
    vertex 730.0010326612339 292.881982371464 24.74855784410095
    vertex 730.0959322796887 292.881982371464 24.50536571873705
  endloop
endfacet
facet normal 0.9315836202204808 0.0 0.3635271083934502
  outer loop
    vertex 730.0010326612339 292.881982371464 24.74855784410095
    vertex 730.0959322796887 315.681982371464 24.50536571873705
    vertex 730.0010326612339 315.681982371464 24.74855784410095
  endloop
endfacet
facet normal 0.9939284171821144 0.0 0.11002863953469817
  outer loop
    vertex 730.0010326612339 315.681982371464 24.74855784410095
    vertex 729.9723094225267 292.881982371464 25.008025227369114
    vertex 730.0010326612339 292.881982371464 24.74855784410095
  endloop
endfacet
facet normal 0.9939284171821144 0.0 0.11002863953469817
  outer loop
    vertex 729.9723094225267 292.881982371464 25.008025227369114
    vertex 730.0010326612339 315.681982371464 24.74855784410095
    vertex 729.9723094225267 315.681982371464 25.008025227369114
  endloop
endfacet
facet normal 0.9885386350571167 0.0 -0.15096809927734045
  outer loop
    vertex 729.9723094225267 315.681982371464 25.008025227369114
    vertex 730.0117200048174 292.881982371464 25.266085595161936
    vertex 729.9723094225267 292.881982371464 25.008025227369114
  endloop
endfacet
facet normal 0.9885386350571167 0.0 -0.15096809927734045
  outer loop
    vertex 730.0117200048174 292.881982371464 25.266085595161936
    vertex 729.9723094225267 315.681982371464 25.008025227369114
    vertex 730.0117200048174 315.681982371464 25.266085595161936
  endloop
endfacet
facet normal 0.9157815785903604 0.0 -0.40167661161007107
  outer loop
    vertex 730.0117200048174 315.681982371464 25.266085595161936
    vertex 730.1165786420521 292.881982371464 25.505152559879257
    vertex 730.0117200048174 292.881982371464 25.266085595161936
  endloop
endfacet
facet normal 0.9157815785903604 0.0 -0.40167661161007107
  outer loop
    vertex 730.1165786420521 292.881982371464 25.505152559879257
    vertex 730.0117200048174 315.681982371464 25.266085595161936
    vertex 730.1165786420521 315.681982371464 25.505152559879257
  endloop
endfacet
facet normal 0.7806155209432691 0.0 -0.6250115266636838
  outer loop
    vertex 730.1165786420521 315.681982371464 25.505152559879257
    vertex 730.2797393913902 292.881982371464 25.708934102952433
    vertex 730.1165786420521 292.881982371464 25.505152559879257
  endloop
endfacet
facet normal 0.7806155209432691 0.0 -0.6250115266636838
  outer loop
    vertex 730.2797393913902 292.881982371464 25.708934102952433
    vertex 730.1165786420521 315.681982371464 25.505152559879257
    vertex 730.2797393913902 315.681982371464 25.708934102952433
  endloop
endfacet
facet normal 0.5922518055718299 0.0 -0.8057529390557054
  outer loop
    vertex 730.4900831174003 315.681982371464 25.863542848985944
    vertex 730.2797393913902 292.881982371464 25.708934102952433
    vertex 730.2797393913902 315.681982371464 25.708934102952433
  endloop
endfacet
facet normal 0.5922518055718299 0.0 -0.8057529390557054
  outer loop
    vertex 730.2797393913902 292.881982371464 25.708934102952433
    vertex 730.4900831174003 315.681982371464 25.863542848985944
    vertex 730.4900831174003 292.881982371464 25.863542848985944
  endloop
endfacet
facet normal 0.36352710839346297 0.0 -0.9315836202204757
  outer loop
    vertex 730.7332752427642 315.681982371464 25.958442467440648
    vertex 730.4900831174003 292.881982371464 25.863542848985944
    vertex 730.4900831174003 315.681982371464 25.863542848985944
  endloop
endfacet
facet normal 0.36352710839346297 0.0 -0.9315836202204757
  outer loop
    vertex 730.4900831174003 292.881982371464 25.863542848985944
    vertex 730.7332752427642 315.681982371464 25.958442467440648
    vertex 730.7332752427642 292.881982371464 25.958442467440648
  endloop
endfacet
facet normal 0.11002863953472188 0.0 -0.9939284171821119
  outer loop
    vertex 730.9927426260323 315.681982371464 25.987165706147888
    vertex 730.7332752427642 292.881982371464 25.958442467440648
    vertex 730.7332752427642 315.681982371464 25.958442467440648
  endloop
endfacet
facet normal 0.11002863953472188 0.0 -0.9939284171821119
  outer loop
    vertex 730.7332752427642 292.881982371464 25.958442467440648
    vertex 730.9927426260323 315.681982371464 25.987165706147888
    vertex 730.9927426260323 292.881982371464 25.987165706147888
  endloop
endfacet
facet normal -0.15096809927729984 -0.0 -0.9885386350571229
  outer loop
    vertex 731.2508029938251 315.681982371464 25.94775512385716
    vertex 730.9927426260323 292.881982371464 25.987165706147888
    vertex 730.9927426260323 315.681982371464 25.987165706147888
  endloop
endfacet
facet normal -0.15096809927729984 -0.0 -0.9885386350571229
  outer loop
    vertex 730.9927426260323 292.881982371464 25.987165706147888
    vertex 731.2508029938251 315.681982371464 25.94775512385716
    vertex 731.2508029938251 292.881982371464 25.94775512385716
  endloop
endfacet
facet normal -0.4016766116100742 -0.0 -0.9157815785903589
  outer loop
    vertex 731.4898699585425 315.681982371464 25.842896486622507
    vertex 731.2508029938251 292.881982371464 25.94775512385716
    vertex 731.2508029938251 315.681982371464 25.94775512385716
  endloop
endfacet
facet normal -0.4016766116100742 -0.0 -0.9157815785903589
  outer loop
    vertex 731.2508029938251 292.881982371464 25.94775512385716
    vertex 731.4898699585425 315.681982371464 25.842896486622507
    vertex 731.4898699585425 292.881982371464 25.842896486622507
  endloop
endfacet
facet normal -0.6250115266637284 -0.0 -0.7806155209432333
  outer loop
    vertex 731.6936515016157 315.681982371464 25.67973573728439
    vertex 731.4898699585425 292.881982371464 25.842896486622507
    vertex 731.4898699585425 315.681982371464 25.842896486622507
  endloop
endfacet
facet normal -0.6250115266637284 -0.0 -0.7806155209432333
  outer loop
    vertex 731.4898699585425 292.881982371464 25.842896486622507
    vertex 731.6936515016157 315.681982371464 25.67973573728439
    vertex 731.6936515016157 292.881982371464 25.67973573728439
  endloop
endfacet
facet normal -0.8057529390557383 -0.0 -0.5922518055717855
  outer loop
    vertex 731.6936515016157 315.681982371464 25.67973573728439
    vertex 731.8482602476491 292.881982371464 25.469392011274305
    vertex 731.6936515016157 292.881982371464 25.67973573728439
  endloop
endfacet
facet normal -0.8057529390557383 -0.0 -0.5922518055717855
  outer loop
    vertex 731.8482602476491 292.881982371464 25.469392011274305
    vertex 731.6936515016157 315.681982371464 25.67973573728439
    vertex 731.8482602476491 315.681982371464 25.469392011274305
  endloop
endfacet
facet normal -0.9315836202204794 -0.0 -0.36352710839345387
  outer loop
    vertex 731.8482602476491 315.681982371464 25.469392011274305
    vertex 731.9431598661039 292.881982371464 25.226199885910404
    vertex 731.8482602476491 292.881982371464 25.469392011274305
  endloop
endfacet
facet normal -0.9315836202204794 -0.0 -0.36352710839345387
  outer loop
    vertex 731.9431598661039 292.881982371464 25.226199885910404
    vertex 731.8482602476491 315.681982371464 25.469392011274305
    vertex 731.9431598661039 315.681982371464 25.226199885910404
  endloop
endfacet
facet normal -0.9939284171821144 -0.0 -0.11002863953469817
  outer loop
    vertex 731.9431598661039 315.681982371464 25.226199885910404
    vertex 731.9718831048111 292.881982371464 24.96673250264224
    vertex 731.9431598661039 292.881982371464 25.226199885910404
  endloop
endfacet
facet normal -0.9939284171821144 -0.0 -0.11002863953469817
  outer loop
    vertex 731.9718831048111 292.881982371464 24.96673250264224
    vertex 731.9431598661039 315.681982371464 25.226199885910404
    vertex 731.9718831048111 315.681982371464 24.96673250264224
  endloop
endfacet
facet normal -0.9885386350571167 0.0 0.15096809927734045
  outer loop
    vertex 731.9718831048111 315.681982371464 24.96673250264224
    vertex 731.9324725225204 292.881982371464 24.708672134849422
    vertex 731.9718831048111 292.881982371464 24.96673250264224
  endloop
endfacet
facet normal -0.9885386350571167 0.0 0.15096809927734045
  outer loop
    vertex 731.9324725225204 292.881982371464 24.708672134849422
    vertex 731.9718831048111 315.681982371464 24.96673250264224
    vertex 731.9324725225204 315.681982371464 24.708672134849422
  endloop
endfacet
facet normal -0.9157815785903604 0.0 0.40167661161007107
  outer loop
    vertex 731.9324725225204 315.681982371464 24.708672134849422
    vertex 731.8276138852857 292.881982371464 24.4696051701321
    vertex 731.9324725225204 292.881982371464 24.708672134849422
  endloop
endfacet
facet normal -0.9157815785903604 0.0 0.40167661161007107
  outer loop
    vertex 731.8276138852857 292.881982371464 24.4696051701321
    vertex 731.9324725225204 315.681982371464 24.708672134849422
    vertex 731.8276138852857 315.681982371464 24.4696051701321
  endloop
endfacet
facet normal -0.7806155209432691 0.0 0.6250115266636838
  outer loop
    vertex 731.8276138852857 315.681982371464 24.4696051701321
    vertex 731.6644531359476 292.881982371464 24.265823627058925
    vertex 731.8276138852857 292.881982371464 24.4696051701321
  endloop
endfacet
facet normal -0.7806155209432691 0.0 0.6250115266636838
  outer loop
    vertex 731.6644531359476 292.881982371464 24.265823627058925
    vertex 731.8276138852857 315.681982371464 24.4696051701321
    vertex 731.6644531359476 315.681982371464 24.265823627058925
  endloop
endfacet
facet normal -0.5922518055718369 0.0 0.8057529390557002
  outer loop
    vertex 731.6644531359476 292.881982371464 24.265823627058925
    vertex 731.4541094099375 315.681982371464 24.11121488102541
    vertex 731.4541094099375 292.881982371464 24.11121488102541
  endloop
endfacet
facet normal -0.5922518055718369 0.0 0.8057529390557002
  outer loop
    vertex 731.4541094099375 315.681982371464 24.11121488102541
    vertex 731.6644531359476 292.881982371464 24.265823627058925
    vertex 731.6644531359476 315.681982371464 24.265823627058925
  endloop
endfacet
facet normal -0.3635271083934536 0.0 0.9315836202204794
  outer loop
    vertex 731.4541094099375 292.881982371464 24.11121488102541
    vertex 731.2109172845736 315.681982371464 24.016315262570707
    vertex 731.2109172845736 292.881982371464 24.016315262570707
  endloop
endfacet
facet normal -0.3635271083934536 0.0 0.9315836202204794
  outer loop
    vertex 731.2109172845736 315.681982371464 24.016315262570707
    vertex 731.4541094099375 292.881982371464 24.11121488102541
    vertex 731.4541094099375 315.681982371464 24.11121488102541
  endloop
endfacet
facet normal -0.11002863953472188 0.0 0.9939284171821119
  outer loop
    vertex 731.2109172845736 292.881982371464 24.016315262570707
    vertex 730.9514499013055 315.681982371464 23.98759202386347
    vertex 730.9514499013055 292.881982371464 23.98759202386347
  endloop
endfacet
facet normal -0.11002863953472188 0.0 0.9939284171821119
  outer loop
    vertex 730.9514499013055 315.681982371464 23.98759202386347
    vertex 731.2109172845736 292.881982371464 24.016315262570707
    vertex 731.2109172845736 315.681982371464 24.016315262570707
  endloop
endfacet
facet normal 0.15096809927729984 0.0 0.9885386350571229
  outer loop
    vertex 730.9514499013055 292.881982371464 23.98759202386347
    vertex 730.6933895335127 315.681982371464 24.0270026061542
    vertex 730.6933895335127 292.881982371464 24.0270026061542
  endloop
endfacet
facet normal 0.15096809927729984 0.0 0.9885386350571229
  outer loop
    vertex 730.6933895335127 315.681982371464 24.0270026061542
    vertex 730.9514499013055 292.881982371464 23.98759202386347
    vertex 730.9514499013055 315.681982371464 23.98759202386347
  endloop
endfacet
endsolid Werkbank fan 03
