solid Werkbank fan 02
facet normal 0.8328431503860779 0.1264482940458835 -0.5388720773874619
  outer loop
    vertex 541.1284070230829 296.881982371464 6.286992754603916
    vertex 542.2391875862486 289.881982371464 6.361162352492749
    vertex 541.9413820955566 289.881982371464 5.900894928222736
  endloop
endfacet
facet normal 0.8328431503860779 0.1264482940458835 -0.5388720773874619
  outer loop
    vertex 542.2391875862486 289.881982371464 6.361162352492749
    vertex 541.1284070230829 296.881982371464 6.286992754603916
    vertex 541.553843438357 296.881982371464 6.944517646418211
  endloop
endfacet
facet normal 0.0 0.0 -1.0
  outer loop
    vertex 570.8383239313288 296.881982371464 -5.639932965095795e-15
    vertex 518.8383239313288 289.881982371464 -5.639932965095795e-15
    vertex 518.8383239313288 296.881982371464 -5.639932965095795e-15
  endloop
endfacet
facet normal 0.0 0.0 -1.0
  outer loop
    vertex 518.8383239313288 289.881982371464 -5.639932965095795e-15
    vertex 570.8383239313288 296.881982371464 -5.639932965095795e-15
    vertex 570.8383239313288 289.881982371464 -5.639932965095795e-15
  endloop
endfacet
facet normal 0.6649943517040439 0.1264482940458851 -0.7360661255176765
  outer loop
    vertex 542.1349634239448 296.881982371464 7.469526874096446
    vertex 542.2391875862486 289.881982371464 6.361162352492749
    vertex 541.553843438357 296.881982371464 6.944517646418211
  endloop
endfacet
facet normal 0.6649943517040439 0.1264482940458851 -0.7360661255176765
  outer loop
    vertex 542.2391875862486 289.881982371464 6.361162352492749
    vertex 542.1349634239448 296.881982371464 7.469526874096446
    vertex 542.6459715761599 289.881982371464 6.728668811867529
  endloop
endfacet
facet normal -0.6649943517040455 0.12644829404588512 0.736066125517675
  outer loop
    vertex 545.4374602764088 289.881982371464 3.6388376475072333
    vertex 545.5416844387127 296.881982371464 2.5304731259035353
    vertex 545.0306762864975 289.881982371464 3.2713311881324647
  endloop
endfacet
facet normal -0.6649943517040455 0.12644829404588512 0.736066125517675
  outer loop
    vertex 545.5416844387127 296.881982371464 2.5304731259035353
    vertex 545.4374602764088 289.881982371464 3.6388376475072333
    vertex 546.1228044243004 296.881982371464 3.0554823535817826
  endloop
endfacet
facet normal 0.7360661255176896 0.12644829404588212 0.66499435170403
  outer loop
    vertex 541.8938062849106 296.881982371464 2.7155195070283016
    vertex 542.1096551194612 289.881982371464 3.807647644831201
    vertex 542.4771615788359 289.881982371464 3.400863654919802
  endloop
endfacet
facet normal 0.7360661255176896 0.12644829404588212 0.66499435170403
  outer loop
    vertex 542.1096551194612 289.881982371464 3.807647644831201
    vertex 541.8938062849106 296.881982371464 2.7155195070283016
    vertex 541.3687970572323 296.881982371464 3.296639492616024
  endloop
endfacet
facet normal -0.2078689391899997 0.12644829404588587 0.9699491394155209
  outer loop
    vertex 544.5426354540368 289.881982371464 3.0216306515261806
    vertex 544.0787139654782 296.881982371464 2.009646738012104
    vertex 544.0065969552332 289.881982371464 2.9067527166084504
  endloop
endfacet
facet normal -0.2078689391899997 0.12644829404588587 0.9699491394155209
  outer loop
    vertex 544.0787139654782 296.881982371464 2.009646738012104
    vertex 544.5426354540368 289.881982371464 3.0216306515261806
    vertex 544.8444832494831 296.881982371464 2.1737580736088487
  endloop
endfacet
facet normal -0.9699491394155165 0.12644829404588384 -0.2078689391900211
  outer loop
    vertex 546.6645658577198 296.881982371464 6.00615931815437
    vertex 545.9315712147203 289.881982371464 5.168273023904606
    vertex 545.8166932798026 289.881982371464 5.7043115227080605
  endloop
endfacet
facet normal -0.9699491394155165 0.12644829404588384 -0.2078689391900211
  outer loop
    vertex 545.9315712147203 289.881982371464 5.168273023904606
    vertex 546.6645658577198 296.881982371464 6.00615931815437
    vertex 546.8286771933167 296.881982371464 5.240390034149436
  endloop
endfacet
facet normal 0.0 0.0 1.0
  outer loop
    vertex 570.8383239313288 289.881982371464 49.99999999999999
    vertex 518.8383239313288 296.881982371464 49.99999999999999
    vertex 518.8383239313288 289.881982371464 49.99999999999999
  endloop
endfacet
facet normal 0.0 0.0 1.0
  outer loop
    vertex 518.8383239313288 296.881982371464 49.99999999999999
    vertex 570.8383239313288 289.881982371464 49.99999999999999
    vertex 570.8383239313288 296.881982371464 49.99999999999999
  endloop
endfacet
facet normal 0.9699491394155161 0.126448294045884 0.20786893919002325
  outer loop
    vertex 541.0120820049376 296.881982371464 3.9938406818456236
    vertex 541.7450766479371 289.881982371464 4.8317269760953865
    vertex 541.8599545828549 289.881982371464 4.295688477291932
  endloop
endfacet
facet normal 0.9699491394155161 0.126448294045884 0.20786893919002325
  outer loop
    vertex 541.7450766479371 289.881982371464 4.8317269760953865
    vertex 541.0120820049376 296.881982371464 3.9938406818456236
    vertex 540.8479706693408 296.881982371464 4.759609965850546
  endloop
endfacet
facet normal -0.832843150386078 0.12644829404588262 0.5388720773874621
  outer loop
    vertex 546.5482408395746 296.881982371464 3.7130072453960765
    vertex 545.4374602764088 289.881982371464 3.6388376475072333
    vertex 545.7352657671008 289.881982371464 4.099105071777246
  endloop
endfacet
facet normal -0.832843150386078 0.12644829404588262 0.5388720773874621
  outer loop
    vertex 545.4374602764088 289.881982371464 3.6388376475072333
    vertex 546.5482408395746 296.881982371464 3.7130072453960765
    vertex 546.1228044243004 296.881982371464 3.0554823535817826
  endloop
endfacet
facet normal 0.9439350647076925 0.1264482940458866 -0.3049547877115059
  outer loop
    vertex 540.8876469667562 296.881982371464 5.54176143341945
    vertex 541.9413820955566 289.881982371464 5.900894928222736
    vertex 541.7728500561279 289.881982371464 5.379233003393618
  endloop
endfacet
facet normal 0.9439350647076925 0.1264482940458866 -0.3049547877115059
  outer loop
    vertex 541.9413820955566 289.881982371464 5.900894928222736
    vertex 540.8876469667562 296.881982371464 5.54176143341945
    vertex 541.1284070230829 296.881982371464 6.286992754603916
  endloop
endfacet
facet normal 0.9906993642959377 0.12644829404588576 -0.05025533321459858
  outer loop
    vertex 540.8479706693408 296.881982371464 4.759609965850546
    vertex 541.7728500561279 289.881982371464 5.379233003393618
    vertex 541.7450766479371 289.881982371464 4.8317269760953865
  endloop
endfacet
facet normal 0.9906993642959377 0.12644829404588576 -0.05025533321459858
  outer loop
    vertex 541.7728500561279 289.881982371464 5.379233003393618
    vertex 540.8479706693408 296.881982371464 4.759609965850546
    vertex 540.8876469667562 296.881982371464 5.54176143341945
  endloop
endfacet
facet normal -0.050255333214597755 0.12644829404588667 -0.9906993642959375
  outer loop
    vertex 544.3800853647482 296.881982371464 7.950676964572583
    vertex 543.6700509074242 289.881982371464 7.093247283391531
    vertex 543.5979338971792 296.881982371464 7.990353261987889
  endloop
endfacet
facet normal -0.050255333214597755 0.12644829404588667 -0.9906993642959375
  outer loop
    vertex 543.6700509074242 289.881982371464 7.093247283391531
    vertex 544.3800853647482 296.881982371464 7.950676964572583
    vertex 544.2175569347223 289.881982371464 7.065473875200813
  endloop
endfacet
facet normal 0.4518272869084963 0.12644829404588667 -0.8830984836006641
  outer loop
    vertex 542.8321646131743 296.881982371464 7.826241926391145
    vertex 542.6459715761599 289.881982371464 6.728668811867529
    vertex 542.1349634239448 296.881982371464 7.469526874096446
  endloop
endfacet
facet normal 0.4518272869084963 0.12644829404588667 -0.8830984836006641
  outer loop
    vertex 542.6459715761599 289.881982371464 6.728668811867529
    vertex 542.8321646131743 296.881982371464 7.826241926391145
    vertex 543.1340124086206 289.881982371464 6.978369348473812
  endloop
endfacet
facet normal 0.20786893918999305 0.1264482940458866 -0.9699491394155221
  outer loop
    vertex 543.5979338971792 296.881982371464 7.990353261987889
    vertex 543.1340124086206 289.881982371464 6.978369348473812
    vertex 542.8321646131743 296.881982371464 7.826241926391145
  endloop
endfacet
facet normal 0.20786893918999305 0.1264482940458866 -0.9699491394155221
  outer loop
    vertex 543.1340124086206 289.881982371464 6.978369348473812
    vertex 543.5979338971792 296.881982371464 7.990353261987889
    vertex 543.6700509074242 289.881982371464 7.093247283391531
  endloop
endfacet
facet normal -0.736066125517685 0.12644829404588268 -0.6649943517040349
  outer loop
    vertex 545.7828415777469 296.881982371464 7.28448049297168
    vertex 545.5669927431962 289.881982371464 6.192352355168781
    vertex 545.1994862838216 289.881982371464 6.599136345080179
  endloop
endfacet
facet normal -0.736066125517685 0.12644829404588268 -0.6649943517040349
  outer loop
    vertex 545.5669927431962 289.881982371464 6.192352355168781
    vertex 545.7828415777469 296.881982371464 7.28448049297168
    vertex 546.3078508054252 296.881982371464 6.7033605073839695
  endloop
endfacet
facet normal -0.9861196875000949 0.12644829404588287 -0.10760479012386574
  outer loop
    vertex 546.7526306494093 296.881982371464 45.71191035457423
    vertex 545.9378059893527 289.881982371464 44.95336216090345
    vertex 545.8783386339852 289.881982371464 45.498337248201956
  endloop
endfacet
facet normal -0.9861196875000949 0.12644829404588287 -0.10760479012386574
  outer loop
    vertex 545.9378059893527 289.881982371464 44.95336216090345
    vertex 546.7526306494093 296.881982371464 45.71191035457423
    vertex 546.8375840142202 296.881982371464 44.93337451557636
  endloop
endfacet
facet normal -0.3591648016885453 0.12644829404588892 0.9246683049401622
  outer loop
    vertex 544.8476754069055 289.881982371464 43.15847628341336
    vertex 544.550234285903 296.881982371464 42.08569328191933
    vertex 544.3366611795307 289.881982371464 42.95998529734354
  endloop
endfacet
facet normal -0.3591648016885453 0.12644829404588892 0.9246683049401622
  outer loop
    vertex 544.550234285903 296.881982371464 42.08569328191933
    vertex 544.8476754069055 289.881982371464 43.15847628341336
    vertex 545.2802546107241 296.881982371464 42.36925183344765
  endloop
endfacet
facet normal 0.9078070956089663 0.12644829404588628 -0.3998713619339324
  outer loop
    vertex 540.9585051017642 296.881982371464 45.840620906761835
    vertex 542.0434380538387 289.881982371464 46.09013058244718
    vertex 541.8224507506335 289.881982371464 45.58843463473327
  endloop
endfacet
facet normal 0.9078070956089663 0.12644829404588628 -0.3998713619339324
  outer loop
    vertex 542.0434380538387 289.881982371464 46.09013058244718
    vertex 540.9585051017642 296.881982371464 45.840620906761835
    vertex 541.2742012492 296.881982371464 46.557329403495956
  endloop
endfacet
facet normal 0.5388720773874458 0.12644829404588465 0.832843150386088
  outer loop
    vertex 542.4771615788359 289.881982371464 3.400863654919802
    vertex 542.5513311767248 296.881982371464 2.290083091754096
    vertex 541.8938062849106 296.881982371464 2.7155195070283016
  endloop
endfacet
facet normal 0.5388720773874458 0.12644829404588465 0.832843150386088
  outer loop
    vertex 542.5513311767248 296.881982371464 2.290083091754096
    vertex 542.4771615788359 289.881982371464 3.400863654919802
    vertex 542.9374290031061 289.881982371464 3.103058164227855
  endloop
endfacet
facet normal 0.5862483255661204 0.1264482940458841 -0.8002023054851853
  outer loop
    vertex 542.3963932519334 296.881982371464 47.63074816655231
    vertex 542.3867438634055 289.881982371464 46.517535932493246
    vertex 541.76463812001 296.881982371464 47.167908474990355
  endloop
endfacet
facet normal 0.5862483255661204 0.1264482940458841 -0.8002023054851853
  outer loop
    vertex 542.3867438634055 289.881982371464 46.517535932493246
    vertex 542.3963932519334 296.881982371464 47.63074816655231
    vertex 542.8289724557519 289.881982371464 46.84152371658663
  endloop
endfacet
facet normal 0.30495478771150314 0.12644829404588628 0.9439350647076933
  outer loop
    vertex 542.9374290031061 289.881982371464 3.103058164227855
    vertex 543.2965624979093 296.881982371464 2.0493230354274092
    vertex 542.5513311767248 296.881982371464 2.290083091754096
  endloop
endfacet
facet normal 0.30495478771150314 0.12644829404588628 0.9439350647076933
  outer loop
    vertex 543.2965624979093 296.881982371464 2.0493230354274092
    vertex 542.9374290031061 289.881982371464 3.103058164227855
    vertex 543.4590909279351 289.881982371464 2.9345261247991687
  endloop
endfacet
facet normal -0.3998713619340191 0.12644829404589022 -0.9078070956089278
  outer loop
    vertex 544.6789448380906 296.881982371464 47.879818829564606
    vertex 544.9284545137758 289.881982371464 46.794885877490074
    vertex 544.4267585660621 289.881982371464 47.01587318069522
  endloop
endfacet
facet normal -0.3998713619340191 0.12644829404589022 -0.9078070956089278
  outer loop
    vertex 544.9284545137758 289.881982371464 46.794885877490074
    vertex 544.6789448380906 296.881982371464 47.879818829564606
    vertex 545.3956533348247 296.881982371464 47.56412268212869
  endloop
endfacet
facet normal -0.5388720773874575 0.12644829404588465 -0.8328431503860806
  outer loop
    vertex 545.1253166859326 296.881982371464 7.709916908245897
    vertex 545.1994862838216 289.881982371464 6.599136345080179
    vertex 544.7392188595514 289.881982371464 6.896941835772138
  endloop
endfacet
facet normal -0.5388720773874575 0.12644829404588465 -0.8328431503860806
  outer loop
    vertex 545.1994862838216 289.881982371464 6.599136345080179
    vertex 545.1253166859326 296.881982371464 7.709916908245897
    vertex 545.7828415777469 296.881982371464 7.28448049297168
  endloop
endfacet
facet normal 0.7733799948775709 0.12644829404588812 -0.6212038413081917
  outer loop
    vertex 541.2742012492 296.881982371464 46.557329403495956
    vertex 542.3867438634055 289.881982371464 46.517535932493246
    vertex 542.0434380538387 289.881982371464 46.09013058244718
  endloop
endfacet
facet normal 0.7733799948775709 0.12644829404588812 -0.6212038413081917
  outer loop
    vertex 542.3867438634055 289.881982371464 46.517535932493246
    vertex 541.2742012492 296.881982371464 46.557329403495956
    vertex 541.76463812001 296.881982371464 47.167908474990355
  endloop
endfacet
facet normal -0.6212038413082058 0.12644829404588886 -0.7733799948775595
  outer loop
    vertex 545.3956533348247 296.881982371464 47.56412268212869
    vertex 545.3558598638219 289.881982371464 46.45158006792315
    vertex 544.9284545137758 289.881982371464 46.794885877490074
  endloop
endfacet
facet normal -0.6212038413082058 0.12644829404588886 -0.7733799948775595
  outer loop
    vertex 545.3558598638219 289.881982371464 46.45158006792315
    vertex 545.3956533348247 296.881982371464 47.56412268212869
    vertex 546.0062324063191 296.881982371464 47.07368581131879
  endloop
endfacet
facet normal -0.9246683049401815 0.12644829404588154 -0.35916480168849774
  outer loop
    vertex 546.469072097881 296.881982371464 46.44193067939537
    vertex 545.8783386339852 289.881982371464 45.498337248201956
    vertex 545.6798476479154 289.881982371464 46.00935147557676
  endloop
endfacet
facet normal -0.9246683049401815 0.12644829404588154 -0.35916480168849774
  outer loop
    vertex 545.8783386339852 289.881982371464 45.498337248201956
    vertex 546.469072097881 296.881982371464 46.44193067939537
    vertex 546.7526306494093 296.881982371464 45.71191035457423
  endloop
endfacet
facet normal -0.5862483255661328 0.12644829404588534 0.800202305485176
  outer loop
    vertex 545.2899039992519 289.881982371464 43.48246406750674
    vertex 545.2802546107241 296.881982371464 42.36925183344765
    vertex 544.8476754069055 289.881982371464 43.15847628341336
  endloop
endfacet
facet normal -0.5862483255661328 0.12644829404588534 0.800202305485176
  outer loop
    vertex 545.2802546107241 296.881982371464 42.36925183344765
    vertex 545.2899039992519 289.881982371464 43.48246406750674
    vertex 545.9120097426476 296.881982371464 42.83209152500962
  endloop
endfacet
facet normal 0.9803686429967263 0.12644829404588356 -0.15128831006275228
  outer loop
    vertex 540.8390638484374 296.881982371464 45.0666254844236
    vertex 541.8224507506335 289.881982371464 45.58843463473327
    vertex 541.7388418733048 289.881982371464 45.04663783909653
  endloop
endfacet
facet normal 0.9803686429967263 0.12644829404588356 -0.15128831006275228
  outer loop
    vertex 541.8224507506335 289.881982371464 45.58843463473327
    vertex 540.8390638484374 296.881982371464 45.0666254844236
    vertex 540.9585051017642 296.881982371464 45.840620906761835
  endloop
endfacet
facet normal -0.8830984836006752 0.12644829404588417 -0.45182728690847507
  outer loop
    vertex 546.3078508054252 296.881982371464 6.7033605073839695
    vertex 545.8166932798026 289.881982371464 5.7043115227080605
    vertex 545.5669927431962 289.881982371464 6.192352355168781
  endloop
endfacet
facet normal -0.8830984836006752 0.12644829404588417 -0.45182728690847507
  outer loop
    vertex 545.8166932798026 289.881982371464 5.7043115227080605
    vertex 546.3078508054252 296.881982371464 6.7033605073839695
    vertex 546.6645658577198 296.881982371464 6.00615931815437
  endloop
endfacet
facet normal -0.8002023054851423 0.1264482940458856 -0.5862483255661789
  outer loop
    vertex 546.0062324063191 296.881982371464 47.07368581131879
    vertex 545.6798476479154 289.881982371464 46.00935147557676
    vertex 545.3558598638219 289.881982371464 46.45158006792315
  endloop
endfacet
facet normal -0.8002023054851423 0.1264482940458856 -0.5862483255661789
  outer loop
    vertex 545.6798476479154 289.881982371464 46.00935147557676
    vertex 546.0062324063191 296.881982371464 47.07368581131879
    vertex 546.469072097881 296.881982371464 46.44193067939537
  endloop
endfacet
facet normal -0.9803686429967261 0.12644829404588356 0.1512883100627532
  outer loop
    vertex 546.8375840142202 296.881982371464 44.93337451557636
    vertex 545.8541971120239 289.881982371464 44.41156536526669
    vertex 545.9378059893527 289.881982371464 44.95336216090345
  endloop
endfacet
facet normal -0.9803686429967261 0.12644829404588356 0.1512883100627532
  outer loop
    vertex 545.8541971120239 289.881982371464 44.41156536526669
    vertex 546.8375840142202 296.881982371464 44.93337451557636
    vertex 546.7181427608933 296.881982371464 44.159379093238144
  endloop
endfacet
facet normal -0.4518272869084885 0.12644829404588737 0.8830984836006679
  outer loop
    vertex 545.0306762864975 289.881982371464 3.2713311881324647
    vertex 544.8444832494831 296.881982371464 2.1737580736088487
    vertex 544.5426354540368 289.881982371464 3.0216306515261806
  endloop
endfacet
facet normal -0.4518272869084885 0.12644829404588737 0.8830984836006679
  outer loop
    vertex 544.8444832494831 296.881982371464 2.1737580736088487
    vertex 545.0306762864975 289.881982371464 3.2713311881324647
    vertex 545.5416844387127 296.881982371464 2.5304731259035353
  endloop
endfacet
facet normal 0.15128831006260662 0.1264482940458874 0.9803686429967483
  outer loop
    vertex 543.2498892965955 289.881982371464 42.984126819304755
    vertex 543.7716984469051 296.881982371464 42.00073991710866
    vertex 542.9977030245668 296.881982371464 42.12018117043537
  endloop
endfacet
facet normal 0.15128831006260662 0.1264482940458874 0.9803686429967483
  outer loop
    vertex 543.7716984469051 296.881982371464 42.00073991710866
    vertex 543.2498892965955 289.881982371464 42.984126819304755
    vertex 543.7916860922322 289.881982371464 42.90051794197604
  endloop
endfacet
facet normal -0.9906993642959375 0.12644829404588576 0.05025533321459898
  outer loop
    vertex 546.8286771933167 296.881982371464 5.240390034149436
    vertex 545.9037978065296 289.881982371464 4.620766996606375
    vertex 545.9315712147203 289.881982371464 5.168273023904606
  endloop
endfacet
facet normal -0.9906993642959375 0.12644829404588576 0.05025533321459898
  outer loop
    vertex 545.9037978065296 289.881982371464 4.620766996606375
    vertex 546.8286771933167 296.881982371464 5.240390034149436
    vertex 546.7890008959013 296.881982371464 4.458238566580543
  endloop
endfacet
facet normal -0.3049547877114971 0.12644829404588703 -0.9439350647076951
  outer loop
    vertex 544.3800853647482 296.881982371464 7.950676964572583
    vertex 544.7392188595514 289.881982371464 6.896941835772138
    vertex 544.2175569347223 289.881982371464 7.065473875200813
  endloop
endfacet
facet normal -0.3049547877114971 0.12644829404588703 -0.9439350647076951
  outer loop
    vertex 544.7392188595514 289.881982371464 6.896941835772138
    vertex 544.3800853647482 296.881982371464 7.950676964572583
    vertex 545.1253166859326 296.881982371464 7.709916908245897
  endloop
endfacet
facet normal -0.15128831006259344 0.12644829404588892 -0.98036864299675
  outer loop
    vertex 543.9049494157524 296.881982371464 47.999260082891325
    vertex 544.4267585660621 289.881982371464 47.01587318069522
    vertex 543.8849617704252 289.881982371464 47.099482058023916
  endloop
endfacet
facet normal -0.15128831006259344 0.12644829404588892 -0.98036864299675
  outer loop
    vertex 544.4267585660621 289.881982371464 47.01587318069522
    vertex 543.9049494157524 296.881982371464 47.999260082891325
    vertex 544.6789448380906 296.881982371464 47.879818829564606
  endloop
endfacet
facet normal 0.8830984836006768 0.1264482940458838 0.4518272869084724
  outer loop
    vertex 541.3687970572323 296.881982371464 3.296639492616024
    vertex 541.8599545828549 289.881982371464 4.295688477291932
    vertex 542.1096551194612 289.881982371464 3.807647644831201
  endloop
endfacet
facet normal 0.8830984836006768 0.1264482940458838 0.4518272869084724
  outer loop
    vertex 541.8599545828549 289.881982371464 4.295688477291932
    vertex 541.3687970572323 296.881982371464 3.296639492616024
    vertex 541.0120820049376 296.881982371464 3.9938406818456236
  endloop
endfacet
facet normal -0.9078070956089621 0.1264482940458863 0.3998713619339423
  outer loop
    vertex 546.7181427608933 296.881982371464 44.159379093238144
    vertex 545.6332098088188 289.881982371464 43.90986941755282
    vertex 545.8541971120239 289.881982371464 44.41156536526669
  endloop
endfacet
facet normal -0.9078070956089621 0.1264482940458863 0.3998713619339423
  outer loop
    vertex 545.6332098088188 289.881982371464 43.90986941755282
    vertex 546.7181427608933 296.881982371464 44.159379093238144
    vertex 546.4024466134574 296.881982371464 43.44267059650403
  endloop
endfacet
facet normal 0.35916480168854537 0.12644829404588598 -0.9246683049401625
  outer loop
    vertex 543.1264135767544 296.881982371464 47.914306718080624
    vertex 542.8289724557519 289.881982371464 46.84152371658663
    vertex 542.3963932519334 296.881982371464 47.63074816655231
  endloop
endfacet
facet normal 0.35916480168854537 0.12644829404588598 -0.9246683049401625
  outer loop
    vertex 542.8289724557519 289.881982371464 46.84152371658663
    vertex 543.1264135767544 296.881982371464 47.914306718080624
    vertex 543.3399866831268 289.881982371464 47.040014702656435
  endloop
endfacet
facet normal -0.9439350647076931 0.1264482940458863 0.3049547877115036
  outer loop
    vertex 546.7890008959013 296.881982371464 4.458238566580543
    vertex 545.7352657671008 289.881982371464 4.099105071777246
    vertex 545.9037978065296 289.881982371464 4.620766996606375
  endloop
endfacet
facet normal -0.9439350647076931 0.1264482940458863 0.3049547877115036
  outer loop
    vertex 545.7352657671008 289.881982371464 4.099105071777246
    vertex 546.7890008959013 296.881982371464 4.458238566580543
    vertex 546.5482408395746 296.881982371464 3.7130072453960765
  endloop
endfacet
facet normal -0.7733799948775759 0.12644829404588914 0.6212038413081853
  outer loop
    vertex 546.4024466134574 296.881982371464 43.44267059650403
    vertex 545.2899039992519 289.881982371464 43.48246406750674
    vertex 545.6332098088188 289.881982371464 43.90986941755282
  endloop
endfacet
facet normal -0.7733799948775759 0.12644829404588914 0.6212038413081853
  outer loop
    vertex 545.2899039992519 289.881982371464 43.48246406750674
    vertex 546.4024466134574 296.881982371464 43.44267059650403
    vertex 545.9120097426476 296.881982371464 42.83209152500962
  endloop
endfacet
facet normal 0.10760479012377387 0.12644829404588773 -0.9861196875001043
  outer loop
    vertex 543.9049494157524 296.881982371464 47.999260082891325
    vertex 543.3399866831268 289.881982371464 47.040014702656435
    vertex 543.1264135767544 296.881982371464 47.914306718080624
  endloop
endfacet
facet normal 0.10760479012377387 0.12644829404588773 -0.9861196875001043
  outer loop
    vertex 543.3399866831268 289.881982371464 47.040014702656435
    vertex 543.9049494157524 296.881982371464 47.999260082891325
    vertex 543.8849617704252 289.881982371464 47.099482058023916
  endloop
endfacet
facet normal 0.8002023054851602 0.1264482940458865 0.586248325566154
  outer loop
    vertex 541.6704154563384 296.881982371464 42.92631418868117
    vertex 541.996800214742 289.881982371464 43.99064852442325
    vertex 542.3207879988355 289.881982371464 43.54841993207683
  endloop
endfacet
facet normal 0.8002023054851602 0.1264482940458865 0.586248325566154
  outer loop
    vertex 541.996800214742 289.881982371464 43.99064852442325
    vertex 541.6704154563384 296.881982371464 42.92631418868117
    vertex 541.2075757647764 296.881982371464 43.55806932060464
  endloop
endfacet
facet normal -0.10760479012376818 0.12644829404588773 0.9861196875001049
  outer loop
    vertex 543.7916860922322 289.881982371464 42.90051794197604
    vertex 544.550234285903 296.881982371464 42.08569328191933
    vertex 543.7716984469051 296.881982371464 42.00073991710866
  endloop
endfacet
facet normal -0.10760479012376818 0.12644829404588773 0.9861196875001049
  outer loop
    vertex 544.550234285903 296.881982371464 42.08569328191933
    vertex 543.7916860922322 289.881982371464 42.90051794197604
    vertex 544.3366611795307 289.881982371464 42.95998529734354
  endloop
endfacet
facet normal 0.0502553332145978 0.12644829404588506 0.9906993642959377
  outer loop
    vertex 543.4590909279351 289.881982371464 2.9345261247991687
    vertex 544.0787139654782 296.881982371464 2.009646738012104
    vertex 543.2965624979093 296.881982371464 2.0493230354274092
  endloop
endfacet
facet normal 0.0502553332145978 0.12644829404588506 0.9906993642959377
  outer loop
    vertex 544.0787139654782 296.881982371464 2.009646738012104
    vertex 543.4590909279351 289.881982371464 2.9345261247991687
    vertex 544.0065969552332 289.881982371464 2.9067527166084504
  endloop
endfacet
facet normal 0.39987136193400297 0.1264482940458917 0.9078070956089346
  outer loop
    vertex 542.7481933488816 289.881982371464 43.205114122509904
    vertex 542.9977030245668 296.881982371464 42.12018117043537
    vertex 542.2809945278328 296.881982371464 42.435877317871274
  endloop
endfacet
facet normal 0.39987136193400297 0.1264482940458917 0.9078070956089346
  outer loop
    vertex 542.9977030245668 296.881982371464 42.12018117043537
    vertex 542.7481933488816 289.881982371464 43.205114122509904
    vertex 543.2498892965955 289.881982371464 42.984126819304755
  endloop
endfacet
facet normal 0.6212038413082057 0.12644829404589134 0.7733799948775592
  outer loop
    vertex 542.3207879988355 289.881982371464 43.54841993207683
    vertex 542.2809945278328 296.881982371464 42.435877317871274
    vertex 541.6704154563384 296.881982371464 42.92631418868117
  endloop
endfacet
facet normal 0.6212038413082057 0.12644829404589134 0.7733799948775592
  outer loop
    vertex 542.2809945278328 296.881982371464 42.435877317871274
    vertex 542.3207879988355 289.881982371464 43.54841993207683
    vertex 542.7481933488816 289.881982371464 43.205114122509904
  endloop
endfacet
facet normal 0.9246683049401773 0.12644829404588157 0.3591648016885088
  outer loop
    vertex 541.2075757647764 296.881982371464 43.55806932060464
    vertex 541.7983092286722 289.881982371464 44.50166275179802
    vertex 541.996800214742 289.881982371464 43.99064852442325
  endloop
endfacet
facet normal 0.9246683049401773 0.12644829404588157 0.3591648016885088
  outer loop
    vertex 541.7983092286722 289.881982371464 44.50166275179802
    vertex 541.2075757647764 296.881982371464 43.55806932060464
    vertex 540.9240172132481 296.881982371464 44.28808964542575
  endloop
endfacet
facet normal 0.9861196875000947 0.12644829404588304 0.10760479012386777
  outer loop
    vertex 540.9240172132481 296.881982371464 44.28808964542575
    vertex 541.7388418733048 289.881982371464 45.04663783909653
    vertex 541.7983092286722 289.881982371464 44.50166275179802
  endloop
endfacet
facet normal 0.9861196875000947 0.12644829404588304 0.10760479012386777
  outer loop
    vertex 541.7388418733048 289.881982371464 45.04663783909653
    vertex 540.9240172132481 296.881982371464 44.28808964542575
    vertex 540.8390638484374 296.881982371464 45.0666254844236
  endloop
endfacet
facet normal 0.09950371902099896 -2.1449751001947714e-16 -0.9950371902099893
  outer loop
    vertex 520.5048408412858 296.881982371464 33.15667656677152
    vertex 518.8383239313288 294.881982371464 32.990024875775816
    vertex 518.8383239313288 296.881982371464 32.990024875775816
  endloop
endfacet
facet normal 0.09950371902099896 -2.1449751001947714e-16 -0.9950371902099893
  outer loop
    vertex 518.8383239313288 294.881982371464 32.990024875775816
    vertex 520.5048408412858 296.881982371464 33.15667656677152
    vertex 568.8383239313288 294.881982371464 37.990024875775816
  endloop
endfacet
facet normal 0.09950371902099896 -2.1449751001947714e-16 -0.9950371902099893
  outer loop
    vertex 568.8383239313288 294.881982371464 37.990024875775816
    vertex 520.5048408412858 296.881982371464 33.15667656677152
    vertex 566.3777545988033 296.881982371464 37.743967942523284
  endloop
endfacet
facet normal 0.09950371902099896 -2.1449751001947714e-16 -0.9950371902099893
  outer loop
    vertex 568.8383239313288 294.881982371464 37.990024875775816
    vertex 566.3777545988033 296.881982371464 37.743967942523284
    vertex 568.8383239313288 296.881982371464 37.990024875775816
  endloop
endfacet
facet normal 0.0 -1.0 0.0
  outer loop
    vertex 570.8383239313288 294.881982371464 10.509975124224166
    vertex 568.8383239313288 294.881982371464 9.999999999999993
    vertex 570.8383239313288 294.881982371464 9.999999999999993
  endloop
endfacet
facet normal 0.0 -1.0 0.0
  outer loop
    vertex 568.8383239313288 294.881982371464 9.999999999999993
    vertex 570.8383239313288 294.881982371464 10.509975124224166
    vertex 567.8383239313287 294.881982371464 10.099999999999998
  endloop
endfacet
facet normal 0.0 -1.0 0.0
  outer loop
    vertex 567.8383239313287 294.881982371464 10.099999999999998
    vertex 570.8383239313288 294.881982371464 10.509975124224166
    vertex 567.8383239313287 294.881982371464 10.299999999999997
  endloop
endfacet
facet normal 0.0 -1.0 0.0
  outer loop
    vertex 567.8383239313287 294.881982371464 10.299999999999997
    vertex 570.8383239313288 294.881982371464 10.509975124224166
    vertex 567.8383239313287 294.881982371464 10.509975124224166
  endloop
endfacet
facet normal 0.09950371902099897 2.0184361577361817e-16 0.9950371902099893
  outer loop
    vertex 565.8383239313287 292.881982371464 10.299999999999999
    vertex 518.8383239313288 294.881982371464 14.999999999999995
    vertex 518.8383239313288 292.881982371464 14.999999999999995
  endloop
endfacet
facet normal 0.09950371902099897 2.0184361577361817e-16 0.9950371902099893
  outer loop
    vertex 518.8383239313288 294.881982371464 14.999999999999995
    vertex 565.8383239313287 292.881982371464 10.299999999999999
    vertex 565.8383239313287 294.881982371464 10.299999999999997
  endloop
endfacet
facet normal 0.09950371902099897 2.0184361577361817e-16 0.9950371902099893
  outer loop
    vertex 565.8383239313287 294.881982371464 10.299999999999997
    vertex 565.8383239313287 292.881982371464 10.299999999999999
    vertex 567.8383239313287 292.881982371464 10.099999999999998
  endloop
endfacet
facet normal 0.09950371902099897 2.0184361577361817e-16 0.9950371902099893
  outer loop
    vertex 565.8383239313287 294.881982371464 10.299999999999997
    vertex 567.8383239313287 292.881982371464 10.099999999999998
    vertex 567.8383239313287 294.881982371464 10.099999999999998
  endloop
endfacet
facet normal 0.09950371902099897 2.0184361577361817e-16 0.9950371902099893
  outer loop
    vertex 567.8383239313287 294.881982371464 10.099999999999998
    vertex 567.8383239313287 292.881982371464 10.099999999999998
    vertex 568.8383239313288 292.881982371464 9.999999999999993
  endloop
endfacet
facet normal 0.09950371902099897 2.0184361577361817e-16 0.9950371902099893
  outer loop
    vertex 567.8383239313287 294.881982371464 10.099999999999998
    vertex 568.8383239313288 292.881982371464 9.999999999999993
    vertex 568.8383239313288 294.881982371464 9.999999999999993
  endloop
endfacet
facet normal 0.09940513806170344 0.002481421750739443 -0.9950439493173296
  outer loop
    vertex 568.8383239313288 294.881982371464 39.99999999999999
    vertex 518.8383239313288 292.881982371464 34.99999999999999
    vertex 518.8383239313288 294.881982371464 34.99999999999999
  endloop
endfacet
facet normal 0.09940513806170344 0.002481421750739443 -0.9950439493173296
  outer loop
    vertex 518.8383239313288 292.881982371464 34.99999999999999
    vertex 568.8383239313288 294.881982371464 39.99999999999999
    vertex 568.8383239313288 292.881982371464 39.990024875775816
  endloop
endfacet
facet normal 9.820777895656628e-16 -1.0 -7.56002252153139e-15
  outer loop
    vertex 568.8383239313288 294.881982371464 37.990024875775816
    vertex 518.8383239313288 294.881982371464 34.99999999999999
    vertex 518.8383239313288 294.881982371464 32.990024875775816
  endloop
endfacet
facet normal 9.820777895656628e-16 -1.0 -7.56002252153139e-15
  outer loop
    vertex 518.8383239313288 294.881982371464 34.99999999999999
    vertex 568.8383239313288 294.881982371464 37.990024875775816
    vertex 568.8383239313288 294.881982371464 39.99999999999999
  endloop
endfacet
facet normal 9.820777895656628e-16 -1.0 -7.56002252153139e-15
  outer loop
    vertex 568.8383239313288 294.881982371464 39.99999999999999
    vertex 568.8383239313288 294.881982371464 37.990024875775816
    vertex 570.8383239313288 294.88198237146406 38.19002487577582
  endloop
endfacet
facet normal 9.820777895656628e-16 -1.0 -7.56002252153139e-15
  outer loop
    vertex 568.8383239313288 294.881982371464 39.99999999999999
    vertex 570.8383239313288 294.88198237146406 38.19002487577582
    vertex 570.8383239313288 294.881982371464 39.99999999999999
  endloop
endfacet
facet normal 0.0 1.0 0.0
  outer loop
    vertex 518.8383239313288 296.881982371464 -5.639932965095795e-15
    vertex 543.2965624979093 296.881982371464 2.0493230354274092
    vertex 570.8383239313288 296.881982371464 -5.639932965095795e-15
  endloop
endfacet
facet normal 0.0 1.0 0.0
  outer loop
    vertex 543.2965624979093 296.881982371464 2.0493230354274092
    vertex 518.8383239313288 296.881982371464 -5.639932965095795e-15
    vertex 542.5513311767248 296.881982371464 2.290083091754096
  endloop
endfacet
facet normal 0.0 1.0 0.0
  outer loop
    vertex 542.5513311767248 296.881982371464 2.290083091754096
    vertex 518.8383239313288 296.881982371464 -5.639932965095795e-15
    vertex 518.8383239313288 296.881982371464 17.009742007792887
  endloop
endfacet
facet normal 0.0 1.0 0.0
  outer loop
    vertex 570.8383239313288 296.881982371464 -5.639932965095795e-15
    vertex 543.2965624979093 296.881982371464 2.0493230354274092
    vertex 544.0787139654782 296.881982371464 2.009646738012104
  endloop
endfacet
facet normal 0.0 1.0 0.0
  outer loop
    vertex 542.5513311767248 296.881982371464 2.290083091754096
    vertex 518.8383239313288 296.881982371464 17.009742007792887
    vertex 541.8938062849106 296.881982371464 2.7155195070283016
  endloop
endfacet
facet normal 0.0 1.0 0.0
  outer loop
    vertex 541.8938062849106 296.881982371464 2.7155195070283016
    vertex 518.8383239313288 296.881982371464 17.009742007792887
    vertex 541.3687970572323 296.881982371464 3.296639492616024
  endloop
endfacet
facet normal 0.0 1.0 0.0
  outer loop
    vertex 541.3687970572323 296.881982371464 3.296639492616024
    vertex 518.8383239313288 296.881982371464 17.009742007792887
    vertex 541.0120820049376 296.881982371464 3.9938406818456236
  endloop
endfacet
facet normal 0.0 1.0 0.0
  outer loop
    vertex 541.0120820049376 296.881982371464 3.9938406818456236
    vertex 518.8383239313288 296.881982371464 17.009742007792887
    vertex 540.8479706693408 296.881982371464 4.759609965850546
  endloop
endfacet
facet normal 0.0 1.0 0.0
  outer loop
    vertex 540.8479706693408 296.881982371464 4.759609965850546
    vertex 518.8383239313288 296.881982371464 17.009742007792887
    vertex 540.8876469667562 296.881982371464 5.54176143341945
  endloop
endfacet
facet normal 0.0 1.0 0.0
  outer loop
    vertex 540.8876469667562 296.881982371464 5.54176143341945
    vertex 518.8383239313288 296.881982371464 17.009742007792887
    vertex 541.1284070230829 296.881982371464 6.286992754603916
  endloop
endfacet
facet normal 0.0 1.0 0.0
  outer loop
    vertex 541.1284070230829 296.881982371464 6.286992754603916
    vertex 518.8383239313288 296.881982371464 17.009742007792887
    vertex 541.553843438357 296.881982371464 6.944517646418211
  endloop
endfacet
facet normal 0.0 1.0 0.0
  outer loop
    vertex 541.553843438357 296.881982371464 6.944517646418211
    vertex 518.8383239313288 296.881982371464 17.009742007792887
    vertex 542.1349634239448 296.881982371464 7.469526874096446
  endloop
endfacet
facet normal 0.0 1.0 0.0
  outer loop
    vertex 542.1349634239448 296.881982371464 7.469526874096446
    vertex 518.8383239313288 296.881982371464 17.009742007792887
    vertex 542.8321646131743 296.881982371464 7.826241926391145
  endloop
endfacet
facet normal 0.0 1.0 0.0
  outer loop
    vertex 542.8321646131743 296.881982371464 7.826241926391145
    vertex 518.8383239313288 296.881982371464 17.009742007792887
    vertex 543.5979338971792 296.881982371464 7.990353261987889
  endloop
endfacet
facet normal 0.0 1.0 0.0
  outer loop
    vertex 543.5979338971792 296.881982371464 7.990353261987889
    vertex 518.8383239313288 296.881982371464 17.009742007792887
    vertex 570.8383239313288 296.881982371464 11.809975124224165
  endloop
endfacet
facet normal 0.0 1.0 0.0
  outer loop
    vertex 570.8383239313288 296.881982371464 11.809975124224165
    vertex 518.8383239313288 296.881982371464 17.009742007792887
    vertex 564.4724498214619 296.881982371464 12.446562535210852
  endloop
endfacet
facet normal 0.0 1.0 0.0
  outer loop
    vertex 564.4724498214619 296.881982371464 12.446562535210852
    vertex 518.8383239313288 296.881982371464 17.009742007792887
    vertex 519.6216722293459 296.881982371464 16.931640294422454
  endloop
endfacet
facet normal 0.0 1.0 0.0
  outer loop
    vertex 570.8383239313288 296.881982371464 -5.639932965095795e-15
    vertex 544.8444832494831 296.881982371464 2.1737580736088487
    vertex 570.8383239313288 296.881982371464 11.809975124224165
  endloop
endfacet
facet normal 0.0 1.0 0.0
  outer loop
    vertex 544.8444832494831 296.881982371464 2.1737580736088487
    vertex 570.8383239313288 296.881982371464 -5.639932965095795e-15
    vertex 544.0787139654782 296.881982371464 2.009646738012104
  endloop
endfacet
facet normal 0.0 1.0 0.0
  outer loop
    vertex 570.8383239313288 296.881982371464 11.809975124224165
    vertex 544.8444832494831 296.881982371464 2.1737580736088487
    vertex 545.5416844387127 296.881982371464 2.5304731259035353
  endloop
endfacet
facet normal 0.0 1.0 0.0
  outer loop
    vertex 570.8383239313288 296.881982371464 11.809975124224165
    vertex 545.5416844387127 296.881982371464 2.5304731259035353
    vertex 546.1228044243004 296.881982371464 3.0554823535817826
  endloop
endfacet
facet normal 0.0 1.0 0.0
  outer loop
    vertex 570.8383239313288 296.881982371464 11.809975124224165
    vertex 546.1228044243004 296.881982371464 3.0554823535817826
    vertex 546.5482408395746 296.881982371464 3.7130072453960765
  endloop
endfacet
facet normal 0.0 1.0 0.0
  outer loop
    vertex 570.8383239313288 296.881982371464 11.809975124224165
    vertex 546.5482408395746 296.881982371464 3.7130072453960765
    vertex 546.7890008959013 296.881982371464 4.458238566580543
  endloop
endfacet
facet normal 0.0 1.0 0.0
  outer loop
    vertex 570.8383239313288 296.881982371464 11.809975124224165
    vertex 546.7890008959013 296.881982371464 4.458238566580543
    vertex 546.8286771933167 296.881982371464 5.240390034149436
  endloop
endfacet
facet normal 0.0 1.0 0.0
  outer loop
    vertex 570.8383239313288 296.881982371464 11.809975124224165
    vertex 546.8286771933167 296.881982371464 5.240390034149436
    vertex 546.6645658577198 296.881982371464 6.00615931815437
  endloop
endfacet
facet normal 0.0 1.0 0.0
  outer loop
    vertex 570.8383239313288 296.881982371464 11.809975124224165
    vertex 546.6645658577198 296.881982371464 6.00615931815437
    vertex 546.3078508054252 296.881982371464 6.7033605073839695
  endloop
endfacet
facet normal 0.0 1.0 0.0
  outer loop
    vertex 570.8383239313288 296.881982371464 11.809975124224165
    vertex 546.3078508054252 296.881982371464 6.7033605073839695
    vertex 545.7828415777469 296.881982371464 7.28448049297168
  endloop
endfacet
facet normal 0.0 1.0 0.0
  outer loop
    vertex 570.8383239313288 296.881982371464 11.809975124224165
    vertex 545.7828415777469 296.881982371464 7.28448049297168
    vertex 545.1253166859326 296.881982371464 7.709916908245897
  endloop
endfacet
facet normal 0.0 1.0 0.0
  outer loop
    vertex 570.8383239313288 296.881982371464 11.809975124224165
    vertex 545.1253166859326 296.881982371464 7.709916908245897
    vertex 544.3800853647482 296.881982371464 7.950676964572583
  endloop
endfacet
facet normal 0.0 1.0 0.0
  outer loop
    vertex 570.8383239313288 296.881982371464 11.809975124224165
    vertex 544.3800853647482 296.881982371464 7.950676964572583
    vertex 543.5979338971792 296.881982371464 7.990353261987889
  endloop
endfacet
facet normal 0.0 0.0 -1.0
  outer loop
    vertex 568.8383239313288 294.881982371464 9.999999999999993
    vertex 567.8383239313287 292.881982371464 9.999999999999993
    vertex 567.8383239313287 294.881982371464 9.999999999999993
  endloop
endfacet
facet normal 0.0 0.0 -1.0
  outer loop
    vertex 567.8383239313287 292.881982371464 9.999999999999993
    vertex 568.8383239313288 294.881982371464 9.999999999999993
    vertex 568.8383239313288 292.881982371464 9.999999999999993
  endloop
endfacet
facet normal 0.0 1.0 0.0
  outer loop
    vertex 567.8383239313287 292.881982371464 10.099999999999998
    vertex 570.8383239313288 292.881982371464 9.999999999999993
    vertex 568.8383239313288 292.881982371464 9.999999999999993
  endloop
endfacet
facet normal 0.0 1.0 0.0
  outer loop
    vertex 570.8383239313288 292.881982371464 9.999999999999993
    vertex 567.8383239313287 292.881982371464 10.099999999999998
    vertex 570.8383239313288 292.881982371464 10.509975124224168
  endloop
endfacet
facet normal 0.0 1.0 0.0
  outer loop
    vertex 570.8383239313288 292.881982371464 10.509975124224168
    vertex 567.8383239313287 292.881982371464 10.099999999999998
    vertex 567.8383239313287 292.881982371464 10.509975124224168
  endloop
endfacet
facet normal 0.0 -1.0 0.0
  outer loop
    vertex 570.8383239313288 294.881982371464 11.809975124224165
    vertex 567.8383239313287 294.881982371464 10.509975124224166
    vertex 570.8383239313288 294.881982371464 10.509975124224166
  endloop
endfacet
facet normal 0.0 -1.0 0.0
  outer loop
    vertex 567.8383239313287 294.881982371464 10.509975124224166
    vertex 565.8383239313287 294.881982371464 10.299999999999997
    vertex 567.8383239313287 294.881982371464 10.299999999999997
  endloop
endfacet
facet normal 0.0 -1.0 0.0
  outer loop
    vertex 565.8383239313287 294.881982371464 10.299999999999997
    vertex 567.8383239313287 294.881982371464 10.509975124224166
    vertex 518.8383239313288 294.881982371464 14.999999999999995
  endloop
endfacet
facet normal 0.0 -1.0 0.0
  outer loop
    vertex 518.8383239313288 294.881982371464 14.999999999999995
    vertex 567.8383239313287 294.881982371464 10.509975124224166
    vertex 570.8383239313288 294.881982371464 11.809975124224165
  endloop
endfacet
facet normal 0.0 -1.0 0.0
  outer loop
    vertex 518.8383239313288 294.881982371464 14.999999999999995
    vertex 570.8383239313288 294.881982371464 11.809975124224165
    vertex 518.8383239313288 294.881982371464 17.009975124224173
  endloop
endfacet
facet normal 0.0 7.049916206369757e-16 1.0
  outer loop
    vertex 570.8383239313288 292.881982371464 10.509975124224168
    vertex 567.8383239313287 294.881982371464 10.509975124224166
    vertex 567.8383239313287 292.881982371464 10.509975124224168
  endloop
endfacet
facet normal 0.0 7.049916206369757e-16 1.0
  outer loop
    vertex 567.8383239313287 294.881982371464 10.509975124224166
    vertex 570.8383239313288 292.881982371464 10.509975124224168
    vertex 570.8383239313288 294.881982371464 10.509975124224166
  endloop
endfacet
facet normal 0.0 0.0049875000785082075 -0.9999875623441359
  outer loop
    vertex 570.8383239313288 294.881982371464 39.99999999999999
    vertex 568.8383239313288 292.881982371464 39.990024875775816
    vertex 568.8383239313288 294.881982371464 39.99999999999999
  endloop
endfacet
facet normal 0.0 0.0049875000785082075 -0.9999875623441359
  outer loop
    vertex 568.8383239313288 292.881982371464 39.990024875775816
    vertex 570.8383239313288 294.881982371464 39.99999999999999
    vertex 570.8383239313288 292.881982371464 39.990024875775816
  endloop
endfacet
facet normal 1.0 0.0 0.0
  outer loop
    vertex 570.8383239313288 294.881982371464 9.999999999999993
    vertex 570.8383239313288 292.881982371464 10.509975124224168
    vertex 570.8383239313288 292.881982371464 9.999999999999993
  endloop
endfacet
facet normal 1.0 0.0 0.0
  outer loop
    vertex 570.8383239313288 292.881982371464 10.509975124224168
    vertex 570.8383239313288 294.881982371464 9.999999999999993
    vertex 570.8383239313288 294.881982371464 10.509975124224166
  endloop
endfacet
facet normal 0.0 0.0 -1.0
  outer loop
    vertex 570.8383239313288 294.881982371464 9.999999999999993
    vertex 568.8383239313288 292.881982371464 9.999999999999993
    vertex 568.8383239313288 294.881982371464 9.999999999999993
  endloop
endfacet
facet normal 0.0 0.0 -1.0
  outer loop
    vertex 568.8383239313288 292.881982371464 9.999999999999993
    vertex 570.8383239313288 294.881982371464 9.999999999999993
    vertex 570.8383239313288 292.881982371464 9.999999999999993
  endloop
endfacet
facet normal 0.0995021989878493 2.7923661621813173e-05 0.9950373418203217
  outer loop
    vertex 570.8383239313288 294.881982371464 11.809975124224165
    vertex 518.8383239313288 296.881982371464 17.009742007792887
    vertex 518.8383239313288 294.881982371464 17.009975124224173
  endloop
endfacet
facet normal 0.0995021989878493 2.7923661621813173e-05 0.9950373418203217
  outer loop
    vertex 518.8383239313288 296.881982371464 17.009742007792887
    vertex 570.8383239313288 294.881982371464 11.809975124224165
    vertex 519.6216722293459 296.881982371464 16.931640294422454
  endloop
endfacet
facet normal 0.0995021989878493 2.7923661621813173e-05 0.9950373418203217
  outer loop
    vertex 519.6216722293459 296.881982371464 16.931640294422454
    vertex 570.8383239313288 294.881982371464 11.809975124224165
    vertex 564.4724498214619 296.881982371464 12.446562535210852
  endloop
endfacet
facet normal 0.0995021989878493 2.7923661621813173e-05 0.9950373418203217
  outer loop
    vertex 564.4724498214619 296.881982371464 12.446562535210852
    vertex 570.8383239313288 294.881982371464 11.809975124224165
    vertex 570.8383239313288 296.881982371464 11.809975124224165
  endloop
endfacet
facet normal 0.09950371902099892 -1.7400311705128003e-18 -0.9950371902099893
  outer loop
    vertex 570.8383239313288 296.881982371464 38.19002487577582
    vertex 568.8383239313288 294.881982371464 37.990024875775816
    vertex 568.8383239313288 296.881982371464 37.990024875775816
  endloop
endfacet
facet normal 0.09950371902099892 -1.7400311705128003e-18 -0.9950371902099893
  outer loop
    vertex 568.8383239313288 294.881982371464 37.990024875775816
    vertex 570.8383239313288 296.881982371464 38.19002487577582
    vertex 570.8383239313288 294.88198237146406 38.19002487577582
  endloop
endfacet
facet normal -1.0 0.0 0.0
  outer loop
    vertex 567.8383239313287 294.881982371464 10.509975124224166
    vertex 567.8383239313287 292.881982371464 10.099999999999998
    vertex 567.8383239313287 292.881982371464 10.509975124224168
  endloop
endfacet
facet normal -1.0 0.0 0.0
  outer loop
    vertex 567.8383239313287 292.881982371464 10.099999999999998
    vertex 567.8383239313287 294.881982371464 10.509975124224166
    vertex 567.8383239313287 292.881982371464 9.999999999999993
  endloop
endfacet
facet normal -1.0 0.0 0.0
  outer loop
    vertex 567.8383239313287 292.881982371464 9.999999999999993
    vertex 567.8383239313287 294.881982371464 10.509975124224166
    vertex 567.8383239313287 294.881982371464 9.999999999999993
  endloop
endfacet
facet normal -1.0 0.0 0.0
  outer loop
    vertex 567.8383239313287 294.881982371464 9.999999999999993
    vertex 567.8383239313287 294.881982371464 10.509975124224166
    vertex 567.8383239313287 294.881982371464 10.299999999999997
  endloop
endfacet
facet normal -1.0 0.0 0.0
  outer loop
    vertex 567.8383239313287 294.881982371464 9.999999999999993
    vertex 567.8383239313287 294.881982371464 10.299999999999997
    vertex 567.8383239313287 294.881982371464 10.099999999999998
  endloop
endfacet
facet normal 0.0 -1.0 0.0
  outer loop
    vertex 565.8383239313287 294.881982371464 10.299999999999997
    vertex 567.8383239313287 294.881982371464 10.099999999999998
    vertex 567.8383239313287 294.881982371464 10.299999999999997
  endloop
endfacet
facet normal 0.0 1.0 0.0
  outer loop
    vertex 565.8383239313287 292.881982371464 10.299999999999999
    vertex 567.8383239313287 292.881982371464 9.999999999999993
    vertex 565.8383239313287 292.881982371464 9.999999999999993
  endloop
endfacet
facet normal 0.0 1.0 0.0
  outer loop
    vertex 567.8383239313287 292.881982371464 9.999999999999993
    vertex 565.8383239313287 292.881982371464 10.299999999999999
    vertex 567.8383239313287 292.881982371464 10.099999999999998
  endloop
endfacet
facet normal 1.0 0.0 0.0
  outer loop
    vertex 570.8383239313288 289.881982371464 -5.639932965095795e-15
    vertex 570.8383239313288 292.881982371464 9.999999999999993
    vertex 570.8383239313288 289.881982371464 49.99999999999999
  endloop
endfacet
facet normal 1.0 0.0 0.0
  outer loop
    vertex 570.8383239313288 292.881982371464 9.999999999999993
    vertex 570.8383239313288 289.881982371464 -5.639932965095795e-15
    vertex 570.8383239313288 296.881982371464 -5.639932965095795e-15
  endloop
endfacet
facet normal 1.0 0.0 0.0
  outer loop
    vertex 570.8383239313288 292.881982371464 9.999999999999993
    vertex 570.8383239313288 296.881982371464 -5.639932965095795e-15
    vertex 570.8383239313288 294.881982371464 9.999999999999993
  endloop
endfacet
facet normal 1.0 0.0 0.0
  outer loop
    vertex 570.8383239313288 294.881982371464 9.999999999999993
    vertex 570.8383239313288 296.881982371464 -5.639932965095795e-15
    vertex 570.8383239313288 294.881982371464 10.509975124224166
  endloop
endfacet
facet normal 1.0 0.0 0.0
  outer loop
    vertex 570.8383239313288 294.881982371464 10.509975124224166
    vertex 570.8383239313288 296.881982371464 -5.639932965095795e-15
    vertex 570.8383239313288 294.881982371464 11.809975124224165
  endloop
endfacet
facet normal 1.0 0.0 0.0
  outer loop
    vertex 570.8383239313288 294.881982371464 11.809975124224165
    vertex 570.8383239313288 296.881982371464 -5.639932965095795e-15
    vertex 570.8383239313288 296.881982371464 11.809975124224165
  endloop
endfacet
facet normal 1.0 0.0 0.0
  outer loop
    vertex 570.8383239313288 289.881982371464 49.99999999999999
    vertex 570.8383239313288 292.881982371464 39.990024875775816
    vertex 570.8383239313288 296.881982371464 49.99999999999999
  endloop
endfacet
facet normal 1.0 0.0 0.0
  outer loop
    vertex 570.8383239313288 292.881982371464 39.990024875775816
    vertex 570.8383239313288 289.881982371464 49.99999999999999
    vertex 570.8383239313288 292.881982371464 9.999999999999993
  endloop
endfacet
facet normal 1.0 0.0 0.0
  outer loop
    vertex 570.8383239313288 292.881982371464 39.990024875775816
    vertex 570.8383239313288 292.881982371464 9.999999999999993
    vertex 570.8383239313288 292.881982371464 10.509975124224168
  endloop
endfacet
facet normal 1.0 0.0 0.0
  outer loop
    vertex 570.8383239313288 296.881982371464 49.99999999999999
    vertex 570.8383239313288 292.881982371464 39.990024875775816
    vertex 570.8383239313288 294.881982371464 39.99999999999999
  endloop
endfacet
facet normal 1.0 0.0 0.0
  outer loop
    vertex 570.8383239313288 296.881982371464 49.99999999999999
    vertex 570.8383239313288 294.881982371464 39.99999999999999
    vertex 570.8383239313288 294.88198237146406 38.19002487577582
  endloop
endfacet
facet normal 1.0 0.0 0.0
  outer loop
    vertex 570.8383239313288 296.881982371464 49.99999999999999
    vertex 570.8383239313288 294.88198237146406 38.19002487577582
    vertex 570.8383239313288 296.881982371464 38.19002487577582
  endloop
endfacet
facet normal 0.0 1.0 0.0
  outer loop
    vertex 565.8383239313287 292.881982371464 10.299999999999999
    vertex 567.8383239313287 292.881982371464 10.509975124224168
    vertex 567.8383239313287 292.881982371464 10.099999999999998
  endloop
endfacet
facet normal 0.0 1.0 0.0
  outer loop
    vertex 567.8383239313287 292.881982371464 10.509975124224168
    vertex 565.8383239313287 292.881982371464 10.299999999999999
    vertex 518.8383239313288 292.881982371464 14.999999999999995
  endloop
endfacet
facet normal 0.0 1.0 0.0
  outer loop
    vertex 567.8383239313287 292.881982371464 10.509975124224168
    vertex 518.8383239313288 292.881982371464 14.999999999999995
    vertex 570.8383239313288 292.881982371464 10.509975124224168
  endloop
endfacet
facet normal 0.0 1.0 0.0
  outer loop
    vertex 570.8383239313288 292.881982371464 10.509975124224168
    vertex 518.8383239313288 292.881982371464 14.999999999999995
    vertex 570.8383239313288 292.881982371464 39.990024875775816
  endloop
endfacet
facet normal 0.0 1.0 0.0
  outer loop
    vertex 570.8383239313288 292.881982371464 39.990024875775816
    vertex 518.8383239313288 292.881982371464 14.999999999999995
    vertex 518.8383239313288 292.881982371464 34.99999999999999
  endloop
endfacet
facet normal 0.0 1.0 0.0
  outer loop
    vertex 570.8383239313288 292.881982371464 39.990024875775816
    vertex 518.8383239313288 292.881982371464 34.99999999999999
    vertex 568.8383239313288 292.881982371464 39.990024875775816
  endloop
endfacet
facet normal 1.0 0.0 0.0
  outer loop
    vertex 518.8383239313288 296.881982371464 17.009742007792887
    vertex 518.8383239313288 294.881982371464 32.990024875775816
    vertex 518.8383239313288 294.881982371464 17.009975124224173
  endloop
endfacet
facet normal 1.0 0.0 0.0
  outer loop
    vertex 518.8383239313288 294.881982371464 32.990024875775816
    vertex 518.8383239313288 296.881982371464 17.009742007792887
    vertex 518.8383239313288 296.881982371464 32.990024875775816
  endloop
endfacet
facet normal 1.0 0.0 0.0
  outer loop
    vertex 518.8383239313288 294.881982371464 14.999999999999995
    vertex 518.8383239313288 292.881982371464 34.99999999999999
    vertex 518.8383239313288 292.881982371464 14.999999999999995
  endloop
endfacet
facet normal 1.0 0.0 0.0
  outer loop
    vertex 518.8383239313288 292.881982371464 34.99999999999999
    vertex 518.8383239313288 294.881982371464 14.999999999999995
    vertex 518.8383239313288 294.881982371464 34.99999999999999
  endloop
endfacet
facet normal 1.0 0.0 0.0
  outer loop
    vertex 518.8383239313288 294.881982371464 34.99999999999999
    vertex 518.8383239313288 294.881982371464 14.999999999999995
    vertex 518.8383239313288 294.881982371464 17.009975124224173
  endloop
endfacet
facet normal 1.0 0.0 0.0
  outer loop
    vertex 518.8383239313288 294.881982371464 34.99999999999999
    vertex 518.8383239313288 294.881982371464 17.009975124224173
    vertex 518.8383239313288 294.881982371464 32.990024875775816
  endloop
endfacet
facet normal -0.0 -0.0 -1.0
  outer loop
    vertex 518.8383239313288 296.881982371464 -5.639932965095795e-15
    vertex 515.8383239313287 289.881982371464 -5.639932965095795e-15
    vertex 515.8383239313287 296.881982371464 -5.639932965095795e-15
  endloop
endfacet
facet normal -0.0 -0.0 -1.0
  outer loop
    vertex 515.8383239313287 289.881982371464 -5.639932965095795e-15
    vertex 518.8383239313288 296.881982371464 -5.639932965095795e-15
    vertex 518.8383239313288 289.881982371464 -5.639932965095795e-15
  endloop
endfacet
facet normal 0.0 1.0 0.0
  outer loop
    vertex 518.8383239313288 296.881982371464 49.99999999999999
    vertex 520.5048408412858 296.881982371464 33.15667656677152
    vertex 518.8383239313288 296.881982371464 32.990024875775816
  endloop
endfacet
facet normal 0.0 1.0 0.0
  outer loop
    vertex 520.5048408412858 296.881982371464 33.15667656677152
    vertex 518.8383239313288 296.881982371464 49.99999999999999
    vertex 542.9977030245668 296.881982371464 42.12018117043537
  endloop
endfacet
facet normal 0.0 1.0 0.0
  outer loop
    vertex 520.5048408412858 296.881982371464 33.15667656677152
    vertex 542.9977030245668 296.881982371464 42.12018117043537
    vertex 566.3777545988033 296.881982371464 37.743967942523284
  endloop
endfacet
facet normal 0.0 1.0 0.0
  outer loop
    vertex 566.3777545988033 296.881982371464 37.743967942523284
    vertex 542.9977030245668 296.881982371464 42.12018117043537
    vertex 568.8383239313288 296.881982371464 37.990024875775816
  endloop
endfacet
facet normal 0.0 1.0 0.0
  outer loop
    vertex 568.8383239313288 296.881982371464 37.990024875775816
    vertex 542.9977030245668 296.881982371464 42.12018117043537
    vertex 543.7716984469051 296.881982371464 42.00073991710866
  endloop
endfacet
facet normal 0.0 1.0 0.0
  outer loop
    vertex 568.8383239313288 296.881982371464 37.990024875775816
    vertex 543.7716984469051 296.881982371464 42.00073991710866
    vertex 570.8383239313288 296.881982371464 38.19002487577582
  endloop
endfacet
facet normal 0.0 1.0 0.0
  outer loop
    vertex 542.9977030245668 296.881982371464 42.12018117043537
    vertex 518.8383239313288 296.881982371464 49.99999999999999
    vertex 542.2809945278328 296.881982371464 42.435877317871274
  endloop
endfacet
facet normal 0.0 1.0 0.0
  outer loop
    vertex 542.2809945278328 296.881982371464 42.435877317871274
    vertex 518.8383239313288 296.881982371464 49.99999999999999
    vertex 541.6704154563384 296.881982371464 42.92631418868117
  endloop
endfacet
facet normal 0.0 1.0 0.0
  outer loop
    vertex 541.6704154563384 296.881982371464 42.92631418868117
    vertex 518.8383239313288 296.881982371464 49.99999999999999
    vertex 541.2075757647764 296.881982371464 43.55806932060464
  endloop
endfacet
facet normal 0.0 1.0 0.0
  outer loop
    vertex 541.2075757647764 296.881982371464 43.55806932060464
    vertex 518.8383239313288 296.881982371464 49.99999999999999
    vertex 540.9240172132481 296.881982371464 44.28808964542575
  endloop
endfacet
facet normal 0.0 1.0 0.0
  outer loop
    vertex 540.9240172132481 296.881982371464 44.28808964542575
    vertex 518.8383239313288 296.881982371464 49.99999999999999
    vertex 540.8390638484374 296.881982371464 45.0666254844236
  endloop
endfacet
facet normal 0.0 1.0 0.0
  outer loop
    vertex 540.8390638484374 296.881982371464 45.0666254844236
    vertex 518.8383239313288 296.881982371464 49.99999999999999
    vertex 540.9585051017642 296.881982371464 45.840620906761835
  endloop
endfacet
facet normal 0.0 1.0 0.0
  outer loop
    vertex 540.9585051017642 296.881982371464 45.840620906761835
    vertex 518.8383239313288 296.881982371464 49.99999999999999
    vertex 541.2742012492 296.881982371464 46.557329403495956
  endloop
endfacet
facet normal 0.0 1.0 0.0
  outer loop
    vertex 541.2742012492 296.881982371464 46.557329403495956
    vertex 518.8383239313288 296.881982371464 49.99999999999999
    vertex 541.76463812001 296.881982371464 47.167908474990355
  endloop
endfacet
facet normal 0.0 1.0 0.0
  outer loop
    vertex 541.76463812001 296.881982371464 47.167908474990355
    vertex 518.8383239313288 296.881982371464 49.99999999999999
    vertex 542.3963932519334 296.881982371464 47.63074816655231
  endloop
endfacet
facet normal 0.0 1.0 0.0
  outer loop
    vertex 542.3963932519334 296.881982371464 47.63074816655231
    vertex 518.8383239313288 296.881982371464 49.99999999999999
    vertex 543.1264135767544 296.881982371464 47.914306718080624
  endloop
endfacet
facet normal 0.0 1.0 0.0
  outer loop
    vertex 543.1264135767544 296.881982371464 47.914306718080624
    vertex 518.8383239313288 296.881982371464 49.99999999999999
    vertex 543.9049494157524 296.881982371464 47.999260082891325
  endloop
endfacet
facet normal 0.0 1.0 0.0
  outer loop
    vertex 570.8383239313288 296.881982371464 38.19002487577582
    vertex 544.550234285903 296.881982371464 42.08569328191933
    vertex 570.8383239313288 296.881982371464 49.99999999999999
  endloop
endfacet
facet normal 0.0 1.0 0.0
  outer loop
    vertex 544.550234285903 296.881982371464 42.08569328191933
    vertex 570.8383239313288 296.881982371464 38.19002487577582
    vertex 543.7716984469051 296.881982371464 42.00073991710866
  endloop
endfacet
facet normal 0.0 1.0 0.0
  outer loop
    vertex 570.8383239313288 296.881982371464 49.99999999999999
    vertex 544.550234285903 296.881982371464 42.08569328191933
    vertex 545.2802546107241 296.881982371464 42.36925183344765
  endloop
endfacet
facet normal 0.0 1.0 0.0
  outer loop
    vertex 570.8383239313288 296.881982371464 49.99999999999999
    vertex 545.2802546107241 296.881982371464 42.36925183344765
    vertex 545.9120097426476 296.881982371464 42.83209152500962
  endloop
endfacet
facet normal 0.0 1.0 0.0
  outer loop
    vertex 570.8383239313288 296.881982371464 49.99999999999999
    vertex 545.9120097426476 296.881982371464 42.83209152500962
    vertex 546.4024466134574 296.881982371464 43.44267059650403
  endloop
endfacet
facet normal 0.0 1.0 0.0
  outer loop
    vertex 570.8383239313288 296.881982371464 49.99999999999999
    vertex 546.4024466134574 296.881982371464 43.44267059650403
    vertex 546.7181427608933 296.881982371464 44.159379093238144
  endloop
endfacet
facet normal 0.0 1.0 0.0
  outer loop
    vertex 570.8383239313288 296.881982371464 49.99999999999999
    vertex 546.7181427608933 296.881982371464 44.159379093238144
    vertex 546.8375840142202 296.881982371464 44.93337451557636
  endloop
endfacet
facet normal 0.0 1.0 0.0
  outer loop
    vertex 570.8383239313288 296.881982371464 49.99999999999999
    vertex 546.8375840142202 296.881982371464 44.93337451557636
    vertex 546.7526306494093 296.881982371464 45.71191035457423
  endloop
endfacet
facet normal 0.0 1.0 0.0
  outer loop
    vertex 570.8383239313288 296.881982371464 49.99999999999999
    vertex 546.7526306494093 296.881982371464 45.71191035457423
    vertex 546.469072097881 296.881982371464 46.44193067939537
  endloop
endfacet
facet normal 0.0 1.0 0.0
  outer loop
    vertex 570.8383239313288 296.881982371464 49.99999999999999
    vertex 546.469072097881 296.881982371464 46.44193067939537
    vertex 546.0062324063191 296.881982371464 47.07368581131879
  endloop
endfacet
facet normal 0.0 1.0 0.0
  outer loop
    vertex 570.8383239313288 296.881982371464 49.99999999999999
    vertex 546.0062324063191 296.881982371464 47.07368581131879
    vertex 545.3956533348247 296.881982371464 47.56412268212869
  endloop
endfacet
facet normal 0.0 1.0 0.0
  outer loop
    vertex 570.8383239313288 296.881982371464 49.99999999999999
    vertex 545.3956533348247 296.881982371464 47.56412268212869
    vertex 544.6789448380906 296.881982371464 47.879818829564606
  endloop
endfacet
facet normal 0.0 1.0 0.0
  outer loop
    vertex 570.8383239313288 296.881982371464 49.99999999999999
    vertex 544.6789448380906 296.881982371464 47.879818829564606
    vertex 543.9049494157524 296.881982371464 47.999260082891325
  endloop
endfacet
facet normal 0.0 1.0 0.0
  outer loop
    vertex 570.8383239313288 296.881982371464 49.99999999999999
    vertex 543.9049494157524 296.881982371464 47.999260082891325
    vertex 518.8383239313288 296.881982371464 49.99999999999999
  endloop
endfacet
facet normal 0.0 1.0 0.0
  outer loop
    vertex 515.8383239313287 296.881982371464 49.99999999999999
    vertex 518.8383239313288 296.881982371464 -5.639932965095795e-15
    vertex 515.8383239313287 296.881982371464 -5.639932965095795e-15
  endloop
endfacet
facet normal 0.0 1.0 0.0
  outer loop
    vertex 518.8383239313288 296.881982371464 -5.639932965095795e-15
    vertex 515.8383239313287 296.881982371464 49.99999999999999
    vertex 518.8383239313288 296.881982371464 17.009742007792887
  endloop
endfacet
facet normal 0.0 1.0 0.0
  outer loop
    vertex 518.8383239313288 296.881982371464 17.009742007792887
    vertex 515.8383239313287 296.881982371464 49.99999999999999
    vertex 518.8383239313288 296.881982371464 32.990024875775816
  endloop
endfacet
facet normal 0.0 1.0 0.0
  outer loop
    vertex 518.8383239313288 296.881982371464 32.990024875775816
    vertex 515.8383239313287 296.881982371464 49.99999999999999
    vertex 518.8383239313288 296.881982371464 49.99999999999999
  endloop
endfacet
facet normal 0.0 -1.0 0.0
  outer loop
    vertex 518.8383239313288 289.881982371464 49.99999999999999
    vertex 515.8383239313287 289.881982371464 -5.639932965095795e-15
    vertex 518.8383239313288 289.881982371464 -5.639932965095795e-15
  endloop
endfacet
facet normal 0.0 -1.0 0.0
  outer loop
    vertex 515.8383239313287 289.881982371464 -5.639932965095795e-15
    vertex 518.8383239313288 289.881982371464 49.99999999999999
    vertex 515.8383239313287 289.881982371464 49.99999999999999
  endloop
endfacet
facet normal -1.0 0.0 0.0
  outer loop
    vertex 518.8383239313288 289.881982371464 49.99999999999999
    vertex 518.8383239313288 292.881982371464 34.99999999999999
    vertex 518.8383239313288 289.881982371464 -5.639932965095795e-15
  endloop
endfacet
facet normal -1.0 0.0 0.0
  outer loop
    vertex 518.8383239313288 292.881982371464 34.99999999999999
    vertex 518.8383239313288 289.881982371464 49.99999999999999
    vertex 518.8383239313288 296.881982371464 49.99999999999999
  endloop
endfacet
facet normal -1.0 0.0 0.0
  outer loop
    vertex 518.8383239313288 292.881982371464 34.99999999999999
    vertex 518.8383239313288 296.881982371464 49.99999999999999
    vertex 518.8383239313288 294.881982371464 34.99999999999999
  endloop
endfacet
facet normal -1.0 0.0 0.0
  outer loop
    vertex 518.8383239313288 294.881982371464 34.99999999999999
    vertex 518.8383239313288 296.881982371464 49.99999999999999
    vertex 518.8383239313288 294.881982371464 32.990024875775816
  endloop
endfacet
facet normal -1.0 0.0 0.0
  outer loop
    vertex 518.8383239313288 294.881982371464 32.990024875775816
    vertex 518.8383239313288 296.881982371464 49.99999999999999
    vertex 518.8383239313288 296.881982371464 32.990024875775816
  endloop
endfacet
facet normal -1.0 0.0 0.0
  outer loop
    vertex 518.8383239313288 296.881982371464 17.009742007792887
    vertex 518.8383239313288 294.881982371464 14.999999999999995
    vertex 518.8383239313288 294.881982371464 17.009975124224173
  endloop
endfacet
facet normal -1.0 0.0 0.0
  outer loop
    vertex 518.8383239313288 289.881982371464 -5.639932965095795e-15
    vertex 518.8383239313288 292.881982371464 14.999999999999995
    vertex 518.8383239313288 296.881982371464 -5.639932965095795e-15
  endloop
endfacet
facet normal -1.0 0.0 0.0
  outer loop
    vertex 518.8383239313288 292.881982371464 14.999999999999995
    vertex 518.8383239313288 289.881982371464 -5.639932965095795e-15
    vertex 518.8383239313288 292.881982371464 34.99999999999999
  endloop
endfacet
facet normal -1.0 0.0 0.0
  outer loop
    vertex 518.8383239313288 296.881982371464 -5.639932965095795e-15
    vertex 518.8383239313288 292.881982371464 14.999999999999995
    vertex 518.8383239313288 294.881982371464 14.999999999999995
  endloop
endfacet
facet normal -1.0 0.0 0.0
  outer loop
    vertex 518.8383239313288 296.881982371464 -5.639932965095795e-15
    vertex 518.8383239313288 294.881982371464 14.999999999999995
    vertex 518.8383239313288 296.881982371464 17.009742007792887
  endloop
endfacet
facet normal 0.0 0.0 1.0
  outer loop
    vertex 518.8383239313288 289.881982371464 49.99999999999999
    vertex 515.8383239313287 296.881982371464 49.99999999999999
    vertex 515.8383239313287 289.881982371464 49.99999999999999
  endloop
endfacet
facet normal 0.0 0.0 1.0
  outer loop
    vertex 515.8383239313287 296.881982371464 49.99999999999999
    vertex 518.8383239313288 289.881982371464 49.99999999999999
    vertex 518.8383239313288 296.881982371464 49.99999999999999
  endloop
endfacet
facet normal 0.0 -1.0 0.0
  outer loop
    vertex 570.8383239313288 289.881982371464 -5.639932965095795e-15
    vertex 544.0065969552332 289.881982371464 2.9067527166084504
    vertex 518.8383239313288 289.881982371464 -5.639932965095795e-15
  endloop
endfacet
facet normal 0.0 -1.0 0.0
  outer loop
    vertex 544.0065969552332 289.881982371464 2.9067527166084504
    vertex 570.8383239313288 289.881982371464 -5.639932965095795e-15
    vertex 544.5426354540368 289.881982371464 3.0216306515261806
  endloop
endfacet
facet normal 0.0 -1.0 0.0
  outer loop
    vertex 544.5426354540368 289.881982371464 3.0216306515261806
    vertex 570.8383239313288 289.881982371464 -5.639932965095795e-15
    vertex 545.0306762864975 289.881982371464 3.2713311881324647
  endloop
endfacet
facet normal 0.0 -1.0 0.0
  outer loop
    vertex 545.0306762864975 289.881982371464 3.2713311881324647
    vertex 570.8383239313288 289.881982371464 -5.639932965095795e-15
    vertex 545.4374602764088 289.881982371464 3.6388376475072333
  endloop
endfacet
facet normal 0.0 -1.0 0.0
  outer loop
    vertex 545.4374602764088 289.881982371464 3.6388376475072333
    vertex 570.8383239313288 289.881982371464 -5.639932965095795e-15
    vertex 545.7352657671008 289.881982371464 4.099105071777246
  endloop
endfacet
facet normal 0.0 -1.0 0.0
  outer loop
    vertex 545.7352657671008 289.881982371464 4.099105071777246
    vertex 570.8383239313288 289.881982371464 -5.639932965095795e-15
    vertex 570.8383239313288 289.881982371464 49.99999999999999
  endloop
endfacet
facet normal 0.0 -1.0 0.0
  outer loop
    vertex 545.7352657671008 289.881982371464 4.099105071777246
    vertex 570.8383239313288 289.881982371464 49.99999999999999
    vertex 545.9037978065296 289.881982371464 4.620766996606375
  endloop
endfacet
facet normal 0.0 -1.0 0.0
  outer loop
    vertex 545.9037978065296 289.881982371464 4.620766996606375
    vertex 570.8383239313288 289.881982371464 49.99999999999999
    vertex 545.9315712147203 289.881982371464 5.168273023904606
  endloop
endfacet
facet normal 0.0 -1.0 0.0
  outer loop
    vertex 545.9315712147203 289.881982371464 5.168273023904606
    vertex 570.8383239313288 289.881982371464 49.99999999999999
    vertex 545.8166932798026 289.881982371464 5.7043115227080605
  endloop
endfacet
facet normal 0.0 -1.0 0.0
  outer loop
    vertex 545.8166932798026 289.881982371464 5.7043115227080605
    vertex 570.8383239313288 289.881982371464 49.99999999999999
    vertex 545.5669927431962 289.881982371464 6.192352355168781
  endloop
endfacet
facet normal 0.0 -1.0 0.0
  outer loop
    vertex 545.5669927431962 289.881982371464 6.192352355168781
    vertex 570.8383239313288 289.881982371464 49.99999999999999
    vertex 545.1994862838216 289.881982371464 6.599136345080179
  endloop
endfacet
facet normal 0.0 -1.0 0.0
  outer loop
    vertex 545.1994862838216 289.881982371464 6.599136345080179
    vertex 570.8383239313288 289.881982371464 49.99999999999999
    vertex 544.7392188595514 289.881982371464 6.896941835772138
  endloop
endfacet
facet normal 0.0 -1.0 0.0
  outer loop
    vertex 544.7392188595514 289.881982371464 6.896941835772138
    vertex 570.8383239313288 289.881982371464 49.99999999999999
    vertex 544.2175569347223 289.881982371464 7.065473875200813
  endloop
endfacet
facet normal 0.0 -1.0 0.0
  outer loop
    vertex 544.2175569347223 289.881982371464 7.065473875200813
    vertex 570.8383239313288 289.881982371464 49.99999999999999
    vertex 543.6700509074242 289.881982371464 7.093247283391531
  endloop
endfacet
facet normal 0.0 -1.0 0.0
  outer loop
    vertex 543.6700509074242 289.881982371464 7.093247283391531
    vertex 570.8383239313288 289.881982371464 49.99999999999999
    vertex 544.3366611795307 289.881982371464 42.95998529734354
  endloop
endfacet
facet normal 0.0 -1.0 0.0
  outer loop
    vertex 543.6700509074242 289.881982371464 7.093247283391531
    vertex 544.3366611795307 289.881982371464 42.95998529734354
    vertex 543.7916860922322 289.881982371464 42.90051794197604
  endloop
endfacet
facet normal 0.0 -1.0 0.0
  outer loop
    vertex 544.3366611795307 289.881982371464 42.95998529734354
    vertex 570.8383239313288 289.881982371464 49.99999999999999
    vertex 544.8476754069055 289.881982371464 43.15847628341336
  endloop
endfacet
facet normal 0.0 -1.0 0.0
  outer loop
    vertex 544.8476754069055 289.881982371464 43.15847628341336
    vertex 570.8383239313288 289.881982371464 49.99999999999999
    vertex 545.2899039992519 289.881982371464 43.48246406750674
  endloop
endfacet
facet normal 0.0 -1.0 0.0
  outer loop
    vertex 545.2899039992519 289.881982371464 43.48246406750674
    vertex 570.8383239313288 289.881982371464 49.99999999999999
    vertex 545.6332098088188 289.881982371464 43.90986941755282
  endloop
endfacet
facet normal 0.0 -1.0 0.0
  outer loop
    vertex 545.6332098088188 289.881982371464 43.90986941755282
    vertex 570.8383239313288 289.881982371464 49.99999999999999
    vertex 545.8541971120239 289.881982371464 44.41156536526669
  endloop
endfacet
facet normal 0.0 -1.0 0.0
  outer loop
    vertex 545.8541971120239 289.881982371464 44.41156536526669
    vertex 570.8383239313288 289.881982371464 49.99999999999999
    vertex 545.9378059893527 289.881982371464 44.95336216090345
  endloop
endfacet
facet normal 0.0 -1.0 0.0
  outer loop
    vertex 545.9378059893527 289.881982371464 44.95336216090345
    vertex 570.8383239313288 289.881982371464 49.99999999999999
    vertex 545.8783386339852 289.881982371464 45.498337248201956
  endloop
endfacet
facet normal 0.0 -1.0 0.0
  outer loop
    vertex 545.8783386339852 289.881982371464 45.498337248201956
    vertex 570.8383239313288 289.881982371464 49.99999999999999
    vertex 545.6798476479154 289.881982371464 46.00935147557676
  endloop
endfacet
facet normal 0.0 -1.0 0.0
  outer loop
    vertex 545.6798476479154 289.881982371464 46.00935147557676
    vertex 570.8383239313288 289.881982371464 49.99999999999999
    vertex 545.3558598638219 289.881982371464 46.45158006792315
  endloop
endfacet
facet normal 0.0 -1.0 0.0
  outer loop
    vertex 545.3558598638219 289.881982371464 46.45158006792315
    vertex 570.8383239313288 289.881982371464 49.99999999999999
    vertex 544.9284545137758 289.881982371464 46.794885877490074
  endloop
endfacet
facet normal 0.0 -1.0 0.0
  outer loop
    vertex 544.9284545137758 289.881982371464 46.794885877490074
    vertex 570.8383239313288 289.881982371464 49.99999999999999
    vertex 544.4267585660621 289.881982371464 47.01587318069522
  endloop
endfacet
facet normal 0.0 -1.0 0.0
  outer loop
    vertex 544.4267585660621 289.881982371464 47.01587318069522
    vertex 570.8383239313288 289.881982371464 49.99999999999999
    vertex 543.8849617704252 289.881982371464 47.099482058023916
  endloop
endfacet
facet normal 0.0 -1.0 0.0
  outer loop
    vertex 518.8383239313288 289.881982371464 -5.639932965095795e-15
    vertex 541.8599545828549 289.881982371464 4.295688477291932
    vertex 518.8383239313288 289.881982371464 49.99999999999999
  endloop
endfacet
facet normal 0.0 -1.0 0.0
  outer loop
    vertex 541.8599545828549 289.881982371464 4.295688477291932
    vertex 518.8383239313288 289.881982371464 -5.639932965095795e-15
    vertex 542.1096551194612 289.881982371464 3.807647644831201
  endloop
endfacet
facet normal 0.0 -1.0 0.0
  outer loop
    vertex 542.1096551194612 289.881982371464 3.807647644831201
    vertex 518.8383239313288 289.881982371464 -5.639932965095795e-15
    vertex 542.4771615788359 289.881982371464 3.400863654919802
  endloop
endfacet
facet normal 0.0 -1.0 0.0
  outer loop
    vertex 542.4771615788359 289.881982371464 3.400863654919802
    vertex 518.8383239313288 289.881982371464 -5.639932965095795e-15
    vertex 542.9374290031061 289.881982371464 3.103058164227855
  endloop
endfacet
facet normal 0.0 -1.0 0.0
  outer loop
    vertex 542.9374290031061 289.881982371464 3.103058164227855
    vertex 518.8383239313288 289.881982371464 -5.639932965095795e-15
    vertex 543.4590909279351 289.881982371464 2.9345261247991687
  endloop
endfacet
facet normal 0.0 -1.0 0.0
  outer loop
    vertex 543.4590909279351 289.881982371464 2.9345261247991687
    vertex 518.8383239313288 289.881982371464 -5.639932965095795e-15
    vertex 544.0065969552332 289.881982371464 2.9067527166084504
  endloop
endfacet
facet normal 0.0 -1.0 0.0
  outer loop
    vertex 518.8383239313288 289.881982371464 49.99999999999999
    vertex 541.8599545828549 289.881982371464 4.295688477291932
    vertex 541.7450766479371 289.881982371464 4.8317269760953865
  endloop
endfacet
facet normal 0.0 -1.0 0.0
  outer loop
    vertex 518.8383239313288 289.881982371464 49.99999999999999
    vertex 541.7450766479371 289.881982371464 4.8317269760953865
    vertex 541.7728500561279 289.881982371464 5.379233003393618
  endloop
endfacet
facet normal 0.0 -1.0 0.0
  outer loop
    vertex 518.8383239313288 289.881982371464 49.99999999999999
    vertex 541.7728500561279 289.881982371464 5.379233003393618
    vertex 541.9413820955566 289.881982371464 5.900894928222736
  endloop
endfacet
facet normal 0.0 -1.0 0.0
  outer loop
    vertex 518.8383239313288 289.881982371464 49.99999999999999
    vertex 541.9413820955566 289.881982371464 5.900894928222736
    vertex 542.2391875862486 289.881982371464 6.361162352492749
  endloop
endfacet
facet normal 0.0 -1.0 0.0
  outer loop
    vertex 518.8383239313288 289.881982371464 49.99999999999999
    vertex 542.2391875862486 289.881982371464 6.361162352492749
    vertex 542.6459715761599 289.881982371464 6.728668811867529
  endloop
endfacet
facet normal 0.0 -1.0 0.0
  outer loop
    vertex 518.8383239313288 289.881982371464 49.99999999999999
    vertex 542.6459715761599 289.881982371464 6.728668811867529
    vertex 543.1340124086206 289.881982371464 6.978369348473812
  endloop
endfacet
facet normal 0.0 -1.0 0.0
  outer loop
    vertex 518.8383239313288 289.881982371464 49.99999999999999
    vertex 543.1340124086206 289.881982371464 6.978369348473812
    vertex 543.6700509074242 289.881982371464 7.093247283391531
  endloop
endfacet
facet normal 0.0 -1.0 0.0
  outer loop
    vertex 518.8383239313288 289.881982371464 49.99999999999999
    vertex 543.6700509074242 289.881982371464 7.093247283391531
    vertex 543.2498892965955 289.881982371464 42.984126819304755
  endloop
endfacet
facet normal 0.0 -1.0 0.0
  outer loop
    vertex 543.2498892965955 289.881982371464 42.984126819304755
    vertex 543.6700509074242 289.881982371464 7.093247283391531
    vertex 543.7916860922322 289.881982371464 42.90051794197604
  endloop
endfacet
facet normal 0.0 -1.0 0.0
  outer loop
    vertex 518.8383239313288 289.881982371464 49.99999999999999
    vertex 543.2498892965955 289.881982371464 42.984126819304755
    vertex 542.7481933488816 289.881982371464 43.205114122509904
  endloop
endfacet
facet normal 0.0 -1.0 0.0
  outer loop
    vertex 518.8383239313288 289.881982371464 49.99999999999999
    vertex 542.7481933488816 289.881982371464 43.205114122509904
    vertex 542.3207879988355 289.881982371464 43.54841993207683
  endloop
endfacet
facet normal 0.0 -1.0 0.0
  outer loop
    vertex 518.8383239313288 289.881982371464 49.99999999999999
    vertex 542.3207879988355 289.881982371464 43.54841993207683
    vertex 541.996800214742 289.881982371464 43.99064852442325
  endloop
endfacet
facet normal 0.0 -1.0 0.0
  outer loop
    vertex 518.8383239313288 289.881982371464 49.99999999999999
    vertex 541.996800214742 289.881982371464 43.99064852442325
    vertex 541.7983092286722 289.881982371464 44.50166275179802
  endloop
endfacet
facet normal 0.0 -1.0 0.0
  outer loop
    vertex 518.8383239313288 289.881982371464 49.99999999999999
    vertex 541.7983092286722 289.881982371464 44.50166275179802
    vertex 541.7388418733048 289.881982371464 45.04663783909653
  endloop
endfacet
facet normal 0.0 -1.0 0.0
  outer loop
    vertex 518.8383239313288 289.881982371464 49.99999999999999
    vertex 541.7388418733048 289.881982371464 45.04663783909653
    vertex 541.8224507506335 289.881982371464 45.58843463473327
  endloop
endfacet
facet normal 0.0 -1.0 0.0
  outer loop
    vertex 518.8383239313288 289.881982371464 49.99999999999999
    vertex 541.8224507506335 289.881982371464 45.58843463473327
    vertex 542.0434380538387 289.881982371464 46.09013058244718
  endloop
endfacet
facet normal 0.0 -1.0 0.0
  outer loop
    vertex 518.8383239313288 289.881982371464 49.99999999999999
    vertex 542.0434380538387 289.881982371464 46.09013058244718
    vertex 542.3867438634055 289.881982371464 46.517535932493246
  endloop
endfacet
facet normal 0.0 -1.0 0.0
  outer loop
    vertex 518.8383239313288 289.881982371464 49.99999999999999
    vertex 542.3867438634055 289.881982371464 46.517535932493246
    vertex 542.8289724557519 289.881982371464 46.84152371658663
  endloop
endfacet
facet normal 0.0 -1.0 0.0
  outer loop
    vertex 518.8383239313288 289.881982371464 49.99999999999999
    vertex 542.8289724557519 289.881982371464 46.84152371658663
    vertex 543.3399866831268 289.881982371464 47.040014702656435
  endloop
endfacet
facet normal 0.0 -1.0 0.0
  outer loop
    vertex 518.8383239313288 289.881982371464 49.99999999999999
    vertex 543.3399866831268 289.881982371464 47.040014702656435
    vertex 543.8849617704252 289.881982371464 47.099482058023916
  endloop
endfacet
facet normal 0.0 -1.0 0.0
  outer loop
    vertex 518.8383239313288 289.881982371464 49.99999999999999
    vertex 543.8849617704252 289.881982371464 47.099482058023916
    vertex 570.8383239313288 289.881982371464 49.99999999999999
  endloop
endfacet
facet normal -1.0 0.0 0.0
  outer loop
    vertex 515.8383239313287 296.881982371464 49.99999999999999
    vertex 515.8383239313287 289.881982371464 -5.639932965095795e-15
    vertex 515.8383239313287 289.881982371464 49.99999999999999
  endloop
endfacet
facet normal -1.0 0.0 0.0
  outer loop
    vertex 515.8383239313287 289.881982371464 -5.639932965095795e-15
    vertex 515.8383239313287 296.881982371464 49.99999999999999
    vertex 515.8383239313287 296.881982371464 -5.639932965095795e-15
  endloop
endfacet
endsolid Werkbank fan 02
